<?xml version="1.0" encoding="utf-8"?>
<!-- Generator: Adobe Illustrator 26.0.2, SVG Export Plug-In . SVG Version: 6.00 Build 0)  -->
<svg version="1.1" id="Layer_1" xmlns="http://www.w3.org/2000/svg" xmlns:xlink="http://www.w3.org/1999/xlink" x="0px" y="0px"
	 viewBox="0 0 504 252" style="enable-background:new 0 0 504 252;" xml:space="preserve">
<style type="text/css">
	.st0{fill:none;}
	
		.st1{clip-path:url(#SVGID_00000137851121297905440350000015080542706935011720_);fill:none;stroke:#000000;stroke-linecap:round;stroke-linejoin:round;}
	
		.st2{clip-path:url(#SVGID_00000126325721359689183720000002554841922296522672_);stroke:#000000;stroke-linecap:round;stroke-linejoin:round;}
	
		.st3{clip-path:url(#SVGID_00000061429480566736042420000003170190394247447738_);fill:none;stroke:#000000;stroke-linecap:round;stroke-linejoin:round;}
	
		.st4{clip-path:url(#SVGID_00000164474489128003946880000001665786493516677004_);stroke:#000000;stroke-linecap:round;stroke-linejoin:round;}
	
		.st5{clip-path:url(#SVGID_00000124134672745745902400000005396089366927102082_);fill:none;stroke:#000000;stroke-linecap:round;stroke-linejoin:round;}
	
		.st6{clip-path:url(#SVGID_00000159440816690701667180000012017817333363177907_);stroke:#000000;stroke-linecap:round;stroke-linejoin:round;}
	
		.st7{clip-path:url(#SVGID_00000014617731264400853720000003640048472829554099_);fill:none;stroke:#000000;stroke-linecap:round;stroke-linejoin:round;}
	
		.st8{clip-path:url(#SVGID_00000171001378871431663040000008229728558025929402_);stroke:#000000;stroke-linecap:round;stroke-linejoin:round;}
	
		.st9{clip-path:url(#SVGID_00000131349244307695058230000008128797849270188723_);fill:none;stroke:#000000;stroke-linecap:round;stroke-linejoin:round;}
	
		.st10{clip-path:url(#SVGID_00000018920405922426498240000008076105994841809297_);stroke:#000000;stroke-linecap:round;stroke-linejoin:round;}
	
		.st11{clip-path:url(#SVGID_00000103979296365442823640000008310683282818441371_);fill:none;stroke:#000000;stroke-linecap:round;stroke-linejoin:round;}
	
		.st12{clip-path:url(#SVGID_00000068655439544900312350000012840393277203917952_);stroke:#000000;stroke-linecap:round;stroke-linejoin:round;}
	
		.st13{clip-path:url(#SVGID_00000176730478569014323930000000138005189691526054_);fill:none;stroke:#000000;stroke-linecap:round;stroke-linejoin:round;}
	
		.st14{clip-path:url(#SVGID_00000147189803311205498270000010455957145421171102_);stroke:#000000;stroke-linecap:round;stroke-linejoin:round;}
	
		.st15{clip-path:url(#SVGID_00000041976470152701419160000007588571004140004014_);fill:none;stroke:#000000;stroke-linecap:round;stroke-linejoin:round;}
	
		.st16{clip-path:url(#SVGID_00000047052023966954365130000011863368874254936510_);stroke:#000000;stroke-linecap:round;stroke-linejoin:round;}
	
		.st17{clip-path:url(#SVGID_00000172434739999637548950000002749510851184790161_);fill:none;stroke:#000000;stroke-linecap:round;stroke-linejoin:round;}
	
		.st18{clip-path:url(#SVGID_00000178919159432273320450000001301855041162657684_);stroke:#000000;stroke-linecap:round;stroke-linejoin:round;}
	
		.st19{clip-path:url(#SVGID_00000141456085152380475600000007584249294235266970_);fill:none;stroke:#000000;stroke-linecap:round;stroke-linejoin:round;}
	
		.st20{clip-path:url(#SVGID_00000103976505340856058170000005490918374432700333_);stroke:#000000;stroke-linecap:round;stroke-linejoin:round;}
	
		.st21{clip-path:url(#SVGID_00000006678526197676282990000005154369206495139977_);fill:none;stroke:#000000;stroke-linecap:round;stroke-linejoin:round;}
	
		.st22{clip-path:url(#SVGID_00000023245034131050857200000016018080233505266055_);stroke:#000000;stroke-linecap:round;stroke-linejoin:round;}
	
		.st23{clip-path:url(#SVGID_00000011721174861324305090000003840400330080590994_);fill:none;stroke:#000000;stroke-linecap:round;stroke-linejoin:round;}
	
		.st24{clip-path:url(#SVGID_00000109752436615398217940000017076279402544736686_);stroke:#000000;stroke-linecap:round;stroke-linejoin:round;}
	
		.st25{clip-path:url(#SVGID_00000115483600645391024250000015149771760947438468_);fill:none;stroke:#000000;stroke-linecap:round;stroke-linejoin:round;}
	
		.st26{clip-path:url(#SVGID_00000115477994527814898610000014252453108528649895_);stroke:#000000;stroke-linecap:round;stroke-linejoin:round;}
	
		.st27{clip-path:url(#SVGID_00000085972844181071990750000000195078594471330188_);fill:none;stroke:#000000;stroke-linecap:round;stroke-linejoin:round;}
	
		.st28{clip-path:url(#SVGID_00000039841175943284234960000000622369616897081988_);stroke:#000000;stroke-linecap:round;stroke-linejoin:round;}
	
		.st29{clip-path:url(#SVGID_00000063625650636597638810000011846363599301381781_);fill:none;stroke:#000000;stroke-linecap:round;stroke-linejoin:round;}
	
		.st30{clip-path:url(#SVGID_00000030472059457233523850000016885105653659510439_);stroke:#000000;stroke-linecap:round;stroke-linejoin:round;}
	
		.st31{clip-path:url(#SVGID_00000140709116150523006370000002368241659759003272_);fill:none;stroke:#000000;stroke-linecap:round;stroke-linejoin:round;}
	
		.st32{clip-path:url(#SVGID_00000114760909579134520040000015134034464935965575_);stroke:#000000;stroke-linecap:round;stroke-linejoin:round;}
	
		.st33{clip-path:url(#SVGID_00000026164092564765972750000007957171141673142912_);fill:none;stroke:#000000;stroke-linecap:round;stroke-linejoin:round;}
	
		.st34{clip-path:url(#SVGID_00000062914282125971197540000005439876472518982017_);stroke:#000000;stroke-linecap:round;stroke-linejoin:round;}
	.st35{clip-path:url(#SVGID_00000016075402531437667120000010366678438827893145_);}
	.st36{fill:#FDE725;stroke:#FDE725;stroke-linejoin:round;}
	.st37{clip-path:url(#SVGID_00000173156620139843913470000010640099461038100391_);}
	.st38{fill:#E7E419;stroke:#E7E419;stroke-linejoin:round;}
	.st39{clip-path:url(#SVGID_00000113353837103345849610000008801809445262384558_);}
	.st40{fill:#375A8C;stroke:#375A8C;stroke-linejoin:round;}
	.st41{clip-path:url(#SVGID_00000100344183988465054670000012123165652731931554_);}
	.st42{fill:#3E4A89;stroke:#3E4A89;stroke-linejoin:round;}
	.st43{clip-path:url(#SVGID_00000106867042146000516200000012042712941557197485_);}
	.st44{fill:#20928C;stroke:#20928C;stroke-linejoin:round;}
	.st45{clip-path:url(#SVGID_00000091017388503890506190000001890663132226099613_);}
	.st46{clip-path:url(#SVGID_00000079453040316582180270000016832556533283989947_);}
	.st47{fill:#440154;stroke:#440154;stroke-linejoin:round;}
	.st48{clip-path:url(#SVGID_00000142892873811617773150000005074684628141425830_);}
	.st49{clip-path:url(#SVGID_00000165928495839992868890000000643360291765003943_);}
	.st50{clip-path:url(#SVGID_00000178903009164120052320000015054791724497239442_);}
	.st51{clip-path:url(#SVGID_00000047755746590590190120000003422939983786841773_);}
</style>
<g id="patch_1">
	<path class="st0" d="M0,252h504V0H0V252z"/>
</g>
<g id="matplotlib.axis_1">
</g>
<g id="axes_1">
	<g id="patch_2">
		<g>
			<g>
				<g>
					<g>
						<defs>
							<rect id="SVGID_1_" x="59.1" y="25.9" width="385.9" height="215.3"/>
						</defs>
						<clipPath id="SVGID_00000064332393540232846130000014457307152299700112_">
							<use xlink:href="#SVGID_1_"  style="overflow:visible;"/>
						</clipPath>
						
							<path style="clip-path:url(#SVGID_00000064332393540232846130000014457307152299700112_);fill:none;stroke:#000000;stroke-linecap:round;stroke-linejoin:round;" d="
							M237.8,70.3c55-8.1,109.7-16.2,164-24.3"/>
					</g>
				</g>
			</g>
		</g>
		<g>
			<g>
				<g>
					<g>
						<defs>
							<rect id="SVGID_00000160885772076584889510000001861643064838733992_" x="59.1" y="25.9" width="385.9" height="215.3"/>
						</defs>
						<clipPath id="SVGID_00000070114083579354851080000007618774490545795496_">
							<use xlink:href="#SVGID_00000160885772076584889510000001861643064838733992_"  style="overflow:visible;"/>
						</clipPath>
						
							<path style="clip-path:url(#SVGID_00000070114083579354851080000007618774490545795496_);stroke:#000000;stroke-linecap:round;stroke-linejoin:round;" d="
							M397.5,44.6l4.2,1.4l-3.7,2.6L397.5,44.6z"/>
					</g>
				</g>
			</g>
		</g>
	</g>
	<g id="patch_3">
		<g>
			<g>
				<g>
					<g>
						<defs>
							<rect id="SVGID_00000029727306833167454930000017469862908463650961_" x="59.1" y="25.9" width="385.9" height="215.3"/>
						</defs>
						<clipPath id="SVGID_00000088826774673835763120000006166703324060040092_">
							<use xlink:href="#SVGID_00000029727306833167454930000017469862908463650961_"  style="overflow:visible;"/>
						</clipPath>
						
							<path style="clip-path:url(#SVGID_00000088826774673835763120000006166703324060040092_);fill:none;stroke:#000000;stroke-linecap:round;stroke-linejoin:round;" d="
							M403,45.9C348,54,293.3,62.1,239,70.2"/>
					</g>
				</g>
			</g>
		</g>
		<g>
			<g>
				<g>
					<g>
						<defs>
							<rect id="SVGID_00000156572268372098808430000001166955862532630663_" x="59.1" y="25.9" width="385.9" height="215.3"/>
						</defs>
						<clipPath id="SVGID_00000028295418596024992520000008095026190660069518_">
							<use xlink:href="#SVGID_00000156572268372098808430000001166955862532630663_"  style="overflow:visible;"/>
						</clipPath>
						
							<path style="clip-path:url(#SVGID_00000028295418596024992520000008095026190660069518_);stroke:#000000;stroke-linecap:round;stroke-linejoin:round;" d="
							M243.2,71.5l-4.2-1.4l3.7-2.6L243.2,71.5z"/>
					</g>
				</g>
			</g>
		</g>
	</g>
	<g id="patch_4">
		<g>
			<g>
				<g>
					<g>
						<defs>
							<rect id="SVGID_00000103249697505714546840000008356688259254355608_" x="59.1" y="25.9" width="385.9" height="215.3"/>
						</defs>
						<clipPath id="SVGID_00000148661457662581424680000007386638204023293080_">
							<use xlink:href="#SVGID_00000103249697505714546840000008356688259254355608_"  style="overflow:visible;"/>
						</clipPath>
						
							<path style="clip-path:url(#SVGID_00000148661457662581424680000007386638204023293080_);fill:none;stroke:#000000;stroke-linecap:round;stroke-linejoin:round;" d="
							M113.3,130.5c-6.2-25.8-12.4-51.3-18.5-76.4"/>
					</g>
				</g>
			</g>
		</g>
		<g>
			<g>
				<g>
					<g>
						<defs>
							<rect id="SVGID_00000113352724500105791260000012613120439450283410_" x="59.1" y="25.9" width="385.9" height="215.3"/>
						</defs>
						<clipPath id="SVGID_00000176754115367514541490000000823541887829276061_">
							<use xlink:href="#SVGID_00000113352724500105791260000012613120439450283410_"  style="overflow:visible;"/>
						</clipPath>
						
							<path style="clip-path:url(#SVGID_00000176754115367514541490000000823541887829276061_);stroke:#000000;stroke-linecap:round;stroke-linejoin:round;" d="
							M93.9,58.5l1-4.4l2.9,3.4L93.9,58.5z"/>
					</g>
				</g>
			</g>
		</g>
	</g>
	<g id="patch_5">
		<g>
			<g>
				<g>
					<g>
						<defs>
							<rect id="SVGID_00000056422417766563227630000004696966746919720583_" x="59.1" y="25.9" width="385.9" height="215.3"/>
						</defs>
						<clipPath id="SVGID_00000157276193518714875600000010783341170749362316_">
							<use xlink:href="#SVGID_00000056422417766563227630000004696966746919720583_"  style="overflow:visible;"/>
						</clipPath>
						
							<path style="clip-path:url(#SVGID_00000157276193518714875600000010783341170749362316_);fill:none;stroke:#000000;stroke-linecap:round;stroke-linejoin:round;" d="
							M122.8,134.5c33-19.5,65.7-38.9,98-58"/>
					</g>
				</g>
			</g>
		</g>
		<g>
			<g>
				<g>
					<g>
						<defs>
							<rect id="SVGID_00000029748015199988737060000011642295749714262168_" x="59.1" y="25.9" width="385.9" height="215.3"/>
						</defs>
						<clipPath id="SVGID_00000023960673345573673440000012010257877062978230_">
							<use xlink:href="#SVGID_00000029748015199988737060000011642295749714262168_"  style="overflow:visible;"/>
						</clipPath>
						
							<path style="clip-path:url(#SVGID_00000023960673345573673440000012010257877062978230_);stroke:#000000;stroke-linecap:round;stroke-linejoin:round;" d="
							M216.4,76.9l4.5-0.3l-2.4,3.8L216.4,76.9z"/>
					</g>
				</g>
			</g>
		</g>
	</g>
	<g id="patch_6">
		<g>
			<g>
				<g>
					<g>
						<defs>
							<rect id="SVGID_00000008839950017246034100000004901404188102188460_" x="59.1" y="25.9" width="385.9" height="215.3"/>
						</defs>
						<clipPath id="SVGID_00000029027851192594326000000004549103800642096039_">
							<use xlink:href="#SVGID_00000008839950017246034100000004901404188102188460_"  style="overflow:visible;"/>
						</clipPath>
						
							<path style="clip-path:url(#SVGID_00000029027851192594326000000004549103800642096039_);fill:none;stroke:#000000;stroke-linecap:round;stroke-linejoin:round;" d="
							M270.6,144.9c-12.4-21.9-24.5-43.5-36.5-64.8"/>
					</g>
				</g>
			</g>
		</g>
		<g>
			<g>
				<g>
					<g>
						<defs>
							<rect id="SVGID_00000082345269438995344930000001227897153294648737_" x="59.1" y="25.9" width="385.9" height="215.3"/>
						</defs>
						<clipPath id="SVGID_00000078014696164708249250000010970279488358882217_">
							<use xlink:href="#SVGID_00000082345269438995344930000001227897153294648737_"  style="overflow:visible;"/>
						</clipPath>
						
							<path style="clip-path:url(#SVGID_00000078014696164708249250000010970279488358882217_);stroke:#000000;stroke-linecap:round;stroke-linejoin:round;" d="
							M234.3,84.5l-0.2-4.5l3.7,2.5L234.3,84.5z"/>
					</g>
				</g>
			</g>
		</g>
	</g>
	<g id="patch_7">
		<g>
			<g>
				<g>
					<g>
						<defs>
							<rect id="SVGID_00000162332232127891724030000013826313125813795226_" x="59.1" y="25.9" width="385.9" height="215.3"/>
						</defs>
						<clipPath id="SVGID_00000105396486886943057230000008711187955595744936_">
							<use xlink:href="#SVGID_00000162332232127891724030000013826313125813795226_"  style="overflow:visible;"/>
						</clipPath>
						
							<path style="clip-path:url(#SVGID_00000105396486886943057230000008711187955595744936_);fill:none;stroke:#000000;stroke-linecap:round;stroke-linejoin:round;" d="
							M266.1,151.7c-47.4-4-94.4-8-141.1-11.9"/>
					</g>
				</g>
			</g>
		</g>
		<g>
			<g>
				<g>
					<g>
						<defs>
							<rect id="SVGID_00000108281133801025771460000012136783436561588126_" x="59.1" y="25.9" width="385.9" height="215.3"/>
						</defs>
						<clipPath id="SVGID_00000134938319494793222600000004871499142871840426_">
							<use xlink:href="#SVGID_00000108281133801025771460000012136783436561588126_"  style="overflow:visible;"/>
						</clipPath>
						
							<path style="clip-path:url(#SVGID_00000134938319494793222600000004871499142871840426_);stroke:#000000;stroke-linecap:round;stroke-linejoin:round;" d="
							M128.9,142.1l-3.8-2.3l4.2-1.7L128.9,142.1z"/>
					</g>
				</g>
			</g>
		</g>
	</g>
	<g id="patch_8">
		<g>
			<g>
				<g>
					<g>
						<defs>
							<rect id="SVGID_00000021831849088918060430000005254360753129435798_" x="59.1" y="25.9" width="385.9" height="215.3"/>
						</defs>
						<clipPath id="SVGID_00000159461348702117337430000009990444887528362145_">
							<use xlink:href="#SVGID_00000021831849088918060430000005254360753129435798_"  style="overflow:visible;"/>
						</clipPath>
						
							<path style="clip-path:url(#SVGID_00000159461348702117337430000009990444887528362145_);fill:none;stroke:#000000;stroke-linecap:round;stroke-linejoin:round;" d="
							M283.5,152.4c39.8,0,79.2,0,118.2,0"/>
					</g>
				</g>
			</g>
		</g>
		<g>
			<g>
				<g>
					<g>
						<defs>
							<rect id="SVGID_00000091735718752421532560000002448602750049162400_" x="59.1" y="25.9" width="385.9" height="215.3"/>
						</defs>
						<clipPath id="SVGID_00000080164523313121310700000011614843800027720576_">
							<use xlink:href="#SVGID_00000091735718752421532560000002448602750049162400_"  style="overflow:visible;"/>
						</clipPath>
						
							<path style="clip-path:url(#SVGID_00000080164523313121310700000011614843800027720576_);stroke:#000000;stroke-linecap:round;stroke-linejoin:round;" d="
							M397.8,150.4l4,2l-4,2V150.4z"/>
					</g>
				</g>
			</g>
		</g>
	</g>
	<g id="patch_9">
		<g>
			<g>
				<g>
					<g>
						<defs>
							<rect id="SVGID_00000147207068070130975830000007332260396489268366_" x="59.1" y="25.9" width="385.9" height="215.3"/>
						</defs>
						<clipPath id="SVGID_00000159464941003808627740000006044865666374229919_">
							<use xlink:href="#SVGID_00000147207068070130975830000007332260396489268366_"  style="overflow:visible;"/>
						</clipPath>
						
							<path style="clip-path:url(#SVGID_00000159464941003808627740000006044865666374229919_);fill:none;stroke:#000000;stroke-linecap:round;stroke-linejoin:round;" d="
							M403.5,148.9C348,124.3,292.9,99.8,238.2,75.5"/>
					</g>
				</g>
			</g>
		</g>
		<g>
			<g>
				<g>
					<g>
						<defs>
							<rect id="SVGID_00000137818904804198820250000003691860530648748174_" x="59.1" y="25.9" width="385.9" height="215.3"/>
						</defs>
						<clipPath id="SVGID_00000037666238617218034060000003935669602950056621_">
							<use xlink:href="#SVGID_00000137818904804198820250000003691860530648748174_"  style="overflow:visible;"/>
						</clipPath>
						
							<path style="clip-path:url(#SVGID_00000037666238617218034060000003935669602950056621_);stroke:#000000;stroke-linecap:round;stroke-linejoin:round;" d="
							M241.1,79l-2.8-3.5l4.5-0.2L241.1,79z"/>
					</g>
				</g>
			</g>
		</g>
	</g>
	<g id="patch_10">
		<g>
			<g>
				<g>
					<g>
						<defs>
							<rect id="SVGID_00000102546327275207856200000009395951362868623033_" x="59.1" y="25.9" width="385.9" height="215.3"/>
						</defs>
						<clipPath id="SVGID_00000176022847483977364050000006180535966905721729_">
							<use xlink:href="#SVGID_00000102546327275207856200000009395951362868623033_"  style="overflow:visible;"/>
						</clipPath>
						
							<path style="clip-path:url(#SVGID_00000176022847483977364050000006180535966905721729_);fill:none;stroke:#000000;stroke-linecap:round;stroke-linejoin:round;" d="
							M402.9,152.4c-39.8,0-79.2,0-118.2,0"/>
					</g>
				</g>
			</g>
		</g>
		<g>
			<g>
				<g>
					<g>
						<defs>
							<rect id="SVGID_00000023251645885846056390000009108632900358857892_" x="59.1" y="25.9" width="385.9" height="215.3"/>
						</defs>
						<clipPath id="SVGID_00000044884337140193451860000001364946708744438960_">
							<use xlink:href="#SVGID_00000023251645885846056390000009108632900358857892_"  style="overflow:visible;"/>
						</clipPath>
						
							<path style="clip-path:url(#SVGID_00000044884337140193451860000001364946708744438960_);stroke:#000000;stroke-linecap:round;stroke-linejoin:round;" d="
							M288.6,154.4l-4-2l4-2V154.4z"/>
					</g>
				</g>
			</g>
		</g>
	</g>
	<g id="patch_11">
		<g>
			<g>
				<g>
					<g>
						<defs>
							<rect id="SVGID_00000049905617364047266250000014413687594309235342_" x="59.1" y="25.9" width="385.9" height="215.3"/>
						</defs>
						<clipPath id="SVGID_00000051347936222186059100000015821984416234534321_">
							<use xlink:href="#SVGID_00000049905617364047266250000014413687594309235342_"  style="overflow:visible;"/>
						</clipPath>
						
							<path style="clip-path:url(#SVGID_00000051347936222186059100000015821984416234534321_);fill:none;stroke:#000000;stroke-linecap:round;stroke-linejoin:round;" d="
							M151.8,198.9c24.3-40,48.5-79.7,72.4-119"/>
					</g>
				</g>
			</g>
		</g>
		<g>
			<g>
				<g>
					<g>
						<defs>
							<rect id="SVGID_00000081623075673507806030000017397466738044524185_" x="59.1" y="25.9" width="385.9" height="215.3"/>
						</defs>
						<clipPath id="SVGID_00000125585661143030420250000008697341535565715340_">
							<use xlink:href="#SVGID_00000081623075673507806030000017397466738044524185_"  style="overflow:visible;"/>
						</clipPath>
						
							<path style="clip-path:url(#SVGID_00000125585661143030420250000008697341535565715340_);stroke:#000000;stroke-linecap:round;stroke-linejoin:round;" d="
							M220.4,82.3l3.8-2.4l-0.4,4.5L220.4,82.3z"/>
					</g>
				</g>
			</g>
		</g>
	</g>
	<g id="patch_12">
		<g>
			<g>
				<g>
					<g>
						<defs>
							<rect id="SVGID_00000082331892866956713800000001456516229164291227_" x="59.1" y="25.9" width="385.9" height="215.3"/>
						</defs>
						<clipPath id="SVGID_00000157265939703247382570000004640183194398595237_">
							<use xlink:href="#SVGID_00000082331892866956713800000001456516229164291227_"  style="overflow:visible;"/>
						</clipPath>
						
							<path style="clip-path:url(#SVGID_00000157265939703247382570000004640183194398595237_);fill:none;stroke:#000000;stroke-linecap:round;stroke-linejoin:round;" d="
							M155.2,203c37.2-15.7,74.1-31.3,110.6-46.7"/>
					</g>
				</g>
			</g>
		</g>
		<g>
			<g>
				<g>
					<g>
						<defs>
							<rect id="SVGID_00000140015043023048420330000013190302984815572103_" x="59.1" y="25.9" width="385.9" height="215.3"/>
						</defs>
						<clipPath id="SVGID_00000054268276201994917370000017611476867015147932_">
							<use xlink:href="#SVGID_00000140015043023048420330000013190302984815572103_"  style="overflow:visible;"/>
						</clipPath>
						
							<path style="clip-path:url(#SVGID_00000054268276201994917370000017611476867015147932_);stroke:#000000;stroke-linecap:round;stroke-linejoin:round;" d="
							M261.4,155.9l4.5,0.3l-2.9,3.4L261.4,155.9z"/>
					</g>
				</g>
			</g>
		</g>
	</g>
	<g id="patch_13">
		<g>
			<g>
				<g>
					<g>
						<defs>
							<rect id="SVGID_00000068662477897002491580000016686763355440296614_" x="59.1" y="25.9" width="385.9" height="215.3"/>
						</defs>
						<clipPath id="SVGID_00000147222339436504185550000004619680616458103718_">
							<use xlink:href="#SVGID_00000068662477897002491580000016686763355440296614_"  style="overflow:visible;"/>
						</clipPath>
						
							<path style="clip-path:url(#SVGID_00000147222339436504185550000004619680616458103718_);fill:none;stroke:#000000;stroke-linecap:round;stroke-linejoin:round;" d="
							M186.3,206.2c13.4-42.1,26.8-83.9,40-125.3"/>
					</g>
				</g>
			</g>
		</g>
		<g>
			<g>
				<g>
					<g>
						<defs>
							<rect id="SVGID_00000066516390898584681960000007363192932214680221_" x="59.1" y="25.9" width="385.9" height="215.3"/>
						</defs>
						<clipPath id="SVGID_00000134929775416114450120000003412731593541286073_">
							<use xlink:href="#SVGID_00000066516390898584681960000007363192932214680221_"  style="overflow:visible;"/>
						</clipPath>
						
							<path style="clip-path:url(#SVGID_00000134929775416114450120000003412731593541286073_);stroke:#000000;stroke-linecap:round;stroke-linejoin:round;" d="
							M223.2,84.1l3.1-3.2l0.7,4.4L223.2,84.1z"/>
					</g>
				</g>
			</g>
		</g>
	</g>
	<g id="patch_14">
		<g>
			<g>
				<g>
					<g>
						<defs>
							<rect id="SVGID_00000000219930481380348230000006074847453914180771_" x="59.1" y="25.9" width="385.9" height="215.3"/>
						</defs>
						<clipPath id="SVGID_00000149356479331854211700000006469607719518824631_">
							<use xlink:href="#SVGID_00000000219930481380348230000006074847453914180771_"  style="overflow:visible;"/>
						</clipPath>
						
							<path style="clip-path:url(#SVGID_00000149356479331854211700000006469607719518824631_);fill:none;stroke:#000000;stroke-linecap:round;stroke-linejoin:round;" d="
							M190.9,209.6c25.6-17.4,50.9-34.6,75.9-51.6"/>
					</g>
				</g>
			</g>
		</g>
		<g>
			<g>
				<g>
					<g>
						<defs>
							<rect id="SVGID_00000022545119362940837320000008070144217988720793_" x="59.1" y="25.9" width="385.9" height="215.3"/>
						</defs>
						<clipPath id="SVGID_00000020389956062643895080000007595390691474117772_">
							<use xlink:href="#SVGID_00000022545119362940837320000008070144217988720793_"  style="overflow:visible;"/>
						</clipPath>
						
							<path style="clip-path:url(#SVGID_00000020389956062643895080000007595390691474117772_);stroke:#000000;stroke-linecap:round;stroke-linejoin:round;" d="
							M262.2,158.5l4.4-0.6l-2.2,3.9L262.2,158.5z"/>
					</g>
				</g>
			</g>
		</g>
	</g>
	<g id="patch_15">
		<g>
			<g>
				<g>
					<g>
						<defs>
							<rect id="SVGID_00000051346681624665160790000006984389319549229503_" x="59.1" y="25.9" width="385.9" height="215.3"/>
						</defs>
						<clipPath id="SVGID_00000035531763853613251400000018075180213595610787_">
							<use xlink:href="#SVGID_00000051346681624665160790000006984389319549229503_"  style="overflow:visible;"/>
						</clipPath>
						
							<path style="clip-path:url(#SVGID_00000035531763853613251400000018075180213595610787_);fill:none;stroke:#000000;stroke-linecap:round;stroke-linejoin:round;" d="
							M220.7,213.9c2.7-44.6,5.4-88.7,8-132.6"/>
					</g>
				</g>
			</g>
		</g>
		<g>
			<g>
				<g>
					<g>
						<defs>
							<rect id="SVGID_00000005970400476222879770000005831844100237795239_" x="59.1" y="25.9" width="385.9" height="215.3"/>
						</defs>
						<clipPath id="SVGID_00000155857168273887216180000014512655223268454794_">
							<use xlink:href="#SVGID_00000005970400476222879770000005831844100237795239_"  style="overflow:visible;"/>
						</clipPath>
						
							<path style="clip-path:url(#SVGID_00000155857168273887216180000014512655223268454794_);stroke:#000000;stroke-linecap:round;stroke-linejoin:round;" d="
							M226.5,85.2l2.2-3.9l1.8,4.1L226.5,85.2z"/>
					</g>
				</g>
			</g>
		</g>
	</g>
	<g id="patch_16">
		<g>
			<g>
				<g>
					<g>
						<defs>
							<rect id="SVGID_00000058550715402811984750000008737028419934412972_" x="59.1" y="25.9" width="385.9" height="215.3"/>
						</defs>
						<clipPath id="SVGID_00000060720515349116238210000001018113802415679626_">
							<use xlink:href="#SVGID_00000058550715402811984750000008737028419934412972_"  style="overflow:visible;"/>
						</clipPath>
						
							<path style="clip-path:url(#SVGID_00000060720515349116238210000001018113802415679626_);fill:none;stroke:#000000;stroke-linecap:round;stroke-linejoin:round;" d="
							M225.5,215.7c14.7-18.8,29.1-37.3,43.3-55.5"/>
					</g>
				</g>
			</g>
		</g>
		<g>
			<g>
				<g>
					<g>
						<defs>
							<rect id="SVGID_00000168818535496225327980000006816900417878907009_" x="59.1" y="25.9" width="385.9" height="215.3"/>
						</defs>
						<clipPath id="SVGID_00000049939264545826813040000002354450309204008345_">
							<use xlink:href="#SVGID_00000168818535496225327980000006816900417878907009_"  style="overflow:visible;"/>
						</clipPath>
						
							<path style="clip-path:url(#SVGID_00000049939264545826813040000002354450309204008345_);stroke:#000000;stroke-linecap:round;stroke-linejoin:round;" d="
							M264.8,162.1l4-1.9l-0.9,4.4L264.8,162.1z"/>
					</g>
				</g>
			</g>
		</g>
	</g>
	<g id="patch_17">
		<g>
			<g>
				<g>
					<g>
						<defs>
							<rect id="SVGID_00000130642847013182161970000004574981639727609228_" x="59.1" y="25.9" width="385.9" height="215.3"/>
						</defs>
						<clipPath id="SVGID_00000072974843325893204400000001791329769455693443_">
							<use xlink:href="#SVGID_00000130642847013182161970000004574981639727609228_"  style="overflow:visible;"/>
						</clipPath>
						
							<path style="clip-path:url(#SVGID_00000072974843325893204400000001791329769455693443_);fill:none;stroke:#000000;stroke-linecap:round;stroke-linejoin:round;" d="
							M358.5,201.9c-25.4-15-50.5-29.9-75.3-44.5"/>
					</g>
				</g>
			</g>
		</g>
		<g>
			<g>
				<g>
					<g>
						<defs>
							<rect id="SVGID_00000026850926097830018130000000214139164916125576_" x="59.1" y="25.9" width="385.9" height="215.3"/>
						</defs>
						<clipPath id="SVGID_00000130618386615877072680000001048198697864099988_">
							<use xlink:href="#SVGID_00000026850926097830018130000000214139164916125576_"  style="overflow:visible;"/>
						</clipPath>
						
							<path style="clip-path:url(#SVGID_00000130618386615877072680000001048198697864099988_);stroke:#000000;stroke-linecap:round;stroke-linejoin:round;" d="
							M285.6,161.2l-2.4-3.8l4.5,0.3L285.6,161.2z"/>
					</g>
				</g>
			</g>
		</g>
	</g>
	<g id="patch_18">
		<g>
			<g>
				<g>
					<g>
						<defs>
							<rect id="SVGID_00000050627779613364708590000005389800516689367947_" x="59.1" y="25.9" width="385.9" height="215.3"/>
						</defs>
						<clipPath id="SVGID_00000132057332276087813690000013809222922445393339_">
							<use xlink:href="#SVGID_00000050627779613364708590000005389800516689367947_"  style="overflow:visible;"/>
						</clipPath>
						
							<path style="clip-path:url(#SVGID_00000132057332276087813690000013809222922445393339_);fill:none;stroke:#000000;stroke-linecap:round;stroke-linejoin:round;" d="
							M380.5,190c-32.5-11.5-64.7-23-96.5-34.3"/>
					</g>
				</g>
			</g>
		</g>
		<g>
			<g>
				<g>
					<g>
						<defs>
							<rect id="SVGID_00000165928807219619154300000000317920944958035636_" x="59.1" y="25.9" width="385.9" height="215.3"/>
						</defs>
						<clipPath id="SVGID_00000052804900558840900240000018226643599188502691_">
							<use xlink:href="#SVGID_00000165928807219619154300000000317920944958035636_"  style="overflow:visible;"/>
						</clipPath>
						
							<path style="clip-path:url(#SVGID_00000052804900558840900240000018226643599188502691_);stroke:#000000;stroke-linecap:round;stroke-linejoin:round;" d="
							M287.1,158.9l-3.1-3.2l4.4-0.5L287.1,158.9z"/>
					</g>
				</g>
			</g>
		</g>
	</g>
	<g id="PathCollection_1">
		<g>
			<g>
				<g>
					<g>
						<defs>
							<rect id="SVGID_00000125576647727601452860000010445844471901122725_" x="59.1" y="25.9" width="385.9" height="215.3"/>
						</defs>
						<clipPath id="SVGID_00000040546763346326628310000010653990731004126640_">
							<use xlink:href="#SVGID_00000125576647727601452860000010445844471901122725_"  style="overflow:visible;"/>
						</clipPath>
						<g style="clip-path:url(#SVGID_00000040546763346326628310000010653990731004126640_);">
							<g>
								<path id="C0_0_cccfeb5ca0" class="st36" d="M229.3,79.5c2.1,0,4.1-0.8,5.6-2.3s2.3-3.5,2.3-5.6s-0.8-4.1-2.3-5.6
									s-3.5-2.3-5.6-2.3s-4.1,0.8-5.6,2.3s-2.3,3.5-2.3,5.6s0.8,4.1,2.3,5.6S227.2,79.5,229.3,79.5z"/>
							</g>
						</g>
					</g>
				</g>
			</g>
		</g>
		<g>
			<g>
				<g>
					<g>
						<defs>
							<rect id="SVGID_00000083776399475240227630000008997679929552315550_" x="59.1" y="25.9" width="385.9" height="215.3"/>
						</defs>
						<clipPath id="SVGID_00000150817010153206527570000015573809125121855404_">
							<use xlink:href="#SVGID_00000083776399475240227630000008997679929552315550_"  style="overflow:visible;"/>
						</clipPath>
						<g style="clip-path:url(#SVGID_00000150817010153206527570000015573809125121855404_);">
							<g>
								<path id="C0_0_cccfeb5ca0_00000095313056925306554870000014241604325297327526_" class="st38" d="M411.5,52.5
									c2.1,0,4.1-0.8,5.6-2.3s2.3-3.5,2.3-5.6s-0.8-4.1-2.3-5.6s-3.5-2.3-5.6-2.3s-4.1,0.8-5.6,2.3s-2.3,3.5-2.3,5.6
									s0.8,4.1,2.3,5.6S409.4,52.5,411.5,52.5z"/>
							</g>
						</g>
					</g>
				</g>
			</g>
		</g>
		<g>
			<g>
				<g>
					<g>
						<defs>
							<rect id="SVGID_00000038376368671975477130000016948815537367275686_" x="59.1" y="25.9" width="385.9" height="215.3"/>
						</defs>
						<clipPath id="SVGID_00000053541465527315930040000005410533520814096517_">
							<use xlink:href="#SVGID_00000038376368671975477130000016948815537367275686_"  style="overflow:visible;"/>
						</clipPath>
						<g style="clip-path:url(#SVGID_00000053541465527315930040000005410533520814096517_);">
							<g>
								<path id="C0_0_cccfeb5ca0_00000111174369700465454760000003375330555860316605_" class="st40" d="M115.4,146.9
									c2.1,0,4.1-0.8,5.6-2.3s2.3-3.6,2.3-5.6s-0.8-4.1-2.3-5.6s-3.5-2.3-5.6-2.3s-4.1,0.8-5.6,2.3s-2.3,3.5-2.3,5.6
									s0.8,4.1,2.3,5.6C111.3,146,113.3,146.9,115.4,146.9z"/>
							</g>
						</g>
					</g>
				</g>
			</g>
		</g>
		<g>
			<g>
				<g>
					<g>
						<defs>
							<rect id="SVGID_00000028299048404337971620000008247673777692554914_" x="59.1" y="25.9" width="385.9" height="215.3"/>
						</defs>
						<clipPath id="SVGID_00000039824157899713911490000007608301191348499343_">
							<use xlink:href="#SVGID_00000028299048404337971620000008247673777692554914_"  style="overflow:visible;"/>
						</clipPath>
						<g style="clip-path:url(#SVGID_00000039824157899713911490000007608301191348499343_);">
							<g>
								<path id="C0_0_cccfeb5ca0_00000174576979888389531810000002382725790628679592_" class="st42" d="M92.6,52.5
									c2.1,0,4.1-0.8,5.6-2.3s2.3-3.5,2.3-5.6s-0.8-4.1-2.3-5.6s-3.5-2.3-5.6-2.3S88.5,37.5,87,39s-2.3,3.5-2.3,5.6
									s0.8,4.1,2.3,5.6S90.5,52.5,92.6,52.5z"/>
							</g>
						</g>
					</g>
				</g>
			</g>
		</g>
		<g>
			<g>
				<g>
					<g>
						<defs>
							<rect id="SVGID_00000001633055678217401940000009213097717152978104_" x="59.1" y="25.9" width="385.9" height="215.3"/>
						</defs>
						<clipPath id="SVGID_00000174602642221266105020000014451605862780644537_">
							<use xlink:href="#SVGID_00000001633055678217401940000009213097717152978104_"  style="overflow:visible;"/>
						</clipPath>
						<g style="clip-path:url(#SVGID_00000174602642221266105020000014451605862780644537_);">
							<g>
								<path id="C0_0_cccfeb5ca0_00000039815881088388290620000008997314310868420017_" class="st44" d="M274.8,160.3
									c2.1,0,4.1-0.8,5.6-2.3s2.3-3.5,2.3-5.6s-0.8-4.1-2.3-5.6s-3.5-2.3-5.6-2.3s-4.1,0.8-5.6,2.3s-2.3,3.5-2.3,5.6
									s0.8,4.1,2.3,5.6S272.6,160.3,274.8,160.3z"/>
							</g>
						</g>
					</g>
				</g>
			</g>
		</g>
		<g>
			<g>
				<g>
					<g>
						<defs>
							<rect id="SVGID_00000094580942347321139080000007937341963664876419_" x="59.1" y="25.9" width="385.9" height="215.3"/>
						</defs>
						<clipPath id="SVGID_00000109746702926641004100000013905073030427462790_">
							<use xlink:href="#SVGID_00000094580942347321139080000007937341963664876419_"  style="overflow:visible;"/>
						</clipPath>
						<g style="clip-path:url(#SVGID_00000109746702926641004100000013905073030427462790_);">
							<g>
								<path id="C0_0_cccfeb5ca0_00000129919729280193067810000001820344947921836453_" class="st40" d="M411.5,160.3
									c2.1,0,4.1-0.8,5.6-2.3s2.3-3.5,2.3-5.6s-0.8-4.1-2.3-5.6s-3.5-2.3-5.6-2.3s-4.1,0.8-5.6,2.3s-2.3,3.5-2.3,5.6
									s0.8,4.1,2.3,5.6S409.4,160.3,411.5,160.3z"/>
							</g>
						</g>
					</g>
				</g>
			</g>
		</g>
		<g>
			<g>
				<g>
					<g>
						<defs>
							<rect id="SVGID_00000171708521581862096380000016328130142590424476_" x="59.1" y="25.9" width="385.9" height="215.3"/>
						</defs>
						<clipPath id="SVGID_00000175310961069265298580000008329661479151048338_">
							<use xlink:href="#SVGID_00000171708521581862096380000016328130142590424476_"  style="overflow:visible;"/>
						</clipPath>
						<g style="clip-path:url(#SVGID_00000175310961069265298580000008329661479151048338_);">
							<g>
								<path id="C0_0_cccfeb5ca0_00000090253144840788536110000014817603024085450894_" class="st47" d="M147.3,214.2
									c2.1,0,4.1-0.8,5.6-2.3s2.3-3.5,2.3-5.6s-0.8-4.1-2.3-5.6s-3.5-2.3-5.6-2.3c-2.1,0-4.1,0.8-5.6,2.3s-2.3,3.5-2.3,5.6
									s0.8,4.1,2.3,5.6S145.2,214.2,147.3,214.2z"/>
							</g>
						</g>
					</g>
				</g>
			</g>
		</g>
		<g>
			<g>
				<g>
					<g>
						<defs>
							<rect id="SVGID_00000147905046491832462260000009023871501061195692_" x="59.1" y="25.9" width="385.9" height="215.3"/>
						</defs>
						<clipPath id="SVGID_00000044164688139487067260000006817167351681682612_">
							<use xlink:href="#SVGID_00000147905046491832462260000009023871501061195692_"  style="overflow:visible;"/>
						</clipPath>
						<g style="clip-path:url(#SVGID_00000044164688139487067260000006817167351681682612_);">
							<g>
								<path id="C0_0_cccfeb5ca0_00000132780255597376388410000016186894971834280579_" class="st47" d="M183.7,222.3
									c2.1,0,4.1-0.8,5.6-2.3s2.3-3.5,2.3-5.6s-0.8-4.1-2.3-5.6s-3.5-2.3-5.6-2.3s-4.1,0.8-5.6,2.3s-2.3,3.5-2.3,5.6
									s0.8,4.1,2.3,5.6S181.6,222.3,183.7,222.3z"/>
							</g>
						</g>
					</g>
				</g>
			</g>
		</g>
		<g>
			<g>
				<g>
					<g>
						<defs>
							<rect id="SVGID_00000031193617537801514180000001640358115703660688_" x="59.1" y="25.9" width="385.9" height="215.3"/>
						</defs>
						<clipPath id="SVGID_00000181802066664687705860000006239236007182402468_">
							<use xlink:href="#SVGID_00000031193617537801514180000001640358115703660688_"  style="overflow:visible;"/>
						</clipPath>
						<g style="clip-path:url(#SVGID_00000181802066664687705860000006239236007182402468_);">
							<g>
								<path id="C0_0_cccfeb5ca0_00000024698011248302409530000006616786172342181303_" class="st47" d="M220.2,230.4
									c2.1,0,4.1-0.8,5.6-2.3s2.3-3.5,2.3-5.6s-0.8-4.1-2.3-5.6s-3.5-2.3-5.6-2.3s-4.1,0.8-5.6,2.3s-2.3,3.5-2.3,5.6
									s0.8,4.1,2.3,5.6S218.1,230.4,220.2,230.4z"/>
							</g>
						</g>
					</g>
				</g>
			</g>
		</g>
		<g>
			<g>
				<g>
					<g>
						<defs>
							<rect id="SVGID_00000120522290723429260020000011810156658422241947_" x="59.1" y="25.9" width="385.9" height="215.3"/>
						</defs>
						<clipPath id="SVGID_00000038376890379959759220000009895526133100890028_">
							<use xlink:href="#SVGID_00000120522290723429260020000011810156658422241947_"  style="overflow:visible;"/>
						</clipPath>
						<g style="clip-path:url(#SVGID_00000038376890379959759220000009895526133100890028_);">
							<g>
								<path id="C0_0_cccfeb5ca0_00000132069401148766732420000017523292337288588427_" class="st47" d="M366,214.2
									c2.1,0,4.1-0.8,5.6-2.3s2.3-3.5,2.3-5.6s-0.8-4.1-2.3-5.6s-3.5-2.3-5.6-2.3s-4.1,0.8-5.6,2.3s-2.3,3.5-2.3,5.6
									s0.8,4.1,2.3,5.6S363.9,214.2,366,214.2z"/>
							</g>
						</g>
					</g>
				</g>
			</g>
		</g>
		<g>
			<g>
				<g>
					<g>
						<defs>
							<rect id="SVGID_00000048474408899872224670000007029776874255384206_" x="59.1" y="25.9" width="385.9" height="215.3"/>
						</defs>
						<clipPath id="SVGID_00000072263349902488609270000018060916470800081830_">
							<use xlink:href="#SVGID_00000048474408899872224670000007029776874255384206_"  style="overflow:visible;"/>
						</clipPath>
						<g style="clip-path:url(#SVGID_00000072263349902488609270000018060916470800081830_);">
							<g>
								<path id="C0_0_cccfeb5ca0_00000054944088636482504080000002641512322731291067_" class="st47" d="M388.6,200.8
									c2.1,0,4.1-0.8,5.6-2.3s2.3-3.5,2.3-5.6s-0.8-4.1-2.3-5.6s-3.5-2.3-5.6-2.3s-4.1,0.8-5.6,2.3s-2.3,3.5-2.3,5.6
									s0.8,4.1,2.3,5.6C384.5,199.9,386.6,200.8,388.6,200.8z"/>
							</g>
						</g>
					</g>
				</g>
			</g>
		</g>
	</g>
	<g id="text_1">
		<g transform="translate(147.64875 19.918125)scale(0.12 -0.12)">
			<g>
				<path id="DejaVuSans-68" d="M421.8,64.8V8.1h11.9c10.1,0,17.4,2.3,22.1,6.8c4.7,4.6,7,11.8,7,21.6s-2.3,16.9-7,21.5
					c-4.7,4.6-12,6.8-22.1,6.8H421.8z M411.9,72.9h20.3c14.1,0,24.5-2.9,31.1-8.8c6.6-5.9,9.9-15.1,9.9-27.6
					c0-12.6-3.3-21.8-10-27.7c-6.6-5.9-17-8.8-31-8.8h-20.3V72.9z"/>
			</g>
			<g>
				<path id="DejaVuSans-105" d="M488.5,54.7h9V0h-9V54.7z M488.5,76h9V64.6h-9V76z"/>
			</g>
			<g>
				<path id="DejaVuSans-71" d="M566.4,10.4V30h-16.1v8.1h25.9V6.8c-3.8-2.7-8-4.7-12.6-6.1c-4.6-1.4-9.5-2.1-14.7-2.1
					c-11.4,0-20.3,3.3-26.8,10c-6.4,6.7-9.6,15.9-9.6,27.8s3.2,21.2,9.6,27.9c6.4,6.7,15.4,10,26.8,10c4.8,0,9.3-0.6,13.5-1.8
					c4.3-1.2,8.2-2.9,11.8-5.2V56.8c-3.6,3.1-7.5,5.4-11.6,7c-4.1,1.6-8.4,2.3-12.9,2.3c-8.9,0-15.6-2.5-20.1-7.5
					s-6.7-12.4-6.7-22.3c0-9.8,2.2-17.2,6.7-22.2s11.2-7.5,20.1-7.5c3.5,0,6.6,0.3,9.3,0.9C561.8,8.2,564.2,9.1,566.4,10.4z"/>
			</g>
			<g>
				<path id="DejaVuSans-114" d="M625.5,46.3c-1,0.6-2.1,1-3.3,1.3c-1.2,0.3-2.5,0.4-3.9,0.4c-5.1,0-9-1.7-11.7-5
					c-2.7-3.3-4.1-8-4.1-14.2V0h-9v54.7h9v-8.5c1.9,3.3,4.4,5.8,7.4,7.4c3,1.6,6.7,2.4,11,2.4c0.6,0,1.3,0,2-0.1
					c0.8-0.1,1.6-0.2,2.5-0.4L625.5,46.3z"/>
			</g>
			<g>
				<path id="DejaVuSans-97" d="M659.8,27.5c-7.3,0-12.3-0.8-15.1-2.5s-4.2-4.5-4.2-8.5c0-3.2,1.1-5.7,3.2-7.6s5-2.8,8.6-2.8
					c5,0,9,1.8,12,5.3s4.5,8.2,4.5,14.1v2H659.8z M677.7,31.2V0h-9v8.3c-2-3.3-4.6-5.8-7.7-7.3c-3.1-1.6-6.8-2.4-11.2-2.4
					c-5.6,0-10,1.6-13.4,4.7c-3.3,3.1-5,7.4-5,12.6c0,6.1,2.1,10.8,6.2,13.9c4.1,3.1,10.3,4.7,18.4,4.7h12.6v0.9
					c0,4.1-1.4,7.3-4.1,9.6s-6.5,3.4-11.5,3.4c-3.1,0-6.2-0.4-9.1-1.1c-3-0.8-5.8-1.9-8.5-3.4v8.3c3.3,1.3,6.5,2.2,9.6,2.8
					c3.1,0.6,6.1,1,9,1c7.9,0,13.8-2.1,17.7-6.2C675.7,45.7,677.7,39.5,677.7,31.2z"/>
			</g>
			<g>
				<path id="DejaVuSans-112" d="M704.9,8.2v-29h-9v75.5h9v-8.3c1.9,3.2,4.3,5.7,7.2,7.2c2.9,1.6,6.3,2.4,10.3,2.4
					c6.6,0,12-2.6,16.2-7.9s6.2-12.2,6.2-20.8s-2.1-15.5-6.2-20.8c-4.1-5.3-9.5-7.9-16.2-7.9c-4,0-7.4,0.8-10.3,2.4
					C709.2,2.5,706.8,5,704.9,8.2z M735.5,27.3c0,6.6-1.4,11.8-4.1,15.5s-6.5,5.6-11.2,5.6c-4.8,0-8.5-1.9-11.2-5.6
					s-4.1-8.9-4.1-15.5s1.4-11.8,4.1-15.5s6.5-5.6,11.2-5.6c4.8,0,8.5,1.9,11.2,5.6S735.5,20.7,735.5,27.3z"/>
			</g>
			<g>
				<path id="DejaVuSans-104" d="M805.1,33V0h-9v32.7c0,5.2-1,9-3,11.6c-2,2.6-5,3.9-9.1,3.9c-4.9,0-8.7-1.5-11.5-4.6
					s-4.2-7.3-4.2-12.6V0h-9v76h9V46.2c2.2,3.3,4.7,5.8,7.6,7.4c2.9,1.6,6.3,2.4,10.1,2.4c6.3,0,11-1.9,14.2-5.8
					C803.5,46.3,805.1,40.6,805.1,33z"/>
			</g>
			<g>
				<path id="DejaVuSans-32" d="M813.6,0"/>
			</g>
			<g>
				<path id="DejaVuSans-80" d="M865.1,64.8V37.4h12.4c4.6,0,8.1,1.2,10.6,3.6c2.5,2.4,3.8,5.8,3.8,10.2s-1.3,7.7-3.8,10.1
					s-6,3.6-10.6,3.6L865.1,64.8L865.1,64.8z M855.2,72.9h22.3c8.2,0,14.4-1.8,18.5-5.5c4.2-3.7,6.3-9.1,6.3-16.2
					c0-7.2-2.1-12.6-6.3-16.3c-4.2-3.7-10.4-5.5-18.5-5.5h-12.4V0h-9.9V72.9z"/>
			</g>
			<g>
				<path id="DejaVuSans-97_00000141431785505840273130000006145862277194590874_" d="M935.5,27.5c-7.3,0-12.3-0.8-15.1-2.5
					s-4.2-4.5-4.2-8.5c0-3.2,1.1-5.7,3.2-7.6c2.1-1.9,5-2.8,8.6-2.8c5,0,9,1.8,12,5.3s4.5,8.2,4.5,14.1v2H935.5z M953.4,31.2V0h-9
					v8.3c-2.1-3.3-4.6-5.8-7.7-7.3s-6.8-2.4-11.2-2.4c-5.6,0-10,1.6-13.4,4.7c-3.3,3.1-5,7.4-5,12.6c0,6.1,2.1,10.8,6.2,13.9
					c4.1,3.1,10.3,4.7,18.4,4.7h12.6v0.9c0,4.1-1.4,7.3-4.1,9.6s-6.5,3.4-11.5,3.4c-3.1,0-6.2-0.4-9.1-1.1c-3-0.8-5.8-1.9-8.5-3.4
					v8.3c3.3,1.3,6.5,2.2,9.6,2.8s6.1,1,9,1c7.9,0,13.8-2.1,17.7-6.2C951.5,45.7,953.4,39.5,953.4,31.2z"/>
			</g>
			<g>
				<path id="DejaVuSans-103" d="M1007.9,28c0,6.5-1.3,11.6-4,15.1c-2.7,3.6-6.4,5.4-11.3,5.4c-4.8,0-8.6-1.8-11.2-5.4
					c-2.7-3.6-4-8.6-4-15.1s1.3-11.5,4-15.1s6.4-5.4,11.2-5.4c4.9,0,8.6,1.8,11.3,5.4S1007.9,21.5,1007.9,28z M1016.9,6.8
					c0-9.3-2.1-16.2-6.2-20.8c-4.1-4.5-10.5-6.8-19-6.8c-3.2,0-6.1,0.2-8.9,0.7c-2.8,0.5-5.5,1.2-8.2,2.2v8.7
					c2.6-1.4,5.2-2.5,7.8-3.2s5.2-1,7.9-1c5.9,0,10.3,1.5,13.2,4.6s4.4,7.7,4.4,13.9v4.5c-1.9-3.2-4.2-5.6-7.1-7.2
					c-2.9-1.6-6.4-2.4-10.4-2.4c-6.7,0-12.1,2.6-16.2,7.7c-4.1,5.1-6.2,11.9-6.2,20.3c0,8.5,2.1,15.2,6.2,20.3
					c4.1,5.1,9.5,7.7,16.2,7.7c4,0,7.5-0.8,10.4-2.4c2.9-1.6,5.3-4,7.1-7.2v8.3h9V6.8z"/>
			</g>
			<g>
				<path id="DejaVuSans-101" d="M1082.2,29.6v-4.4h-41.3c0.4-6.2,2.3-10.9,5.6-14.1c3.3-3.2,8-4.9,13.9-4.9c3.4,0,6.8,0.4,10,1.3
					c3.2,0.8,6.5,2.1,9.7,3.8V2.8c-3.2-1.4-6.5-2.4-9.9-3.1s-6.8-1.1-10.3-1.1c-8.7,0-15.6,2.5-20.7,7.6c-5.1,5.1-7.6,12-7.6,20.6
					c0,8.9,2.4,16,7.2,21.3c4.8,5.3,11.4,7.9,19.6,7.9c7.4,0,13.2-2.4,17.5-7.1C1080,44.2,1082.2,37.7,1082.2,29.6z M1073.2,32.2
					c-0.1,4.9-1.4,8.8-4.1,11.8c-2.7,2.9-6.2,4.4-10.7,4.4c-5,0-9-1.4-12-4.2s-4.7-6.8-5.2-12H1073.2z"/>
			</g>
			<g>
				<path id="DejaVuSans-82" d="M1131.9,34.2c2.1-0.7,4.2-2.2,6.2-4.6s4-5.6,6-9.7l10-19.9h-10.6l-9.3,18.7c-2.4,4.9-4.8,8.1-7,9.7
					c-2.3,1.6-5.3,2.4-9.2,2.4h-10.8V0h-9.9v72.9h22.3c8.3,0,14.6-1.7,18.7-5.2c4.1-3.5,6.2-8.7,6.2-15.8c0-4.6-1.1-8.4-3.2-11.4
					C1139,37.4,1135.9,35.4,1131.9,34.2z M1107.2,64.8V38.9h12.4c4.8,0,8.3,1.1,10.8,3.3c2.4,2.2,3.6,5.4,3.6,9.7s-1.2,7.5-3.6,9.6
					c-2.4,2.2-6,3.3-10.8,3.3H1107.2z"/>
			</g>
			<g>
				<path id="DejaVuSans-97_00000065796939034027567790000016977314791545431690_" d="M1189,27.5c-7.3,0-12.3-0.8-15.1-2.5
					c-2.8-1.7-4.2-4.5-4.2-8.5c0-3.2,1.1-5.7,3.2-7.6s5-2.8,8.6-2.8c5,0,9,1.8,12,5.3s4.5,8.2,4.5,14.1v2H1189z M1206.9,31.2V0h-9
					v8.3c-2.1-3.3-4.6-5.8-7.7-7.3c-3.1-1.5-6.8-2.4-11.2-2.4c-5.6,0-10,1.6-13.4,4.7c-3.3,3.1-5,7.4-5,12.6
					c0,6.1,2.1,10.8,6.2,13.9s10.3,4.7,18.4,4.7h12.6v0.9c0,4.1-1.4,7.3-4.1,9.6s-6.5,3.4-11.5,3.4c-3.1,0-6.2-0.4-9.1-1.1
					c-3-0.8-5.8-1.9-8.5-3.4v8.3c3.3,1.3,6.5,2.2,9.6,2.8s6.1,1,9,1c7.9,0,13.8-2.1,17.7-6.2C1205,45.7,1206.9,39.5,1206.9,31.2z"/>
			</g>
			<g>
				<path id="DejaVuSans-110" d="M1270.9,33V0h-9v32.7c0,5.2-1,9-3,11.6c-2,2.6-5,3.9-9.1,3.9c-4.9,0-8.7-1.5-11.5-4.6
					c-2.8-3.1-4.2-7.3-4.2-12.6V0h-9v54.7h9v-8.5c2.2,3.3,4.7,5.8,7.6,7.4c2.9,1.6,6.3,2.4,10.1,2.4c6.3,0,11-1.9,14.2-5.8
					C1269.3,46.3,1270.9,40.6,1270.9,33z"/>
			</g>
			<g>
				<path id="DejaVuSans-107" d="M1288.5,76h9V31.1l26.8,23.6h11.5l-29-25.6L1337,0h-11.7l-27.8,26.7V0h-9V76z"/>
			</g>
		</g>
	</g>
</g>
</svg>
