<?xml version="1.0" encoding="utf-8"?>
<!-- Generator: Adobe Illustrator 26.0.2, SVG Export Plug-In . SVG Version: 6.00 Build 0)  -->
<svg version="1.1" id="Layer_1" xmlns="http://www.w3.org/2000/svg" xmlns:xlink="http://www.w3.org/1999/xlink" x="0px" y="0px"
	 viewBox="0 0 504 252" style="enable-background:new 0 0 504 252;" xml:space="preserve">
<style type="text/css">
	.st0{fill:none;}
	
		.st1{clip-path:url(#SVGID_00000138534809798361865530000016272499683090075813_);fill:none;stroke:#000000;stroke-linecap:round;stroke-linejoin:round;}
	
		.st2{clip-path:url(#SVGID_00000043431135144060195690000002970220215294585729_);stroke:#000000;stroke-linecap:round;stroke-linejoin:round;}
	
		.st3{clip-path:url(#SVGID_00000044891839500904807730000010580980115962742201_);fill:none;stroke:#000000;stroke-linecap:round;stroke-linejoin:round;}
	
		.st4{clip-path:url(#SVGID_00000041991150549208684800000012108973557573342105_);stroke:#000000;stroke-linecap:round;stroke-linejoin:round;}
	
		.st5{clip-path:url(#SVGID_00000134227873024714393370000013448759278774339753_);fill:none;stroke:#000000;stroke-linecap:round;stroke-linejoin:round;}
	
		.st6{clip-path:url(#SVGID_00000158740263762785295130000008213751397838397835_);stroke:#000000;stroke-linecap:round;stroke-linejoin:round;}
	
		.st7{clip-path:url(#SVGID_00000110433516414252227980000016846637386245116312_);fill:none;stroke:#000000;stroke-linecap:round;stroke-linejoin:round;}
	
		.st8{clip-path:url(#SVGID_00000119822219162633565340000018278361625779608216_);stroke:#000000;stroke-linecap:round;stroke-linejoin:round;}
	
		.st9{clip-path:url(#SVGID_00000136392474159378295580000011128202267358278307_);fill:none;stroke:#000000;stroke-linecap:round;stroke-linejoin:round;}
	
		.st10{clip-path:url(#SVGID_00000165203507960423906620000005058758591464970419_);stroke:#000000;stroke-linecap:round;stroke-linejoin:round;}
	
		.st11{clip-path:url(#SVGID_00000071517802464124765190000016318453378159659923_);fill:none;stroke:#000000;stroke-linecap:round;stroke-linejoin:round;}
	
		.st12{clip-path:url(#SVGID_00000168833758853767353100000012306654006134115504_);stroke:#000000;stroke-linecap:round;stroke-linejoin:round;}
	
		.st13{clip-path:url(#SVGID_00000088828849140019026890000008135285838644549802_);fill:none;stroke:#000000;stroke-linecap:round;stroke-linejoin:round;}
	
		.st14{clip-path:url(#SVGID_00000041261674203291936890000015046089493751070619_);stroke:#000000;stroke-linecap:round;stroke-linejoin:round;}
	
		.st15{clip-path:url(#SVGID_00000099638808914326682840000005602723257789224323_);fill:none;stroke:#000000;stroke-linecap:round;stroke-linejoin:round;}
	
		.st16{clip-path:url(#SVGID_00000153668990307801566460000004668241617389280391_);stroke:#000000;stroke-linecap:round;stroke-linejoin:round;}
	
		.st17{clip-path:url(#SVGID_00000102530229598891762850000015571051557819004339_);fill:none;stroke:#000000;stroke-linecap:round;stroke-linejoin:round;}
	
		.st18{clip-path:url(#SVGID_00000000916172566645210220000013510667865912721585_);stroke:#000000;stroke-linecap:round;stroke-linejoin:round;}
	
		.st19{clip-path:url(#SVGID_00000152982807711570435790000009780729209237759649_);fill:none;stroke:#000000;stroke-linecap:round;stroke-linejoin:round;}
	
		.st20{clip-path:url(#SVGID_00000173144800727922644220000008938851312047871364_);stroke:#000000;stroke-linecap:round;stroke-linejoin:round;}
	
		.st21{clip-path:url(#SVGID_00000163780097355641305220000015935204328560827568_);fill:none;stroke:#000000;stroke-linecap:round;stroke-linejoin:round;}
	
		.st22{clip-path:url(#SVGID_00000000224606428403827790000015649620378949664909_);stroke:#000000;stroke-linecap:round;stroke-linejoin:round;}
	
		.st23{clip-path:url(#SVGID_00000101089134690243834770000013721755797114022806_);fill:none;stroke:#000000;stroke-linecap:round;stroke-linejoin:round;}
	
		.st24{clip-path:url(#SVGID_00000158738289568632711670000007110656566209195419_);stroke:#000000;stroke-linecap:round;stroke-linejoin:round;}
	
		.st25{clip-path:url(#SVGID_00000173839206253191611910000004967684245115579806_);fill:none;stroke:#000000;stroke-linecap:round;stroke-linejoin:round;}
	
		.st26{clip-path:url(#SVGID_00000082345636645602793930000017539214945045513368_);stroke:#000000;stroke-linecap:round;stroke-linejoin:round;}
	
		.st27{clip-path:url(#SVGID_00000093172698976000609040000000641314529339181696_);fill:none;stroke:#000000;stroke-linecap:round;stroke-linejoin:round;}
	
		.st28{clip-path:url(#SVGID_00000160150308079399451870000011536413115891278239_);stroke:#000000;stroke-linecap:round;stroke-linejoin:round;}
	
		.st29{clip-path:url(#SVGID_00000012439721959834734580000007011574219689613981_);fill:none;stroke:#000000;stroke-linecap:round;stroke-linejoin:round;}
	
		.st30{clip-path:url(#SVGID_00000002371756245114282310000016612016182521565847_);stroke:#000000;stroke-linecap:round;stroke-linejoin:round;}
	
		.st31{clip-path:url(#SVGID_00000122706794977810366190000016034697985832920765_);fill:none;stroke:#000000;stroke-linecap:round;stroke-linejoin:round;}
	
		.st32{clip-path:url(#SVGID_00000180330223202691692630000014844319013721890969_);stroke:#000000;stroke-linecap:round;stroke-linejoin:round;}
	
		.st33{clip-path:url(#SVGID_00000149370302049291753600000005827473007245927073_);fill:none;stroke:#000000;stroke-linecap:round;stroke-linejoin:round;}
	
		.st34{clip-path:url(#SVGID_00000110443678298870170240000017286724416948518591_);stroke:#000000;stroke-linecap:round;stroke-linejoin:round;}
	.st35{clip-path:url(#SVGID_00000040549302109724499860000014370397490297085599_);}
	.st36{fill:#440154;stroke:#440154;stroke-linejoin:round;}
	.st37{clip-path:url(#SVGID_00000006678334816156099580000009528614004274591634_);}
	.st38{fill:#B2DD2D;stroke:#B2DD2D;stroke-linejoin:round;}
	.st39{clip-path:url(#SVGID_00000165936576651283345790000014494266993185462916_);}
	.st40{fill:#BDDF26;stroke:#BDDF26;stroke-linejoin:round;}
	.st41{clip-path:url(#SVGID_00000148656349904095126850000009194006494507851948_);}
	.st42{clip-path:url(#SVGID_00000013885454591563785280000012190265472548567937_);}
	.st43{fill:#CDE11D;stroke:#CDE11D;stroke-linejoin:round;}
	.st44{clip-path:url(#SVGID_00000023281241208653648080000003241460893666846085_);}
	.st45{fill:#FDE725;stroke:#FDE725;stroke-linejoin:round;}
	.st46{clip-path:url(#SVGID_00000170981436305046090160000001262037898179615891_);}
	.st47{clip-path:url(#SVGID_00000102503780109693939060000011045541178302600835_);}
	.st48{clip-path:url(#SVGID_00000015323519516943114090000014803734904084914363_);}
	.st49{clip-path:url(#SVGID_00000168837298522390607610000016791173154612995462_);}
	.st50{fill:#9DD93B;stroke:#9DD93B;stroke-linejoin:round;}
	.st51{clip-path:url(#SVGID_00000031166278452017448960000017829469667476471727_);}
	
		.st52{clip-path:url(#SVGID_00000042701030763513259520000007219264130498798493_);fill:#FFFFFF;stroke:#FFFFFF;stroke-width:1.000000e-02;}
</style>
<g id="patch_1">
	<path class="st0" d="M0,252h504V0H0V252z"/>
</g>
<g id="matplotlib.axis_1">
</g>
<g id="patch_2">
	<g>
		<g>
			<defs>
				<rect id="SVGID_1_" x="10.8" y="25.9" width="385.9" height="209.4"/>
			</defs>
			<clipPath id="SVGID_00000145059763894806937290000008887974673556005267_">
				<use xlink:href="#SVGID_1_"  style="overflow:visible;"/>
			</clipPath>
			
				<path style="clip-path:url(#SVGID_00000145059763894806937290000008887974673556005267_);fill:none;stroke:#000000;stroke-linecap:round;stroke-linejoin:round;" d="
				M189.6,69.1c55-7.9,109.7-15.8,164-23.6"/>
		</g>
	</g>
	<g>
		<g>
			<defs>
				<rect id="SVGID_00000177471315122878843980000004587627186640732346_" x="10.8" y="25.9" width="385.9" height="209.4"/>
			</defs>
			<clipPath id="SVGID_00000068665658052472079470000006190481087011477905_">
				<use xlink:href="#SVGID_00000177471315122878843980000004587627186640732346_"  style="overflow:visible;"/>
			</clipPath>
			
				<path style="clip-path:url(#SVGID_00000068665658052472079470000006190481087011477905_);stroke:#000000;stroke-linecap:round;stroke-linejoin:round;" d="
				M349.3,44.1l4.2,1.4l-3.7,2.5L349.3,44.1z"/>
		</g>
	</g>
</g>
<g id="patch_3">
	<g>
		<g>
			<defs>
				<rect id="SVGID_00000079456715318134644940000014245879718515955377_" x="10.8" y="25.9" width="385.9" height="209.4"/>
			</defs>
			<clipPath id="SVGID_00000181053063432961911530000008072547129248179125_">
				<use xlink:href="#SVGID_00000079456715318134644940000014245879718515955377_"  style="overflow:visible;"/>
			</clipPath>
			
				<path style="clip-path:url(#SVGID_00000181053063432961911530000008072547129248179125_);fill:none;stroke:#000000;stroke-linecap:round;stroke-linejoin:round;" d="
				M354.7,45.3c-55,7.9-109.7,15.8-164,23.6"/>
		</g>
	</g>
	<g>
		<g>
			<defs>
				<rect id="SVGID_00000114768526124940733590000005119673196540751243_" x="10.8" y="25.9" width="385.9" height="209.4"/>
			</defs>
			<clipPath id="SVGID_00000030460248584617881390000009713168288987567508_">
				<use xlink:href="#SVGID_00000114768526124940733590000005119673196540751243_"  style="overflow:visible;"/>
			</clipPath>
			
				<path style="clip-path:url(#SVGID_00000030460248584617881390000009713168288987567508_);stroke:#000000;stroke-linecap:round;stroke-linejoin:round;" d="
				M194.9,70.3l-4.2-1.4l3.7-2.5L194.9,70.3z"/>
		</g>
	</g>
</g>
<g id="patch_4">
	<g>
		<g>
			<defs>
				<rect id="SVGID_00000013873128567937268780000005570981588276546214_" x="10.8" y="25.9" width="385.9" height="209.4"/>
			</defs>
			<clipPath id="SVGID_00000048466923818320786300000012019470004966535866_">
				<use xlink:href="#SVGID_00000013873128567937268780000005570981588276546214_"  style="overflow:visible;"/>
			</clipPath>
			
				<path style="clip-path:url(#SVGID_00000048466923818320786300000012019470004966535866_);fill:none;stroke:#000000;stroke-linecap:round;stroke-linejoin:round;" d="
				M65,127.5c-6.2-25-12.3-49.6-18.3-73.9"/>
		</g>
	</g>
	<g>
		<g>
			<defs>
				<rect id="SVGID_00000026164060595614256090000014355973610215240854_" x="10.8" y="25.9" width="385.9" height="209.4"/>
			</defs>
			<clipPath id="SVGID_00000091710495225934991470000004869565622923626114_">
				<use xlink:href="#SVGID_00000026164060595614256090000014355973610215240854_"  style="overflow:visible;"/>
			</clipPath>
			
				<path style="clip-path:url(#SVGID_00000091710495225934991470000004869565622923626114_);stroke:#000000;stroke-linecap:round;stroke-linejoin:round;" d="
				M45.7,57.9l1-4.4l2.9,3.4L45.7,57.9z"/>
		</g>
	</g>
</g>
<g id="patch_5">
	<g>
		<g>
			<defs>
				<rect id="SVGID_00000018235627550719265320000015935116931902286271_" x="10.8" y="25.9" width="385.9" height="209.4"/>
			</defs>
			<clipPath id="SVGID_00000015343584138464051930000000424887627832673212_">
				<use xlink:href="#SVGID_00000018235627550719265320000015935116931902286271_"  style="overflow:visible;"/>
			</clipPath>
			
				<path style="clip-path:url(#SVGID_00000015343584138464051930000000424887627832673212_);fill:none;stroke:#000000;stroke-linecap:round;stroke-linejoin:round;" d="
				M74.6,131.5c33-19,65.6-37.8,97.9-56.4"/>
		</g>
	</g>
	<g>
		<g>
			<defs>
				<rect id="SVGID_00000142136871499756162440000011758848716596258209_" x="10.8" y="25.9" width="385.9" height="209.4"/>
			</defs>
			<clipPath id="SVGID_00000044862920905330878430000001846020281464932518_">
				<use xlink:href="#SVGID_00000142136871499756162440000011758848716596258209_"  style="overflow:visible;"/>
			</clipPath>
			
				<path style="clip-path:url(#SVGID_00000044862920905330878430000001846020281464932518_);stroke:#000000;stroke-linecap:round;stroke-linejoin:round;" d="
				M168,75.4l4.5-0.3l-2.5,3.7L168,75.4z"/>
		</g>
	</g>
</g>
<g id="patch_6">
	<g>
		<g>
			<defs>
				<rect id="SVGID_00000070117378733284084290000003909389415529576091_" x="10.8" y="25.9" width="385.9" height="209.4"/>
			</defs>
			<clipPath id="SVGID_00000071553904382731804330000004977121184902077369_">
				<use xlink:href="#SVGID_00000070117378733284084290000003909389415529576091_"  style="overflow:visible;"/>
			</clipPath>
			
				<path style="clip-path:url(#SVGID_00000071553904382731804330000004977121184902077369_);fill:none;stroke:#000000;stroke-linecap:round;stroke-linejoin:round;" d="
				M222.2,141.5c-12.3-21.2-24.4-42.1-36.3-62.7"/>
		</g>
	</g>
	<g>
		<g>
			<defs>
				<rect id="SVGID_00000054236725548366547530000016229658583618834871_" x="10.8" y="25.9" width="385.9" height="209.4"/>
			</defs>
			<clipPath id="SVGID_00000032610117146594568680000008309920532661451158_">
				<use xlink:href="#SVGID_00000054236725548366547530000016229658583618834871_"  style="overflow:visible;"/>
			</clipPath>
			
				<path style="clip-path:url(#SVGID_00000032610117146594568680000008309920532661451158_);stroke:#000000;stroke-linecap:round;stroke-linejoin:round;" d="
				M186.2,83.2l-0.3-4.5l3.7,2.5L186.2,83.2z"/>
		</g>
	</g>
</g>
<g id="patch_7">
	<g>
		<g>
			<defs>
				<rect id="SVGID_00000100374710244937678560000017368339704610118827_" x="10.8" y="25.9" width="385.9" height="209.4"/>
			</defs>
			<clipPath id="SVGID_00000065059177807678811880000002148544356068793017_">
				<use xlink:href="#SVGID_00000100374710244937678560000017368339704610118827_"  style="overflow:visible;"/>
			</clipPath>
			
				<path style="clip-path:url(#SVGID_00000065059177807678811880000002148544356068793017_);fill:none;stroke:#000000;stroke-linecap:round;stroke-linejoin:round;" d="
				M217.9,148.3c-47.4-3.9-94.4-7.8-141.1-11.6"/>
		</g>
	</g>
	<g>
		<g>
			<defs>
				<rect id="SVGID_00000096058759695483832510000005275537292823410570_" x="10.8" y="25.9" width="385.9" height="209.4"/>
			</defs>
			<clipPath id="SVGID_00000093855597146197131230000012787631614590757311_">
				<use xlink:href="#SVGID_00000096058759695483832510000005275537292823410570_"  style="overflow:visible;"/>
			</clipPath>
			
				<path style="clip-path:url(#SVGID_00000093855597146197131230000012787631614590757311_);stroke:#000000;stroke-linecap:round;stroke-linejoin:round;" d="
				M80.6,139l-3.8-2.3L81,135L80.6,139z"/>
		</g>
	</g>
</g>
<g id="patch_8">
	<g>
		<g>
			<defs>
				<rect id="SVGID_00000168821286211276231730000008132557054043659146_" x="10.8" y="25.9" width="385.9" height="209.4"/>
			</defs>
			<clipPath id="SVGID_00000099622955228730685800000007501078175137586089_">
				<use xlink:href="#SVGID_00000168821286211276231730000008132557054043659146_"  style="overflow:visible;"/>
			</clipPath>
			
				<path style="clip-path:url(#SVGID_00000099622955228730685800000007501078175137586089_);fill:none;stroke:#000000;stroke-linecap:round;stroke-linejoin:round;" d="
				M235.2,149c39.8,0,79.2,0,118.2,0"/>
		</g>
	</g>
	<g>
		<g>
			<defs>
				<rect id="SVGID_00000152265591280098861570000005140744883088217247_" x="10.8" y="25.9" width="385.9" height="209.4"/>
			</defs>
			<clipPath id="SVGID_00000055691947972146381420000000762684473754477980_">
				<use xlink:href="#SVGID_00000152265591280098861570000005140744883088217247_"  style="overflow:visible;"/>
			</clipPath>
			
				<path style="clip-path:url(#SVGID_00000055691947972146381420000000762684473754477980_);stroke:#000000;stroke-linecap:round;stroke-linejoin:round;" d="
				M349.5,147l4,2l-4,2V147z"/>
		</g>
	</g>
</g>
<g id="patch_9">
	<g>
		<g>
			<defs>
				<rect id="SVGID_00000162339329851007125070000013831170289818914714_" x="10.8" y="25.9" width="385.9" height="209.4"/>
			</defs>
			<clipPath id="SVGID_00000154419860111109390430000004886118844892835234_">
				<use xlink:href="#SVGID_00000162339329851007125070000013831170289818914714_"  style="overflow:visible;"/>
			</clipPath>
			
				<path style="clip-path:url(#SVGID_00000154419860111109390430000004886118844892835234_);fill:none;stroke:#000000;stroke-linecap:round;stroke-linejoin:round;" d="
				M355.3,145.5C299.8,121.6,244.7,97.8,190,74.2"/>
		</g>
	</g>
	<g>
		<g>
			<defs>
				<rect id="SVGID_00000134210639490466006760000011712076752336435891_" x="10.8" y="25.9" width="385.9" height="209.4"/>
			</defs>
			<clipPath id="SVGID_00000093139493104023404970000011375153352616216254_">
				<use xlink:href="#SVGID_00000134210639490466006760000011712076752336435891_"  style="overflow:visible;"/>
			</clipPath>
			
				<path style="clip-path:url(#SVGID_00000093139493104023404970000011375153352616216254_);stroke:#000000;stroke-linecap:round;stroke-linejoin:round;" d="
				M192.8,77.6l-2.9-3.4l4.5-0.3L192.8,77.6z"/>
		</g>
	</g>
</g>
<g id="patch_10">
	<g>
		<g>
			<defs>
				<rect id="SVGID_00000087372152597138733460000005777797934117900693_" x="10.8" y="25.9" width="385.9" height="209.4"/>
			</defs>
			<clipPath id="SVGID_00000109725221195408397520000013255940638341987518_">
				<use xlink:href="#SVGID_00000087372152597138733460000005777797934117900693_"  style="overflow:visible;"/>
			</clipPath>
			
				<path style="clip-path:url(#SVGID_00000109725221195408397520000013255940638341987518_);fill:none;stroke:#000000;stroke-linecap:round;stroke-linejoin:round;" d="
				M354.6,149c-39.8,0-79.2,0-118.2,0"/>
		</g>
	</g>
	<g>
		<g>
			<defs>
				<rect id="SVGID_00000083776286401270087800000003190782368947751824_" x="10.8" y="25.9" width="385.9" height="209.4"/>
			</defs>
			<clipPath id="SVGID_00000173874076220335164020000003156811709420910525_">
				<use xlink:href="#SVGID_00000083776286401270087800000003190782368947751824_"  style="overflow:visible;"/>
			</clipPath>
			
				<path style="clip-path:url(#SVGID_00000173874076220335164020000003156811709420910525_);stroke:#000000;stroke-linecap:round;stroke-linejoin:round;" d="
				M240.3,151l-4-2l4-2V151z"/>
		</g>
	</g>
</g>
<g id="patch_11">
	<g>
		<g>
			<defs>
				<rect id="SVGID_00000013878626458661759580000008660359470324484013_" x="10.8" y="25.9" width="385.9" height="209.4"/>
			</defs>
			<clipPath id="SVGID_00000008140966814736623790000004570416356244859314_">
				<use xlink:href="#SVGID_00000013878626458661759580000008660359470324484013_"  style="overflow:visible;"/>
			</clipPath>
			
				<path style="clip-path:url(#SVGID_00000008140966814736623790000004570416356244859314_);fill:none;stroke:#000000;stroke-linecap:round;stroke-linejoin:round;" d="
				M103.6,194.1c24.3-38.8,48.4-77.3,72.2-115.5"/>
		</g>
	</g>
	<g>
		<g>
			<defs>
				<rect id="SVGID_00000088120634780063585020000010493922776654185372_" x="10.8" y="25.9" width="385.9" height="209.4"/>
			</defs>
			<clipPath id="SVGID_00000036210556598526081440000006763005612838796987_">
				<use xlink:href="#SVGID_00000088120634780063585020000010493922776654185372_"  style="overflow:visible;"/>
			</clipPath>
			
				<path style="clip-path:url(#SVGID_00000036210556598526081440000006763005612838796987_);stroke:#000000;stroke-linecap:round;stroke-linejoin:round;" d="
				M172,80.9l3.8-2.3l-0.4,4.5L172,80.9z"/>
		</g>
	</g>
</g>
<g id="patch_12">
	<g>
		<g>
			<defs>
				<rect id="SVGID_00000128479532048195226990000000425289243409081018_" x="10.8" y="25.9" width="385.9" height="209.4"/>
			</defs>
			<clipPath id="SVGID_00000000205851779761451530000009370456367701531047_">
				<use xlink:href="#SVGID_00000128479532048195226990000000425289243409081018_"  style="overflow:visible;"/>
			</clipPath>
			
				<path style="clip-path:url(#SVGID_00000000205851779761451530000009370456367701531047_);fill:none;stroke:#000000;stroke-linecap:round;stroke-linejoin:round;" d="
				M107,198.1c37.2-15.3,74-30.4,110.5-45.4"/>
		</g>
	</g>
	<g>
		<g>
			<defs>
				<rect id="SVGID_00000120539516320456135190000005246468411924491711_" x="10.8" y="25.9" width="385.9" height="209.4"/>
			</defs>
			<clipPath id="SVGID_00000080172541155139464870000006590238238932536448_">
				<use xlink:href="#SVGID_00000120539516320456135190000005246468411924491711_"  style="overflow:visible;"/>
			</clipPath>
			
				<path style="clip-path:url(#SVGID_00000080172541155139464870000006590238238932536448_);stroke:#000000;stroke-linecap:round;stroke-linejoin:round;" d="
				M213,152.4l4.5,0.3l-2.9,3.4L213,152.4z"/>
		</g>
	</g>
</g>
<g id="patch_13">
	<g>
		<g>
			<defs>
				<rect id="SVGID_00000028318527987030346730000002432828331125067945_" x="10.8" y="25.9" width="385.9" height="209.4"/>
			</defs>
			<clipPath id="SVGID_00000067956779009984129540000001231002831650581895_">
				<use xlink:href="#SVGID_00000028318527987030346730000002432828331125067945_"  style="overflow:visible;"/>
			</clipPath>
			
				<path style="clip-path:url(#SVGID_00000067956779009984129540000001231002831650581895_);fill:none;stroke:#000000;stroke-linecap:round;stroke-linejoin:round;" d="
				M138.1,201.1c13.4-40.8,26.7-81.3,39.8-121.4"/>
		</g>
	</g>
	<g>
		<g>
			<defs>
				<rect id="SVGID_00000076597552203612476670000017642876003088765598_" x="10.8" y="25.9" width="385.9" height="209.4"/>
			</defs>
			<clipPath id="SVGID_00000103233634357627509460000002903289267873609352_">
				<use xlink:href="#SVGID_00000076597552203612476670000017642876003088765598_"  style="overflow:visible;"/>
			</clipPath>
			
				<path style="clip-path:url(#SVGID_00000103233634357627509460000002903289267873609352_);stroke:#000000;stroke-linecap:round;stroke-linejoin:round;" d="
				M174.8,82.8l3.1-3.2l0.7,4.4L174.8,82.8z"/>
		</g>
	</g>
</g>
<g id="patch_14">
	<g>
		<g>
			<defs>
				<rect id="SVGID_00000021094215967388572670000018296951760818838167_" x="10.8" y="25.9" width="385.9" height="209.4"/>
			</defs>
			<clipPath id="SVGID_00000118360642696878612530000015022713819228995482_">
				<use xlink:href="#SVGID_00000021094215967388572670000018296951760818838167_"  style="overflow:visible;"/>
			</clipPath>
			
				<path style="clip-path:url(#SVGID_00000118360642696878612530000015022713819228995482_);fill:none;stroke:#000000;stroke-linecap:round;stroke-linejoin:round;" d="
				M142.6,204.5c25.6-16.9,50.8-33.6,75.7-50.1"/>
		</g>
	</g>
	<g>
		<g>
			<defs>
				<rect id="SVGID_00000116229535319839084390000004300455663249540766_" x="10.8" y="25.9" width="385.9" height="209.4"/>
			</defs>
			<clipPath id="SVGID_00000147941791635741778550000002628853933775916433_">
				<use xlink:href="#SVGID_00000116229535319839084390000004300455663249540766_"  style="overflow:visible;"/>
			</clipPath>
			
				<path style="clip-path:url(#SVGID_00000147941791635741778550000002628853933775916433_);stroke:#000000;stroke-linecap:round;stroke-linejoin:round;" d="
				M213.9,154.9l4.4-0.5l-2.2,3.9L213.9,154.9z"/>
		</g>
	</g>
</g>
<g id="patch_15">
	<g>
		<g>
			<defs>
				<rect id="SVGID_00000124846024929992570660000015155165047188903842_" x="10.8" y="25.9" width="385.9" height="209.4"/>
			</defs>
			<clipPath id="SVGID_00000168104239476765568620000011126763118906751403_">
				<use xlink:href="#SVGID_00000124846024929992570660000015155165047188903842_"  style="overflow:visible;"/>
			</clipPath>
			
				<path style="clip-path:url(#SVGID_00000168104239476765568620000011126763118906751403_);fill:none;stroke:#000000;stroke-linecap:round;stroke-linejoin:round;" d="
				M172.4,208.5c2.7-43.2,5.3-86,8-128.4"/>
		</g>
	</g>
	<g>
		<g>
			<defs>
				<rect id="SVGID_00000033333698248912764360000009293723683485440187_" x="10.8" y="25.9" width="385.9" height="209.4"/>
			</defs>
			<clipPath id="SVGID_00000115510934045343913130000000571173276484128169_">
				<use xlink:href="#SVGID_00000033333698248912764360000009293723683485440187_"  style="overflow:visible;"/>
			</clipPath>
			
				<path style="clip-path:url(#SVGID_00000115510934045343913130000000571173276484128169_);stroke:#000000;stroke-linecap:round;stroke-linejoin:round;" d="
				M178.1,83.9l2.2-3.9l1.7,4.1L178.1,83.9z"/>
		</g>
	</g>
</g>
<g id="patch_16">
	<g>
		<g>
			<defs>
				<rect id="SVGID_00000000940321864063944010000017603074894537476514_" x="10.8" y="25.9" width="385.9" height="209.4"/>
			</defs>
			<clipPath id="SVGID_00000115514963138077437550000003068157925233737139_">
				<use xlink:href="#SVGID_00000000940321864063944010000017603074894537476514_"  style="overflow:visible;"/>
			</clipPath>
			
				<path style="clip-path:url(#SVGID_00000115514963138077437550000003068157925233737139_);fill:none;stroke:#000000;stroke-linecap:round;stroke-linejoin:round;" d="
				M177.3,210.4c14.6-18.2,29-36.1,43.1-53.8"/>
		</g>
	</g>
	<g>
		<g>
			<defs>
				<rect id="SVGID_00000156588273574816428110000015805335567739243947_" x="10.8" y="25.9" width="385.9" height="209.4"/>
			</defs>
			<clipPath id="SVGID_00000060011099164492616030000013108943664380706736_">
				<use xlink:href="#SVGID_00000156588273574816428110000015805335567739243947_"  style="overflow:visible;"/>
			</clipPath>
			
				<path style="clip-path:url(#SVGID_00000060011099164492616030000013108943664380706736_);stroke:#000000;stroke-linecap:round;stroke-linejoin:round;" d="
				M216.4,158.5l4.1-1.9l-0.9,4.4L216.4,158.5z"/>
		</g>
	</g>
</g>
<g id="patch_17">
	<g>
		<g>
			<defs>
				<rect id="SVGID_00000155844974949369256090000015865906957359531949_" x="10.8" y="25.9" width="385.9" height="209.4"/>
			</defs>
			<clipPath id="SVGID_00000117636224071411571730000000902379573585456300_">
				<use xlink:href="#SVGID_00000155844974949369256090000015865906957359531949_"  style="overflow:visible;"/>
			</clipPath>
			
				<path style="clip-path:url(#SVGID_00000117636224071411571730000000902379573585456300_);fill:none;stroke:#000000;stroke-linecap:round;stroke-linejoin:round;" d="
				M310.2,197.1c-25.4-14.6-50.4-29-75.1-43.2"/>
		</g>
	</g>
	<g>
		<g>
			<defs>
				<rect id="SVGID_00000000212004436069164480000001809506495055994245_" x="10.8" y="25.9" width="385.9" height="209.4"/>
			</defs>
			<clipPath id="SVGID_00000027574114067350070990000003504404274355200420_">
				<use xlink:href="#SVGID_00000000212004436069164480000001809506495055994245_"  style="overflow:visible;"/>
			</clipPath>
			
				<path style="clip-path:url(#SVGID_00000027574114067350070990000003504404274355200420_);stroke:#000000;stroke-linecap:round;stroke-linejoin:round;" d="
				M237.5,157.6l-2.5-3.7l4.5,0.3L237.5,157.6z"/>
		</g>
	</g>
</g>
<g id="patch_18">
	<g>
		<g>
			<defs>
				<rect id="SVGID_00000155846863199103185270000012749676514561869460_" x="10.8" y="25.9" width="385.9" height="209.4"/>
			</defs>
			<clipPath id="SVGID_00000109023689012804849740000004104663201696075672_">
				<use xlink:href="#SVGID_00000155846863199103185270000012749676514561869460_"  style="overflow:visible;"/>
			</clipPath>
			
				<path style="clip-path:url(#SVGID_00000109023689012804849740000004104663201696075672_);fill:none;stroke:#000000;stroke-linecap:round;stroke-linejoin:round;" d="
				M332.3,185.5c-32.5-11.2-64.7-22.3-96.5-33.3"/>
		</g>
	</g>
	<g>
		<g>
			<defs>
				<rect id="SVGID_00000030483701205047658230000012462190645532711091_" x="10.8" y="25.9" width="385.9" height="209.4"/>
			</defs>
			<clipPath id="SVGID_00000129188660072381184870000004042405129928683188_">
				<use xlink:href="#SVGID_00000030483701205047658230000012462190645532711091_"  style="overflow:visible;"/>
			</clipPath>
			
				<path style="clip-path:url(#SVGID_00000129188660072381184870000004042405129928683188_);stroke:#000000;stroke-linecap:round;stroke-linejoin:round;" d="
				M238.9,155.4l-3.1-3.2l4.4-0.6L238.9,155.4z"/>
		</g>
	</g>
</g>
<g id="PathCollection_1">
	<g>
		<g>
			<defs>
				<rect id="SVGID_00000111891270647287535590000009880190003596529852_" x="10.8" y="25.9" width="385.9" height="209.4"/>
			</defs>
			<clipPath id="SVGID_00000036214610906626382720000008496731719068778906_">
				<use xlink:href="#SVGID_00000111891270647287535590000009880190003596529852_"  style="overflow:visible;"/>
			</clipPath>
			<g style="clip-path:url(#SVGID_00000036214610906626382720000008496731719068778906_);">
				<g>
					<path id="C0_0_acd082bf71" class="st36" d="M181,78.2c2.1,0,4.1-0.8,5.6-2.3s2.3-3.5,2.3-5.6s-0.8-4.1-2.3-5.6
						s-3.5-2.3-5.6-2.3s-4.1,0.8-5.6,2.3s-2.3,3.5-2.3,5.6s0.8,4.1,2.3,5.6S178.9,78.2,181,78.2z"/>
				</g>
			</g>
		</g>
	</g>
	<g>
		<g>
			<defs>
				<rect id="SVGID_00000182529908006554040290000001114039715519690908_" x="10.8" y="25.9" width="385.9" height="209.4"/>
			</defs>
			<clipPath id="SVGID_00000099650724866383202890000011540939815091383957_">
				<use xlink:href="#SVGID_00000182529908006554040290000001114039715519690908_"  style="overflow:visible;"/>
			</clipPath>
			<g style="clip-path:url(#SVGID_00000099650724866383202890000011540939815091383957_);">
				<g>
					<path id="C0_0_acd082bf71_00000100341008810387020650000005754115207382472336_" class="st38" d="M363.2,52
						c2.1,0,4.1-0.8,5.6-2.3s2.3-3.5,2.3-5.6s-0.8-4.1-2.3-5.6s-3.5-2.3-5.6-2.3s-4.1,0.8-5.6,2.3s-2.3,3.5-2.3,5.6s0.8,4.1,2.3,5.6
						S361.1,52,363.2,52z"/>
				</g>
			</g>
		</g>
	</g>
	<g>
		<g>
			<defs>
				<rect id="SVGID_00000025416405216638539030000015813099094276423352_" x="10.8" y="25.9" width="385.9" height="209.4"/>
			</defs>
			<clipPath id="SVGID_00000168101190181229844550000000850734150757429930_">
				<use xlink:href="#SVGID_00000025416405216638539030000015813099094276423352_"  style="overflow:visible;"/>
			</clipPath>
			<g style="clip-path:url(#SVGID_00000168101190181229844550000000850734150757429930_);">
				<g>
					<path id="C0_0_acd082bf71_00000045579122755899510290000002287690658234029756_" class="st40" d="M67.1,143.8
						c2.1,0,4.1-0.8,5.6-2.3s2.3-3.5,2.3-5.6s-0.8-4.1-2.3-5.6s-3.5-2.3-5.6-2.3s-4.1,0.8-5.6,2.3s-2.3,3.5-2.3,5.6s0.8,4.1,2.3,5.6
						C63,142.9,65,143.8,67.1,143.8z"/>
				</g>
			</g>
		</g>
	</g>
	<g>
		<g>
			<defs>
				<rect id="SVGID_00000004543176280200886230000018024512349487341953_" x="10.8" y="25.9" width="385.9" height="209.4"/>
			</defs>
			<clipPath id="SVGID_00000037674421043078189040000003394667216319503779_">
				<use xlink:href="#SVGID_00000004543176280200886230000018024512349487341953_"  style="overflow:visible;"/>
			</clipPath>
			<g style="clip-path:url(#SVGID_00000037674421043078189040000003394667216319503779_);">
				<g>
					<path id="C0_0_acd082bf71_00000094609729535611623930000002869814710387757474_" class="st36" d="M44.3,52
						c2.1,0,4.1-0.8,5.6-2.3s2.3-3.5,2.3-5.6s-0.8-4.1-2.3-5.6s-3.5-2.3-5.6-2.3s-4.1,0.8-5.6,2.3s-2.3,3.5-2.3,5.6s0.8,4.1,2.3,5.6
						S42.2,52,44.3,52z"/>
				</g>
			</g>
		</g>
	</g>
	<g>
		<g>
			<defs>
				<rect id="SVGID_00000129925533136390626660000006345000873273960630_" x="10.8" y="25.9" width="385.9" height="209.4"/>
			</defs>
			<clipPath id="SVGID_00000063597935244390769460000004244020534568565659_">
				<use xlink:href="#SVGID_00000129925533136390626660000006345000873273960630_"  style="overflow:visible;"/>
			</clipPath>
			<g style="clip-path:url(#SVGID_00000063597935244390769460000004244020534568565659_);">
				<g>
					<path id="C0_0_acd082bf71_00000170237258394111390450000011787174587705211809_" class="st43" d="M226.5,156.9
						c2.1,0,4.1-0.8,5.6-2.3s2.3-3.5,2.3-5.6s-0.8-4.1-2.3-5.6s-3.5-2.3-5.6-2.3s-4.1,0.8-5.6,2.3s-2.3,3.5-2.3,5.6s0.8,4.1,2.3,5.6
						S224.4,156.9,226.5,156.9z"/>
				</g>
			</g>
		</g>
	</g>
	<g>
		<g>
			<defs>
				<rect id="SVGID_00000152248340491465484700000009592941897704355243_" x="10.8" y="25.9" width="385.9" height="209.4"/>
			</defs>
			<clipPath id="SVGID_00000094615872197723046390000000746178226086776210_">
				<use xlink:href="#SVGID_00000152248340491465484700000009592941897704355243_"  style="overflow:visible;"/>
			</clipPath>
			<g style="clip-path:url(#SVGID_00000094615872197723046390000000746178226086776210_);">
				<g>
					<path id="C0_0_acd082bf71_00000137106905255493579260000008320123752659441078_" class="st45" d="M363.2,156.9
						c2.1,0,4.1-0.8,5.6-2.3s2.3-3.5,2.3-5.6s-0.8-4.1-2.3-5.6s-3.5-2.3-5.6-2.3s-4.1,0.8-5.6,2.3s-2.3,3.5-2.3,5.6s0.8,4.1,2.3,5.6
						C359.1,156,361.1,156.9,363.2,156.9z"/>
				</g>
			</g>
		</g>
	</g>
	<g>
		<g>
			<defs>
				<rect id="SVGID_00000065071526985982334230000014052261991057361305_" x="10.8" y="25.9" width="385.9" height="209.4"/>
			</defs>
			<clipPath id="SVGID_00000143592238463187994880000013079131533943437440_">
				<use xlink:href="#SVGID_00000065071526985982334230000014052261991057361305_"  style="overflow:visible;"/>
			</clipPath>
			<g style="clip-path:url(#SVGID_00000143592238463187994880000013079131533943437440_);">
				<g>
					<path id="C0_0_acd082bf71_00000087407625779793786960000002510351388265400491_" class="st45" d="M99,209.3
						c2.1,0,4.1-0.8,5.6-2.3s2.3-3.5,2.3-5.6s-0.8-4.1-2.3-5.6s-3.5-2.3-5.6-2.3s-4.1,0.8-5.6,2.3s-2.3,3.5-2.3,5.6s0.8,4.1,2.3,5.6
						S96.9,209.3,99,209.3z"/>
				</g>
			</g>
		</g>
	</g>
	<g>
		<g>
			<defs>
				<rect id="SVGID_00000071518426522214555740000006509383059341944764_" x="10.8" y="25.9" width="385.9" height="209.4"/>
			</defs>
			<clipPath id="SVGID_00000170958155880487227270000002234275970243874227_">
				<use xlink:href="#SVGID_00000071518426522214555740000006509383059341944764_"  style="overflow:visible;"/>
			</clipPath>
			<g style="clip-path:url(#SVGID_00000170958155880487227270000002234275970243874227_);">
				<g>
					<path id="C0_0_acd082bf71_00000066510577311696106510000012861485635719921824_" class="st45" d="M135.4,217.2
						c2.1,0,4.1-0.8,5.6-2.3s2.3-3.5,2.3-5.6s-0.8-4.1-2.3-5.6s-3.5-2.3-5.6-2.3s-4.1,0.8-5.6,2.3s-2.3,3.5-2.3,5.6s0.8,4.1,2.3,5.6
						S133.3,217.2,135.4,217.2z"/>
				</g>
			</g>
		</g>
	</g>
	<g>
		<g>
			<defs>
				<rect id="SVGID_00000114796570179751737180000002074103289516759743_" x="10.8" y="25.9" width="385.9" height="209.4"/>
			</defs>
			<clipPath id="SVGID_00000163781245382931855720000004215578369224839088_">
				<use xlink:href="#SVGID_00000114796570179751737180000002074103289516759743_"  style="overflow:visible;"/>
			</clipPath>
			<g style="clip-path:url(#SVGID_00000163781245382931855720000004215578369224839088_);">
				<g>
					<path id="C0_0_acd082bf71_00000007395506073500868450000011081079658345493428_" class="st45" d="M171.9,225.1
						c2.1,0,4.1-0.8,5.6-2.3s2.3-3.5,2.3-5.6s-0.8-4.1-2.3-5.6s-3.5-2.3-5.6-2.3s-4.1,0.8-5.6,2.3s-2.3,3.5-2.3,5.6s0.8,4.1,2.3,5.6
						S169.8,225.1,171.9,225.1z"/>
				</g>
			</g>
		</g>
	</g>
	<g>
		<g>
			<defs>
				<rect id="SVGID_00000182528992487088819160000013798602911959601310_" x="10.8" y="25.9" width="385.9" height="209.4"/>
			</defs>
			<clipPath id="SVGID_00000031196829732516023210000003932527668939586437_">
				<use xlink:href="#SVGID_00000182528992487088819160000013798602911959601310_"  style="overflow:visible;"/>
			</clipPath>
			<g style="clip-path:url(#SVGID_00000031196829732516023210000003932527668939586437_);">
				<g>
					<path id="C0_0_acd082bf71_00000031177346869115403450000013821464068417450133_" class="st50" d="M317.7,209.3
						c2.1,0,4.1-0.8,5.6-2.3s2.3-3.5,2.3-5.6s-0.8-4.1-2.3-5.6s-3.5-2.3-5.6-2.3s-4.1,0.8-5.6,2.3s-2.3,3.5-2.3,5.6s0.8,4.1,2.3,5.6
						S315.6,209.3,317.7,209.3z"/>
				</g>
			</g>
		</g>
	</g>
	<g>
		<g>
			<defs>
				<rect id="SVGID_00000035512935642071034260000009759242898073810306_" x="10.8" y="25.9" width="385.9" height="209.4"/>
			</defs>
			<clipPath id="SVGID_00000039835431012659349870000007812320609619373192_">
				<use xlink:href="#SVGID_00000035512935642071034260000009759242898073810306_"  style="overflow:visible;"/>
			</clipPath>
			<g style="clip-path:url(#SVGID_00000039835431012659349870000007812320609619373192_);">
				<g>
					<path id="C0_0_acd082bf71_00000031206953268671615430000011837255912039288734_" class="st50" d="M340.4,196.2
						c2.1,0,4.1-0.8,5.6-2.3s2.3-3.5,2.3-5.6s-0.8-4.1-2.3-5.6s-3.5-2.3-5.6-2.3s-4.1,0.8-5.6,2.3s-2.3,3.5-2.3,5.6s0.8,4.1,2.3,5.6
						S338.4,196.2,340.4,196.2z"/>
				</g>
			</g>
		</g>
	</g>
</g>
<g id="text_1">
	<g transform="translate(146.25 19.918125)scale(0.12 -0.12)">
		<g>
			<path id="DejaVuSans-68" d="M19.7,64.8V8.1h11.9c10.1,0,17.4,2.3,22.1,6.8c4.7,4.6,7,11.8,7,21.6s-2.3,16.9-7,21.5
				s-12,6.8-22.1,6.8H19.7z M9.8,72.9h20.3c14.1,0,24.5-2.9,31.1-8.8s9.9-15.1,9.9-27.6c0-12.6-3.3-21.8-10-27.7
				c-6.6-5.9-17-8.8-31-8.8H9.8V72.9z"/>
		</g>
		<g>
			<path id="DejaVuSans-105" d="M86.4,54.7h9V0h-9V54.7z M86.4,76h9V64.6h-9V76z"/>
		</g>
		<g>
			<path id="DejaVuSans-71" d="M164.3,10.4V30h-16.1v8.1h25.9V6.8c-3.8-2.7-8-4.7-12.6-6.1s-9.5-2.1-14.7-2.1
				c-11.4,0-20.3,3.3-26.8,10c-6.4,6.7-9.6,15.9-9.6,27.8s3.2,21.2,9.6,27.9c6.4,6.7,15.4,10,26.8,10c4.8,0,9.3-0.6,13.5-1.8
				c4.3-1.2,8.2-2.9,11.8-5.2V56.8c-3.6,3.1-7.5,5.4-11.6,7c-4.1,1.6-8.4,2.3-12.9,2.3c-8.9,0-15.6-2.5-20.1-7.5
				c-4.5-5-6.7-12.4-6.7-22.3c0-9.8,2.2-17.2,6.7-22.2c4.5-5,11.2-7.5,20.1-7.5c3.5,0,6.6,0.3,9.3,0.9
				C159.7,8.2,162.1,9.1,164.3,10.4z"/>
		</g>
		<g>
			<path id="DejaVuSans-114" d="M223.4,46.3c-1,0.6-2.1,1-3.3,1.3s-2.5,0.4-3.9,0.4c-5.1,0-9-1.7-11.7-5s-4.1-8-4.1-14.2V0h-9v54.7
				h9v-8.5c1.9,3.3,4.4,5.8,7.4,7.4c3,1.6,6.7,2.4,11,2.4c0.6,0,1.3,0,2-0.1c0.8-0.1,1.6-0.2,2.5-0.4L223.4,46.3z"/>
		</g>
		<g>
			<path id="DejaVuSans-97" d="M257.7,27.5c-7.3,0-12.3-0.8-15.1-2.5s-4.2-4.5-4.2-8.5c0-3.2,1.1-5.7,3.2-7.6c2.1-1.9,5-2.8,8.6-2.8
				c5,0,9,1.8,12,5.3s4.5,8.2,4.5,14.1v2H257.7z M275.6,31.2V0h-9v8.3c-2-3.3-4.6-5.8-7.7-7.3s-6.8-2.4-11.2-2.4
				c-5.6,0-10,1.6-13.4,4.7c-3.3,3.1-5,7.4-5,12.6c0,6.1,2.1,10.8,6.2,13.9c4.1,3.1,10.3,4.7,18.4,4.7h12.6v0.9
				c0,4.1-1.4,7.3-4.1,9.6s-6.5,3.4-11.5,3.4c-3.1,0-6.2-0.4-9.1-1.1c-3-0.8-5.8-1.9-8.5-3.4v8.3c3.3,1.3,6.5,2.2,9.6,2.8s6.1,1,9,1
				c7.9,0,13.8-2.1,17.7-6.2C273.6,45.7,275.6,39.5,275.6,31.2z"/>
		</g>
		<g>
			<path id="DejaVuSans-112" d="M302.8,8.2v-29h-9v75.5h9v-8.3c1.9,3.2,4.3,5.7,7.2,7.2c2.9,1.6,6.3,2.4,10.3,2.4
				c6.6,0,12-2.6,16.2-7.9s6.2-12.2,6.2-20.8s-2.1-15.5-6.2-20.8s-9.5-7.9-16.2-7.9c-4,0-7.4,0.8-10.3,2.4
				C307.1,2.5,304.7,5,302.8,8.2z M333.4,27.3c0,6.6-1.4,11.8-4.1,15.5s-6.5,5.6-11.2,5.6c-4.8,0-8.5-1.9-11.2-5.6
				s-4.1-8.9-4.1-15.5s1.4-11.8,4.1-15.5s6.5-5.6,11.2-5.6c4.8,0,8.5,1.9,11.2,5.6S333.4,20.7,333.4,27.3z"/>
		</g>
		<g>
			<path id="DejaVuSans-104" d="M403,33V0h-9v32.7c0,5.2-1,9-3,11.6c-2,2.6-5,3.9-9.1,3.9c-4.9,0-8.7-1.5-11.5-4.6
				s-4.2-7.3-4.2-12.6V0h-9v76h9V46.2c2.2,3.3,4.7,5.8,7.6,7.4c2.9,1.6,6.3,2.4,10.1,2.4c6.3,0,11-1.9,14.2-5.8
				C401.4,46.3,403,40.6,403,33z"/>
		</g>
		<g>
			<path id="DejaVuSans-32" d="M411.5,0"/>
		</g>
		<g>
			<path id="DejaVuSans-72" d="M453.1,72.9h9.9V43h35.8v29.9h9.9V0h-9.9v34.7H463V0h-9.9V72.9z"/>
		</g>
		<g>
			<path id="DejaVuSans-73" d="M528.3,72.9h9.9V0h-9.9V72.9z"/>
		</g>
		<g>
			<path id="DejaVuSans-84" d="M547.7,72.9h61.7v-8.3h-25.9V0h-9.9v64.6h-25.9C547.7,64.6,547.7,72.9,547.7,72.9z"/>
		</g>
		<g>
			<path id="DejaVuSans-83" d="M662.6,70.5v-9.6c-3.7,1.8-7.3,3.1-10.6,4c-3.3,0.9-6.5,1.3-9.6,1.3c-5.4,0-9.5-1-12.4-3.1
				c-2.9-2.1-4.4-5-4.4-8.9c0-3.2,1-5.7,2.9-7.3s5.6-3,11-4l6-1.2c7.4-1.4,12.8-3.9,16.3-7.4S667,26,667,20.1
				c0-7.1-2.4-12.4-7.1-16.1c-4.7-3.6-11.7-5.5-20.8-5.5c-3.4,0-7.1,0.4-11,1.2s-7.9,1.9-12.1,3.5v10.2c4-2.2,7.9-3.9,11.8-5.1
				c3.8-1.1,7.6-1.7,11.3-1.7c5.6,0,10,1.1,13,3.3c3.1,2.2,4.6,5.4,4.6,9.5c0,3.6-1.1,6.4-3.3,8.4s-5.8,3.5-10.8,4.5l-6,1.2
				c-7.4,1.5-12.7,3.8-16,6.9c-3.3,3.1-4.9,7.5-4.9,13c0,6.4,2.3,11.5,6.8,15.2s10.8,5.6,18.8,5.6c3.4,0,6.9-0.3,10.5-0.9
				C655.3,72.7,658.9,71.7,662.6,70.5z"/>
		</g>
		<g>
			<path id="DejaVuSans-32_00000156580222201539976410000012825459818504762010_" d="M672.6,0"/>
		</g>
		<g>
			<path id="DejaVuSans-72_00000051346357496642211240000011917481258232754098_" d="M714.2,72.9h9.9V43h35.8v29.9h9.9V0h-9.9v34.7
				H724V0h-9.9v72.9H714.2z"/>
		</g>
		<g>
			<path id="DejaVuSans-117" d="M788,21.6v33.1h9V21.9c0-5.2,1-9.1,3-11.7s5.1-3.9,9.1-3.9c4.8,0,8.7,1.5,11.5,4.6s4.2,7.3,4.2,12.7
				v31h9V0h-9v8.4c-2.2-3.3-4.7-5.8-7.6-7.4c-2.9-1.6-6.2-2.4-10-2.4c-6.3,0-11.1,2-14.3,5.9C789.7,8.3,788,14.1,788,21.6z"/>
		</g>
		<g>
			<path id="DejaVuSans-98" d="M891.6,27.3c0,6.6-1.4,11.8-4.1,15.5s-6.5,5.6-11.2,5.6c-4.8,0-8.5-1.9-11.2-5.6s-4.1-8.9-4.1-15.5
				s1.4-11.8,4.1-15.5s6.5-5.6,11.2-5.6c4.8,0,8.5,1.9,11.2,5.6S891.6,20.7,891.6,27.3z M861,46.4c1.9,3.2,4.3,5.7,7.2,7.2
				c2.9,1.6,6.3,2.4,10.3,2.4c6.6,0,12-2.6,16.2-7.9s6.2-12.2,6.2-20.8s-2.1-15.5-6.2-20.8c-4.1-5.3-9.5-7.9-16.2-7.9
				c-4,0-7.4,0.8-10.3,2.4c-2.9,1.6-5.3,4-7.2,7.2V0h-9v76h9V46.4z"/>
		</g>
		<g>
			<path id="DejaVuSans-115" d="M950.7,53.1v-8.5c-2.5,1.3-5.2,2.3-7.9,2.9c-2.7,0.7-5.6,1-8.5,1c-4.5,0-7.8-0.7-10-2
				c-2.2-1.4-3.3-3.4-3.3-6.2c0-2.1,0.8-3.7,2.4-4.9s4.8-2.3,9.6-3.4l3.1-0.7c6.4-1.4,10.9-3.3,13.6-5.8s4-6,4-10.4
				c0-5.1-2-9.1-6-12.1s-9.5-4.4-16.6-4.4c-2.9,0-6,0.3-9.2,0.9s-6.5,1.4-10,2.6v9.3c3.3-1.7,6.6-3,9.8-3.9s6.4-1.3,9.6-1.3
				c4.2,0,7.5,0.7,9.8,2.2c2.3,1.4,3.4,3.5,3.4,6.1c0,2.4-0.8,4.3-2.5,5.6c-1.6,1.3-5.2,2.6-10.8,3.8l-3.1,0.7
				c-5.6,1.2-9.6,3-12.1,5.4s-3.7,5.8-3.7,10c0,5.1,1.8,9.1,5.5,11.9c3.6,2.8,8.8,4.2,15.5,4.2c3.3,0,6.4-0.2,9.4-0.7
				C945.5,54.8,948.2,54.1,950.7,53.1z"/>
		</g>
	</g>
</g>
<g id="patch_19">
	<g>
		<g>
			<defs>
				<rect id="SVGID_00000145767195986399658660000010047874896778080923_" x="420.8" y="25.9" width="10.5" height="209.4"/>
			</defs>
			<clipPath id="SVGID_00000139995164145572222610000016959736230852671111_">
				<use xlink:href="#SVGID_00000145767195986399658660000010047874896778080923_"  style="overflow:visible;"/>
			</clipPath>
			
				<path style="clip-path:url(#SVGID_00000139995164145572222610000016959736230852671111_);fill:#FFFFFF;stroke:#FFFFFF;stroke-width:1.000000e-02;" d="
				M420.8,235.3v-0.8V26.7v-0.8h10.5v0.8v207.8v0.8H420.8z"/>
		</g>
	</g>
</g>
</svg>
