<?xml version="1.0" encoding="utf-8"?>
<!-- Generator: Adobe Illustrator 26.0.2, SVG Export Plug-In . SVG Version: 6.00 Build 0)  -->
<svg version="1.1" id="Layer_1" xmlns="http://www.w3.org/2000/svg" xmlns:xlink="http://www.w3.org/1999/xlink" x="0px" y="0px"
	 viewBox="0 0 504 252" style="enable-background:new 0 0 504 252;" xml:space="preserve">
<style type="text/css">
	.st0{fill:none;}
	
		.st1{clip-path:url(#SVGID_00000026126938193797844270000007738979682480472729_);fill:none;stroke:#000000;stroke-linecap:round;stroke-linejoin:round;}
	
		.st2{clip-path:url(#SVGID_00000157305417427866440130000008884222317477323710_);stroke:#000000;stroke-linecap:round;stroke-linejoin:round;}
	
		.st3{clip-path:url(#SVGID_00000031201579980983853090000007914696390974053266_);fill:none;stroke:#000000;stroke-linecap:round;stroke-linejoin:round;}
	
		.st4{clip-path:url(#SVGID_00000000922138589870838880000018065600215156866706_);stroke:#000000;stroke-linecap:round;stroke-linejoin:round;}
	
		.st5{clip-path:url(#SVGID_00000112606692955210654410000009797274100465441699_);fill:none;stroke:#000000;stroke-linecap:round;stroke-linejoin:round;}
	
		.st6{clip-path:url(#SVGID_00000128482490390592229680000015140585416057781393_);stroke:#000000;stroke-linecap:round;stroke-linejoin:round;}
	
		.st7{clip-path:url(#SVGID_00000063611722362778938310000013524405415959855517_);fill:none;stroke:#000000;stroke-linecap:round;stroke-linejoin:round;}
	
		.st8{clip-path:url(#SVGID_00000155846907270870402710000005127472359525016254_);stroke:#000000;stroke-linecap:round;stroke-linejoin:round;}
	
		.st9{clip-path:url(#SVGID_00000119111240166263765980000002830890684762623167_);fill:none;stroke:#000000;stroke-linecap:round;stroke-linejoin:round;}
	
		.st10{clip-path:url(#SVGID_00000044169821938201457560000003705979439790823844_);stroke:#000000;stroke-linecap:round;stroke-linejoin:round;}
	
		.st11{clip-path:url(#SVGID_00000018205671987986375930000005069769234296288913_);fill:none;stroke:#000000;stroke-linecap:round;stroke-linejoin:round;}
	
		.st12{clip-path:url(#SVGID_00000003087333755754086170000006424003828662974386_);stroke:#000000;stroke-linecap:round;stroke-linejoin:round;}
	
		.st13{clip-path:url(#SVGID_00000045580297527315250020000018019482710491294390_);fill:none;stroke:#000000;stroke-linecap:round;stroke-linejoin:round;}
	
		.st14{clip-path:url(#SVGID_00000087413924837550832930000011612159354475998096_);stroke:#000000;stroke-linecap:round;stroke-linejoin:round;}
	
		.st15{clip-path:url(#SVGID_00000106110036486469992130000013395976873717707177_);fill:none;stroke:#000000;stroke-linecap:round;stroke-linejoin:round;}
	
		.st16{clip-path:url(#SVGID_00000169530845840939780380000012389378312358118805_);stroke:#000000;stroke-linecap:round;stroke-linejoin:round;}
	
		.st17{clip-path:url(#SVGID_00000000185031482048245990000014746100002668793255_);fill:none;stroke:#000000;stroke-linecap:round;stroke-linejoin:round;}
	
		.st18{clip-path:url(#SVGID_00000176761212328223352060000002481510685323015319_);stroke:#000000;stroke-linecap:round;stroke-linejoin:round;}
	
		.st19{clip-path:url(#SVGID_00000119092486160357689900000010714208856440011440_);fill:none;stroke:#000000;stroke-linecap:round;stroke-linejoin:round;}
	
		.st20{clip-path:url(#SVGID_00000039813951466870554850000009878255429115834253_);stroke:#000000;stroke-linecap:round;stroke-linejoin:round;}
	
		.st21{clip-path:url(#SVGID_00000074444091958047792840000016819445880127761837_);fill:none;stroke:#000000;stroke-linecap:round;stroke-linejoin:round;}
	
		.st22{clip-path:url(#SVGID_00000053529186603565341750000008542345235735340162_);stroke:#000000;stroke-linecap:round;stroke-linejoin:round;}
	
		.st23{clip-path:url(#SVGID_00000059270087997006077010000007926633683873464255_);fill:none;stroke:#000000;stroke-linecap:round;stroke-linejoin:round;}
	
		.st24{clip-path:url(#SVGID_00000136389012261756802490000017018746196738851260_);stroke:#000000;stroke-linecap:round;stroke-linejoin:round;}
	
		.st25{clip-path:url(#SVGID_00000107555414179642121110000010594211477332641448_);fill:none;stroke:#000000;stroke-linecap:round;stroke-linejoin:round;}
	
		.st26{clip-path:url(#SVGID_00000177480532066027723640000007758429115781168035_);stroke:#000000;stroke-linecap:round;stroke-linejoin:round;}
	
		.st27{clip-path:url(#SVGID_00000126324537134360869500000011970681281559315371_);fill:none;stroke:#000000;stroke-linecap:round;stroke-linejoin:round;}
	
		.st28{clip-path:url(#SVGID_00000098922920761494488300000009393432046418975131_);stroke:#000000;stroke-linecap:round;stroke-linejoin:round;}
	
		.st29{clip-path:url(#SVGID_00000054961953550561194540000009393333020609129636_);fill:none;stroke:#000000;stroke-linecap:round;stroke-linejoin:round;}
	
		.st30{clip-path:url(#SVGID_00000023267775007750798710000006873938731238759562_);stroke:#000000;stroke-linecap:round;stroke-linejoin:round;}
	
		.st31{clip-path:url(#SVGID_00000043439651133199090200000007413058707039020438_);fill:none;stroke:#000000;stroke-linecap:round;stroke-linejoin:round;}
	
		.st32{clip-path:url(#SVGID_00000028312495462109719930000017675303515544505778_);stroke:#000000;stroke-linecap:round;stroke-linejoin:round;}
	
		.st33{clip-path:url(#SVGID_00000078737616819524316260000002632568039237054885_);fill:none;stroke:#000000;stroke-linecap:round;stroke-linejoin:round;}
	
		.st34{clip-path:url(#SVGID_00000137104504456358117080000012147748861062559901_);stroke:#000000;stroke-linecap:round;stroke-linejoin:round;}
	.st35{clip-path:url(#SVGID_00000111876602433144189910000017318010152591483560_);}
	.st36{fill:#FDE725;stroke:#FDE725;stroke-linejoin:round;}
	.st37{clip-path:url(#SVGID_00000109725854749460044060000000962435967225855408_);}
	.st38{fill:#E7E419;stroke:#E7E419;stroke-linejoin:round;}
	.st39{clip-path:url(#SVGID_00000039831162252717267940000006726814495174870463_);}
	.st40{fill:#375A8C;stroke:#375A8C;stroke-linejoin:round;}
	.st41{clip-path:url(#SVGID_00000085231675567578555310000003061110577341314961_);}
	.st42{fill:#3E4A89;stroke:#3E4A89;stroke-linejoin:round;}
	.st43{clip-path:url(#SVGID_00000164480095030507852240000000179066724180479667_);}
	.st44{fill:#20928C;stroke:#20928C;stroke-linejoin:round;}
	.st45{clip-path:url(#SVGID_00000113327602200353484350000018189034353862129067_);}
	.st46{clip-path:url(#SVGID_00000147924043682114142670000004680055688594833583_);}
	.st47{fill:#440154;stroke:#440154;stroke-linejoin:round;}
	.st48{clip-path:url(#SVGID_00000023264083684300607410000001140703638440289154_);}
	.st49{clip-path:url(#SVGID_00000129897995533285070530000012148296635426049204_);}
	.st50{clip-path:url(#SVGID_00000176741843692306282200000003806604559235492790_);}
	.st51{clip-path:url(#SVGID_00000173842046297455971120000008382661272692226947_);}
</style>
<g id="patch_1">
	<path class="st0" d="M0,252h504V0H0V252z"/>
</g>
<g id="matplotlib.axis_1">
</g>
<g id="axes_1">
	<g id="patch_2">
		<g>
			<g>
				<g>
					<defs>
						<rect id="SVGID_1_" x="10.8" y="25.9" width="385.9" height="215.3"/>
					</defs>
					<clipPath id="SVGID_00000120536835831666183080000001310304108198678162_">
						<use xlink:href="#SVGID_1_"  style="overflow:visible;"/>
					</clipPath>
					
						<path style="clip-path:url(#SVGID_00000120536835831666183080000001310304108198678162_);fill:none;stroke:#000000;stroke-linecap:round;stroke-linejoin:round;" d="
						M189.5,70.3c55-8.1,109.7-16.2,164-24.3"/>
				</g>
			</g>
		</g>
		<g>
			<g>
				<g>
					<defs>
						<rect id="SVGID_00000114776253470804151440000005647258580670571193_" x="10.8" y="25.9" width="385.9" height="215.3"/>
					</defs>
					<clipPath id="SVGID_00000008142943609665772600000000786623174277628814_">
						<use xlink:href="#SVGID_00000114776253470804151440000005647258580670571193_"  style="overflow:visible;"/>
					</clipPath>
					
						<path style="clip-path:url(#SVGID_00000008142943609665772600000000786623174277628814_);stroke:#000000;stroke-linecap:round;stroke-linejoin:round;" d="
						M349.3,44.6l4.2,1.4l-3.7,2.6L349.3,44.6z"/>
				</g>
			</g>
		</g>
	</g>
	<g id="patch_3">
		<g>
			<g>
				<g>
					<defs>
						<rect id="SVGID_00000098908099844996622840000001561300734087453364_" x="10.8" y="25.9" width="385.9" height="215.3"/>
					</defs>
					<clipPath id="SVGID_00000120538908590626401700000015200185904718375083_">
						<use xlink:href="#SVGID_00000098908099844996622840000001561300734087453364_"  style="overflow:visible;"/>
					</clipPath>
					
						<path style="clip-path:url(#SVGID_00000120538908590626401700000015200185904718375083_);fill:none;stroke:#000000;stroke-linecap:round;stroke-linejoin:round;" d="
						M354.7,45.9c-55,8.1-109.7,16.2-164,24.3"/>
				</g>
			</g>
		</g>
		<g>
			<g>
				<g>
					<defs>
						<rect id="SVGID_00000046300662188233882340000008330524237276716462_" x="10.8" y="25.9" width="385.9" height="215.3"/>
					</defs>
					<clipPath id="SVGID_00000115492746294054580670000003246741193840637598_">
						<use xlink:href="#SVGID_00000046300662188233882340000008330524237276716462_"  style="overflow:visible;"/>
					</clipPath>
					
						<path style="clip-path:url(#SVGID_00000115492746294054580670000003246741193840637598_);stroke:#000000;stroke-linecap:round;stroke-linejoin:round;" d="
						M194.9,71.5l-4.2-1.4l3.7-2.6L194.9,71.5z"/>
				</g>
			</g>
		</g>
	</g>
	<g id="patch_4">
		<g>
			<g>
				<g>
					<defs>
						<rect id="SVGID_00000071551416272532610230000006003959356063214725_" x="10.8" y="25.9" width="385.9" height="215.3"/>
					</defs>
					<clipPath id="SVGID_00000039109041568548681730000005208777186382710455_">
						<use xlink:href="#SVGID_00000071551416272532610230000006003959356063214725_"  style="overflow:visible;"/>
					</clipPath>
					
						<path style="clip-path:url(#SVGID_00000039109041568548681730000005208777186382710455_);fill:none;stroke:#000000;stroke-linecap:round;stroke-linejoin:round;" d="
						M65,130.5c-6.2-25.8-12.4-51.3-18.5-76.4"/>
				</g>
			</g>
		</g>
		<g>
			<g>
				<g>
					<defs>
						<rect id="SVGID_00000130629247943026031120000014582040591881917603_" x="10.8" y="25.9" width="385.9" height="215.3"/>
					</defs>
					<clipPath id="SVGID_00000047044422433679071880000006685023747763939466_">
						<use xlink:href="#SVGID_00000130629247943026031120000014582040591881917603_"  style="overflow:visible;"/>
					</clipPath>
					
						<path style="clip-path:url(#SVGID_00000047044422433679071880000006685023747763939466_);stroke:#000000;stroke-linecap:round;stroke-linejoin:round;" d="
						M45.6,58.5l1-4.4l2.9,3.4L45.6,58.5z"/>
				</g>
			</g>
		</g>
	</g>
	<g id="patch_5">
		<g>
			<g>
				<g>
					<defs>
						<rect id="SVGID_00000003080769605149312780000014320026155483331996_" x="10.8" y="25.9" width="385.9" height="215.3"/>
					</defs>
					<clipPath id="SVGID_00000093175963240628788620000010545031964549221019_">
						<use xlink:href="#SVGID_00000003080769605149312780000014320026155483331996_"  style="overflow:visible;"/>
					</clipPath>
					
						<path style="clip-path:url(#SVGID_00000093175963240628788620000010545031964549221019_);fill:none;stroke:#000000;stroke-linecap:round;stroke-linejoin:round;" d="
						M74.5,134.5c33-19.5,65.7-38.9,98-58"/>
				</g>
			</g>
		</g>
		<g>
			<g>
				<g>
					<defs>
						<rect id="SVGID_00000008116528799904519560000015998460933077074309_" x="10.8" y="25.9" width="385.9" height="215.3"/>
					</defs>
					<clipPath id="SVGID_00000083769236550501545900000004201810040895779479_">
						<use xlink:href="#SVGID_00000008116528799904519560000015998460933077074309_"  style="overflow:visible;"/>
					</clipPath>
					
						<path style="clip-path:url(#SVGID_00000083769236550501545900000004201810040895779479_);stroke:#000000;stroke-linecap:round;stroke-linejoin:round;" d="
						M168.1,76.9l4.5-0.3l-2.4,3.8L168.1,76.9z"/>
				</g>
			</g>
		</g>
	</g>
	<g id="patch_6">
		<g>
			<g>
				<g>
					<defs>
						<rect id="SVGID_00000141447949534228426220000005408178444380812467_" x="10.8" y="25.9" width="385.9" height="215.3"/>
					</defs>
					<clipPath id="SVGID_00000071548985220579927480000016756210642863285642_">
						<use xlink:href="#SVGID_00000141447949534228426220000005408178444380812467_"  style="overflow:visible;"/>
					</clipPath>
					
						<path style="clip-path:url(#SVGID_00000071548985220579927480000016756210642863285642_);fill:none;stroke:#000000;stroke-linecap:round;stroke-linejoin:round;" d="
						M222.3,144.9c-12.4-21.9-24.5-43.5-36.5-64.8"/>
				</g>
			</g>
		</g>
		<g>
			<g>
				<g>
					<defs>
						<rect id="SVGID_00000019647986221767007720000003326211235012792237_" x="10.8" y="25.9" width="385.9" height="215.3"/>
					</defs>
					<clipPath id="SVGID_00000009581881672379590660000001418135685789725316_">
						<use xlink:href="#SVGID_00000019647986221767007720000003326211235012792237_"  style="overflow:visible;"/>
					</clipPath>
					
						<path style="clip-path:url(#SVGID_00000009581881672379590660000001418135685789725316_);stroke:#000000;stroke-linecap:round;stroke-linejoin:round;" d="
						M186,84.5l-0.2-4.5l3.7,2.5L186,84.5z"/>
				</g>
			</g>
		</g>
	</g>
	<g id="patch_7">
		<g>
			<g>
				<g>
					<defs>
						<rect id="SVGID_00000021814413993854944370000000197800165204244914_" x="10.8" y="25.9" width="385.9" height="215.3"/>
					</defs>
					<clipPath id="SVGID_00000093866151047274470160000018168158356592387982_">
						<use xlink:href="#SVGID_00000021814413993854944370000000197800165204244914_"  style="overflow:visible;"/>
					</clipPath>
					
						<path style="clip-path:url(#SVGID_00000093866151047274470160000018168158356592387982_);fill:none;stroke:#000000;stroke-linecap:round;stroke-linejoin:round;" d="
						M217.9,151.7c-47.4-4-94.4-8-141.1-11.9"/>
				</g>
			</g>
		</g>
		<g>
			<g>
				<g>
					<defs>
						<rect id="SVGID_00000131345642968692610850000006873578839671716780_" x="10.8" y="25.9" width="385.9" height="215.3"/>
					</defs>
					<clipPath id="SVGID_00000177475269390665689690000012203586131583912851_">
						<use xlink:href="#SVGID_00000131345642968692610850000006873578839671716780_"  style="overflow:visible;"/>
					</clipPath>
					
						<path style="clip-path:url(#SVGID_00000177475269390665689690000012203586131583912851_);stroke:#000000;stroke-linecap:round;stroke-linejoin:round;" d="
						M80.6,142.1l-3.8-2.3l4.2-1.7L80.6,142.1z"/>
				</g>
			</g>
		</g>
	</g>
	<g id="patch_8">
		<g>
			<g>
				<g>
					<defs>
						<rect id="SVGID_00000120549320582936791640000003211940671008134830_" x="10.8" y="25.9" width="385.9" height="215.3"/>
					</defs>
					<clipPath id="SVGID_00000133505817600659259090000016463039837137931448_">
						<use xlink:href="#SVGID_00000120549320582936791640000003211940671008134830_"  style="overflow:visible;"/>
					</clipPath>
					
						<path style="clip-path:url(#SVGID_00000133505817600659259090000016463039837137931448_);fill:none;stroke:#000000;stroke-linecap:round;stroke-linejoin:round;" d="
						M235.2,152.4c39.8,0,79.2,0,118.2,0"/>
				</g>
			</g>
		</g>
		<g>
			<g>
				<g>
					<defs>
						<rect id="SVGID_00000023961946860574982440000016340407073568233893_" x="10.8" y="25.9" width="385.9" height="215.3"/>
					</defs>
					<clipPath id="SVGID_00000111183792503729559840000011275423199874170793_">
						<use xlink:href="#SVGID_00000023961946860574982440000016340407073568233893_"  style="overflow:visible;"/>
					</clipPath>
					
						<path style="clip-path:url(#SVGID_00000111183792503729559840000011275423199874170793_);stroke:#000000;stroke-linecap:round;stroke-linejoin:round;" d="
						M349.5,150.4l4,2l-4,2V150.4z"/>
				</g>
			</g>
		</g>
	</g>
	<g id="patch_9">
		<g>
			<g>
				<g>
					<defs>
						<rect id="SVGID_00000013879321728387870610000003496851009634194855_" x="10.8" y="25.9" width="385.9" height="215.3"/>
					</defs>
					<clipPath id="SVGID_00000034791029451934994020000009258861021884274316_">
						<use xlink:href="#SVGID_00000013879321728387870610000003496851009634194855_"  style="overflow:visible;"/>
					</clipPath>
					
						<path style="clip-path:url(#SVGID_00000034791029451934994020000009258861021884274316_);fill:none;stroke:#000000;stroke-linecap:round;stroke-linejoin:round;" d="
						M355.3,148.9c-55.5-24.6-110.6-49.1-165.4-73.4"/>
				</g>
			</g>
		</g>
		<g>
			<g>
				<g>
					<defs>
						<rect id="SVGID_00000096025493341418619470000004116256644402935481_" x="10.8" y="25.9" width="385.9" height="215.3"/>
					</defs>
					<clipPath id="SVGID_00000179643577603547654580000000362727925580018856_">
						<use xlink:href="#SVGID_00000096025493341418619470000004116256644402935481_"  style="overflow:visible;"/>
					</clipPath>
					
						<path style="clip-path:url(#SVGID_00000179643577603547654580000000362727925580018856_);stroke:#000000;stroke-linecap:round;stroke-linejoin:round;" d="
						M192.8,79l-2.8-3.5l4.5-0.2L192.8,79z"/>
				</g>
			</g>
		</g>
	</g>
	<g id="patch_10">
		<g>
			<g>
				<g>
					<defs>
						<rect id="SVGID_00000073693790435037706060000001686566166281370295_" x="10.8" y="25.9" width="385.9" height="215.3"/>
					</defs>
					<clipPath id="SVGID_00000129898602525163595810000010952372551982396575_">
						<use xlink:href="#SVGID_00000073693790435037706060000001686566166281370295_"  style="overflow:visible;"/>
					</clipPath>
					
						<path style="clip-path:url(#SVGID_00000129898602525163595810000010952372551982396575_);fill:none;stroke:#000000;stroke-linecap:round;stroke-linejoin:round;" d="
						M354.6,152.4c-39.8,0-79.2,0-118.2,0"/>
				</g>
			</g>
		</g>
		<g>
			<g>
				<g>
					<defs>
						<rect id="SVGID_00000099633873515747103480000000748839583501501346_" x="10.8" y="25.9" width="385.9" height="215.3"/>
					</defs>
					<clipPath id="SVGID_00000139989686808959666590000014230468592150234287_">
						<use xlink:href="#SVGID_00000099633873515747103480000000748839583501501346_"  style="overflow:visible;"/>
					</clipPath>
					
						<path style="clip-path:url(#SVGID_00000139989686808959666590000014230468592150234287_);stroke:#000000;stroke-linecap:round;stroke-linejoin:round;" d="
						M240.3,154.4l-4-2l4-2V154.4z"/>
				</g>
			</g>
		</g>
	</g>
	<g id="patch_11">
		<g>
			<g>
				<g>
					<defs>
						<rect id="SVGID_00000067927180617136352200000014573263626709947533_" x="10.8" y="25.9" width="385.9" height="215.3"/>
					</defs>
					<clipPath id="SVGID_00000172441167285748700260000005190799614572773793_">
						<use xlink:href="#SVGID_00000067927180617136352200000014573263626709947533_"  style="overflow:visible;"/>
					</clipPath>
					
						<path style="clip-path:url(#SVGID_00000172441167285748700260000005190799614572773793_);fill:none;stroke:#000000;stroke-linecap:round;stroke-linejoin:round;" d="
						M103.5,198.9c24.3-40,48.5-79.7,72.4-119"/>
				</g>
			</g>
		</g>
		<g>
			<g>
				<g>
					<defs>
						<rect id="SVGID_00000171716619721700663810000004919822342107618691_" x="10.8" y="25.9" width="385.9" height="215.3"/>
					</defs>
					<clipPath id="SVGID_00000083777800470479542260000012835067907300970392_">
						<use xlink:href="#SVGID_00000171716619721700663810000004919822342107618691_"  style="overflow:visible;"/>
					</clipPath>
					
						<path style="clip-path:url(#SVGID_00000083777800470479542260000012835067907300970392_);stroke:#000000;stroke-linecap:round;stroke-linejoin:round;" d="
						M172.1,82.3l3.8-2.4l-0.4,4.5L172.1,82.3z"/>
				</g>
			</g>
		</g>
	</g>
	<g id="patch_12">
		<g>
			<g>
				<g>
					<defs>
						<rect id="SVGID_00000041975549919383167240000000867721626051606158_" x="10.8" y="25.9" width="385.9" height="215.3"/>
					</defs>
					<clipPath id="SVGID_00000127035830098814240070000011397187396212950401_">
						<use xlink:href="#SVGID_00000041975549919383167240000000867721626051606158_"  style="overflow:visible;"/>
					</clipPath>
					
						<path style="clip-path:url(#SVGID_00000127035830098814240070000011397187396212950401_);fill:none;stroke:#000000;stroke-linecap:round;stroke-linejoin:round;" d="
						M106.9,203c37.2-15.7,74.1-31.3,110.6-46.7"/>
				</g>
			</g>
		</g>
		<g>
			<g>
				<g>
					<defs>
						<rect id="SVGID_00000163790622789999128830000017822938070135468679_" x="10.8" y="25.9" width="385.9" height="215.3"/>
					</defs>
					<clipPath id="SVGID_00000101099406270310986180000001952186775799891383_">
						<use xlink:href="#SVGID_00000163790622789999128830000017822938070135468679_"  style="overflow:visible;"/>
					</clipPath>
					
						<path style="clip-path:url(#SVGID_00000101099406270310986180000001952186775799891383_);stroke:#000000;stroke-linecap:round;stroke-linejoin:round;" d="
						M213.1,155.9l4.5,0.3l-2.9,3.4L213.1,155.9z"/>
				</g>
			</g>
		</g>
	</g>
	<g id="patch_13">
		<g>
			<g>
				<g>
					<defs>
						<rect id="SVGID_00000078027112308528231070000008579751878552251531_" x="10.8" y="25.9" width="385.9" height="215.3"/>
					</defs>
					<clipPath id="SVGID_00000053539399840898650580000013114332873819179672_">
						<use xlink:href="#SVGID_00000078027112308528231070000008579751878552251531_"  style="overflow:visible;"/>
					</clipPath>
					
						<path style="clip-path:url(#SVGID_00000053539399840898650580000013114332873819179672_);fill:none;stroke:#000000;stroke-linecap:round;stroke-linejoin:round;" d="
						M138,206.2c13.4-42.1,26.8-83.9,40-125.3"/>
				</g>
			</g>
		</g>
		<g>
			<g>
				<g>
					<defs>
						<rect id="SVGID_00000096763675912783371950000014355430790982368695_" x="10.8" y="25.9" width="385.9" height="215.3"/>
					</defs>
					<clipPath id="SVGID_00000039131112288168309840000002512403269254487433_">
						<use xlink:href="#SVGID_00000096763675912783371950000014355430790982368695_"  style="overflow:visible;"/>
					</clipPath>
					
						<path style="clip-path:url(#SVGID_00000039131112288168309840000002512403269254487433_);stroke:#000000;stroke-linecap:round;stroke-linejoin:round;" d="
						M174.9,84.1l3.1-3.2l0.7,4.4L174.9,84.1z"/>
				</g>
			</g>
		</g>
	</g>
	<g id="patch_14">
		<g>
			<g>
				<g>
					<defs>
						<rect id="SVGID_00000172404638517391481800000000233787889595591075_" x="10.8" y="25.9" width="385.9" height="215.3"/>
					</defs>
					<clipPath id="SVGID_00000122684955841422797300000007973305499851907518_">
						<use xlink:href="#SVGID_00000172404638517391481800000000233787889595591075_"  style="overflow:visible;"/>
					</clipPath>
					
						<path style="clip-path:url(#SVGID_00000122684955841422797300000007973305499851907518_);fill:none;stroke:#000000;stroke-linecap:round;stroke-linejoin:round;" d="
						M142.6,209.6c25.6-17.4,50.9-34.6,75.9-51.6"/>
				</g>
			</g>
		</g>
		<g>
			<g>
				<g>
					<defs>
						<rect id="SVGID_00000097477104153450642770000011478087456945651331_" x="10.8" y="25.9" width="385.9" height="215.3"/>
					</defs>
					<clipPath id="SVGID_00000158739217339590682350000011229734007121664665_">
						<use xlink:href="#SVGID_00000097477104153450642770000011478087456945651331_"  style="overflow:visible;"/>
					</clipPath>
					
						<path style="clip-path:url(#SVGID_00000158739217339590682350000011229734007121664665_);stroke:#000000;stroke-linecap:round;stroke-linejoin:round;" d="
						M214,158.5l4.4-0.6l-2.2,3.9L214,158.5z"/>
				</g>
			</g>
		</g>
	</g>
	<g id="patch_15">
		<g>
			<g>
				<g>
					<defs>
						<rect id="SVGID_00000012470567929113458050000000698200615370118280_" x="10.8" y="25.9" width="385.9" height="215.3"/>
					</defs>
					<clipPath id="SVGID_00000015328969679848271600000008156944922142981026_">
						<use xlink:href="#SVGID_00000012470567929113458050000000698200615370118280_"  style="overflow:visible;"/>
					</clipPath>
					
						<path style="clip-path:url(#SVGID_00000015328969679848271600000008156944922142981026_);fill:none;stroke:#000000;stroke-linecap:round;stroke-linejoin:round;" d="
						M172.4,213.9c2.7-44.6,5.4-88.7,8-132.6"/>
				</g>
			</g>
		</g>
		<g>
			<g>
				<g>
					<defs>
						<rect id="SVGID_00000167382889075112521930000004096045181249404580_" x="10.8" y="25.9" width="385.9" height="215.3"/>
					</defs>
					<clipPath id="SVGID_00000065053722516910799570000009495850332692062898_">
						<use xlink:href="#SVGID_00000167382889075112521930000004096045181249404580_"  style="overflow:visible;"/>
					</clipPath>
					
						<path style="clip-path:url(#SVGID_00000065053722516910799570000009495850332692062898_);stroke:#000000;stroke-linecap:round;stroke-linejoin:round;" d="
						M178.2,85.2l2.2-3.9l1.8,4.1L178.2,85.2z"/>
				</g>
			</g>
		</g>
	</g>
	<g id="patch_16">
		<g>
			<g>
				<g>
					<defs>
						<rect id="SVGID_00000135688317769026434110000002474540235360445089_" x="10.8" y="25.9" width="385.9" height="215.3"/>
					</defs>
					<clipPath id="SVGID_00000166674815311861596290000001154416086951186338_">
						<use xlink:href="#SVGID_00000135688317769026434110000002474540235360445089_"  style="overflow:visible;"/>
					</clipPath>
					
						<path style="clip-path:url(#SVGID_00000166674815311861596290000001154416086951186338_);fill:none;stroke:#000000;stroke-linecap:round;stroke-linejoin:round;" d="
						M177.2,215.7c14.7-18.8,29.1-37.3,43.3-55.5"/>
				</g>
			</g>
		</g>
		<g>
			<g>
				<g>
					<defs>
						<rect id="SVGID_00000137824352760763376300000010683698238248296087_" x="10.8" y="25.9" width="385.9" height="215.3"/>
					</defs>
					<clipPath id="SVGID_00000054956593825229183380000012685770182259318957_">
						<use xlink:href="#SVGID_00000137824352760763376300000010683698238248296087_"  style="overflow:visible;"/>
					</clipPath>
					
						<path style="clip-path:url(#SVGID_00000054956593825229183380000012685770182259318957_);stroke:#000000;stroke-linecap:round;stroke-linejoin:round;" d="
						M216.5,162.1l4-1.9l-0.9,4.4L216.5,162.1z"/>
				</g>
			</g>
		</g>
	</g>
	<g id="patch_17">
		<g>
			<g>
				<g>
					<defs>
						<rect id="SVGID_00000082361884656413565640000011239095081683183234_" x="10.8" y="25.9" width="385.9" height="215.3"/>
					</defs>
					<clipPath id="SVGID_00000138567602301299215340000000833083568542203321_">
						<use xlink:href="#SVGID_00000082361884656413565640000011239095081683183234_"  style="overflow:visible;"/>
					</clipPath>
					
						<path style="clip-path:url(#SVGID_00000138567602301299215340000000833083568542203321_);fill:none;stroke:#000000;stroke-linecap:round;stroke-linejoin:round;" d="
						M310.2,201.9c-25.4-15-50.5-29.9-75.3-44.5"/>
				</g>
			</g>
		</g>
		<g>
			<g>
				<g>
					<defs>
						<rect id="SVGID_00000019649579338215937680000014495582485048395709_" x="10.8" y="25.9" width="385.9" height="215.3"/>
					</defs>
					<clipPath id="SVGID_00000029032701549593853250000011801798773509331887_">
						<use xlink:href="#SVGID_00000019649579338215937680000014495582485048395709_"  style="overflow:visible;"/>
					</clipPath>
					
						<path style="clip-path:url(#SVGID_00000029032701549593853250000011801798773509331887_);stroke:#000000;stroke-linecap:round;stroke-linejoin:round;" d="
						M237.4,161.2l-2.4-3.8l4.5,0.3L237.4,161.2z"/>
				</g>
			</g>
		</g>
	</g>
	<g id="patch_18">
		<g>
			<g>
				<g>
					<defs>
						<rect id="SVGID_00000160184703634107522650000002591258263398290867_" x="10.8" y="25.9" width="385.9" height="215.3"/>
					</defs>
					<clipPath id="SVGID_00000176029485283594509390000002835586048943217590_">
						<use xlink:href="#SVGID_00000160184703634107522650000002591258263398290867_"  style="overflow:visible;"/>
					</clipPath>
					
						<path style="clip-path:url(#SVGID_00000176029485283594509390000002835586048943217590_);fill:none;stroke:#000000;stroke-linecap:round;stroke-linejoin:round;" d="
						M332.3,190c-32.5-11.5-64.7-23-96.5-34.3"/>
				</g>
			</g>
		</g>
		<g>
			<g>
				<g>
					<defs>
						<rect id="SVGID_00000044144388166600541400000004561807630308701628_" x="10.8" y="25.9" width="385.9" height="215.3"/>
					</defs>
					<clipPath id="SVGID_00000145742871615698485920000008522530860210469045_">
						<use xlink:href="#SVGID_00000044144388166600541400000004561807630308701628_"  style="overflow:visible;"/>
					</clipPath>
					
						<path style="clip-path:url(#SVGID_00000145742871615698485920000008522530860210469045_);stroke:#000000;stroke-linecap:round;stroke-linejoin:round;" d="
						M238.9,158.9l-3.1-3.2l4.4-0.5L238.9,158.9z"/>
				</g>
			</g>
		</g>
	</g>
	<g id="PathCollection_1">
		<g>
			<g>
				<g>
					<defs>
						<rect id="SVGID_00000126319992554593737560000015888706917837560740_" x="10.8" y="25.9" width="385.9" height="215.3"/>
					</defs>
					<clipPath id="SVGID_00000023973697503441132150000013050065257761356181_">
						<use xlink:href="#SVGID_00000126319992554593737560000015888706917837560740_"  style="overflow:visible;"/>
					</clipPath>
					<g style="clip-path:url(#SVGID_00000023973697503441132150000013050065257761356181_);">
						<g>
							<path id="C0_0_cccfeb5ca0" class="st36" d="M181,79.5c2.1,0,4.1-0.8,5.6-2.3s2.3-3.5,2.3-5.6s-0.8-4.1-2.3-5.6
								s-3.5-2.3-5.6-2.3s-4.1,0.8-5.6,2.3s-2.3,3.5-2.3,5.6s0.8,4.1,2.3,5.6S178.9,79.5,181,79.5z"/>
						</g>
					</g>
				</g>
			</g>
		</g>
		<g>
			<g>
				<g>
					<defs>
						<rect id="SVGID_00000114033615139584684300000014046202246029259453_" x="10.8" y="25.9" width="385.9" height="215.3"/>
					</defs>
					<clipPath id="SVGID_00000093864116752070423240000004906962369486961571_">
						<use xlink:href="#SVGID_00000114033615139584684300000014046202246029259453_"  style="overflow:visible;"/>
					</clipPath>
					<g style="clip-path:url(#SVGID_00000093864116752070423240000004906962369486961571_);">
						<g>
							<path id="C0_0_cccfeb5ca0_00000095313056925306554870000014241604325297327526_" class="st38" d="M363.2,52.5
								c2.1,0,4.1-0.8,5.6-2.3s2.3-3.5,2.3-5.6s-0.8-4.1-2.3-5.6s-3.5-2.3-5.6-2.3s-4.1,0.8-5.6,2.3s-2.3,3.5-2.3,5.6
								s0.8,4.1,2.3,5.6S361.1,52.5,363.2,52.5z"/>
						</g>
					</g>
				</g>
			</g>
		</g>
		<g>
			<g>
				<g>
					<defs>
						<rect id="SVGID_00000013872416047254749360000010893477873598431654_" x="10.8" y="25.9" width="385.9" height="215.3"/>
					</defs>
					<clipPath id="SVGID_00000092426596107729683490000003257872614435797907_">
						<use xlink:href="#SVGID_00000013872416047254749360000010893477873598431654_"  style="overflow:visible;"/>
					</clipPath>
					<g style="clip-path:url(#SVGID_00000092426596107729683490000003257872614435797907_);">
						<g>
							<path id="C0_0_cccfeb5ca0_00000111174369700465454760000003375330555860316605_" class="st40" d="M67.1,146.9
								c2.1,0,4.1-0.8,5.6-2.3S75,141,75,139s-0.8-4.1-2.3-5.6s-3.5-2.3-5.6-2.3s-4.1,0.8-5.6,2.3s-2.3,3.5-2.3,5.6s0.8,4.1,2.3,5.6
								C63,146,65,146.9,67.1,146.9z"/>
						</g>
					</g>
				</g>
			</g>
		</g>
		<g>
			<g>
				<g>
					<defs>
						<rect id="SVGID_00000081626160577215593800000016497886853733308818_" x="10.8" y="25.9" width="385.9" height="215.3"/>
					</defs>
					<clipPath id="SVGID_00000153683943379064826910000011426226664095839921_">
						<use xlink:href="#SVGID_00000081626160577215593800000016497886853733308818_"  style="overflow:visible;"/>
					</clipPath>
					<g style="clip-path:url(#SVGID_00000153683943379064826910000011426226664095839921_);">
						<g>
							<path id="C0_0_cccfeb5ca0_00000174576979888389531810000002382725790628679592_" class="st42" d="M44.3,52.5
								c2.1,0,4.1-0.8,5.6-2.3s2.3-3.5,2.3-5.6s-0.8-4.1-2.3-5.6s-3.5-2.3-5.6-2.3s-4.1,0.8-5.6,2.3s-2.3,3.5-2.3,5.6
								s0.8,4.1,2.3,5.6S42.2,52.5,44.3,52.5z"/>
						</g>
					</g>
				</g>
			</g>
		</g>
		<g>
			<g>
				<g>
					<defs>
						<rect id="SVGID_00000005250819707932412360000006936455866987851952_" x="10.8" y="25.9" width="385.9" height="215.3"/>
					</defs>
					<clipPath id="SVGID_00000140705998493974576010000013758272110351220385_">
						<use xlink:href="#SVGID_00000005250819707932412360000006936455866987851952_"  style="overflow:visible;"/>
					</clipPath>
					<g style="clip-path:url(#SVGID_00000140705998493974576010000013758272110351220385_);">
						<g>
							<path id="C0_0_cccfeb5ca0_00000039815881088388290620000008997314310868420017_" class="st44" d="M226.5,160.3
								c2.1,0,4.1-0.8,5.6-2.3s2.3-3.5,2.3-5.6s-0.8-4.1-2.3-5.6s-3.5-2.3-5.6-2.3s-4.1,0.8-5.6,2.3s-2.3,3.5-2.3,5.6
								s0.8,4.1,2.3,5.6S224.4,160.3,226.5,160.3z"/>
						</g>
					</g>
				</g>
			</g>
		</g>
		<g>
			<g>
				<g>
					<defs>
						<rect id="SVGID_00000025441966387937513440000011872509234264468632_" x="10.8" y="25.9" width="385.9" height="215.3"/>
					</defs>
					<clipPath id="SVGID_00000036965221552400357410000001493878685281917097_">
						<use xlink:href="#SVGID_00000025441966387937513440000011872509234264468632_"  style="overflow:visible;"/>
					</clipPath>
					<g style="clip-path:url(#SVGID_00000036965221552400357410000001493878685281917097_);">
						<g>
							<path id="C0_0_cccfeb5ca0_00000129919729280193067810000001820344947921836453_" class="st40" d="M363.2,160.3
								c2.1,0,4.1-0.8,5.6-2.3s2.3-3.5,2.3-5.6s-0.8-4.1-2.3-5.6s-3.5-2.3-5.6-2.3s-4.1,0.8-5.6,2.3s-2.3,3.5-2.3,5.6
								s0.8,4.1,2.3,5.6S361.1,160.3,363.2,160.3z"/>
						</g>
					</g>
				</g>
			</g>
		</g>
		<g>
			<g>
				<g>
					<defs>
						<rect id="SVGID_00000096762519316257852900000010835315888343916181_" x="10.8" y="25.9" width="385.9" height="215.3"/>
					</defs>
					<clipPath id="SVGID_00000129179958405207660190000009749956970108501908_">
						<use xlink:href="#SVGID_00000096762519316257852900000010835315888343916181_"  style="overflow:visible;"/>
					</clipPath>
					<g style="clip-path:url(#SVGID_00000129179958405207660190000009749956970108501908_);">
						<g>
							<path id="C0_0_cccfeb5ca0_00000090253144840788536110000014817603024085450894_" class="st47" d="M99,214.2
								c2.1,0,4.1-0.8,5.6-2.3s2.3-3.5,2.3-5.6s-0.8-4.1-2.3-5.6s-3.5-2.3-5.6-2.3s-4.1,0.8-5.6,2.3s-2.3,3.5-2.3,5.6
								s0.8,4.1,2.3,5.6S96.9,214.2,99,214.2z"/>
						</g>
					</g>
				</g>
			</g>
		</g>
		<g>
			<g>
				<g>
					<defs>
						<rect id="SVGID_00000170244604909255817770000003582342747142473143_" x="10.8" y="25.9" width="385.9" height="215.3"/>
					</defs>
					<clipPath id="SVGID_00000038397855332827956530000007566199951211844282_">
						<use xlink:href="#SVGID_00000170244604909255817770000003582342747142473143_"  style="overflow:visible;"/>
					</clipPath>
					<g style="clip-path:url(#SVGID_00000038397855332827956530000007566199951211844282_);">
						<g>
							<path id="C0_0_cccfeb5ca0_00000132780255597376388410000016186894971834280579_" class="st47" d="M135.4,222.3
								c2.1,0,4.1-0.8,5.6-2.3s2.3-3.5,2.3-5.6s-0.8-4.1-2.3-5.6s-3.5-2.3-5.6-2.3s-4.1,0.8-5.6,2.3s-2.3,3.5-2.3,5.6
								s0.8,4.1,2.3,5.6S133.3,222.3,135.4,222.3z"/>
						</g>
					</g>
				</g>
			</g>
		</g>
		<g>
			<g>
				<g>
					<defs>
						<rect id="SVGID_00000029753774275827009250000013980916696545398172_" x="10.8" y="25.9" width="385.9" height="215.3"/>
					</defs>
					<clipPath id="SVGID_00000069396287349970065500000000449634870982194322_">
						<use xlink:href="#SVGID_00000029753774275827009250000013980916696545398172_"  style="overflow:visible;"/>
					</clipPath>
					<g style="clip-path:url(#SVGID_00000069396287349970065500000000449634870982194322_);">
						<g>
							<path id="C0_0_cccfeb5ca0_00000024698011248302409530000006616786172342181303_" class="st47" d="M171.9,230.4
								c2.1,0,4.1-0.8,5.6-2.3s2.3-3.5,2.3-5.6s-0.8-4.1-2.3-5.6s-3.5-2.3-5.6-2.3s-4.1,0.8-5.6,2.3s-2.3,3.5-2.3,5.6
								s0.8,4.1,2.3,5.6S169.8,230.4,171.9,230.4z"/>
						</g>
					</g>
				</g>
			</g>
		</g>
		<g>
			<g>
				<g>
					<defs>
						<rect id="SVGID_00000170970101097460291890000004654156292502296207_" x="10.8" y="25.9" width="385.9" height="215.3"/>
					</defs>
					<clipPath id="SVGID_00000094586450355702241360000001148565427200111535_">
						<use xlink:href="#SVGID_00000170970101097460291890000004654156292502296207_"  style="overflow:visible;"/>
					</clipPath>
					<g style="clip-path:url(#SVGID_00000094586450355702241360000001148565427200111535_);">
						<g>
							<path id="C0_0_cccfeb5ca0_00000132069401148766732420000017523292337288588427_" class="st47" d="M317.7,214.2
								c2.1,0,4.1-0.8,5.6-2.3s2.3-3.5,2.3-5.6s-0.8-4.1-2.3-5.6s-3.5-2.3-5.6-2.3s-4.1,0.8-5.6,2.3s-2.3,3.5-2.3,5.6
								s0.8,4.1,2.3,5.6S315.6,214.2,317.7,214.2z"/>
						</g>
					</g>
				</g>
			</g>
		</g>
		<g>
			<g>
				<g>
					<defs>
						<rect id="SVGID_00000122694303232151442580000018012468135467859625_" x="10.8" y="25.9" width="385.9" height="215.3"/>
					</defs>
					<clipPath id="SVGID_00000142888137652904200600000004303342836274679425_">
						<use xlink:href="#SVGID_00000122694303232151442580000018012468135467859625_"  style="overflow:visible;"/>
					</clipPath>
					<g style="clip-path:url(#SVGID_00000142888137652904200600000004303342836274679425_);">
						<g>
							<path id="C0_0_cccfeb5ca0_00000054944088636482504080000002641512322731291067_" class="st47" d="M340.4,200.8
								c2.1,0,4.1-0.8,5.6-2.3s2.3-3.5,2.3-5.6s-0.8-4.1-2.3-5.6s-3.5-2.3-5.6-2.3s-4.1,0.8-5.6,2.3s-2.3,3.5-2.3,5.6
								s0.8,4.1,2.3,5.6C336.3,199.9,338.4,200.8,340.4,200.8z"/>
						</g>
					</g>
				</g>
			</g>
		</g>
	</g>
	<g id="text_1">
		<g transform="translate(147.64875 19.918125)scale(0.12 -0.12)">
			<g>
				<path id="DejaVuSans-68" d="M19.7,64.8V8.1h11.9c10.1,0,17.4,2.3,22.1,6.8c4.7,4.6,7,11.8,7,21.6s-2.3,16.9-7,21.5
					s-12,6.8-22.1,6.8H19.7z M9.8,72.9h20.3c14.1,0,24.5-2.9,31.1-8.8s9.9-15.1,9.9-27.6c0-12.6-3.3-21.8-10-27.7
					c-6.6-5.9-17-8.8-31-8.8H9.8V72.9z"/>
			</g>
			<g>
				<path id="DejaVuSans-105" d="M86.4,54.7h9V0h-9V54.7z M86.4,76h9V64.6h-9V76z"/>
			</g>
			<g>
				<path id="DejaVuSans-71" d="M164.3,10.4V30h-16.1v8.1h25.9V6.8c-3.8-2.7-8-4.7-12.6-6.1s-9.5-2.1-14.7-2.1
					c-11.4,0-20.3,3.3-26.8,10c-6.4,6.7-9.6,15.9-9.6,27.8s3.2,21.2,9.6,27.9c6.4,6.7,15.4,10,26.8,10c4.8,0,9.3-0.6,13.5-1.8
					c4.3-1.2,8.2-2.9,11.8-5.2V56.8c-3.6,3.1-7.5,5.4-11.6,7c-4.1,1.6-8.4,2.3-12.9,2.3c-8.9,0-15.6-2.5-20.1-7.5
					c-4.5-5-6.7-12.4-6.7-22.3c0-9.8,2.2-17.2,6.7-22.2c4.5-5,11.2-7.5,20.1-7.5c3.5,0,6.6,0.3,9.3,0.9
					C159.7,8.2,162.1,9.1,164.3,10.4z"/>
			</g>
			<g>
				<path id="DejaVuSans-114" d="M223.4,46.3c-1,0.6-2.1,1-3.3,1.3c-1.2,0.3-2.5,0.4-3.9,0.4c-5.1,0-9-1.7-11.7-5s-4.1-8-4.1-14.2V0
					h-9v54.7h9v-8.5c1.9,3.3,4.4,5.8,7.4,7.4c3,1.6,6.7,2.4,11,2.4c0.6,0,1.3,0,2-0.1c0.8-0.1,1.6-0.2,2.5-0.4L223.4,46.3z"/>
			</g>
			<g>
				<path id="DejaVuSans-97" d="M257.7,27.5c-7.3,0-12.3-0.8-15.1-2.5s-4.2-4.5-4.2-8.5c0-3.2,1.1-5.7,3.2-7.6
					c2.1-1.9,5-2.8,8.6-2.8c5,0,9,1.8,12,5.3s4.5,8.2,4.5,14.1v2H257.7z M275.6,31.2V0h-9v8.3c-2-3.3-4.6-5.8-7.7-7.3
					c-3.1-1.6-6.8-2.4-11.2-2.4c-5.6,0-10,1.6-13.4,4.7c-3.3,3.1-5,7.4-5,12.6c0,6.1,2.1,10.8,6.2,13.9c4.1,3.1,10.3,4.7,18.4,4.7
					h12.6v0.9c0,4.1-1.4,7.3-4.1,9.6s-6.5,3.4-11.5,3.4c-3.1,0-6.2-0.4-9.1-1.1c-3-0.8-5.8-1.9-8.5-3.4v8.3c3.3,1.3,6.5,2.2,9.6,2.8
					s6.1,1,9,1c7.9,0,13.8-2.1,17.7-6.2C273.6,45.7,275.6,39.5,275.6,31.2z"/>
			</g>
			<g>
				<path id="DejaVuSans-112" d="M302.8,8.2v-29h-9v75.5h9v-8.3c1.9,3.2,4.3,5.7,7.2,7.2c2.9,1.6,6.3,2.4,10.3,2.4
					c6.6,0,12-2.6,16.2-7.9s6.2-12.2,6.2-20.8s-2.1-15.5-6.2-20.8s-9.5-7.9-16.2-7.9c-4,0-7.4,0.8-10.3,2.4
					C307.1,2.5,304.7,5,302.8,8.2z M333.4,27.3c0,6.6-1.4,11.8-4.1,15.5s-6.5,5.6-11.2,5.6c-4.8,0-8.5-1.9-11.2-5.6
					s-4.1-8.9-4.1-15.5s1.4-11.8,4.1-15.5s6.5-5.6,11.2-5.6c4.8,0,8.5,1.9,11.2,5.6S333.4,20.7,333.4,27.3z"/>
			</g>
			<g>
				<path id="DejaVuSans-104" d="M403,33V0h-9v32.7c0,5.2-1,9-3,11.6c-2,2.6-5,3.9-9.1,3.9c-4.9,0-8.7-1.5-11.5-4.6
					s-4.2-7.3-4.2-12.6V0h-9v76h9V46.2c2.2,3.3,4.7,5.8,7.6,7.4c2.9,1.6,6.3,2.4,10.1,2.4c6.3,0,11-1.9,14.2-5.8
					C401.4,46.3,403,40.6,403,33z"/>
			</g>
			<g>
				<path id="DejaVuSans-32" d="M411.5,0"/>
			</g>
			<g>
				<path id="DejaVuSans-80" d="M463,64.8V37.4h12.4c4.6,0,8.1,1.2,10.6,3.6c2.5,2.4,3.8,5.8,3.8,10.2s-1.3,7.7-3.8,10.1
					s-6,3.6-10.6,3.6L463,64.8L463,64.8z M453.1,72.9h22.3c8.2,0,14.4-1.8,18.5-5.5c4.2-3.7,6.3-9.1,6.3-16.2
					c0-7.2-2.1-12.6-6.3-16.3c-4.2-3.7-10.4-5.5-18.5-5.5H463V0h-9.9V72.9z"/>
			</g>
			<g>
				<path id="DejaVuSans-97_00000141431785505840273130000006145862277194590874_" d="M533.4,27.5c-7.3,0-12.3-0.8-15.1-2.5
					s-4.2-4.5-4.2-8.5c0-3.2,1.1-5.7,3.2-7.6c2.1-1.9,5-2.8,8.6-2.8c5,0,9,1.8,12,5.3s4.5,8.2,4.5,14.1v2H533.4z M551.3,31.2V0h-9
					v8.3c-2.1-3.3-4.6-5.8-7.7-7.3s-6.8-2.4-11.2-2.4c-5.6,0-10,1.6-13.4,4.7c-3.3,3.1-5,7.4-5,12.6c0,6.1,2.1,10.8,6.2,13.9
					s10.3,4.7,18.4,4.7h12.6v0.9c0,4.1-1.4,7.3-4.1,9.6s-6.5,3.4-11.5,3.4c-3.1,0-6.2-0.4-9.1-1.1c-3-0.8-5.8-1.9-8.5-3.4v8.3
					c3.3,1.3,6.5,2.2,9.6,2.8s6.1,1,9,1c7.9,0,13.8-2.1,17.7-6.2C549.4,45.7,551.3,39.5,551.3,31.2z"/>
			</g>
			<g>
				<path id="DejaVuSans-103" d="M605.8,28c0,6.5-1.3,11.6-4,15.1c-2.7,3.6-6.4,5.4-11.3,5.4c-4.8,0-8.6-1.8-11.2-5.4
					c-2.7-3.6-4-8.6-4-15.1s1.3-11.5,4-15.1s6.4-5.4,11.2-5.4c4.9,0,8.6,1.8,11.3,5.4S605.8,21.5,605.8,28z M614.8,6.8
					c0-9.3-2.1-16.2-6.2-20.8c-4.1-4.5-10.5-6.8-19-6.8c-3.2,0-6.1,0.2-8.9,0.7c-2.8,0.5-5.5,1.2-8.2,2.2v8.7
					c2.6-1.4,5.2-2.5,7.8-3.2s5.2-1,7.9-1c5.9,0,10.3,1.5,13.2,4.6s4.4,7.7,4.4,13.9v4.5c-1.9-3.2-4.2-5.6-7.1-7.2
					c-2.9-1.6-6.4-2.4-10.4-2.4c-6.7,0-12.1,2.6-16.2,7.7c-4.1,5.1-6.2,11.9-6.2,20.3c0,8.5,2.1,15.2,6.2,20.3
					c4.1,5.1,9.5,7.7,16.2,7.7c4,0,7.5-0.8,10.4-2.4c2.9-1.6,5.3-4,7.1-7.2v8.3h9V6.8z"/>
			</g>
			<g>
				<path id="DejaVuSans-101" d="M680.1,29.6v-4.4h-41.3c0.4-6.2,2.3-10.9,5.6-14.1s8-4.9,13.9-4.9c3.4,0,6.8,0.4,10,1.3
					c3.2,0.8,6.5,2.1,9.7,3.8V2.8c-3.2-1.4-6.5-2.4-9.9-3.1s-6.8-1.1-10.3-1.1c-8.7,0-15.6,2.5-20.7,7.6c-5.1,5.1-7.6,12-7.6,20.6
					c0,8.9,2.4,16,7.2,21.3s11.4,7.9,19.6,7.9c7.4,0,13.2-2.4,17.5-7.1C677.9,44.2,680.1,37.7,680.1,29.6z M671.1,32.2
					C671,37.1,669.7,41,667,44c-2.7,2.9-6.2,4.4-10.7,4.4c-5,0-9-1.4-12-4.2s-4.7-6.8-5.2-12H671.1z"/>
			</g>
			<g>
				<path id="DejaVuSans-82" d="M729.8,34.2c2.1-0.7,4.2-2.2,6.2-4.6s4-5.6,6-9.7L752,0h-10.6l-9.3,18.7c-2.4,4.9-4.8,8.1-7,9.7
					c-2.3,1.6-5.3,2.4-9.2,2.4h-10.8V0h-9.9v72.9h22.3c8.3,0,14.6-1.7,18.7-5.2c4.1-3.5,6.2-8.7,6.2-15.8c0-4.6-1.1-8.4-3.2-11.4
					C736.9,37.4,733.8,35.4,729.8,34.2z M705.1,64.8V38.9h12.4c4.8,0,8.3,1.1,10.8,3.3c2.4,2.2,3.6,5.4,3.6,9.7s-1.2,7.5-3.6,9.6
					c-2.4,2.2-6,3.3-10.8,3.3H705.1z"/>
			</g>
			<g>
				<path id="DejaVuSans-97_00000065796939034027567790000016977314791545431690_" d="M786.9,27.5c-7.3,0-12.3-0.8-15.1-2.5
					s-4.2-4.5-4.2-8.5c0-3.2,1.1-5.7,3.2-7.6c2.1-1.9,5-2.8,8.6-2.8c5,0,9,1.8,12,5.3s4.5,8.2,4.5,14.1v2H786.9z M804.8,31.2V0h-9
					v8.3c-2.1-3.3-4.6-5.8-7.7-7.3s-6.8-2.4-11.2-2.4c-5.6,0-10,1.6-13.4,4.7c-3.3,3.1-5,7.4-5,12.6c0,6.1,2.1,10.8,6.2,13.9
					c4.1,3.1,10.3,4.7,18.4,4.7h12.6v0.9c0,4.1-1.4,7.3-4.1,9.6s-6.5,3.4-11.5,3.4c-3.1,0-6.2-0.4-9.1-1.1c-3-0.8-5.8-1.9-8.5-3.4
					v8.3c3.3,1.3,6.5,2.2,9.6,2.8s6.1,1,9,1c7.9,0,13.8-2.1,17.7-6.2C802.9,45.7,804.8,39.5,804.8,31.2z"/>
			</g>
			<g>
				<path id="DejaVuSans-110" d="M868.8,33V0h-9v32.7c0,5.2-1,9-3,11.6c-2,2.6-5,3.9-9.1,3.9c-4.9,0-8.7-1.5-11.5-4.6
					S832,36.3,832,31V0h-9v54.7h9v-8.5c2.2,3.3,4.7,5.8,7.6,7.4c2.9,1.6,6.3,2.4,10.1,2.4c6.3,0,11-1.9,14.2-5.8
					C867.2,46.3,868.8,40.6,868.8,33z"/>
			</g>
			<g>
				<path id="DejaVuSans-107" d="M886.4,76h9V31.1l26.8,23.6h11.5l-29-25.6L934.9,0h-11.7l-27.8,26.7V0h-9V76z"/>
			</g>
		</g>
	</g>
</g>
</svg>
