<?xml version="1.0" encoding="utf-8"?>
<!-- Generator: Adobe Illustrator 26.0.2, SVG Export Plug-In . SVG Version: 6.00 Build 0)  -->
<svg version="1.1" id="Layer_1" xmlns="http://www.w3.org/2000/svg" xmlns:xlink="http://www.w3.org/1999/xlink" x="0px" y="0px"
	 viewBox="0 0 504 252" style="enable-background:new 0 0 504 252;" xml:space="preserve">
<style type="text/css">
	.st0{fill:none;}
	
		.st1{clip-path:url(#SVGID_00000078753733300618825820000011123886380905474706_);fill:none;stroke:#000000;stroke-linecap:round;stroke-linejoin:round;}
	
		.st2{clip-path:url(#SVGID_00000057112242699776536790000014553445308110969217_);stroke:#000000;stroke-linecap:round;stroke-linejoin:round;}
	
		.st3{clip-path:url(#SVGID_00000073684989384506026040000013266254141464146573_);fill:none;stroke:#000000;stroke-linecap:round;stroke-linejoin:round;}
	
		.st4{clip-path:url(#SVGID_00000142884022904780603620000004257295633456497827_);stroke:#000000;stroke-linecap:round;stroke-linejoin:round;}
	
		.st5{clip-path:url(#SVGID_00000164503757405517660420000008829040196417769093_);fill:none;stroke:#000000;stroke-linecap:round;stroke-linejoin:round;}
	
		.st6{clip-path:url(#SVGID_00000109733326876149676130000009673074698753409198_);stroke:#000000;stroke-linecap:round;stroke-linejoin:round;}
	
		.st7{clip-path:url(#SVGID_00000103978776064038081530000003510526669163704493_);fill:none;stroke:#000000;stroke-linecap:round;stroke-linejoin:round;}
	
		.st8{clip-path:url(#SVGID_00000126318419545778472750000002132273273560293276_);stroke:#000000;stroke-linecap:round;stroke-linejoin:round;}
	
		.st9{clip-path:url(#SVGID_00000154415111146186298730000003648490487345496242_);fill:none;stroke:#000000;stroke-linecap:round;stroke-linejoin:round;}
	
		.st10{clip-path:url(#SVGID_00000005956203839436478980000001811567205025919619_);stroke:#000000;stroke-linecap:round;stroke-linejoin:round;}
	
		.st11{clip-path:url(#SVGID_00000124146441860665643250000000081040469526570919_);fill:none;stroke:#000000;stroke-linecap:round;stroke-linejoin:round;}
	
		.st12{clip-path:url(#SVGID_00000182500043035198783620000008641856121734612909_);stroke:#000000;stroke-linecap:round;stroke-linejoin:round;}
	
		.st13{clip-path:url(#SVGID_00000067931621413055215770000010156288584791564218_);fill:none;stroke:#000000;stroke-linecap:round;stroke-linejoin:round;}
	
		.st14{clip-path:url(#SVGID_00000113354019436415299840000013046564132519222961_);stroke:#000000;stroke-linecap:round;stroke-linejoin:round;}
	
		.st15{clip-path:url(#SVGID_00000123411148891081531810000008517349329413655979_);fill:none;stroke:#000000;stroke-linecap:round;stroke-linejoin:round;}
	
		.st16{clip-path:url(#SVGID_00000052062474983660695310000006762267103966061965_);stroke:#000000;stroke-linecap:round;stroke-linejoin:round;}
	
		.st17{clip-path:url(#SVGID_00000008829133648529280290000003209051089020503218_);fill:none;stroke:#000000;stroke-linecap:round;stroke-linejoin:round;}
	
		.st18{clip-path:url(#SVGID_00000049902559289854727470000013571358831735439790_);stroke:#000000;stroke-linecap:round;stroke-linejoin:round;}
	
		.st19{clip-path:url(#SVGID_00000147188105493596020470000012121288169752070313_);fill:none;stroke:#000000;stroke-linecap:round;stroke-linejoin:round;}
	
		.st20{clip-path:url(#SVGID_00000163772548116267849370000018274116759262866851_);stroke:#000000;stroke-linecap:round;stroke-linejoin:round;}
	
		.st21{clip-path:url(#SVGID_00000079471671877279869820000010976072006504401075_);fill:none;stroke:#000000;stroke-linecap:round;stroke-linejoin:round;}
	
		.st22{clip-path:url(#SVGID_00000174569243050004173780000017749805966621086598_);stroke:#000000;stroke-linecap:round;stroke-linejoin:round;}
	
		.st23{clip-path:url(#SVGID_00000139289355675046323250000004403047222453197469_);fill:none;stroke:#000000;stroke-linecap:round;stroke-linejoin:round;}
	
		.st24{clip-path:url(#SVGID_00000076581020681671392680000016947331714659329705_);stroke:#000000;stroke-linecap:round;stroke-linejoin:round;}
	
		.st25{clip-path:url(#SVGID_00000141425799397879866990000009753755408948829358_);fill:none;stroke:#000000;stroke-linecap:round;stroke-linejoin:round;}
	
		.st26{clip-path:url(#SVGID_00000176020731243800943640000000533979588109741745_);stroke:#000000;stroke-linecap:round;stroke-linejoin:round;}
	
		.st27{clip-path:url(#SVGID_00000177448653595164216350000009397121877382567560_);fill:none;stroke:#000000;stroke-linecap:round;stroke-linejoin:round;}
	
		.st28{clip-path:url(#SVGID_00000133526403519692374330000011083113025814635914_);stroke:#000000;stroke-linecap:round;stroke-linejoin:round;}
	
		.st29{clip-path:url(#SVGID_00000132078079159290529690000018084295168188640422_);fill:none;stroke:#000000;stroke-linecap:round;stroke-linejoin:round;}
	
		.st30{clip-path:url(#SVGID_00000168086295719060925370000009874920902119479472_);stroke:#000000;stroke-linecap:round;stroke-linejoin:round;}
	
		.st31{clip-path:url(#SVGID_00000069374362804003229440000011148677168993374118_);fill:none;stroke:#000000;stroke-linecap:round;stroke-linejoin:round;}
	
		.st32{clip-path:url(#SVGID_00000098191094746173284540000005294395592155668906_);stroke:#000000;stroke-linecap:round;stroke-linejoin:round;}
	
		.st33{clip-path:url(#SVGID_00000043426870656273381740000002448343291426647976_);fill:none;stroke:#000000;stroke-linecap:round;stroke-linejoin:round;}
	
		.st34{clip-path:url(#SVGID_00000049909232578047031860000008741865844680370874_);stroke:#000000;stroke-linecap:round;stroke-linejoin:round;}
	.st35{clip-path:url(#SVGID_00000055671981080545347490000011506108039342022814_);}
	.st36{fill:#FDE725;stroke:#FDE725;stroke-linejoin:round;}
	.st37{clip-path:url(#SVGID_00000181776735659858210020000016370343341829372821_);}
	.st38{fill:#375A8C;stroke:#375A8C;stroke-linejoin:round;}
	.st39{clip-path:url(#SVGID_00000120544410865202787910000015860821761284756127_);}
	.st40{fill:#3B528B;stroke:#3B528B;stroke-linejoin:round;}
	.st41{clip-path:url(#SVGID_00000111166616076363346280000002673247116875920793_);}
	.st42{fill:#423F85;stroke:#423F85;stroke-linejoin:round;}
	.st43{clip-path:url(#SVGID_00000047053643708147540220000009145898289049413771_);}
	.st44{fill:#7FD34E;stroke:#7FD34E;stroke-linejoin:round;}
	.st45{clip-path:url(#SVGID_00000126312852932263237260000014651863666666993559_);}
	.st46{clip-path:url(#SVGID_00000086658014910520813010000012960837393158170516_);}
	.st47{fill:#440154;stroke:#440154;stroke-linejoin:round;}
	.st48{clip-path:url(#SVGID_00000160171814447957177650000007672287181072466305_);}
	.st49{clip-path:url(#SVGID_00000155827611770577397480000007873125330020605358_);}
	.st50{clip-path:url(#SVGID_00000053514452743315482230000015878549155738128294_);}
	.st51{clip-path:url(#SVGID_00000046316803604425302410000006344764195023397504_);}
	
		.st52{clip-path:url(#SVGID_00000049921628575012173950000004313168486794816148_);fill:#FFFFFF;stroke:#FFFFFF;stroke-width:1.000000e-02;}
</style>
<g id="patch_1">
	<path class="st0" d="M0,252h504V0H0V252z"/>
</g>
<g id="matplotlib.axis_1">
</g>
<g id="axes_1">
	<g id="patch_2">
		<g>
			<g>
				<defs>
					<rect id="SVGID_1_" x="10.8" y="25.9" width="385.9" height="215.3"/>
				</defs>
				<clipPath id="SVGID_00000173883658364797333590000013903571535711358341_">
					<use xlink:href="#SVGID_1_"  style="overflow:visible;"/>
				</clipPath>
				
					<path style="clip-path:url(#SVGID_00000173883658364797333590000013903571535711358341_);fill:none;stroke:#000000;stroke-linecap:round;stroke-linejoin:round;" d="
					M189.5,70.3c55-8.1,109.7-16.2,164-24.3"/>
			</g>
		</g>
		<g>
			<g>
				<defs>
					<rect id="SVGID_00000115491167792025416490000015842456910961627302_" x="10.8" y="25.9" width="385.9" height="215.3"/>
				</defs>
				<clipPath id="SVGID_00000085950567871898513550000003015534455714159787_">
					<use xlink:href="#SVGID_00000115491167792025416490000015842456910961627302_"  style="overflow:visible;"/>
				</clipPath>
				
					<path style="clip-path:url(#SVGID_00000085950567871898513550000003015534455714159787_);stroke:#000000;stroke-linecap:round;stroke-linejoin:round;" d="
					M349.3,44.6l4.2,1.4l-3.7,2.6L349.3,44.6z"/>
			</g>
		</g>
	</g>
	<g id="patch_3">
		<g>
			<g>
				<defs>
					<rect id="SVGID_00000108272003444541339940000005156921208380950165_" x="10.8" y="25.9" width="385.9" height="215.3"/>
				</defs>
				<clipPath id="SVGID_00000102505025804460946180000014564262368807176334_">
					<use xlink:href="#SVGID_00000108272003444541339940000005156921208380950165_"  style="overflow:visible;"/>
				</clipPath>
				
					<path style="clip-path:url(#SVGID_00000102505025804460946180000014564262368807176334_);fill:none;stroke:#000000;stroke-linecap:round;stroke-linejoin:round;" d="
					M354.6,45.9c-55,8.1-109.7,16.2-164,24.3"/>
			</g>
		</g>
		<g>
			<g>
				<defs>
					<rect id="SVGID_00000031206649376526161740000012222636910304101004_" x="10.8" y="25.9" width="385.9" height="215.3"/>
				</defs>
				<clipPath id="SVGID_00000143616681618202043150000006784374884111027644_">
					<use xlink:href="#SVGID_00000031206649376526161740000012222636910304101004_"  style="overflow:visible;"/>
				</clipPath>
				
					<path style="clip-path:url(#SVGID_00000143616681618202043150000006784374884111027644_);stroke:#000000;stroke-linecap:round;stroke-linejoin:round;" d="
					M194.9,71.5l-4.2-1.4l3.7-2.6L194.9,71.5z"/>
			</g>
		</g>
	</g>
	<g id="patch_4">
		<g>
			<g>
				<defs>
					<rect id="SVGID_00000173149503891302212150000008779468462337436066_" x="10.8" y="25.9" width="385.9" height="215.3"/>
				</defs>
				<clipPath id="SVGID_00000046310396352141481640000009853580103059004573_">
					<use xlink:href="#SVGID_00000173149503891302212150000008779468462337436066_"  style="overflow:visible;"/>
				</clipPath>
				
					<path style="clip-path:url(#SVGID_00000046310396352141481640000009853580103059004573_);fill:none;stroke:#000000;stroke-linecap:round;stroke-linejoin:round;" d="
					M65,130.5c-6.2-25.8-12.4-51.3-18.5-76.4"/>
			</g>
		</g>
		<g>
			<g>
				<defs>
					<rect id="SVGID_00000008829991369905436220000005416658208137970866_" x="10.8" y="25.9" width="385.9" height="215.3"/>
				</defs>
				<clipPath id="SVGID_00000151525960793640080750000012815716411007023778_">
					<use xlink:href="#SVGID_00000008829991369905436220000005416658208137970866_"  style="overflow:visible;"/>
				</clipPath>
				
					<path style="clip-path:url(#SVGID_00000151525960793640080750000012815716411007023778_);stroke:#000000;stroke-linecap:round;stroke-linejoin:round;" d="
					M45.6,58.5l1-4.4l2.9,3.4L45.6,58.5z"/>
			</g>
		</g>
	</g>
	<g id="patch_5">
		<g>
			<g>
				<defs>
					<rect id="SVGID_00000097497557957328265400000001187600579205974449_" x="10.8" y="25.9" width="385.9" height="215.3"/>
				</defs>
				<clipPath id="SVGID_00000044160092342281991830000009893228963207331746_">
					<use xlink:href="#SVGID_00000097497557957328265400000001187600579205974449_"  style="overflow:visible;"/>
				</clipPath>
				
					<path style="clip-path:url(#SVGID_00000044160092342281991830000009893228963207331746_);fill:none;stroke:#000000;stroke-linecap:round;stroke-linejoin:round;" d="
					M74.5,134.5c33-19.5,65.7-38.9,98-58"/>
			</g>
		</g>
		<g>
			<g>
				<defs>
					<rect id="SVGID_00000073682878290900259830000001176762010722803634_" x="10.8" y="25.9" width="385.9" height="215.3"/>
				</defs>
				<clipPath id="SVGID_00000000212449878958234750000011130219793902110630_">
					<use xlink:href="#SVGID_00000073682878290900259830000001176762010722803634_"  style="overflow:visible;"/>
				</clipPath>
				
					<path style="clip-path:url(#SVGID_00000000212449878958234750000011130219793902110630_);stroke:#000000;stroke-linecap:round;stroke-linejoin:round;" d="
					M168.1,76.9l4.5-0.3l-2.4,3.8L168.1,76.9z"/>
			</g>
		</g>
	</g>
	<g id="patch_6">
		<g>
			<g>
				<defs>
					<rect id="SVGID_00000084530976397445146280000003141051623508824454_" x="10.8" y="25.9" width="385.9" height="215.3"/>
				</defs>
				<clipPath id="SVGID_00000152263754072131561730000015089347820879495083_">
					<use xlink:href="#SVGID_00000084530976397445146280000003141051623508824454_"  style="overflow:visible;"/>
				</clipPath>
				
					<path style="clip-path:url(#SVGID_00000152263754072131561730000015089347820879495083_);fill:none;stroke:#000000;stroke-linecap:round;stroke-linejoin:round;" d="
					M222.3,144.9c-12.4-21.9-24.5-43.5-36.5-64.8"/>
			</g>
		</g>
		<g>
			<g>
				<defs>
					<rect id="SVGID_00000032632245509821508170000004843319185089480866_" x="10.8" y="25.9" width="385.9" height="215.3"/>
				</defs>
				<clipPath id="SVGID_00000087387413632374474890000008173315759524517281_">
					<use xlink:href="#SVGID_00000032632245509821508170000004843319185089480866_"  style="overflow:visible;"/>
				</clipPath>
				
					<path style="clip-path:url(#SVGID_00000087387413632374474890000008173315759524517281_);stroke:#000000;stroke-linecap:round;stroke-linejoin:round;" d="
					M186,84.5l-0.2-4.5l3.7,2.5L186,84.5z"/>
			</g>
		</g>
	</g>
	<g id="patch_7">
		<g>
			<g>
				<defs>
					<rect id="SVGID_00000181074087359062294100000003644188269244441480_" x="10.8" y="25.9" width="385.9" height="215.3"/>
				</defs>
				<clipPath id="SVGID_00000070092396608615549400000003095820445656933532_">
					<use xlink:href="#SVGID_00000181074087359062294100000003644188269244441480_"  style="overflow:visible;"/>
				</clipPath>
				
					<path style="clip-path:url(#SVGID_00000070092396608615549400000003095820445656933532_);fill:none;stroke:#000000;stroke-linecap:round;stroke-linejoin:round;" d="
					M217.9,151.7c-47.4-4-94.4-8-141.1-11.9"/>
			</g>
		</g>
		<g>
			<g>
				<defs>
					<rect id="SVGID_00000102506413351859859330000018061042380236738988_" x="10.8" y="25.9" width="385.9" height="215.3"/>
				</defs>
				<clipPath id="SVGID_00000150819790754386574660000015415496621228940430_">
					<use xlink:href="#SVGID_00000102506413351859859330000018061042380236738988_"  style="overflow:visible;"/>
				</clipPath>
				
					<path style="clip-path:url(#SVGID_00000150819790754386574660000015415496621228940430_);stroke:#000000;stroke-linecap:round;stroke-linejoin:round;" d="
					M80.6,142.1l-3.8-2.3l4.2-1.7L80.6,142.1z"/>
			</g>
		</g>
	</g>
	<g id="patch_8">
		<g>
			<g>
				<defs>
					<rect id="SVGID_00000016053598553679722630000013331992257360022660_" x="10.8" y="25.9" width="385.9" height="215.3"/>
				</defs>
				<clipPath id="SVGID_00000183962585326716664340000014835554502721986967_">
					<use xlink:href="#SVGID_00000016053598553679722630000013331992257360022660_"  style="overflow:visible;"/>
				</clipPath>
				
					<path style="clip-path:url(#SVGID_00000183962585326716664340000014835554502721986967_);fill:none;stroke:#000000;stroke-linecap:round;stroke-linejoin:round;" d="
					M235.2,152.4c39.8,0,79.2,0,118.2,0"/>
			</g>
		</g>
		<g>
			<g>
				<defs>
					<rect id="SVGID_00000020381670471830124910000012260574018989138067_" x="10.8" y="25.9" width="385.9" height="215.3"/>
				</defs>
				<clipPath id="SVGID_00000162344921017679655110000005395185963657627036_">
					<use xlink:href="#SVGID_00000020381670471830124910000012260574018989138067_"  style="overflow:visible;"/>
				</clipPath>
				
					<path style="clip-path:url(#SVGID_00000162344921017679655110000005395185963657627036_);stroke:#000000;stroke-linecap:round;stroke-linejoin:round;" d="
					M349.4,150.4l4,2l-4,2V150.4z"/>
			</g>
		</g>
	</g>
	<g id="patch_9">
		<g>
			<g>
				<defs>
					<rect id="SVGID_00000180345264316943691970000003088943737783202231_" x="10.8" y="25.9" width="385.9" height="215.3"/>
				</defs>
				<clipPath id="SVGID_00000160869575433544724490000004012161309109404350_">
					<use xlink:href="#SVGID_00000180345264316943691970000003088943737783202231_"  style="overflow:visible;"/>
				</clipPath>
				
					<path style="clip-path:url(#SVGID_00000160869575433544724490000004012161309109404350_);fill:none;stroke:#000000;stroke-linecap:round;stroke-linejoin:round;" d="
					M355.3,148.9c-55.5-24.6-110.6-49.1-165.4-73.4"/>
			</g>
		</g>
		<g>
			<g>
				<defs>
					<rect id="SVGID_00000037653013285830063840000008121656550191711640_" x="10.8" y="25.9" width="385.9" height="215.3"/>
				</defs>
				<clipPath id="SVGID_00000120534470609847832510000010542253879479311275_">
					<use xlink:href="#SVGID_00000037653013285830063840000008121656550191711640_"  style="overflow:visible;"/>
				</clipPath>
				
					<path style="clip-path:url(#SVGID_00000120534470609847832510000010542253879479311275_);stroke:#000000;stroke-linecap:round;stroke-linejoin:round;" d="
					M192.8,79l-2.8-3.5l4.5-0.2L192.8,79z"/>
			</g>
		</g>
	</g>
	<g id="patch_10">
		<g>
			<g>
				<defs>
					<rect id="SVGID_00000141425236518004172480000005293157404688649867_" x="10.8" y="25.9" width="385.9" height="215.3"/>
				</defs>
				<clipPath id="SVGID_00000089565053406750350930000007291086331277937033_">
					<use xlink:href="#SVGID_00000141425236518004172480000005293157404688649867_"  style="overflow:visible;"/>
				</clipPath>
				
					<path style="clip-path:url(#SVGID_00000089565053406750350930000007291086331277937033_);fill:none;stroke:#000000;stroke-linecap:round;stroke-linejoin:round;" d="
					M354.6,152.4c-39.8,0-79.2,0-118.2,0"/>
			</g>
		</g>
		<g>
			<g>
				<defs>
					<rect id="SVGID_00000072962179470311670220000002872476110724372619_" x="10.8" y="25.9" width="385.9" height="215.3"/>
				</defs>
				<clipPath id="SVGID_00000132793237739247741790000016641904375261654704_">
					<use xlink:href="#SVGID_00000072962179470311670220000002872476110724372619_"  style="overflow:visible;"/>
				</clipPath>
				
					<path style="clip-path:url(#SVGID_00000132793237739247741790000016641904375261654704_);stroke:#000000;stroke-linecap:round;stroke-linejoin:round;" d="
					M240.3,154.4l-4-2l4-2V154.4z"/>
			</g>
		</g>
	</g>
	<g id="patch_11">
		<g>
			<g>
				<defs>
					<rect id="SVGID_00000142177955564077441390000012062263345938896521_" x="10.8" y="25.9" width="385.9" height="215.3"/>
				</defs>
				<clipPath id="SVGID_00000092439010332143526430000010222337508220173495_">
					<use xlink:href="#SVGID_00000142177955564077441390000012062263345938896521_"  style="overflow:visible;"/>
				</clipPath>
				
					<path style="clip-path:url(#SVGID_00000092439010332143526430000010222337508220173495_);fill:none;stroke:#000000;stroke-linecap:round;stroke-linejoin:round;" d="
					M103.5,198.9c24.3-40,48.5-79.7,72.4-119"/>
			</g>
		</g>
		<g>
			<g>
				<defs>
					<rect id="SVGID_00000114052704670435631790000010667895846780163990_" x="10.8" y="25.9" width="385.9" height="215.3"/>
				</defs>
				<clipPath id="SVGID_00000165927278706962601830000016905147548670390179_">
					<use xlink:href="#SVGID_00000114052704670435631790000010667895846780163990_"  style="overflow:visible;"/>
				</clipPath>
				
					<path style="clip-path:url(#SVGID_00000165927278706962601830000016905147548670390179_);stroke:#000000;stroke-linecap:round;stroke-linejoin:round;" d="
					M172.1,82.3l3.8-2.4l-0.4,4.5L172.1,82.3z"/>
			</g>
		</g>
	</g>
	<g id="patch_12">
		<g>
			<g>
				<defs>
					<rect id="SVGID_00000164476282094127256220000010113321513031524774_" x="10.8" y="25.9" width="385.9" height="215.3"/>
				</defs>
				<clipPath id="SVGID_00000044858748214125790880000000249386112693333906_">
					<use xlink:href="#SVGID_00000164476282094127256220000010113321513031524774_"  style="overflow:visible;"/>
				</clipPath>
				
					<path style="clip-path:url(#SVGID_00000044858748214125790880000000249386112693333906_);fill:none;stroke:#000000;stroke-linecap:round;stroke-linejoin:round;" d="
					M106.9,203c37.2-15.7,74.1-31.3,110.6-46.7"/>
			</g>
		</g>
		<g>
			<g>
				<defs>
					<rect id="SVGID_00000050636183918993724200000015110119293169091226_" x="10.8" y="25.9" width="385.9" height="215.3"/>
				</defs>
				<clipPath id="SVGID_00000057843671598130973670000016398976433237315211_">
					<use xlink:href="#SVGID_00000050636183918993724200000015110119293169091226_"  style="overflow:visible;"/>
				</clipPath>
				
					<path style="clip-path:url(#SVGID_00000057843671598130973670000016398976433237315211_);stroke:#000000;stroke-linecap:round;stroke-linejoin:round;" d="
					M213.1,155.9l4.5,0.3l-2.9,3.4L213.1,155.9z"/>
			</g>
		</g>
	</g>
	<g id="patch_13">
		<g>
			<g>
				<defs>
					<rect id="SVGID_00000101781463800789061680000013358458468515936646_" x="10.8" y="25.9" width="385.9" height="215.3"/>
				</defs>
				<clipPath id="SVGID_00000183212118310803890750000004213161171551304613_">
					<use xlink:href="#SVGID_00000101781463800789061680000013358458468515936646_"  style="overflow:visible;"/>
				</clipPath>
				
					<path style="clip-path:url(#SVGID_00000183212118310803890750000004213161171551304613_);fill:none;stroke:#000000;stroke-linecap:round;stroke-linejoin:round;" d="
					M138,206.2c13.4-42.1,26.8-83.9,40-125.3"/>
			</g>
		</g>
		<g>
			<g>
				<defs>
					<rect id="SVGID_00000132055051570497692470000002293059106228002190_" x="10.8" y="25.9" width="385.9" height="215.3"/>
				</defs>
				<clipPath id="SVGID_00000137127683656653345140000004645797532599332006_">
					<use xlink:href="#SVGID_00000132055051570497692470000002293059106228002190_"  style="overflow:visible;"/>
				</clipPath>
				
					<path style="clip-path:url(#SVGID_00000137127683656653345140000004645797532599332006_);stroke:#000000;stroke-linecap:round;stroke-linejoin:round;" d="
					M174.9,84.1l3.1-3.2l0.7,4.4L174.9,84.1z"/>
			</g>
		</g>
	</g>
	<g id="patch_14">
		<g>
			<g>
				<defs>
					<rect id="SVGID_00000049942198527535741510000001233846318855637889_" x="10.8" y="25.9" width="385.9" height="215.3"/>
				</defs>
				<clipPath id="SVGID_00000054229907425969680760000018391844861605910968_">
					<use xlink:href="#SVGID_00000049942198527535741510000001233846318855637889_"  style="overflow:visible;"/>
				</clipPath>
				
					<path style="clip-path:url(#SVGID_00000054229907425969680760000018391844861605910968_);fill:none;stroke:#000000;stroke-linecap:round;stroke-linejoin:round;" d="
					M142.6,209.6c25.6-17.4,50.9-34.6,75.9-51.6"/>
			</g>
		</g>
		<g>
			<g>
				<defs>
					<rect id="SVGID_00000073716683174236302960000010580675792321057195_" x="10.8" y="25.9" width="385.9" height="215.3"/>
				</defs>
				<clipPath id="SVGID_00000058556511259957274040000015235732185965787059_">
					<use xlink:href="#SVGID_00000073716683174236302960000010580675792321057195_"  style="overflow:visible;"/>
				</clipPath>
				
					<path style="clip-path:url(#SVGID_00000058556511259957274040000015235732185965787059_);stroke:#000000;stroke-linecap:round;stroke-linejoin:round;" d="
					M214,158.5l4.4-0.6l-2.2,3.9L214,158.5z"/>
			</g>
		</g>
	</g>
	<g id="patch_15">
		<g>
			<g>
				<defs>
					<rect id="SVGID_00000035506132524551630180000001889824195361910203_" x="10.8" y="25.9" width="385.9" height="215.3"/>
				</defs>
				<clipPath id="SVGID_00000002372903569180888360000004522062258298846627_">
					<use xlink:href="#SVGID_00000035506132524551630180000001889824195361910203_"  style="overflow:visible;"/>
				</clipPath>
				
					<path style="clip-path:url(#SVGID_00000002372903569180888360000004522062258298846627_);fill:none;stroke:#000000;stroke-linecap:round;stroke-linejoin:round;" d="
					M172.4,213.9c2.7-44.6,5.4-88.7,8-132.6"/>
			</g>
		</g>
		<g>
			<g>
				<defs>
					<rect id="SVGID_00000101792736275470097840000016897115709280852381_" x="10.8" y="25.9" width="385.9" height="215.3"/>
				</defs>
				<clipPath id="SVGID_00000177465597214372166350000012867742391286230197_">
					<use xlink:href="#SVGID_00000101792736275470097840000016897115709280852381_"  style="overflow:visible;"/>
				</clipPath>
				
					<path style="clip-path:url(#SVGID_00000177465597214372166350000012867742391286230197_);stroke:#000000;stroke-linecap:round;stroke-linejoin:round;" d="
					M178.1,85.2l2.2-3.9l1.8,4.1L178.1,85.2z"/>
			</g>
		</g>
	</g>
	<g id="patch_16">
		<g>
			<g>
				<defs>
					<rect id="SVGID_00000078759415455137409630000013124442228998253196_" x="10.8" y="25.9" width="385.9" height="215.3"/>
				</defs>
				<clipPath id="SVGID_00000023987098754562224830000017364116812964507557_">
					<use xlink:href="#SVGID_00000078759415455137409630000013124442228998253196_"  style="overflow:visible;"/>
				</clipPath>
				
					<path style="clip-path:url(#SVGID_00000023987098754562224830000017364116812964507557_);fill:none;stroke:#000000;stroke-linecap:round;stroke-linejoin:round;" d="
					M177.2,215.7c14.7-18.8,29.1-37.3,43.3-55.5"/>
			</g>
		</g>
		<g>
			<g>
				<defs>
					<rect id="SVGID_00000042708415704311921420000014574813488423002046_" x="10.8" y="25.9" width="385.9" height="215.3"/>
				</defs>
				<clipPath id="SVGID_00000062183204639138188970000011714087113243904690_">
					<use xlink:href="#SVGID_00000042708415704311921420000014574813488423002046_"  style="overflow:visible;"/>
				</clipPath>
				
					<path style="clip-path:url(#SVGID_00000062183204639138188970000011714087113243904690_);stroke:#000000;stroke-linecap:round;stroke-linejoin:round;" d="
					M216.5,162.1l4-1.9l-0.9,4.4L216.5,162.1z"/>
			</g>
		</g>
	</g>
	<g id="patch_17">
		<g>
			<g>
				<defs>
					<rect id="SVGID_00000078006022984593064660000016274995074716564878_" x="10.8" y="25.9" width="385.9" height="215.3"/>
				</defs>
				<clipPath id="SVGID_00000123442489120676386660000013783520578043551405_">
					<use xlink:href="#SVGID_00000078006022984593064660000016274995074716564878_"  style="overflow:visible;"/>
				</clipPath>
				
					<path style="clip-path:url(#SVGID_00000123442489120676386660000013783520578043551405_);fill:none;stroke:#000000;stroke-linecap:round;stroke-linejoin:round;" d="
					M310.2,201.9c-25.4-15-50.5-29.9-75.3-44.5"/>
			</g>
		</g>
		<g>
			<g>
				<defs>
					<rect id="SVGID_00000080176781572834224430000007980806005741472161_" x="10.8" y="25.9" width="385.9" height="215.3"/>
				</defs>
				<clipPath id="SVGID_00000099646133198728329830000017865899425937182085_">
					<use xlink:href="#SVGID_00000080176781572834224430000007980806005741472161_"  style="overflow:visible;"/>
				</clipPath>
				
					<path style="clip-path:url(#SVGID_00000099646133198728329830000017865899425937182085_);stroke:#000000;stroke-linecap:round;stroke-linejoin:round;" d="
					M237.4,161.2l-2.4-3.8l4.5,0.3L237.4,161.2z"/>
			</g>
		</g>
	</g>
	<g id="patch_18">
		<g>
			<g>
				<defs>
					<rect id="SVGID_00000153676706101173122240000013463492921047172017_" x="10.8" y="25.9" width="385.9" height="215.3"/>
				</defs>
				<clipPath id="SVGID_00000066499215649155857360000017677042497348766891_">
					<use xlink:href="#SVGID_00000153676706101173122240000013463492921047172017_"  style="overflow:visible;"/>
				</clipPath>
				
					<path style="clip-path:url(#SVGID_00000066499215649155857360000017677042497348766891_);fill:none;stroke:#000000;stroke-linecap:round;stroke-linejoin:round;" d="
					M332.3,190c-32.5-11.5-64.7-23-96.5-34.3"/>
			</g>
		</g>
		<g>
			<g>
				<defs>
					<rect id="SVGID_00000050623866066834594760000011591153230662769065_" x="10.8" y="25.9" width="385.9" height="215.3"/>
				</defs>
				<clipPath id="SVGID_00000156589682802315176550000003943726788708012686_">
					<use xlink:href="#SVGID_00000050623866066834594760000011591153230662769065_"  style="overflow:visible;"/>
				</clipPath>
				
					<path style="clip-path:url(#SVGID_00000156589682802315176550000003943726788708012686_);stroke:#000000;stroke-linecap:round;stroke-linejoin:round;" d="
					M238.8,158.9l-3.1-3.2l4.4-0.5L238.8,158.9z"/>
			</g>
		</g>
	</g>
	<g id="PathCollection_1">
		<g>
			<g>
				<defs>
					<rect id="SVGID_00000119797514570673397090000003374910203184710311_" x="10.8" y="25.9" width="385.9" height="215.3"/>
				</defs>
				<clipPath id="SVGID_00000017506634557144438350000015761839597388838070_">
					<use xlink:href="#SVGID_00000119797514570673397090000003374910203184710311_"  style="overflow:visible;"/>
				</clipPath>
				<g style="clip-path:url(#SVGID_00000017506634557144438350000015761839597388838070_);">
					<g>
						<path id="C0_0_5ef6641bc7" class="st36" d="M181,79.5c2.1,0,4.1-0.8,5.6-2.3s2.3-3.5,2.3-5.6s-0.8-4.1-2.3-5.6
							s-3.5-2.3-5.6-2.3s-4.1,0.8-5.6,2.3s-2.3,3.5-2.3,5.6s0.8,4.1,2.3,5.6S178.9,79.5,181,79.5z"/>
					</g>
				</g>
			</g>
		</g>
		<g>
			<g>
				<defs>
					<rect id="SVGID_00000067950128487398381830000003899189259551925641_" x="10.8" y="25.9" width="385.9" height="215.3"/>
				</defs>
				<clipPath id="SVGID_00000009584705680745090480000018053834790081434514_">
					<use xlink:href="#SVGID_00000067950128487398381830000003899189259551925641_"  style="overflow:visible;"/>
				</clipPath>
				<g style="clip-path:url(#SVGID_00000009584705680745090480000018053834790081434514_);">
					<g>
						<path id="C0_0_5ef6641bc7_00000104700098857846535860000017656303067114973369_" class="st38" d="M363.2,52.5
							c2.1,0,4.1-0.8,5.6-2.3s2.3-3.5,2.3-5.6s-0.8-4.1-2.3-5.6s-3.5-2.3-5.6-2.3s-4.1,0.8-5.6,2.3s-2.3,3.5-2.3,5.6
							s0.8,4.1,2.3,5.6S361.1,52.5,363.2,52.5z"/>
					</g>
				</g>
			</g>
		</g>
		<g>
			<g>
				<defs>
					<rect id="SVGID_00000079475742451393458680000010565032089721251256_" x="10.8" y="25.9" width="385.9" height="215.3"/>
				</defs>
				<clipPath id="SVGID_00000055684138783035237910000001656916289634966144_">
					<use xlink:href="#SVGID_00000079475742451393458680000010565032089721251256_"  style="overflow:visible;"/>
				</clipPath>
				<g style="clip-path:url(#SVGID_00000055684138783035237910000001656916289634966144_);">
					<g>
						<path id="C0_0_5ef6641bc7_00000152952027350242286810000005629566652383487138_" class="st40" d="M67.1,146.9
							c2.1,0,4.1-0.8,5.6-2.3S75,141,75,139s-0.8-4.1-2.3-5.6s-3.5-2.3-5.6-2.3s-4.1,0.8-5.6,2.3s-2.3,3.5-2.3,5.6s0.8,4.1,2.3,5.6
							C63,146,65,146.9,67.1,146.9z"/>
					</g>
				</g>
			</g>
		</g>
		<g>
			<g>
				<defs>
					<rect id="SVGID_00000026849543764249986460000014652883198971313571_" x="10.8" y="25.9" width="385.9" height="215.3"/>
				</defs>
				<clipPath id="SVGID_00000183217858858628505500000017131991963291946408_">
					<use xlink:href="#SVGID_00000026849543764249986460000014652883198971313571_"  style="overflow:visible;"/>
				</clipPath>
				<g style="clip-path:url(#SVGID_00000183217858858628505500000017131991963291946408_);">
					<g>
						<path id="C0_0_5ef6641bc7_00000134246048149436636860000012078273974309848505_" class="st42" d="M44.3,52.5
							c2.1,0,4.1-0.8,5.6-2.3s2.3-3.5,2.3-5.6s-0.8-4.1-2.3-5.6s-3.5-2.3-5.6-2.3s-4.1,0.8-5.6,2.3s-2.3,3.5-2.3,5.6
							s0.8,4.1,2.3,5.6S42.2,52.5,44.3,52.5z"/>
					</g>
				</g>
			</g>
		</g>
		<g>
			<g>
				<defs>
					<rect id="SVGID_00000161606404109225898310000003557881612452037815_" x="10.8" y="25.9" width="385.9" height="215.3"/>
				</defs>
				<clipPath id="SVGID_00000145034638330711136730000001356087271676098446_">
					<use xlink:href="#SVGID_00000161606404109225898310000003557881612452037815_"  style="overflow:visible;"/>
				</clipPath>
				<g style="clip-path:url(#SVGID_00000145034638330711136730000001356087271676098446_);">
					<g>
						<path id="C0_0_5ef6641bc7_00000139276301268877106250000015429141415949356182_" class="st44" d="M226.5,160.3
							c2.1,0,4.1-0.8,5.6-2.3s2.3-3.5,2.3-5.6s-0.8-4.1-2.3-5.6s-3.5-2.3-5.6-2.3s-4.1,0.8-5.6,2.3s-2.3,3.5-2.3,5.6
							s0.8,4.1,2.3,5.6S224.4,160.3,226.5,160.3z"/>
					</g>
				</g>
			</g>
		</g>
		<g>
			<g>
				<defs>
					<rect id="SVGID_00000165196356190442400680000009815303650848326272_" x="10.8" y="25.9" width="385.9" height="215.3"/>
				</defs>
				<clipPath id="SVGID_00000082360696118096431340000008211253733906410924_">
					<use xlink:href="#SVGID_00000165196356190442400680000009815303650848326272_"  style="overflow:visible;"/>
				</clipPath>
				<g style="clip-path:url(#SVGID_00000082360696118096431340000008211253733906410924_);">
					<g>
						<path id="C0_0_5ef6641bc7_00000028286023048933042680000008026786549655672472_" class="st40" d="M363.2,160.3
							c2.1,0,4.1-0.8,5.6-2.3s2.3-3.5,2.3-5.6s-0.8-4.1-2.3-5.6s-3.5-2.3-5.6-2.3s-4.1,0.8-5.6,2.3s-2.3,3.5-2.3,5.6
							s0.8,4.1,2.3,5.6S361.1,160.3,363.2,160.3z"/>
					</g>
				</g>
			</g>
		</g>
		<g>
			<g>
				<defs>
					<rect id="SVGID_00000084516183277983484760000006180370957686933931_" x="10.8" y="25.9" width="385.9" height="215.3"/>
				</defs>
				<clipPath id="SVGID_00000089573070201722483760000009751044914273164701_">
					<use xlink:href="#SVGID_00000084516183277983484760000006180370957686933931_"  style="overflow:visible;"/>
				</clipPath>
				<g style="clip-path:url(#SVGID_00000089573070201722483760000009751044914273164701_);">
					<g>
						<path id="C0_0_5ef6641bc7_00000088115233125316576150000006629409285947050671_" class="st47" d="M99,214.2
							c2.1,0,4.1-0.8,5.6-2.3s2.3-3.5,2.3-5.6s-0.8-4.1-2.3-5.6s-3.5-2.3-5.6-2.3s-4.1,0.8-5.6,2.3s-2.3,3.5-2.3,5.6
							s0.8,4.1,2.3,5.6S96.9,214.2,99,214.2z"/>
					</g>
				</g>
			</g>
		</g>
		<g>
			<g>
				<defs>
					<rect id="SVGID_00000050657169090405898850000016723279832743145895_" x="10.8" y="25.9" width="385.9" height="215.3"/>
				</defs>
				<clipPath id="SVGID_00000154427770294113444490000005646589063546471068_">
					<use xlink:href="#SVGID_00000050657169090405898850000016723279832743145895_"  style="overflow:visible;"/>
				</clipPath>
				<g style="clip-path:url(#SVGID_00000154427770294113444490000005646589063546471068_);">
					<g>
						<path id="C0_0_5ef6641bc7_00000139257752687344337460000004159223917731980679_" class="st47" d="M135.4,222.3
							c2.1,0,4.1-0.8,5.6-2.3s2.3-3.5,2.3-5.6s-0.8-4.1-2.3-5.6s-3.5-2.3-5.6-2.3s-4.1,0.8-5.6,2.3s-2.3,3.5-2.3,5.6
							s0.8,4.1,2.3,5.6S133.3,222.3,135.4,222.3z"/>
					</g>
				</g>
			</g>
		</g>
		<g>
			<g>
				<defs>
					<rect id="SVGID_00000077314893413622026200000014565178701902965674_" x="10.8" y="25.9" width="385.9" height="215.3"/>
				</defs>
				<clipPath id="SVGID_00000152258112157762813490000016596742507205956024_">
					<use xlink:href="#SVGID_00000077314893413622026200000014565178701902965674_"  style="overflow:visible;"/>
				</clipPath>
				<g style="clip-path:url(#SVGID_00000152258112157762813490000016596742507205956024_);">
					<g>
						<path id="C0_0_5ef6641bc7_00000039854299178622125050000014392811744787525268_" class="st47" d="M171.9,230.4
							c2.1,0,4.1-0.8,5.6-2.3s2.3-3.5,2.3-5.6s-0.8-4.1-2.3-5.6s-3.5-2.3-5.6-2.3s-4.1,0.8-5.6,2.3s-2.3,3.5-2.3,5.6
							s0.8,4.1,2.3,5.6S169.8,230.4,171.9,230.4z"/>
					</g>
				</g>
			</g>
		</g>
		<g>
			<g>
				<defs>
					<rect id="SVGID_00000077316632738822778590000010603215185771203742_" x="10.8" y="25.9" width="385.9" height="215.3"/>
				</defs>
				<clipPath id="SVGID_00000065756116367607165250000016112161793681664687_">
					<use xlink:href="#SVGID_00000077316632738822778590000010603215185771203742_"  style="overflow:visible;"/>
				</clipPath>
				<g style="clip-path:url(#SVGID_00000065756116367607165250000016112161793681664687_);">
					<g>
						<path id="C0_0_5ef6641bc7_00000126324919121963838860000009815388779924716439_" class="st47" d="M317.7,214.2
							c2.1,0,4.1-0.8,5.6-2.3s2.3-3.5,2.3-5.6s-0.8-4.1-2.3-5.6s-3.5-2.3-5.6-2.3s-4.1,0.8-5.6,2.3s-2.3,3.5-2.3,5.6
							s0.8,4.1,2.3,5.6C313.5,213.4,315.6,214.2,317.7,214.2z"/>
					</g>
				</g>
			</g>
		</g>
		<g>
			<g>
				<defs>
					<rect id="SVGID_00000070092033577187063460000005677639742596221875_" x="10.8" y="25.9" width="385.9" height="215.3"/>
				</defs>
				<clipPath id="SVGID_00000110460514213795259910000008779061784447101104_">
					<use xlink:href="#SVGID_00000070092033577187063460000005677639742596221875_"  style="overflow:visible;"/>
				</clipPath>
				<g style="clip-path:url(#SVGID_00000110460514213795259910000008779061784447101104_);">
					<g>
						<path id="C0_0_5ef6641bc7_00000103961354665368584390000010201675171113239482_" class="st47" d="M340.4,200.8
							c2.1,0,4.1-0.8,5.6-2.3s2.3-3.5,2.3-5.6s-0.8-4.1-2.3-5.6s-3.5-2.3-5.6-2.3s-4.1,0.8-5.6,2.3s-2.3,3.5-2.3,5.6
							s0.8,4.1,2.3,5.6C336.3,199.9,338.3,200.8,340.4,200.8z"/>
					</g>
				</g>
			</g>
		</g>
	</g>
	<g id="text_1">
		<g transform="translate(132.821425 19.918125)scale(0.12 -0.12)">
			<g>
				<path id="DejaVuSans-68" d="M19.7,64.8V8.1h11.9c10.1,0,17.4,2.3,22.1,6.8c4.7,4.6,7,11.8,7,21.6s-2.3,16.9-7,21.5
					s-12,6.8-22.1,6.8H19.7z M9.8,72.9h20.3c14.1,0,24.5-2.9,31.1-8.8s9.9-15.1,9.9-27.6c0-12.6-3.3-21.8-10-27.7
					c-6.6-5.9-17-8.8-31-8.8H9.8V72.9z"/>
			</g>
			<g>
				<path id="DejaVuSans-105" d="M86.4,54.7h9V0h-9V54.7z M86.4,76h9V64.6h-9V76z"/>
			</g>
			<g>
				<path id="DejaVuSans-71" d="M164.3,10.4V30h-16.1v8.1h25.9V6.8c-3.8-2.7-8-4.7-12.6-6.1s-9.5-2.1-14.7-2.1
					c-11.4,0-20.3,3.3-26.8,10c-6.4,6.7-9.6,15.9-9.6,27.8s3.2,21.2,9.6,27.9c6.4,6.7,15.4,10,26.8,10c4.8,0,9.3-0.6,13.5-1.8
					c4.3-1.2,8.2-2.9,11.8-5.2V56.8c-3.6,3.1-7.5,5.4-11.6,7c-4.1,1.6-8.4,2.3-12.9,2.3c-8.9,0-15.6-2.5-20.1-7.5
					c-4.5-5-6.7-12.4-6.7-22.3c0-9.8,2.2-17.2,6.7-22.2c4.5-5,11.2-7.5,20.1-7.5c3.5,0,6.6,0.3,9.3,0.9
					C159.7,8.2,162.1,9.1,164.3,10.4z"/>
			</g>
			<g>
				<path id="DejaVuSans-114" d="M223.4,46.3c-1,0.6-2.1,1-3.3,1.3s-2.5,0.4-3.9,0.4c-5.1,0-9-1.7-11.7-5s-4.1-8-4.1-14.2V0h-9v54.7
					h9v-8.5c1.9,3.3,4.4,5.8,7.4,7.4c3,1.6,6.7,2.4,11,2.4c0.6,0,1.3,0,2-0.1c0.8-0.1,1.6-0.2,2.5-0.4L223.4,46.3z"/>
			</g>
			<g>
				<path id="DejaVuSans-97" d="M257.7,27.5c-7.3,0-12.3-0.8-15.1-2.5s-4.2-4.5-4.2-8.5c0-3.2,1.1-5.7,3.2-7.6
					c2.1-1.9,5-2.8,8.6-2.8c5,0,9,1.8,12,5.3s4.5,8.2,4.5,14.1v2H257.7z M275.6,31.2V0h-9v8.3c-2-3.3-4.6-5.8-7.7-7.3
					s-6.8-2.4-11.2-2.4c-5.6,0-10,1.6-13.4,4.7c-3.3,3.1-5,7.4-5,12.6c0,6.1,2.1,10.8,6.2,13.9c4.1,3.1,10.3,4.7,18.4,4.7h12.6v0.9
					c0,4.1-1.4,7.3-4.1,9.6s-6.5,3.4-11.5,3.4c-3.1,0-6.2-0.4-9.1-1.1c-3-0.8-5.8-1.9-8.5-3.4v8.3c3.3,1.3,6.5,2.2,9.6,2.8
					s6.1,1,9,1c7.9,0,13.8-2.1,17.7-6.2C273.6,45.7,275.6,39.5,275.6,31.2z"/>
			</g>
			<g>
				<path id="DejaVuSans-112" d="M302.8,8.2v-29h-9v75.5h9v-8.3c1.9,3.2,4.3,5.7,7.2,7.2c2.9,1.6,6.3,2.4,10.3,2.4
					c6.6,0,12-2.6,16.2-7.9s6.2-12.2,6.2-20.8s-2.1-15.5-6.2-20.8s-9.5-7.9-16.2-7.9c-4,0-7.4,0.8-10.3,2.4
					C307.1,2.5,304.7,5,302.8,8.2z M333.4,27.3c0,6.6-1.4,11.8-4.1,15.5s-6.5,5.6-11.2,5.6c-4.8,0-8.5-1.9-11.2-5.6
					s-4.1-8.9-4.1-15.5s1.4-11.8,4.1-15.5s6.5-5.6,11.2-5.6c4.8,0,8.5,1.9,11.2,5.6S333.4,20.7,333.4,27.3z"/>
			</g>
			<g>
				<path id="DejaVuSans-104" d="M403,33V0h-9v32.7c0,5.2-1,9-3,11.6c-2,2.6-5,3.9-9.1,3.9c-4.9,0-8.7-1.5-11.5-4.6
					s-4.2-7.3-4.2-12.6V0h-9v76h9V46.2c2.2,3.3,4.7,5.8,7.6,7.4c2.9,1.6,6.3,2.4,10.1,2.4c6.3,0,11-1.9,14.2-5.8
					C401.4,46.3,403,40.6,403,33z"/>
			</g>
			<g>
				<path id="DejaVuSans-32" d="M411.5,0"/>
			</g>
			<g>
				<path id="DejaVuSans-75" d="M453.1,72.9h9.9V42.1l32.7,30.8h12.7l-36.2-34L511,0h-13l-35,35.1V0h-9.9V72.9z"/>
			</g>
			<g>
				<path id="DejaVuSans-97_00000176755539421105544220000014031086352532390826_" d="M541.4,27.5c-7.3,0-12.3-0.8-15.1-2.5
					s-4.2-4.5-4.2-8.5c0-3.2,1.1-5.7,3.2-7.6c2.1-1.9,5-2.8,8.6-2.8c5,0,9,1.8,12,5.3s4.5,8.2,4.5,14.1v2H541.4z M559.3,31.2V0h-9
					v8.3c-2.1-3.3-4.6-5.8-7.7-7.3s-6.8-2.4-11.2-2.4c-5.6,0-10,1.6-13.4,4.7c-3.3,3.1-5,7.4-5,12.6c0,6.1,2.1,10.8,6.2,13.9
					c4.1,3.1,10.3,4.7,18.4,4.7h12.6v0.9c0,4.1-1.4,7.3-4.1,9.6s-6.5,3.4-11.5,3.4c-3.1,0-6.2-0.4-9.1-1.1c-3-0.8-5.8-1.9-8.5-3.4
					v8.3c3.3,1.3,6.5,2.2,9.6,2.8s6.1,1,9,1c7.9,0,13.8-2.1,17.7-6.2C557.4,45.7,559.3,39.5,559.3,31.2z"/>
			</g>
			<g>
				<path id="DejaVuSans-116" d="M586.7,70.2V54.7h18.5v-7h-18.5V18c0-4.5,0.6-7.3,1.8-8.6s3.7-1.9,7.5-1.9h9.2V0H596
					c-6.9,0-11.7,1.3-14.4,3.9c-2.6,2.6-4,7.3-4,14.1v29.7H571v7h6.6v15.5H586.7z"/>
			</g>
			<g>
				<path id="DejaVuSans-122" d="M613.1,54.7h42.7v-8.2L622,7.2h33.8V0h-43.9v8.2l33.8,39.3h-32.6V54.7z"/>
			</g>
			<g>
				<path id="DejaVuSans-32_00000163775365054257377040000003897558331454348168_" d="M660.1,0"/>
			</g>
			<g>
				<path id="DejaVuSans-67" d="M756.3,67.3V56.9c-3.3,3.1-6.9,5.4-10.6,6.9c-3.8,1.5-7.8,2.3-12,2.3c-8.3,0-14.7-2.5-19.1-7.6
					c-4.4-5.1-6.6-12.5-6.6-22.1s2.2-17,6.6-22c4.4-5.1,10.8-7.6,19.1-7.6c4.2,0,8.2,0.8,12,2.3s7.3,3.8,10.6,6.9V5.6
					c-3.4-2.3-7.1-4.1-11-5.3s-7.9-1.7-12.2-1.7c-11,0-19.7,3.4-26.1,10.1c-6.3,6.8-9.5,16-9.5,27.7s3.2,21,9.5,27.7
					c6.4,6.8,15.1,10.1,26.1,10.1c4.4,0,8.5-0.6,12.3-1.7C749.3,71.3,752.9,69.6,756.3,67.3z"/>
			</g>
			<g>
				<path id="DejaVuSans-101" d="M817.9,29.6v-4.4h-41.3c0.4-6.2,2.3-10.9,5.6-14.1s8-4.9,13.9-4.9c3.4,0,6.8,0.4,10,1.3
					c3.2,0.8,6.5,2.1,9.7,3.8V2.8c-3.2-1.4-6.5-2.4-9.9-3.1s-6.8-1.1-10.3-1.1c-8.7,0-15.6,2.5-20.7,7.6c-5.1,5.1-7.6,12-7.6,20.6
					c0,8.9,2.4,16,7.2,21.3s11.4,7.9,19.6,7.9c7.4,0,13.2-2.4,17.5-7.1C815.8,44.2,817.9,37.7,817.9,29.6z M808.9,32.2
					c-0.1,4.9-1.4,8.8-4.1,11.8c-2.7,2.9-6.2,4.4-10.7,4.4c-5,0-9-1.4-12-4.2s-4.7-6.8-5.2-12H808.9z"/>
			</g>
			<g>
				<path id="DejaVuSans-110" d="M878.1,33V0h-9v32.7c0,5.2-1,9-3,11.6c-2,2.6-5,3.9-9.1,3.9c-4.9,0-8.7-1.5-11.5-4.6
					s-4.2-7.3-4.2-12.6V0h-9v54.7h9v-8.5c2.2,3.3,4.7,5.8,7.6,7.4c2.9,1.6,6.3,2.4,10.1,2.4c6.3,0,11-1.9,14.2-5.8
					C876.5,46.3,878.1,40.6,878.1,33z"/>
			</g>
			<g>
				<path id="DejaVuSans-116_00000127732149758815309960000014647486182918175663_" d="M904.9,70.2V54.7h18.5v-7h-18.5V18
					c0-4.5,0.6-7.3,1.8-8.6s3.7-1.9,7.5-1.9h9.2V0h-9.2c-6.9,0-11.7,1.3-14.4,3.9c-2.6,2.6-4,7.3-4,14.1v29.7h-6.6v7h6.6v15.5H904.9
					z"/>
			</g>
			<g>
				<path id="DejaVuSans-114_00000031913530276735485960000001665770133824549029_" d="M966.9,46.3c-1,0.6-2.1,1-3.3,1.3
					s-2.5,0.4-3.9,0.4c-5.1,0-9-1.7-11.7-5s-4.1-8-4.1-14.2V0h-9v54.7h9v-8.5c1.9,3.3,4.4,5.8,7.4,7.4c3,1.6,6.7,2.4,11,2.4
					c0.6,0,1.3,0,2-0.1c0.8-0.1,1.6-0.2,2.5-0.4L966.9,46.3z"/>
			</g>
			<g>
				<path id="DejaVuSans-97_00000034803331578254724050000015136746682967826851_" d="M1001.2,27.5c-7.3,0-12.3-0.8-15.1-2.5
					s-4.2-4.5-4.2-8.5c0-3.2,1.1-5.7,3.2-7.6c2.1-1.9,5-2.8,8.6-2.8c5,0,9,1.8,12,5.3s4.5,8.2,4.5,14.1v2H1001.2z M1019.2,31.2V0h-9
					v8.3c-2.1-3.3-4.6-5.8-7.7-7.3s-6.8-2.4-11.2-2.4c-5.6,0-10,1.6-13.4,4.7c-3.3,3.1-5,7.4-5,12.6c0,6.1,2.1,10.8,6.2,13.9
					c4.1,3.1,10.3,4.7,18.4,4.7h12.6v0.9c0,4.1-1.4,7.3-4.1,9.6s-6.5,3.4-11.5,3.4c-3.1,0-6.2-0.4-9.1-1.1c-3-0.8-5.8-1.9-8.5-3.4
					v8.3c3.3,1.3,6.5,2.2,9.6,2.8s6.1,1,9,1c7.9,0,13.8-2.1,17.7-6.2C1017.2,45.7,1019.2,39.5,1019.2,31.2z"/>
			</g>
			<g>
				<path id="DejaVuSans-108" d="M1037.7,76h9V0h-9V76z"/>
			</g>
			<g>
				<path id="DejaVuSans-105_00000160166876334220478250000011642953508434075532_" d="M1065.4,54.7h9V0h-9V54.7z M1065.4,76h9V64.6
					h-9V76z"/>
			</g>
			<g>
				<path id="DejaVuSans-116_00000080907564514107173720000016437375789508687797_" d="M1102.1,70.2V54.7h18.5v-7h-18.5V18
					c0-4.5,0.6-7.3,1.8-8.6s3.7-1.9,7.5-1.9h9.2V0h-9.2c-6.9,0-11.7,1.3-14.4,3.9c-2.6,2.6-4,7.3-4,14.1v29.7h-6.6v7h6.6v15.5
					H1102.1z"/>
			</g>
			<g>
				<path id="DejaVuSans-121" d="M1155.2-5.1c-2.5-6.5-5-10.8-7.4-12.7c-2.4-2-5.6-3-9.7-3h-7.2v7.5h5.3c2.5,0,4.4,0.6,5.8,1.8
					s2.9,3.9,4.5,8.3l1.6,4.1L1126,54.7h9.5l17.1-42.8l17.1,42.8h9.5L1155.2-5.1z"/>
			</g>
		</g>
	</g>
</g>
<g id="patch_19">
	<g>
		<g>
			<defs>
				<rect id="SVGID_00000033346761631045826100000017782394662558595746_" x="420.8" y="25.9" width="10.8" height="215.3"/>
			</defs>
			<clipPath id="SVGID_00000093138992593174597420000009917991899794260884_">
				<use xlink:href="#SVGID_00000033346761631045826100000017782394662558595746_"  style="overflow:visible;"/>
			</clipPath>
			
				<path style="clip-path:url(#SVGID_00000093138992593174597420000009917991899794260884_);fill:#FFFFFF;stroke:#FFFFFF;stroke-width:1.000000e-02;" d="
				M420.8,241.2v-0.8V26.8V26h10.8v0.8v213.6v0.8L420.8,241.2L420.8,241.2z"/>
		</g>
	</g>
</g>
</svg>
