<?xml version="1.0" encoding="utf-8"?>
<!-- Generator: Adobe Illustrator 26.0.2, SVG Export Plug-In . SVG Version: 6.00 Build 0)  -->
<svg version="1.1" id="Layer_1" xmlns="http://www.w3.org/2000/svg" xmlns:xlink="http://www.w3.org/1999/xlink" x="0px" y="0px"
	 viewBox="0 0 504 252" style="enable-background:new 0 0 504 252;" xml:space="preserve">
<style type="text/css">
	.st0{fill:none;}
	
		.st1{clip-path:url(#SVGID_00000155132778503152980690000002303457636156582320_);fill:none;stroke:#000000;stroke-linecap:round;stroke-linejoin:round;}
	
		.st2{clip-path:url(#SVGID_00000118391841346473909000000002370460987379170700_);stroke:#000000;stroke-linecap:round;stroke-linejoin:round;}
	
		.st3{clip-path:url(#SVGID_00000052817393224495967840000010639237124703402935_);fill:none;stroke:#000000;stroke-linecap:round;stroke-linejoin:round;}
	
		.st4{clip-path:url(#SVGID_00000008857246165164347060000010355751810279741321_);stroke:#000000;stroke-linecap:round;stroke-linejoin:round;}
	
		.st5{clip-path:url(#SVGID_00000074438044868439635700000011082115469755710123_);fill:none;stroke:#000000;stroke-linecap:round;stroke-linejoin:round;}
	
		.st6{clip-path:url(#SVGID_00000003821561179034191350000011204427502651796107_);stroke:#000000;stroke-linecap:round;stroke-linejoin:round;}
	
		.st7{clip-path:url(#SVGID_00000131331112802976274310000014392413804665528194_);fill:none;stroke:#000000;stroke-linecap:round;stroke-linejoin:round;}
	
		.st8{clip-path:url(#SVGID_00000010288980086610142440000003056757482532923267_);stroke:#000000;stroke-linecap:round;stroke-linejoin:round;}
	
		.st9{clip-path:url(#SVGID_00000111170383038665936220000006283087763527961009_);fill:none;stroke:#000000;stroke-linecap:round;stroke-linejoin:round;}
	
		.st10{clip-path:url(#SVGID_00000068667194022363327270000007566123489549785751_);stroke:#000000;stroke-linecap:round;stroke-linejoin:round;}
	
		.st11{clip-path:url(#SVGID_00000094602105628428831200000018263867442120615347_);fill:none;stroke:#000000;stroke-linecap:round;stroke-linejoin:round;}
	
		.st12{clip-path:url(#SVGID_00000101804462751258505380000016290525082772195509_);stroke:#000000;stroke-linecap:round;stroke-linejoin:round;}
	
		.st13{clip-path:url(#SVGID_00000066514180824885822520000010078305670473264523_);fill:none;stroke:#000000;stroke-linecap:round;stroke-linejoin:round;}
	
		.st14{clip-path:url(#SVGID_00000091735563685253234360000003690217463138887359_);stroke:#000000;stroke-linecap:round;stroke-linejoin:round;}
	
		.st15{clip-path:url(#SVGID_00000102540906550585400290000001459406700959997115_);fill:none;stroke:#000000;stroke-linecap:round;stroke-linejoin:round;}
	
		.st16{clip-path:url(#SVGID_00000075164238550959230490000007385659527140205723_);stroke:#000000;stroke-linecap:round;stroke-linejoin:round;}
	
		.st17{clip-path:url(#SVGID_00000088119678249454655030000001508828749848808329_);fill:none;stroke:#000000;stroke-linecap:round;stroke-linejoin:round;}
	
		.st18{clip-path:url(#SVGID_00000018956760739583999150000008692158654254314908_);stroke:#000000;stroke-linecap:round;stroke-linejoin:round;}
	
		.st19{clip-path:url(#SVGID_00000029733029041679250810000002851108701278021536_);fill:none;stroke:#000000;stroke-linecap:round;stroke-linejoin:round;}
	
		.st20{clip-path:url(#SVGID_00000116231008671081671530000012853219487222709437_);stroke:#000000;stroke-linecap:round;stroke-linejoin:round;}
	
		.st21{clip-path:url(#SVGID_00000143609319983404522870000009740486977454954391_);fill:none;stroke:#000000;stroke-linecap:round;stroke-linejoin:round;}
	
		.st22{clip-path:url(#SVGID_00000057865496377212455570000013955581647335189435_);stroke:#000000;stroke-linecap:round;stroke-linejoin:round;}
	
		.st23{clip-path:url(#SVGID_00000000202556964062310890000007344593143684885138_);fill:none;stroke:#000000;stroke-linecap:round;stroke-linejoin:round;}
	
		.st24{clip-path:url(#SVGID_00000006708123796387759020000014738172295719434125_);stroke:#000000;stroke-linecap:round;stroke-linejoin:round;}
	
		.st25{clip-path:url(#SVGID_00000018938278113714908750000014326359046950011782_);fill:none;stroke:#000000;stroke-linecap:round;stroke-linejoin:round;}
	
		.st26{clip-path:url(#SVGID_00000007421696571589697330000017923975188550907045_);stroke:#000000;stroke-linecap:round;stroke-linejoin:round;}
	
		.st27{clip-path:url(#SVGID_00000168808252665016576400000017262549730585139874_);fill:none;stroke:#000000;stroke-linecap:round;stroke-linejoin:round;}
	
		.st28{clip-path:url(#SVGID_00000146490930339321761410000015050861990022405257_);stroke:#000000;stroke-linecap:round;stroke-linejoin:round;}
	
		.st29{clip-path:url(#SVGID_00000177450290953148146350000015673891664672306081_);fill:none;stroke:#000000;stroke-linecap:round;stroke-linejoin:round;}
	
		.st30{clip-path:url(#SVGID_00000169539044031749084200000016150134387540662692_);stroke:#000000;stroke-linecap:round;stroke-linejoin:round;}
	
		.st31{clip-path:url(#SVGID_00000013877593422419940160000006872111646491835819_);fill:none;stroke:#000000;stroke-linecap:round;stroke-linejoin:round;}
	
		.st32{clip-path:url(#SVGID_00000063626472144354113680000012084835597086104459_);stroke:#000000;stroke-linecap:round;stroke-linejoin:round;}
	
		.st33{clip-path:url(#SVGID_00000072257950445153951510000017108586071197742216_);fill:none;stroke:#000000;stroke-linecap:round;stroke-linejoin:round;}
	
		.st34{clip-path:url(#SVGID_00000170236141053244296750000013320582015930235535_);stroke:#000000;stroke-linecap:round;stroke-linejoin:round;}
	.st35{clip-path:url(#SVGID_00000172419916113642310930000009086878705948655265_);}
	.st36{fill:#FDE725;stroke:#FDE725;stroke-linejoin:round;}
	.st37{clip-path:url(#SVGID_00000065781553614835397230000004679354077753109377_);}
	.st38{fill:#440154;stroke:#440154;stroke-linejoin:round;}
	.st39{clip-path:url(#SVGID_00000045602817434322571730000017516307515930267305_);}
	.st40{fill:#34B679;stroke:#34B679;stroke-linejoin:round;}
	.st41{clip-path:url(#SVGID_00000163041806193344069220000008389780961915289493_);}
	.st42{fill:#2DB27D;stroke:#2DB27D;stroke-linejoin:round;}
	.st43{clip-path:url(#SVGID_00000074417315190849025510000017155078647723107731_);}
	.st44{fill:#EFE51C;stroke:#EFE51C;stroke-linejoin:round;}
	.st45{clip-path:url(#SVGID_00000129901231320111336650000012790490949147290032_);}
	.st46{clip-path:url(#SVGID_00000066484822384265773480000011542681950608914314_);}
	.st47{clip-path:url(#SVGID_00000037670506212551214080000000479355804359540893_);}
	.st48{clip-path:url(#SVGID_00000165920588054799429660000003520444654198136250_);}
	.st49{clip-path:url(#SVGID_00000098940216908074474700000002591670473377853373_);}
	.st50{clip-path:url(#SVGID_00000040552017911289141150000012409771175500523930_);}
</style>
<g id="patch_1">
	<path class="st0" d="M0,252h504V0H0V252z"/>
</g>
<g id="matplotlib.axis_1">
</g>
<g id="axes_1">
	<g id="patch_2">
		<g>
			<g>
				<g>
					<defs>
						<rect id="SVGID_1_" x="10.8" y="25.9" width="385.9" height="209.4"/>
					</defs>
					<clipPath id="SVGID_00000140702703620060537800000014318119611858126768_">
						<use xlink:href="#SVGID_1_"  style="overflow:visible;"/>
					</clipPath>
					
						<path style="clip-path:url(#SVGID_00000140702703620060537800000014318119611858126768_);fill:none;stroke:#000000;stroke-linecap:round;stroke-linejoin:round;" d="
						M189.6,69.1c55-7.9,109.7-15.8,164-23.6"/>
				</g>
			</g>
		</g>
		<g>
			<g>
				<g>
					<defs>
						<rect id="SVGID_00000117670775803636902530000017168271300253577607_" x="10.8" y="25.9" width="385.9" height="209.4"/>
					</defs>
					<clipPath id="SVGID_00000148641115973768474000000010253323559971091877_">
						<use xlink:href="#SVGID_00000117670775803636902530000017168271300253577607_"  style="overflow:visible;"/>
					</clipPath>
					
						<path style="clip-path:url(#SVGID_00000148641115973768474000000010253323559971091877_);stroke:#000000;stroke-linecap:round;stroke-linejoin:round;" d="
						M349.3,44.1l4.2,1.4l-3.7,2.5L349.3,44.1z"/>
				</g>
			</g>
		</g>
	</g>
	<g id="patch_3">
		<g>
			<g>
				<g>
					<defs>
						<rect id="SVGID_00000096048014461386280630000016628752198065810827_" x="10.8" y="25.9" width="385.9" height="209.4"/>
					</defs>
					<clipPath id="SVGID_00000083079973967540392700000007751027802803049380_">
						<use xlink:href="#SVGID_00000096048014461386280630000016628752198065810827_"  style="overflow:visible;"/>
					</clipPath>
					
						<path style="clip-path:url(#SVGID_00000083079973967540392700000007751027802803049380_);fill:none;stroke:#000000;stroke-linecap:round;stroke-linejoin:round;" d="
						M354.7,45.3c-55,7.9-109.7,15.8-164,23.6"/>
				</g>
			</g>
		</g>
		<g>
			<g>
				<g>
					<defs>
						<rect id="SVGID_00000026142230046165282120000013226343078276377521_" x="10.8" y="25.9" width="385.9" height="209.4"/>
					</defs>
					<clipPath id="SVGID_00000017503794542913515590000012195379684012908956_">
						<use xlink:href="#SVGID_00000026142230046165282120000013226343078276377521_"  style="overflow:visible;"/>
					</clipPath>
					
						<path style="clip-path:url(#SVGID_00000017503794542913515590000012195379684012908956_);stroke:#000000;stroke-linecap:round;stroke-linejoin:round;" d="
						M194.9,70.3l-4.2-1.4l3.7-2.5L194.9,70.3z"/>
				</g>
			</g>
		</g>
	</g>
	<g id="patch_4">
		<g>
			<g>
				<g>
					<defs>
						<rect id="SVGID_00000019639369385918671860000000101973147529450407_" x="10.8" y="25.9" width="385.9" height="209.4"/>
					</defs>
					<clipPath id="SVGID_00000047037681663055329870000010217690489432293822_">
						<use xlink:href="#SVGID_00000019639369385918671860000000101973147529450407_"  style="overflow:visible;"/>
					</clipPath>
					
						<path style="clip-path:url(#SVGID_00000047037681663055329870000010217690489432293822_);fill:none;stroke:#000000;stroke-linecap:round;stroke-linejoin:round;" d="
						M65,127.5c-6.2-25-12.3-49.6-18.3-73.9"/>
				</g>
			</g>
		</g>
		<g>
			<g>
				<g>
					<defs>
						<rect id="SVGID_00000011715037682747906980000018277960914495414656_" x="10.8" y="25.9" width="385.9" height="209.4"/>
					</defs>
					<clipPath id="SVGID_00000161613489167416626000000015565629267668032650_">
						<use xlink:href="#SVGID_00000011715037682747906980000018277960914495414656_"  style="overflow:visible;"/>
					</clipPath>
					
						<path style="clip-path:url(#SVGID_00000161613489167416626000000015565629267668032650_);stroke:#000000;stroke-linecap:round;stroke-linejoin:round;" d="
						M45.7,57.9l1-4.4l2.9,3.4L45.7,57.9z"/>
				</g>
			</g>
		</g>
	</g>
	<g id="patch_5">
		<g>
			<g>
				<g>
					<defs>
						<rect id="SVGID_00000051376955397293406990000011147561813789203382_" x="10.8" y="25.9" width="385.9" height="209.4"/>
					</defs>
					<clipPath id="SVGID_00000117664114723152320660000011471022467127455413_">
						<use xlink:href="#SVGID_00000051376955397293406990000011147561813789203382_"  style="overflow:visible;"/>
					</clipPath>
					
						<path style="clip-path:url(#SVGID_00000117664114723152320660000011471022467127455413_);fill:none;stroke:#000000;stroke-linecap:round;stroke-linejoin:round;" d="
						M74.6,131.5c33-19,65.6-37.8,97.9-56.4"/>
				</g>
			</g>
		</g>
		<g>
			<g>
				<g>
					<defs>
						<rect id="SVGID_00000067206784413188661390000002217284788619999924_" x="10.8" y="25.9" width="385.9" height="209.4"/>
					</defs>
					<clipPath id="SVGID_00000013194663794246459010000012413743385459616421_">
						<use xlink:href="#SVGID_00000067206784413188661390000002217284788619999924_"  style="overflow:visible;"/>
					</clipPath>
					
						<path style="clip-path:url(#SVGID_00000013194663794246459010000012413743385459616421_);stroke:#000000;stroke-linecap:round;stroke-linejoin:round;" d="
						M168,75.4l4.5-0.3l-2.5,3.7L168,75.4z"/>
				</g>
			</g>
		</g>
	</g>
	<g id="patch_6">
		<g>
			<g>
				<g>
					<defs>
						<rect id="SVGID_00000155130568148389122290000017967227855328244112_" x="10.8" y="25.9" width="385.9" height="209.4"/>
					</defs>
					<clipPath id="SVGID_00000026158053380275711980000000844162141580732071_">
						<use xlink:href="#SVGID_00000155130568148389122290000017967227855328244112_"  style="overflow:visible;"/>
					</clipPath>
					
						<path style="clip-path:url(#SVGID_00000026158053380275711980000000844162141580732071_);fill:none;stroke:#000000;stroke-linecap:round;stroke-linejoin:round;" d="
						M222.2,141.5c-12.3-21.2-24.4-42.1-36.3-62.7"/>
				</g>
			</g>
		</g>
		<g>
			<g>
				<g>
					<defs>
						<rect id="SVGID_00000096024985630581619100000004406410717384360336_" x="10.8" y="25.9" width="385.9" height="209.4"/>
					</defs>
					<clipPath id="SVGID_00000137833430036020206560000008555312064788711838_">
						<use xlink:href="#SVGID_00000096024985630581619100000004406410717384360336_"  style="overflow:visible;"/>
					</clipPath>
					
						<path style="clip-path:url(#SVGID_00000137833430036020206560000008555312064788711838_);stroke:#000000;stroke-linecap:round;stroke-linejoin:round;" d="
						M186.2,83.2l-0.3-4.5l3.7,2.5L186.2,83.2z"/>
				</g>
			</g>
		</g>
	</g>
	<g id="patch_7">
		<g>
			<g>
				<g>
					<defs>
						<rect id="SVGID_00000077314810969600029480000013381296633947035808_" x="10.8" y="25.9" width="385.9" height="209.4"/>
					</defs>
					<clipPath id="SVGID_00000111157687130125829300000003099745431637472389_">
						<use xlink:href="#SVGID_00000077314810969600029480000013381296633947035808_"  style="overflow:visible;"/>
					</clipPath>
					
						<path style="clip-path:url(#SVGID_00000111157687130125829300000003099745431637472389_);fill:none;stroke:#000000;stroke-linecap:round;stroke-linejoin:round;" d="
						M217.9,148.3c-47.4-3.9-94.4-7.8-141.1-11.6"/>
				</g>
			</g>
		</g>
		<g>
			<g>
				<g>
					<defs>
						<rect id="SVGID_00000173846050880743566300000012631055417493511555_" x="10.8" y="25.9" width="385.9" height="209.4"/>
					</defs>
					<clipPath id="SVGID_00000098925772697504708900000007345929207691277975_">
						<use xlink:href="#SVGID_00000173846050880743566300000012631055417493511555_"  style="overflow:visible;"/>
					</clipPath>
					
						<path style="clip-path:url(#SVGID_00000098925772697504708900000007345929207691277975_);stroke:#000000;stroke-linecap:round;stroke-linejoin:round;" d="
						M80.6,139l-3.8-2.3L81,135L80.6,139z"/>
				</g>
			</g>
		</g>
	</g>
	<g id="patch_8">
		<g>
			<g>
				<g>
					<defs>
						<rect id="SVGID_00000132773932815884841570000017819034721256858250_" x="10.8" y="25.9" width="385.9" height="209.4"/>
					</defs>
					<clipPath id="SVGID_00000001633762221993774160000009696619205933976761_">
						<use xlink:href="#SVGID_00000132773932815884841570000017819034721256858250_"  style="overflow:visible;"/>
					</clipPath>
					
						<path style="clip-path:url(#SVGID_00000001633762221993774160000009696619205933976761_);fill:none;stroke:#000000;stroke-linecap:round;stroke-linejoin:round;" d="
						M235.2,149c39.8,0,79.2,0,118.2,0"/>
				</g>
			</g>
		</g>
		<g>
			<g>
				<g>
					<defs>
						<rect id="SVGID_00000125595183555473953190000007413155683483068556_" x="10.8" y="25.9" width="385.9" height="209.4"/>
					</defs>
					<clipPath id="SVGID_00000124867440814915600890000016808610139296835485_">
						<use xlink:href="#SVGID_00000125595183555473953190000007413155683483068556_"  style="overflow:visible;"/>
					</clipPath>
					
						<path style="clip-path:url(#SVGID_00000124867440814915600890000016808610139296835485_);stroke:#000000;stroke-linecap:round;stroke-linejoin:round;" d="
						M349.5,147l4,2l-4,2V147z"/>
				</g>
			</g>
		</g>
	</g>
	<g id="patch_9">
		<g>
			<g>
				<g>
					<defs>
						<rect id="SVGID_00000033337353865532932110000009180841252151093691_" x="10.8" y="25.9" width="385.9" height="209.4"/>
					</defs>
					<clipPath id="SVGID_00000134213489582282031850000017111301515987009975_">
						<use xlink:href="#SVGID_00000033337353865532932110000009180841252151093691_"  style="overflow:visible;"/>
					</clipPath>
					
						<path style="clip-path:url(#SVGID_00000134213489582282031850000017111301515987009975_);fill:none;stroke:#000000;stroke-linecap:round;stroke-linejoin:round;" d="
						M355.3,145.5C299.8,121.6,244.7,97.8,190,74.2"/>
				</g>
			</g>
		</g>
		<g>
			<g>
				<g>
					<defs>
						<rect id="SVGID_00000147190587267802881300000015780883807357051567_" x="10.8" y="25.9" width="385.9" height="209.4"/>
					</defs>
					<clipPath id="SVGID_00000111908853138747303500000010122399087802130111_">
						<use xlink:href="#SVGID_00000147190587267802881300000015780883807357051567_"  style="overflow:visible;"/>
					</clipPath>
					
						<path style="clip-path:url(#SVGID_00000111908853138747303500000010122399087802130111_);stroke:#000000;stroke-linecap:round;stroke-linejoin:round;" d="
						M192.8,77.6l-2.9-3.4l4.5-0.3L192.8,77.6z"/>
				</g>
			</g>
		</g>
	</g>
	<g id="patch_10">
		<g>
			<g>
				<g>
					<defs>
						<rect id="SVGID_00000054968323130363154080000004646515630663530657_" x="10.8" y="25.9" width="385.9" height="209.4"/>
					</defs>
					<clipPath id="SVGID_00000070102093149642960640000002291536954649885344_">
						<use xlink:href="#SVGID_00000054968323130363154080000004646515630663530657_"  style="overflow:visible;"/>
					</clipPath>
					
						<path style="clip-path:url(#SVGID_00000070102093149642960640000002291536954649885344_);fill:none;stroke:#000000;stroke-linecap:round;stroke-linejoin:round;" d="
						M354.6,149c-39.8,0-79.2,0-118.2,0"/>
				</g>
			</g>
		</g>
		<g>
			<g>
				<g>
					<defs>
						<rect id="SVGID_00000115483243221818865100000012872342735068800957_" x="10.8" y="25.9" width="385.9" height="209.4"/>
					</defs>
					<clipPath id="SVGID_00000116915191526271678090000018418348610491518121_">
						<use xlink:href="#SVGID_00000115483243221818865100000012872342735068800957_"  style="overflow:visible;"/>
					</clipPath>
					
						<path style="clip-path:url(#SVGID_00000116915191526271678090000018418348610491518121_);stroke:#000000;stroke-linecap:round;stroke-linejoin:round;" d="
						M240.3,151l-4-2l4-2V151z"/>
				</g>
			</g>
		</g>
	</g>
	<g id="patch_11">
		<g>
			<g>
				<g>
					<defs>
						<rect id="SVGID_00000111155956946499091870000003473578017792301994_" x="10.8" y="25.9" width="385.9" height="209.4"/>
					</defs>
					<clipPath id="SVGID_00000177471288219507416730000002249918146536878015_">
						<use xlink:href="#SVGID_00000111155956946499091870000003473578017792301994_"  style="overflow:visible;"/>
					</clipPath>
					
						<path style="clip-path:url(#SVGID_00000177471288219507416730000002249918146536878015_);fill:none;stroke:#000000;stroke-linecap:round;stroke-linejoin:round;" d="
						M103.6,194.1c24.3-38.8,48.4-77.3,72.2-115.5"/>
				</g>
			</g>
		</g>
		<g>
			<g>
				<g>
					<defs>
						<rect id="SVGID_00000100351237576032713000000010941703977651228601_" x="10.8" y="25.9" width="385.9" height="209.4"/>
					</defs>
					<clipPath id="SVGID_00000019668871956173406900000009692505568951509694_">
						<use xlink:href="#SVGID_00000100351237576032713000000010941703977651228601_"  style="overflow:visible;"/>
					</clipPath>
					
						<path style="clip-path:url(#SVGID_00000019668871956173406900000009692505568951509694_);stroke:#000000;stroke-linecap:round;stroke-linejoin:round;" d="
						M172,80.9l3.8-2.3l-0.4,4.5L172,80.9z"/>
				</g>
			</g>
		</g>
	</g>
	<g id="patch_12">
		<g>
			<g>
				<g>
					<defs>
						<rect id="SVGID_00000175296707177889292680000001168666969640173704_" x="10.8" y="25.9" width="385.9" height="209.4"/>
					</defs>
					<clipPath id="SVGID_00000059289548895595034370000000640281234183529857_">
						<use xlink:href="#SVGID_00000175296707177889292680000001168666969640173704_"  style="overflow:visible;"/>
					</clipPath>
					
						<path style="clip-path:url(#SVGID_00000059289548895595034370000000640281234183529857_);fill:none;stroke:#000000;stroke-linecap:round;stroke-linejoin:round;" d="
						M107,198.1c37.2-15.3,74-30.4,110.5-45.4"/>
				</g>
			</g>
		</g>
		<g>
			<g>
				<g>
					<defs>
						<rect id="SVGID_00000070090519844348808880000003550288478891946175_" x="10.8" y="25.9" width="385.9" height="209.4"/>
					</defs>
					<clipPath id="SVGID_00000015338627202778828400000008389713606040142745_">
						<use xlink:href="#SVGID_00000070090519844348808880000003550288478891946175_"  style="overflow:visible;"/>
					</clipPath>
					
						<path style="clip-path:url(#SVGID_00000015338627202778828400000008389713606040142745_);stroke:#000000;stroke-linecap:round;stroke-linejoin:round;" d="
						M213,152.4l4.5,0.3l-2.9,3.4L213,152.4z"/>
				</g>
			</g>
		</g>
	</g>
	<g id="patch_13">
		<g>
			<g>
				<g>
					<defs>
						<rect id="SVGID_00000026877512151704022840000000409440541036812161_" x="10.8" y="25.9" width="385.9" height="209.4"/>
					</defs>
					<clipPath id="SVGID_00000018219176892339656290000012449854924730524075_">
						<use xlink:href="#SVGID_00000026877512151704022840000000409440541036812161_"  style="overflow:visible;"/>
					</clipPath>
					
						<path style="clip-path:url(#SVGID_00000018219176892339656290000012449854924730524075_);fill:none;stroke:#000000;stroke-linecap:round;stroke-linejoin:round;" d="
						M138.1,201.1c13.4-40.8,26.7-81.3,39.8-121.4"/>
				</g>
			</g>
		</g>
		<g>
			<g>
				<g>
					<defs>
						<rect id="SVGID_00000023982359599530956070000004887437966872440199_" x="10.8" y="25.9" width="385.9" height="209.4"/>
					</defs>
					<clipPath id="SVGID_00000070120330046123025150000004223471292523366037_">
						<use xlink:href="#SVGID_00000023982359599530956070000004887437966872440199_"  style="overflow:visible;"/>
					</clipPath>
					
						<path style="clip-path:url(#SVGID_00000070120330046123025150000004223471292523366037_);stroke:#000000;stroke-linecap:round;stroke-linejoin:round;" d="
						M174.8,82.8l3.1-3.2l0.7,4.4L174.8,82.8z"/>
				</g>
			</g>
		</g>
	</g>
	<g id="patch_14">
		<g>
			<g>
				<g>
					<defs>
						<rect id="SVGID_00000126306186593634531580000010855316426518924984_" x="10.8" y="25.9" width="385.9" height="209.4"/>
					</defs>
					<clipPath id="SVGID_00000167365301425608627910000013882087965949558179_">
						<use xlink:href="#SVGID_00000126306186593634531580000010855316426518924984_"  style="overflow:visible;"/>
					</clipPath>
					
						<path style="clip-path:url(#SVGID_00000167365301425608627910000013882087965949558179_);fill:none;stroke:#000000;stroke-linecap:round;stroke-linejoin:round;" d="
						M142.6,204.5c25.6-16.9,50.8-33.6,75.7-50.1"/>
				</g>
			</g>
		</g>
		<g>
			<g>
				<g>
					<defs>
						<rect id="SVGID_00000149362867146330511650000001323634200344681634_" x="10.8" y="25.9" width="385.9" height="209.4"/>
					</defs>
					<clipPath id="SVGID_00000047047719294151521010000004080743303818639504_">
						<use xlink:href="#SVGID_00000149362867146330511650000001323634200344681634_"  style="overflow:visible;"/>
					</clipPath>
					
						<path style="clip-path:url(#SVGID_00000047047719294151521010000004080743303818639504_);stroke:#000000;stroke-linecap:round;stroke-linejoin:round;" d="
						M213.9,154.9l4.4-0.5l-2.2,3.9L213.9,154.9z"/>
				</g>
			</g>
		</g>
	</g>
	<g id="patch_15">
		<g>
			<g>
				<g>
					<defs>
						<rect id="SVGID_00000119802344405836634430000013031756241587600259_" x="10.8" y="25.9" width="385.9" height="209.4"/>
					</defs>
					<clipPath id="SVGID_00000125580669676941711040000017490361140157096620_">
						<use xlink:href="#SVGID_00000119802344405836634430000013031756241587600259_"  style="overflow:visible;"/>
					</clipPath>
					
						<path style="clip-path:url(#SVGID_00000125580669676941711040000017490361140157096620_);fill:none;stroke:#000000;stroke-linecap:round;stroke-linejoin:round;" d="
						M172.4,208.5c2.7-43.2,5.3-86,8-128.4"/>
				</g>
			</g>
		</g>
		<g>
			<g>
				<g>
					<defs>
						<rect id="SVGID_00000034051166115586915120000006480831003676997796_" x="10.8" y="25.9" width="385.9" height="209.4"/>
					</defs>
					<clipPath id="SVGID_00000168088252768334512160000011967238435054336942_">
						<use xlink:href="#SVGID_00000034051166115586915120000006480831003676997796_"  style="overflow:visible;"/>
					</clipPath>
					
						<path style="clip-path:url(#SVGID_00000168088252768334512160000011967238435054336942_);stroke:#000000;stroke-linecap:round;stroke-linejoin:round;" d="
						M178.1,83.9l2.2-3.9l1.7,4.1L178.1,83.9z"/>
				</g>
			</g>
		</g>
	</g>
	<g id="patch_16">
		<g>
			<g>
				<g>
					<defs>
						<rect id="SVGID_00000129922833940716676210000017197355681268386719_" x="10.8" y="25.9" width="385.9" height="209.4"/>
					</defs>
					<clipPath id="SVGID_00000005235050460466077730000002651595638662721922_">
						<use xlink:href="#SVGID_00000129922833940716676210000017197355681268386719_"  style="overflow:visible;"/>
					</clipPath>
					
						<path style="clip-path:url(#SVGID_00000005235050460466077730000002651595638662721922_);fill:none;stroke:#000000;stroke-linecap:round;stroke-linejoin:round;" d="
						M177.3,210.4c14.6-18.2,29-36.1,43.1-53.8"/>
				</g>
			</g>
		</g>
		<g>
			<g>
				<g>
					<defs>
						<rect id="SVGID_00000001650384268744979230000016584083655130203778_" x="10.8" y="25.9" width="385.9" height="209.4"/>
					</defs>
					<clipPath id="SVGID_00000038372261667416494630000017104957819366963350_">
						<use xlink:href="#SVGID_00000001650384268744979230000016584083655130203778_"  style="overflow:visible;"/>
					</clipPath>
					
						<path style="clip-path:url(#SVGID_00000038372261667416494630000017104957819366963350_);stroke:#000000;stroke-linecap:round;stroke-linejoin:round;" d="
						M216.4,158.5l4.1-1.9l-0.9,4.4L216.4,158.5z"/>
				</g>
			</g>
		</g>
	</g>
	<g id="patch_17">
		<g>
			<g>
				<g>
					<defs>
						<rect id="SVGID_00000073682689786798210860000003129568788482422692_" x="10.8" y="25.9" width="385.9" height="209.4"/>
					</defs>
					<clipPath id="SVGID_00000145779786446363274710000008909620287735675536_">
						<use xlink:href="#SVGID_00000073682689786798210860000003129568788482422692_"  style="overflow:visible;"/>
					</clipPath>
					
						<path style="clip-path:url(#SVGID_00000145779786446363274710000008909620287735675536_);fill:none;stroke:#000000;stroke-linecap:round;stroke-linejoin:round;" d="
						M310.2,197.1c-25.4-14.6-50.4-29-75.1-43.2"/>
				</g>
			</g>
		</g>
		<g>
			<g>
				<g>
					<defs>
						<rect id="SVGID_00000018945318599196939580000016719811765254550431_" x="10.8" y="25.9" width="385.9" height="209.4"/>
					</defs>
					<clipPath id="SVGID_00000117672481413439329870000001117971723421982399_">
						<use xlink:href="#SVGID_00000018945318599196939580000016719811765254550431_"  style="overflow:visible;"/>
					</clipPath>
					
						<path style="clip-path:url(#SVGID_00000117672481413439329870000001117971723421982399_);stroke:#000000;stroke-linecap:round;stroke-linejoin:round;" d="
						M237.5,157.6l-2.5-3.7l4.5,0.3L237.5,157.6z"/>
				</g>
			</g>
		</g>
	</g>
	<g id="patch_18">
		<g>
			<g>
				<g>
					<defs>
						<rect id="SVGID_00000033348368966319916480000013364308078429585547_" x="10.8" y="25.9" width="385.9" height="209.4"/>
					</defs>
					<clipPath id="SVGID_00000016054512971638150620000000453987019051327386_">
						<use xlink:href="#SVGID_00000033348368966319916480000013364308078429585547_"  style="overflow:visible;"/>
					</clipPath>
					
						<path style="clip-path:url(#SVGID_00000016054512971638150620000000453987019051327386_);fill:none;stroke:#000000;stroke-linecap:round;stroke-linejoin:round;" d="
						M332.3,185.5c-32.5-11.2-64.7-22.3-96.5-33.3"/>
				</g>
			</g>
		</g>
		<g>
			<g>
				<g>
					<defs>
						<rect id="SVGID_00000172427266155096524280000014165402428479100567_" x="10.8" y="25.9" width="385.9" height="209.4"/>
					</defs>
					<clipPath id="SVGID_00000114794080204823209990000017750667856342837168_">
						<use xlink:href="#SVGID_00000172427266155096524280000014165402428479100567_"  style="overflow:visible;"/>
					</clipPath>
					
						<path style="clip-path:url(#SVGID_00000114794080204823209990000017750667856342837168_);stroke:#000000;stroke-linecap:round;stroke-linejoin:round;" d="
						M238.9,155.4l-3.1-3.2l4.4-0.6L238.9,155.4z"/>
				</g>
			</g>
		</g>
	</g>
	<g id="PathCollection_1">
		<g>
			<g>
				<g>
					<defs>
						<rect id="SVGID_00000151535555885514621760000012025921245909882534_" x="10.8" y="25.9" width="385.9" height="209.4"/>
					</defs>
					<clipPath id="SVGID_00000092448617458454172320000005312046418096965038_">
						<use xlink:href="#SVGID_00000151535555885514621760000012025921245909882534_"  style="overflow:visible;"/>
					</clipPath>
					<g style="clip-path:url(#SVGID_00000092448617458454172320000005312046418096965038_);">
						<g>
							<path id="C0_0_661754849a" class="st36" d="M181,78.2c2.1,0,4.1-0.8,5.6-2.3s2.3-3.5,2.3-5.6s-0.8-4.1-2.3-5.6
								s-3.5-2.3-5.6-2.3s-4.1,0.8-5.6,2.3s-2.3,3.5-2.3,5.6s0.8,4.1,2.3,5.6S178.9,78.2,181,78.2z"/>
						</g>
					</g>
				</g>
			</g>
		</g>
		<g>
			<g>
				<g>
					<defs>
						<rect id="SVGID_00000065050608627043874820000013471017611518313876_" x="10.8" y="25.9" width="385.9" height="209.4"/>
					</defs>
					<clipPath id="SVGID_00000008861793887765170090000004095682680911553977_">
						<use xlink:href="#SVGID_00000065050608627043874820000013471017611518313876_"  style="overflow:visible;"/>
					</clipPath>
					<g style="clip-path:url(#SVGID_00000008861793887765170090000004095682680911553977_);">
						<g>
							<path id="C0_0_661754849a_00000145060195338769514540000017253884716765506484_" class="st38" d="M363.2,52
								c2.1,0,4.1-0.8,5.6-2.3s2.3-3.5,2.3-5.6s-0.8-4.1-2.3-5.6s-3.5-2.3-5.6-2.3s-4.1,0.8-5.6,2.3s-2.3,3.5-2.3,5.6
								s0.8,4.1,2.3,5.6S361.1,52,363.2,52z"/>
						</g>
					</g>
				</g>
			</g>
		</g>
		<g>
			<g>
				<g>
					<defs>
						<rect id="SVGID_00000182504276811329685530000012051113127356698519_" x="10.8" y="25.9" width="385.9" height="209.4"/>
					</defs>
					<clipPath id="SVGID_00000028290734803038961620000002619394858684914591_">
						<use xlink:href="#SVGID_00000182504276811329685530000012051113127356698519_"  style="overflow:visible;"/>
					</clipPath>
					<g style="clip-path:url(#SVGID_00000028290734803038961620000002619394858684914591_);">
						<g>
							<path id="C0_0_661754849a_00000067235896094069426400000004500584391471459205_" class="st40" d="M67.1,143.8
								c2.1,0,4.1-0.8,5.6-2.3s2.3-3.5,2.3-5.6s-0.8-4.1-2.3-5.6s-3.5-2.3-5.6-2.3s-4.1,0.8-5.6,2.3s-2.3,3.5-2.3,5.6
								s0.8,4.1,2.3,5.6C63,142.9,65,143.8,67.1,143.8z"/>
						</g>
					</g>
				</g>
			</g>
		</g>
		<g>
			<g>
				<g>
					<defs>
						<rect id="SVGID_00000001647022447444513730000012948091740591764356_" x="10.8" y="25.9" width="385.9" height="209.4"/>
					</defs>
					<clipPath id="SVGID_00000083772720641641319480000011033327357144894637_">
						<use xlink:href="#SVGID_00000001647022447444513730000012948091740591764356_"  style="overflow:visible;"/>
					</clipPath>
					<g style="clip-path:url(#SVGID_00000083772720641641319480000011033327357144894637_);">
						<g>
							<path id="C0_0_661754849a_00000127739649972606278400000001509850574508925355_" class="st42" d="M44.3,52
								c2.1,0,4.1-0.8,5.6-2.3s2.3-3.5,2.3-5.6s-0.8-4.1-2.3-5.6s-3.5-2.3-5.6-2.3s-4.1,0.8-5.6,2.3s-2.3,3.5-2.3,5.6
								s0.8,4.1,2.3,5.6S42.2,52,44.3,52z"/>
						</g>
					</g>
				</g>
			</g>
		</g>
		<g>
			<g>
				<g>
					<defs>
						<rect id="SVGID_00000094577980514094923750000001632896726495223688_" x="10.8" y="25.9" width="385.9" height="209.4"/>
					</defs>
					<clipPath id="SVGID_00000000191606706756223440000001762356566670710961_">
						<use xlink:href="#SVGID_00000094577980514094923750000001632896726495223688_"  style="overflow:visible;"/>
					</clipPath>
					<g style="clip-path:url(#SVGID_00000000191606706756223440000001762356566670710961_);">
						<g>
							<path id="C0_0_661754849a_00000000928699138606162270000002552249760710262200_" class="st44" d="M226.5,156.9
								c2.1,0,4.1-0.8,5.6-2.3s2.3-3.5,2.3-5.6s-0.8-4.1-2.3-5.6s-3.5-2.3-5.6-2.3s-4.1,0.8-5.6,2.3s-2.3,3.5-2.3,5.6
								s0.8,4.1,2.3,5.6S224.4,156.9,226.5,156.9z"/>
						</g>
					</g>
				</g>
			</g>
		</g>
		<g>
			<g>
				<g>
					<defs>
						<rect id="SVGID_00000021093774485894138240000016859077619556774540_" x="10.8" y="25.9" width="385.9" height="209.4"/>
					</defs>
					<clipPath id="SVGID_00000040577205588290468700000014671388464199380612_">
						<use xlink:href="#SVGID_00000021093774485894138240000016859077619556774540_"  style="overflow:visible;"/>
					</clipPath>
					<g style="clip-path:url(#SVGID_00000040577205588290468700000014671388464199380612_);">
						<g>
							<path id="C0_0_661754849a_00000036242334078227937570000016579579285704828094_" class="st40" d="M363.2,156.9
								c2.1,0,4.1-0.8,5.6-2.3s2.3-3.5,2.3-5.6s-0.8-4.1-2.3-5.6s-3.5-2.3-5.6-2.3s-4.1,0.8-5.6,2.3s-2.3,3.5-2.3,5.6
								s0.8,4.1,2.3,5.6C359.1,156,361.1,156.9,363.2,156.9z"/>
						</g>
					</g>
				</g>
			</g>
		</g>
		<g>
			<g>
				<g>
					<defs>
						<rect id="SVGID_00000090268575676635052330000006604861181832789906_" x="10.8" y="25.9" width="385.9" height="209.4"/>
					</defs>
					<clipPath id="SVGID_00000016060155940648736070000007172678488333377455_">
						<use xlink:href="#SVGID_00000090268575676635052330000006604861181832789906_"  style="overflow:visible;"/>
					</clipPath>
					<g style="clip-path:url(#SVGID_00000016060155940648736070000007172678488333377455_);">
						<g>
							<path id="C0_0_661754849a_00000127753450724904998880000008526831475384325520_" class="st38" d="M99,209.3
								c2.1,0,4.1-0.8,5.6-2.3s2.3-3.5,2.3-5.6s-0.8-4.1-2.3-5.6s-3.5-2.3-5.6-2.3s-4.1,0.8-5.6,2.3s-2.3,3.5-2.3,5.6
								s0.8,4.1,2.3,5.6S96.9,209.3,99,209.3z"/>
						</g>
					</g>
				</g>
			</g>
		</g>
		<g>
			<g>
				<g>
					<defs>
						<rect id="SVGID_00000110462326711542138620000015170709874032995206_" x="10.8" y="25.9" width="385.9" height="209.4"/>
					</defs>
					<clipPath id="SVGID_00000052782599878754757530000014714535481373574837_">
						<use xlink:href="#SVGID_00000110462326711542138620000015170709874032995206_"  style="overflow:visible;"/>
					</clipPath>
					<g style="clip-path:url(#SVGID_00000052782599878754757530000014714535481373574837_);">
						<g>
							<path id="C0_0_661754849a_00000031166156416002485860000006717413728869398717_" class="st38" d="M135.4,217.2
								c2.1,0,4.1-0.8,5.6-2.3s2.3-3.5,2.3-5.6s-0.8-4.1-2.3-5.6s-3.5-2.3-5.6-2.3s-4.1,0.8-5.6,2.3s-2.3,3.5-2.3,5.6
								s0.8,4.1,2.3,5.6S133.3,217.2,135.4,217.2z"/>
						</g>
					</g>
				</g>
			</g>
		</g>
		<g>
			<g>
				<g>
					<defs>
						<rect id="SVGID_00000029041648175608953080000007568287256461970603_" x="10.8" y="25.9" width="385.9" height="209.4"/>
					</defs>
					<clipPath id="SVGID_00000062156045438541029800000014391480531534547089_">
						<use xlink:href="#SVGID_00000029041648175608953080000007568287256461970603_"  style="overflow:visible;"/>
					</clipPath>
					<g style="clip-path:url(#SVGID_00000062156045438541029800000014391480531534547089_);">
						<g>
							<path id="C0_0_661754849a_00000065768218004534522430000017596464124630385841_" class="st38" d="M171.9,225.1
								c2.1,0,4.1-0.8,5.6-2.3s2.3-3.5,2.3-5.6s-0.8-4.1-2.3-5.6s-3.5-2.3-5.6-2.3s-4.1,0.8-5.6,2.3s-2.3,3.5-2.3,5.6
								s0.8,4.1,2.3,5.6S169.8,225.1,171.9,225.1z"/>
						</g>
					</g>
				</g>
			</g>
		</g>
		<g>
			<g>
				<g>
					<defs>
						<rect id="SVGID_00000078766309954288133200000016165307784906830238_" x="10.8" y="25.9" width="385.9" height="209.4"/>
					</defs>
					<clipPath id="SVGID_00000157284241106919251390000015168601698478715565_">
						<use xlink:href="#SVGID_00000078766309954288133200000016165307784906830238_"  style="overflow:visible;"/>
					</clipPath>
					<g style="clip-path:url(#SVGID_00000157284241106919251390000015168601698478715565_);">
						<g>
							<path id="C0_0_661754849a_00000059268443001436378260000008847522209202218126_" class="st38" d="M317.7,209.3
								c2.1,0,4.1-0.8,5.6-2.3s2.3-3.5,2.3-5.6s-0.8-4.1-2.3-5.6s-3.5-2.3-5.6-2.3s-4.1,0.8-5.6,2.3s-2.3,3.5-2.3,5.6
								s0.8,4.1,2.3,5.6S315.6,209.3,317.7,209.3z"/>
						</g>
					</g>
				</g>
			</g>
		</g>
		<g>
			<g>
				<g>
					<defs>
						<rect id="SVGID_00000001621768074856607980000005150404030113328038_" x="10.8" y="25.9" width="385.9" height="209.4"/>
					</defs>
					<clipPath id="SVGID_00000127762006609346454330000015984306632335772585_">
						<use xlink:href="#SVGID_00000001621768074856607980000005150404030113328038_"  style="overflow:visible;"/>
					</clipPath>
					<g style="clip-path:url(#SVGID_00000127762006609346454330000015984306632335772585_);">
						<g>
							<path id="C0_0_661754849a_00000025418501481133227100000017008258729514952125_" class="st38" d="M340.4,196.2
								c2.1,0,4.1-0.8,5.6-2.3s2.3-3.5,2.3-5.6s-0.8-4.1-2.3-5.6s-3.5-2.3-5.6-2.3s-4.1,0.8-5.6,2.3s-2.3,3.5-2.3,5.6
								s0.8,4.1,2.3,5.6S338.4,196.2,340.4,196.2z"/>
						</g>
					</g>
				</g>
			</g>
		</g>
	</g>
	<g id="text_1">
		<g transform="translate(128.796563 19.918125)scale(0.12 -0.12)">
			<g>
				<path id="DejaVuSans-68" d="M19.7,64.8V8.1h11.9c10.1,0,17.4,2.3,22.1,6.8c4.7,4.6,7,11.8,7,21.6s-2.3,16.9-7,21.5
					s-12,6.8-22.1,6.8H19.7z M9.8,72.9h20.3c14.1,0,24.5-2.9,31.1-8.8s9.9-15.1,9.9-27.6c0-12.6-3.3-21.8-10-27.7
					c-6.6-5.9-17-8.8-31-8.8H9.8V72.9z"/>
			</g>
			<g>
				<path id="DejaVuSans-105" d="M86.4,54.7h9V0h-9V54.7z M86.4,76h9V64.6h-9V76z"/>
			</g>
			<g>
				<path id="DejaVuSans-71" d="M164.3,10.4V30h-16.1v8.1h25.9V6.8c-3.8-2.7-8-4.7-12.6-6.1s-9.5-2.1-14.7-2.1
					c-11.4,0-20.3,3.3-26.8,10c-6.4,6.7-9.6,15.9-9.6,27.8s3.2,21.2,9.6,27.9c6.4,6.7,15.4,10,26.8,10c4.8,0,9.3-0.6,13.5-1.8
					c4.3-1.2,8.2-2.9,11.8-5.2V56.8c-3.6,3.1-7.5,5.4-11.6,7c-4.1,1.6-8.4,2.3-12.9,2.3c-8.9,0-15.6-2.5-20.1-7.5
					c-4.5-5-6.7-12.4-6.7-22.3c0-9.8,2.2-17.2,6.7-22.2c4.5-5,11.2-7.5,20.1-7.5c3.5,0,6.6,0.3,9.3,0.9
					C159.7,8.2,162.1,9.1,164.3,10.4z"/>
			</g>
			<g>
				<path id="DejaVuSans-114" d="M223.4,46.3c-1,0.6-2.1,1-3.3,1.3s-2.5,0.4-3.9,0.4c-5.1,0-9-1.7-11.7-5s-4.1-8-4.1-14.2V0h-9v54.7
					h9v-8.5c1.9,3.3,4.4,5.8,7.4,7.4c3,1.6,6.7,2.4,11,2.4c0.6,0,1.3,0,2-0.1c0.8-0.1,1.6-0.2,2.5-0.4L223.4,46.3z"/>
			</g>
			<g>
				<path id="DejaVuSans-97" d="M257.7,27.5c-7.3,0-12.3-0.8-15.1-2.5s-4.2-4.5-4.2-8.5c0-3.2,1.1-5.7,3.2-7.6
					c2.1-1.9,5-2.8,8.6-2.8c5,0,9,1.8,12,5.3s4.5,8.2,4.5,14.1v2H257.7z M275.6,31.2V0h-9v8.3c-2-3.3-4.6-5.8-7.7-7.3
					s-6.8-2.4-11.2-2.4c-5.6,0-10,1.6-13.4,4.7c-3.3,3.1-5,7.4-5,12.6c0,6.1,2.1,10.8,6.2,13.9c4.1,3.1,10.3,4.7,18.4,4.7h12.6v0.9
					c0,4.1-1.4,7.3-4.1,9.6s-6.5,3.4-11.5,3.4c-3.1,0-6.2-0.4-9.1-1.1c-3-0.8-5.8-1.9-8.5-3.4v8.3c3.3,1.3,6.5,2.2,9.6,2.8
					s6.1,1,9,1c7.9,0,13.8-2.1,17.7-6.2C273.6,45.7,275.6,39.5,275.6,31.2z"/>
			</g>
			<g>
				<path id="DejaVuSans-112" d="M302.8,8.2v-29h-9v75.5h9v-8.3c1.9,3.2,4.3,5.7,7.2,7.2c2.9,1.6,6.3,2.4,10.3,2.4
					c6.6,0,12-2.6,16.2-7.9s6.2-12.2,6.2-20.8s-2.1-15.5-6.2-20.8s-9.5-7.9-16.2-7.9c-4,0-7.4,0.8-10.3,2.4
					C307.1,2.5,304.7,5,302.8,8.2z M333.4,27.3c0,6.6-1.4,11.8-4.1,15.5s-6.5,5.6-11.2,5.6c-4.8,0-8.5-1.9-11.2-5.6
					s-4.1-8.9-4.1-15.5s1.4-11.8,4.1-15.5s6.5-5.6,11.2-5.6c4.8,0,8.5,1.9,11.2,5.6S333.4,20.7,333.4,27.3z"/>
			</g>
			<g>
				<path id="DejaVuSans-104" d="M403,33V0h-9v32.7c0,5.2-1,9-3,11.6c-2,2.6-5,3.9-9.1,3.9c-4.9,0-8.7-1.5-11.5-4.6
					s-4.2-7.3-4.2-12.6V0h-9v76h9V46.2c2.2,3.3,4.7,5.8,7.6,7.4c2.9,1.6,6.3,2.4,10.1,2.4c6.3,0,11-1.9,14.2-5.8
					C401.4,46.3,403,40.6,403,33z"/>
			</g>
			<g>
				<path id="DejaVuSans-32" d="M411.5,0"/>
			</g>
			<g>
				<path id="DejaVuSans-72" d="M453.1,72.9h9.9V43h35.8v29.9h9.9V0h-9.9v34.7H463V0h-9.9V72.9z"/>
			</g>
			<g>
				<path id="DejaVuSans-73" d="M528.3,72.9h9.9V0h-9.9V72.9z"/>
			</g>
			<g>
				<path id="DejaVuSans-84" d="M547.7,72.9h61.7v-8.3h-25.9V0h-9.9v64.6h-25.9C547.7,64.6,547.7,72.9,547.7,72.9z"/>
			</g>
			<g>
				<path id="DejaVuSans-83" d="M662.6,70.5v-9.6c-3.7,1.8-7.3,3.1-10.6,4c-3.3,0.9-6.5,1.3-9.6,1.3c-5.4,0-9.5-1-12.4-3.1
					c-2.9-2.1-4.4-5-4.4-8.9c0-3.2,1-5.7,2.9-7.3s5.6-3,11-4l6-1.2c7.4-1.4,12.8-3.9,16.3-7.4S667,26,667,20.1
					c0-7.1-2.4-12.4-7.1-16.1c-4.7-3.6-11.7-5.5-20.8-5.5c-3.4,0-7.1,0.4-11,1.2s-7.9,1.9-12.1,3.5v10.2c4-2.2,7.9-3.9,11.8-5.1
					c3.8-1.1,7.6-1.7,11.3-1.7c5.6,0,10,1.1,13,3.3c3.1,2.2,4.6,5.4,4.6,9.5c0,3.6-1.1,6.4-3.3,8.4s-5.8,3.5-10.8,4.5l-6,1.2
					c-7.4,1.5-12.7,3.8-16,6.9c-3.3,3.1-4.9,7.5-4.9,13c0,6.4,2.3,11.5,6.8,15.2s10.8,5.6,18.8,5.6c3.4,0,6.9-0.3,10.5-0.9
					C655.3,72.7,658.9,71.7,662.6,70.5z"/>
			</g>
			<g>
				<path id="DejaVuSans-32_00000160187143912618366610000006853983915559040897_" d="M672.6,0"/>
			</g>
			<g>
				<path id="DejaVuSans-65" d="M738.5,63.2l-13.4-36.3H752L738.5,63.2z M733,72.9h11.2L771.9,0h-10.2L755,18.7h-32.9L715.5,0h-10.4
					L733,72.9z"/>
			</g>
			<g>
				<path id="DejaVuSans-117" d="M781.3,21.6v33.1h9V21.9c0-5.2,1-9.1,3-11.7s5.1-3.9,9.1-3.9c4.8,0,8.7,1.5,11.5,4.6
					s4.2,7.3,4.2,12.7v31h9V0h-9v8.4c-2.2-3.3-4.7-5.8-7.6-7.4c-2.9-1.6-6.2-2.4-10-2.4c-6.3,0-11.1,2-14.3,5.9
					C782.9,8.3,781.3,14.1,781.3,21.6z"/>
			</g>
			<g>
				<path id="DejaVuSans-116" d="M854.4,70.2V54.7h18.5v-7h-18.5V18c0-4.5,0.6-7.3,1.8-8.6s3.7-1.9,7.5-1.9h9.2V0h-9.2
					c-6.9,0-11.7,1.3-14.4,3.9c-2.6,2.6-4,7.3-4,14.1v29.7h-6.6v7h6.6v15.5H854.4z"/>
			</g>
			<g>
				<path id="DejaVuSans-104_00000060749903388286634740000014627020827652064166_" d="M930.2,33V0h-9v32.7c0,5.2-1,9-3,11.6
					c-2,2.6-5,3.9-9.1,3.9c-4.9,0-8.7-1.5-11.5-4.6s-4.2-7.3-4.2-12.6V0h-9v76h9V46.2c2.2,3.3,4.7,5.8,7.6,7.4
					c2.9,1.6,6.3,2.4,10.1,2.4c6.3,0,11-1.9,14.2-5.8C928.6,46.3,930.2,40.6,930.2,33z"/>
			</g>
			<g>
				<path id="DejaVuSans-111" d="M969.3,48.4c-4.8,0-8.6-1.9-11.4-5.6c-2.8-3.8-4.2-8.9-4.2-15.5s1.4-11.7,4.2-15.5
					s6.6-5.6,11.5-5.6c4.8,0,8.6,1.9,11.4,5.7c2.8,3.8,4.2,8.9,4.2,15.4s-1.4,11.6-4.2,15.4C977.9,46.5,974.1,48.4,969.3,48.4z
					 M969.3,56c7.8,0,13.9-2.5,18.4-7.6s6.7-12.1,6.7-21.1c0-8.9-2.2-16-6.7-21.1s-10.6-7.6-18.4-7.6c-7.8,0-14,2.5-18.4,7.6
					s-6.7,12.1-6.7,21.1s2.2,16,6.7,21.1C955.3,53.5,961.5,56,969.3,56z"/>
			</g>
			<g>
				<path id="DejaVuSans-114_00000047759144676585160950000010883453473103720589_" d="M1041,46.3c-1,0.6-2.1,1-3.3,1.3
					c-1.2,0.3-2.5,0.4-3.9,0.4c-5.1,0-9-1.7-11.7-5s-4.1-8-4.1-14.2V0h-9v54.7h9v-8.5c1.9,3.3,4.4,5.8,7.4,7.4c3,1.6,6.7,2.4,11,2.4
					c0.6,0,1.3,0,2-0.1c0.8-0.1,1.6-0.2,2.5-0.4L1041,46.3z"/>
			</g>
			<g>
				<path id="DejaVuSans-105_00000040542612089953055120000012326815560284690820_" d="M1050.4,54.7h9V0h-9V54.7z M1050.4,76h9V64.6
					h-9V76z"/>
			</g>
			<g>
				<path id="DejaVuSans-116_00000090282364522834183000000001912414101448517514_" d="M1087.1,70.2V54.7h18.5v-7h-18.5V18
					c0-4.5,0.6-7.3,1.8-8.6s3.7-1.9,7.5-1.9h9.2V0h-9.2c-6.9,0-11.7,1.3-14.4,3.9c-2.6,2.6-4,7.3-4,14.1v29.7h-6.6v7h6.6v15.5
					H1087.1z"/>
			</g>
			<g>
				<path id="DejaVuSans-105_00000093148643099810055840000001695300821825248701_" d="M1117.4,54.7h9V0h-9V54.7z M1117.4,76h9V64.6
					h-9V76z"/>
			</g>
			<g>
				<path id="DejaVuSans-101" d="M1192,29.6v-4.4h-41.3c0.4-6.2,2.3-10.9,5.6-14.1c3.3-3.2,8-4.9,13.9-4.9c3.4,0,6.8,0.4,10,1.3
					c3.2,0.8,6.5,2.1,9.7,3.8V2.8c-3.2-1.4-6.5-2.4-9.9-3.1s-6.8-1.1-10.3-1.1c-8.7,0-15.6,2.5-20.7,7.6s-7.6,12-7.6,20.6
					c0,8.9,2.4,16,7.2,21.3c4.8,5.3,11.4,7.9,19.6,7.9c7.4,0,13.2-2.4,17.5-7.1C1189.9,44.2,1192,37.7,1192,29.6z M1183,32.2
					c-0.1,4.9-1.4,8.8-4.1,11.8c-2.7,2.9-6.2,4.4-10.7,4.4c-5,0-9-1.4-12-4.2s-4.7-6.8-5.2-12H1183z"/>
			</g>
			<g>
				<path id="DejaVuSans-115" d="M1241.6,53.1v-8.5c-2.5,1.3-5.2,2.3-7.9,2.9c-2.7,0.7-5.6,1-8.5,1c-4.5,0-7.8-0.7-10-2
					c-2.2-1.4-3.3-3.4-3.3-6.2c0-2.1,0.8-3.7,2.4-4.9s4.8-2.3,9.6-3.4l3.1-0.7c6.4-1.4,10.9-3.3,13.6-5.8s4-6,4-10.4
					c0-5.1-2-9.1-6-12.1s-9.5-4.4-16.6-4.4c-2.9,0-6,0.3-9.2,0.9s-6.5,1.4-10,2.6v9.3c3.3-1.7,6.6-3,9.8-3.9
					c3.2-0.9,6.4-1.3,9.6-1.3c4.2,0,7.5,0.7,9.8,2.2c2.3,1.4,3.4,3.5,3.4,6.1c0,2.4-0.8,4.3-2.5,5.6c-1.6,1.3-5.2,2.6-10.8,3.8
					l-3.1,0.7c-5.6,1.2-9.6,3-12.1,5.4c-2.5,2.4-3.7,5.8-3.7,10c0,5.1,1.8,9.1,5.5,11.9c3.6,2.8,8.8,4.2,15.5,4.2
					c3.3,0,6.4-0.2,9.4-0.7C1236.4,54.8,1239.1,54.1,1241.6,53.1z"/>
			</g>
		</g>
	</g>
</g>
</svg>
