<?xml version="1.0" encoding="utf-8"?>
<!-- Generator: Adobe Illustrator 26.0.2, SVG Export Plug-In . SVG Version: 6.00 Build 0)  -->
<svg version="1.1" id="Layer_1" xmlns="http://www.w3.org/2000/svg" xmlns:xlink="http://www.w3.org/1999/xlink" x="0px" y="0px"
	 viewBox="0 0 504 252" style="enable-background:new 0 0 504 252;" xml:space="preserve">
<style type="text/css">
	.st0{fill:none;}
	
		.st1{clip-path:url(#SVGID_00000013173855045289237370000008952629656266707385_);fill:none;stroke:#000000;stroke-linecap:round;stroke-linejoin:round;}
	
		.st2{clip-path:url(#SVGID_00000105409209855531167090000000996175740186053554_);stroke:#000000;stroke-linecap:round;stroke-linejoin:round;}
	
		.st3{clip-path:url(#SVGID_00000059991347114455654510000003203483089879016339_);fill:none;stroke:#000000;stroke-linecap:round;stroke-linejoin:round;}
	
		.st4{clip-path:url(#SVGID_00000027585946552647478150000002835689437582088578_);stroke:#000000;stroke-linecap:round;stroke-linejoin:round;}
	
		.st5{clip-path:url(#SVGID_00000149363890795953897850000012587783631406124700_);fill:none;stroke:#000000;stroke-linecap:round;stroke-linejoin:round;}
	
		.st6{clip-path:url(#SVGID_00000071542033261364914980000003023735303652490914_);stroke:#000000;stroke-linecap:round;stroke-linejoin:round;}
	
		.st7{clip-path:url(#SVGID_00000121278608228937786770000006747783725029875886_);fill:none;stroke:#000000;stroke-linecap:round;stroke-linejoin:round;}
	
		.st8{clip-path:url(#SVGID_00000138555717621440376760000006140052241862312588_);stroke:#000000;stroke-linecap:round;stroke-linejoin:round;}
	
		.st9{clip-path:url(#SVGID_00000065759808718945123290000016012221717463403412_);fill:none;stroke:#000000;stroke-linecap:round;stroke-linejoin:round;}
	
		.st10{clip-path:url(#SVGID_00000077282982312153958830000007233882005391530651_);stroke:#000000;stroke-linecap:round;stroke-linejoin:round;}
	
		.st11{clip-path:url(#SVGID_00000093150196486321496540000003687490550666779028_);fill:none;stroke:#000000;stroke-linecap:round;stroke-linejoin:round;}
	
		.st12{clip-path:url(#SVGID_00000141447134751282000990000007872493308362279870_);stroke:#000000;stroke-linecap:round;stroke-linejoin:round;}
	
		.st13{clip-path:url(#SVGID_00000153668775035990464310000014534987596330854801_);fill:none;stroke:#000000;stroke-linecap:round;stroke-linejoin:round;}
	
		.st14{clip-path:url(#SVGID_00000092433225066361675610000000726878711412507068_);stroke:#000000;stroke-linecap:round;stroke-linejoin:round;}
	
		.st15{clip-path:url(#SVGID_00000088113380949547414850000004918318501162429067_);fill:none;stroke:#000000;stroke-linecap:round;stroke-linejoin:round;}
	
		.st16{clip-path:url(#SVGID_00000112591229309048610180000010390384562830140085_);stroke:#000000;stroke-linecap:round;stroke-linejoin:round;}
	
		.st17{clip-path:url(#SVGID_00000160884732762178208990000010867525011342949039_);fill:none;stroke:#000000;stroke-linecap:round;stroke-linejoin:round;}
	
		.st18{clip-path:url(#SVGID_00000118384712443011516720000009201866181063674039_);stroke:#000000;stroke-linecap:round;stroke-linejoin:round;}
	
		.st19{clip-path:url(#SVGID_00000035493261820845095900000004931624284381524149_);fill:none;stroke:#000000;stroke-linecap:round;stroke-linejoin:round;}
	
		.st20{clip-path:url(#SVGID_00000091704076841797068470000004361237549471370918_);stroke:#000000;stroke-linecap:round;stroke-linejoin:round;}
	
		.st21{clip-path:url(#SVGID_00000114777475707490244490000002758581394649440168_);fill:none;stroke:#000000;stroke-linecap:round;stroke-linejoin:round;}
	
		.st22{clip-path:url(#SVGID_00000159471688568970148410000004778378919393497218_);stroke:#000000;stroke-linecap:round;stroke-linejoin:round;}
	
		.st23{clip-path:url(#SVGID_00000040556223522698024610000010096447040792742309_);fill:none;stroke:#000000;stroke-linecap:round;stroke-linejoin:round;}
	
		.st24{clip-path:url(#SVGID_00000039852681646403144880000007159028645218620817_);stroke:#000000;stroke-linecap:round;stroke-linejoin:round;}
	
		.st25{clip-path:url(#SVGID_00000072975806369062955690000003835113369295102382_);fill:none;stroke:#000000;stroke-linecap:round;stroke-linejoin:round;}
	
		.st26{clip-path:url(#SVGID_00000023985190070648912840000016067883358096844207_);stroke:#000000;stroke-linecap:round;stroke-linejoin:round;}
	
		.st27{clip-path:url(#SVGID_00000108988783238256557700000002316893847665427375_);fill:none;stroke:#000000;stroke-linecap:round;stroke-linejoin:round;}
	
		.st28{clip-path:url(#SVGID_00000166671526711958688370000009319789354642775732_);stroke:#000000;stroke-linecap:round;stroke-linejoin:round;}
	
		.st29{clip-path:url(#SVGID_00000086658001337919241930000018159640575380315051_);fill:none;stroke:#000000;stroke-linecap:round;stroke-linejoin:round;}
	
		.st30{clip-path:url(#SVGID_00000105404345088094706440000000281216189747686586_);stroke:#000000;stroke-linecap:round;stroke-linejoin:round;}
	
		.st31{clip-path:url(#SVGID_00000164495193340141956810000011232170387551071411_);fill:none;stroke:#000000;stroke-linecap:round;stroke-linejoin:round;}
	
		.st32{clip-path:url(#SVGID_00000072280934460071761940000011676530436589363585_);stroke:#000000;stroke-linecap:round;stroke-linejoin:round;}
	
		.st33{clip-path:url(#SVGID_00000018235267683907839640000001363878327559109037_);fill:none;stroke:#000000;stroke-linecap:round;stroke-linejoin:round;}
	
		.st34{clip-path:url(#SVGID_00000014629714910247500630000000010458220293591474_);stroke:#000000;stroke-linecap:round;stroke-linejoin:round;}
	.st35{clip-path:url(#SVGID_00000139286263091480733630000012763386414092010410_);}
	.st36{fill:#FDE725;stroke:#FDE725;stroke-linejoin:round;}
	.st37{clip-path:url(#SVGID_00000131342775318709494410000008552710217247478700_);}
	.st38{fill:#4AC16D;stroke:#4AC16D;stroke-linejoin:round;}
	.st39{clip-path:url(#SVGID_00000004515932727439709800000000028468342969372089_);}
	.st40{clip-path:url(#SVGID_00000036216238293870419150000017190320467905636239_);}
	.st41{clip-path:url(#SVGID_00000138561198869947592160000014584506451057401249_);}
	.st42{fill:#F1E51D;stroke:#F1E51D;stroke-linejoin:round;}
	.st43{clip-path:url(#SVGID_00000008144992926606584090000006581028784312217015_);}
	.st44{clip-path:url(#SVGID_00000027573799771139259690000005093052626333125304_);}
	.st45{fill:#440154;stroke:#440154;stroke-linejoin:round;}
	.st46{clip-path:url(#SVGID_00000027605030003284875480000007099994597840696968_);}
	.st47{clip-path:url(#SVGID_00000094616858782681725840000007078733304191706024_);}
	.st48{clip-path:url(#SVGID_00000134948064204621287840000009621605550451083186_);}
	.st49{clip-path:url(#SVGID_00000110428851711784579870000017827743306720078248_);}
</style>
<g id="matplotlib.axis_1">
</g>
<g id="patch_1">
	<path class="st0" d="M0,252h504V0H0V252z"/>
</g>
<g id="axes_1">
	<g id="patch_2">
		<g>
			<g>
				<g>
					<g>
						<defs>
							<rect id="SVGID_1_" x="59.1" y="25.9" width="385.9" height="209.4"/>
						</defs>
						<clipPath id="SVGID_00000044878530624246718290000006591857521959612553_">
							<use xlink:href="#SVGID_1_"  style="overflow:visible;"/>
						</clipPath>
						
							<path style="clip-path:url(#SVGID_00000044878530624246718290000006591857521959612553_);fill:none;stroke:#000000;stroke-linecap:round;stroke-linejoin:round;" d="
							M237.9,69.1c55-7.9,109.7-15.8,164-23.6"/>
					</g>
				</g>
			</g>
		</g>
		<g>
			<g>
				<g>
					<g>
						<defs>
							<rect id="SVGID_00000053528277785998579350000003683960358198317976_" x="59.1" y="25.9" width="385.9" height="209.4"/>
						</defs>
						<clipPath id="SVGID_00000043427674675637134010000006815378078409056897_">
							<use xlink:href="#SVGID_00000053528277785998579350000003683960358198317976_"  style="overflow:visible;"/>
						</clipPath>
						
							<path style="clip-path:url(#SVGID_00000043427674675637134010000006815378078409056897_);stroke:#000000;stroke-linecap:round;stroke-linejoin:round;" d="
							M397.5,44.1l4.2,1.4L398,48L397.5,44.1z"/>
					</g>
				</g>
			</g>
		</g>
	</g>
	<g id="patch_3">
		<g>
			<g>
				<g>
					<g>
						<defs>
							<rect id="SVGID_00000114070932786218835760000001925741060348837270_" x="59.1" y="25.9" width="385.9" height="209.4"/>
						</defs>
						<clipPath id="SVGID_00000170252308478769592580000006257505672432069523_">
							<use xlink:href="#SVGID_00000114070932786218835760000001925741060348837270_"  style="overflow:visible;"/>
						</clipPath>
						
							<path style="clip-path:url(#SVGID_00000170252308478769592580000006257505672432069523_);fill:none;stroke:#000000;stroke-linecap:round;stroke-linejoin:round;" d="
							M403,45.3c-55,7.9-109.7,15.8-164,23.6"/>
					</g>
				</g>
			</g>
		</g>
		<g>
			<g>
				<g>
					<g>
						<defs>
							<rect id="SVGID_00000013893937936741647980000007445800754744046753_" x="59.1" y="25.9" width="385.9" height="209.4"/>
						</defs>
						<clipPath id="SVGID_00000023272786821280195950000011635926591340343465_">
							<use xlink:href="#SVGID_00000013893937936741647980000007445800754744046753_"  style="overflow:visible;"/>
						</clipPath>
						
							<path style="clip-path:url(#SVGID_00000023272786821280195950000011635926591340343465_);stroke:#000000;stroke-linecap:round;stroke-linejoin:round;" d="
							M243.2,70.3l-4.2-1.4l3.7-2.5L243.2,70.3z"/>
					</g>
				</g>
			</g>
		</g>
	</g>
	<g id="patch_4">
		<g>
			<g>
				<g>
					<g>
						<defs>
							<rect id="SVGID_00000158713195325162842140000013888595500381551499_" x="59.1" y="25.9" width="385.9" height="209.4"/>
						</defs>
						<clipPath id="SVGID_00000072968330185939078050000008680509378257327029_">
							<use xlink:href="#SVGID_00000158713195325162842140000013888595500381551499_"  style="overflow:visible;"/>
						</clipPath>
						
							<path style="clip-path:url(#SVGID_00000072968330185939078050000008680509378257327029_);fill:none;stroke:#000000;stroke-linecap:round;stroke-linejoin:round;" d="
							M113.3,127.5c-6.2-25-12.3-49.6-18.3-73.9"/>
					</g>
				</g>
			</g>
		</g>
		<g>
			<g>
				<g>
					<g>
						<defs>
							<rect id="SVGID_00000057121103785652089780000000962925103383860379_" x="59.1" y="25.9" width="385.9" height="209.4"/>
						</defs>
						<clipPath id="SVGID_00000018955745854615657520000002291846393087814815_">
							<use xlink:href="#SVGID_00000057121103785652089780000000962925103383860379_"  style="overflow:visible;"/>
						</clipPath>
						
							<path style="clip-path:url(#SVGID_00000018955745854615657520000002291846393087814815_);stroke:#000000;stroke-linecap:round;stroke-linejoin:round;" d="
							M94,57.9l1-4.4l2.9,3.4L94,57.9z"/>
					</g>
				</g>
			</g>
		</g>
	</g>
	<g id="patch_5">
		<g>
			<g>
				<g>
					<g>
						<defs>
							<rect id="SVGID_00000084506100210894965370000002680063026220166815_" x="59.1" y="25.9" width="385.9" height="209.4"/>
						</defs>
						<clipPath id="SVGID_00000155843562334934552140000000784292044834800297_">
							<use xlink:href="#SVGID_00000084506100210894965370000002680063026220166815_"  style="overflow:visible;"/>
						</clipPath>
						
							<path style="clip-path:url(#SVGID_00000155843562334934552140000000784292044834800297_);fill:none;stroke:#000000;stroke-linecap:round;stroke-linejoin:round;" d="
							M122.9,131.5c33-19,65.6-37.8,97.9-56.4"/>
					</g>
				</g>
			</g>
		</g>
		<g>
			<g>
				<g>
					<g>
						<defs>
							<rect id="SVGID_00000079485343119377519250000014267172133302597531_" x="59.1" y="25.9" width="385.9" height="209.4"/>
						</defs>
						<clipPath id="SVGID_00000150095649301231234010000000666770523664625814_">
							<use xlink:href="#SVGID_00000079485343119377519250000014267172133302597531_"  style="overflow:visible;"/>
						</clipPath>
						
							<path style="clip-path:url(#SVGID_00000150095649301231234010000000666770523664625814_);stroke:#000000;stroke-linecap:round;stroke-linejoin:round;" d="
							M216.3,75.4l4.5-0.3l-2.5,3.7L216.3,75.4z"/>
					</g>
				</g>
			</g>
		</g>
	</g>
	<g id="patch_6">
		<g>
			<g>
				<g>
					<g>
						<defs>
							<rect id="SVGID_00000080174561923308532310000016468681112371657868_" x="59.1" y="25.9" width="385.9" height="209.4"/>
						</defs>
						<clipPath id="SVGID_00000153672313325641030660000015523033106023286957_">
							<use xlink:href="#SVGID_00000080174561923308532310000016468681112371657868_"  style="overflow:visible;"/>
						</clipPath>
						
							<path style="clip-path:url(#SVGID_00000153672313325641030660000015523033106023286957_);fill:none;stroke:#000000;stroke-linecap:round;stroke-linejoin:round;" d="
							M270.5,141.5c-12.3-21.2-24.4-42.1-36.3-62.7"/>
					</g>
				</g>
			</g>
		</g>
		<g>
			<g>
				<g>
					<g>
						<defs>
							<rect id="SVGID_00000128442822464113331680000008036749237293648774_" x="59.1" y="25.9" width="385.9" height="209.4"/>
						</defs>
						<clipPath id="SVGID_00000132795651861132327270000002276083732586606004_">
							<use xlink:href="#SVGID_00000128442822464113331680000008036749237293648774_"  style="overflow:visible;"/>
						</clipPath>
						
							<path style="clip-path:url(#SVGID_00000132795651861132327270000002276083732586606004_);stroke:#000000;stroke-linecap:round;stroke-linejoin:round;" d="
							M234.5,83.2l-0.3-4.5l3.7,2.5L234.5,83.2z"/>
					</g>
				</g>
			</g>
		</g>
	</g>
	<g id="patch_7">
		<g>
			<g>
				<g>
					<g>
						<defs>
							<rect id="SVGID_00000165218435638119246550000004815355949493435065_" x="59.1" y="25.9" width="385.9" height="209.4"/>
						</defs>
						<clipPath id="SVGID_00000010295744269154238000000003028096898354393230_">
							<use xlink:href="#SVGID_00000165218435638119246550000004815355949493435065_"  style="overflow:visible;"/>
						</clipPath>
						
							<path style="clip-path:url(#SVGID_00000010295744269154238000000003028096898354393230_);fill:none;stroke:#000000;stroke-linecap:round;stroke-linejoin:round;" d="
							M266.1,148.3c-47.4-3.9-94.4-7.8-141.1-11.6"/>
					</g>
				</g>
			</g>
		</g>
		<g>
			<g>
				<g>
					<g>
						<defs>
							<rect id="SVGID_00000067927148643779626110000004824566140562314885_" x="59.1" y="25.9" width="385.9" height="209.4"/>
						</defs>
						<clipPath id="SVGID_00000026147837470253123100000007333256027120139198_">
							<use xlink:href="#SVGID_00000067927148643779626110000004824566140562314885_"  style="overflow:visible;"/>
						</clipPath>
						
							<path style="clip-path:url(#SVGID_00000026147837470253123100000007333256027120139198_);stroke:#000000;stroke-linecap:round;stroke-linejoin:round;" d="
							M128.9,139l-3.8-2.3l4.2-1.7L128.9,139z"/>
					</g>
				</g>
			</g>
		</g>
	</g>
	<g id="patch_8">
		<g>
			<g>
				<g>
					<g>
						<defs>
							<rect id="SVGID_00000168101993868413364970000011832699135390112430_" x="59.1" y="25.9" width="385.9" height="209.4"/>
						</defs>
						<clipPath id="SVGID_00000065774855146356839910000010583298068842124172_">
							<use xlink:href="#SVGID_00000168101993868413364970000011832699135390112430_"  style="overflow:visible;"/>
						</clipPath>
						
							<path style="clip-path:url(#SVGID_00000065774855146356839910000010583298068842124172_);fill:none;stroke:#000000;stroke-linecap:round;stroke-linejoin:round;" d="
							M283.5,149c39.8,0,79.2,0,118.2,0"/>
					</g>
				</g>
			</g>
		</g>
		<g>
			<g>
				<g>
					<g>
						<defs>
							<rect id="SVGID_00000109731104099885368700000013436717320276907396_" x="59.1" y="25.9" width="385.9" height="209.4"/>
						</defs>
						<clipPath id="SVGID_00000018925259708951229800000017806152528333091204_">
							<use xlink:href="#SVGID_00000109731104099885368700000013436717320276907396_"  style="overflow:visible;"/>
						</clipPath>
						
							<path style="clip-path:url(#SVGID_00000018925259708951229800000017806152528333091204_);stroke:#000000;stroke-linecap:round;stroke-linejoin:round;" d="
							M397.8,147l4,2l-4,2V147z"/>
					</g>
				</g>
			</g>
		</g>
	</g>
	<g id="patch_9">
		<g>
			<g>
				<g>
					<g>
						<defs>
							<rect id="SVGID_00000168099353589957079880000013431480736497888656_" x="59.1" y="25.9" width="385.9" height="209.4"/>
						</defs>
						<clipPath id="SVGID_00000048482070951963005930000010142330990469271460_">
							<use xlink:href="#SVGID_00000168099353589957079880000013431480736497888656_"  style="overflow:visible;"/>
						</clipPath>
						
							<path style="clip-path:url(#SVGID_00000048482070951963005930000010142330990469271460_);fill:none;stroke:#000000;stroke-linecap:round;stroke-linejoin:round;" d="
							M403.5,145.5C348,121.6,293,97.8,238.3,74.2"/>
					</g>
				</g>
			</g>
		</g>
		<g>
			<g>
				<g>
					<g>
						<defs>
							<rect id="SVGID_00000090277215500947230010000000917311086328994739_" x="59.1" y="25.9" width="385.9" height="209.4"/>
						</defs>
						<clipPath id="SVGID_00000004520391874929787680000004035603584423447740_">
							<use xlink:href="#SVGID_00000090277215500947230010000000917311086328994739_"  style="overflow:visible;"/>
						</clipPath>
						
							<path style="clip-path:url(#SVGID_00000004520391874929787680000004035603584423447740_);stroke:#000000;stroke-linecap:round;stroke-linejoin:round;" d="
							M241.1,77.6l-2.9-3.4l4.5-0.3L241.1,77.6z"/>
					</g>
				</g>
			</g>
		</g>
	</g>
	<g id="patch_10">
		<g>
			<g>
				<g>
					<g>
						<defs>
							<rect id="SVGID_00000039119938042567481480000014410548883346226318_" x="59.1" y="25.9" width="385.9" height="209.4"/>
						</defs>
						<clipPath id="SVGID_00000034089883500954745340000009850823418835261610_">
							<use xlink:href="#SVGID_00000039119938042567481480000014410548883346226318_"  style="overflow:visible;"/>
						</clipPath>
						
							<path style="clip-path:url(#SVGID_00000034089883500954745340000009850823418835261610_);fill:none;stroke:#000000;stroke-linecap:round;stroke-linejoin:round;" d="
							M402.9,149c-39.8,0-79.2,0-118.2,0"/>
					</g>
				</g>
			</g>
		</g>
		<g>
			<g>
				<g>
					<g>
						<defs>
							<rect id="SVGID_00000121275175898048841280000016425371323874338475_" x="59.1" y="25.9" width="385.9" height="209.4"/>
						</defs>
						<clipPath id="SVGID_00000050660604041177109100000012714458015143138716_">
							<use xlink:href="#SVGID_00000121275175898048841280000016425371323874338475_"  style="overflow:visible;"/>
						</clipPath>
						
							<path style="clip-path:url(#SVGID_00000050660604041177109100000012714458015143138716_);stroke:#000000;stroke-linecap:round;stroke-linejoin:round;" d="
							M288.6,151l-4-2l4-2V151z"/>
					</g>
				</g>
			</g>
		</g>
	</g>
	<g id="patch_11">
		<g>
			<g>
				<g>
					<g>
						<defs>
							<rect id="SVGID_00000155860674610790684720000017016380318908048045_" x="59.1" y="25.9" width="385.9" height="209.4"/>
						</defs>
						<clipPath id="SVGID_00000089568355429643144690000008559324735428521648_">
							<use xlink:href="#SVGID_00000155860674610790684720000017016380318908048045_"  style="overflow:visible;"/>
						</clipPath>
						
							<path style="clip-path:url(#SVGID_00000089568355429643144690000008559324735428521648_);fill:none;stroke:#000000;stroke-linecap:round;stroke-linejoin:round;" d="
							M151.9,194.1c24.3-38.8,48.4-77.3,72.2-115.5"/>
					</g>
				</g>
			</g>
		</g>
		<g>
			<g>
				<g>
					<g>
						<defs>
							<rect id="SVGID_00000112632947118465031440000015935825724096326284_" x="59.1" y="25.9" width="385.9" height="209.4"/>
						</defs>
						<clipPath id="SVGID_00000110458339289757675160000002575661861811807912_">
							<use xlink:href="#SVGID_00000112632947118465031440000015935825724096326284_"  style="overflow:visible;"/>
						</clipPath>
						
							<path style="clip-path:url(#SVGID_00000110458339289757675160000002575661861811807912_);stroke:#000000;stroke-linecap:round;stroke-linejoin:round;" d="
							M220.3,80.9l3.8-2.3l-0.4,4.5L220.3,80.9z"/>
					</g>
				</g>
			</g>
		</g>
	</g>
	<g id="patch_12">
		<g>
			<g>
				<g>
					<g>
						<defs>
							<rect id="SVGID_00000136407151067712016400000004280156341747003054_" x="59.1" y="25.9" width="385.9" height="209.4"/>
						</defs>
						<clipPath id="SVGID_00000101824232598880756290000005900629973464852136_">
							<use xlink:href="#SVGID_00000136407151067712016400000004280156341747003054_"  style="overflow:visible;"/>
						</clipPath>
						
							<path style="clip-path:url(#SVGID_00000101824232598880756290000005900629973464852136_);fill:none;stroke:#000000;stroke-linecap:round;stroke-linejoin:round;" d="
							M155.3,198.1c37.2-15.3,74-30.4,110.5-45.4"/>
					</g>
				</g>
			</g>
		</g>
		<g>
			<g>
				<g>
					<g>
						<defs>
							<rect id="SVGID_00000112605496764492395690000010232646521636300962_" x="59.1" y="25.9" width="385.9" height="209.4"/>
						</defs>
						<clipPath id="SVGID_00000141414252946823771980000009350760763149772192_">
							<use xlink:href="#SVGID_00000112605496764492395690000010232646521636300962_"  style="overflow:visible;"/>
						</clipPath>
						
							<path style="clip-path:url(#SVGID_00000141414252946823771980000009350760763149772192_);stroke:#000000;stroke-linecap:round;stroke-linejoin:round;" d="
							M261.2,152.4l4.5,0.3l-2.9,3.4L261.2,152.4z"/>
					</g>
				</g>
			</g>
		</g>
	</g>
	<g id="patch_13">
		<g>
			<g>
				<g>
					<g>
						<defs>
							<rect id="SVGID_00000103265981321497625490000009140872919930986130_" x="59.1" y="25.9" width="385.9" height="209.4"/>
						</defs>
						<clipPath id="SVGID_00000049925643757984956800000005406693425705965753_">
							<use xlink:href="#SVGID_00000103265981321497625490000009140872919930986130_"  style="overflow:visible;"/>
						</clipPath>
						
							<path style="clip-path:url(#SVGID_00000049925643757984956800000005406693425705965753_);fill:none;stroke:#000000;stroke-linecap:round;stroke-linejoin:round;" d="
							M186.4,201.1c13.4-40.8,26.7-81.3,39.8-121.4"/>
					</g>
				</g>
			</g>
		</g>
		<g>
			<g>
				<g>
					<g>
						<defs>
							<rect id="SVGID_00000160185011630239492340000009372096991468442036_" x="59.1" y="25.9" width="385.9" height="209.4"/>
						</defs>
						<clipPath id="SVGID_00000073692779443288979420000000809577357512944025_">
							<use xlink:href="#SVGID_00000160185011630239492340000009372096991468442036_"  style="overflow:visible;"/>
						</clipPath>
						
							<path style="clip-path:url(#SVGID_00000073692779443288979420000000809577357512944025_);stroke:#000000;stroke-linecap:round;stroke-linejoin:round;" d="
							M223.1,82.8l3.1-3.2l0.7,4.4L223.1,82.8z"/>
					</g>
				</g>
			</g>
		</g>
	</g>
	<g id="patch_14">
		<g>
			<g>
				<g>
					<g>
						<defs>
							<rect id="SVGID_00000166660289169119956750000015347228082677427613_" x="59.1" y="25.9" width="385.9" height="209.4"/>
						</defs>
						<clipPath id="SVGID_00000127035563082296635460000004942200647736679074_">
							<use xlink:href="#SVGID_00000166660289169119956750000015347228082677427613_"  style="overflow:visible;"/>
						</clipPath>
						
							<path style="clip-path:url(#SVGID_00000127035563082296635460000004942200647736679074_);fill:none;stroke:#000000;stroke-linecap:round;stroke-linejoin:round;" d="
							M190.9,204.5c25.6-16.9,50.8-33.6,75.7-50.1"/>
					</g>
				</g>
			</g>
		</g>
		<g>
			<g>
				<g>
					<g>
						<defs>
							<rect id="SVGID_00000067212291641654122740000003805339292705498761_" x="59.1" y="25.9" width="385.9" height="209.4"/>
						</defs>
						<clipPath id="SVGID_00000098184214250716115090000013755650097943338647_">
							<use xlink:href="#SVGID_00000067212291641654122740000003805339292705498761_"  style="overflow:visible;"/>
						</clipPath>
						
							<path style="clip-path:url(#SVGID_00000098184214250716115090000013755650097943338647_);stroke:#000000;stroke-linecap:round;stroke-linejoin:round;" d="
							M262.1,154.9l4.4-0.5l-2.2,3.9L262.1,154.9z"/>
					</g>
				</g>
			</g>
		</g>
	</g>
	<g id="patch_15">
		<g>
			<g>
				<g>
					<g>
						<defs>
							<rect id="SVGID_00000153691764575053117570000004711703098941332647_" x="59.1" y="25.9" width="385.9" height="209.4"/>
						</defs>
						<clipPath id="SVGID_00000078024551677823297790000004355354133524529289_">
							<use xlink:href="#SVGID_00000153691764575053117570000004711703098941332647_"  style="overflow:visible;"/>
						</clipPath>
						
							<path style="clip-path:url(#SVGID_00000078024551677823297790000004355354133524529289_);fill:none;stroke:#000000;stroke-linecap:round;stroke-linejoin:round;" d="
							M220.7,208.5c2.7-43.2,5.3-86,8-128.4"/>
					</g>
				</g>
			</g>
		</g>
		<g>
			<g>
				<g>
					<g>
						<defs>
							<rect id="SVGID_00000116229153273559933390000010807078768893557377_" x="59.1" y="25.9" width="385.9" height="209.4"/>
						</defs>
						<clipPath id="SVGID_00000158010225873746685720000018261705639145693578_">
							<use xlink:href="#SVGID_00000116229153273559933390000010807078768893557377_"  style="overflow:visible;"/>
						</clipPath>
						
							<path style="clip-path:url(#SVGID_00000158010225873746685720000018261705639145693578_);stroke:#000000;stroke-linecap:round;stroke-linejoin:round;" d="
							M226.4,83.9l2.2-3.9l1.7,4.1L226.4,83.9z"/>
					</g>
				</g>
			</g>
		</g>
	</g>
	<g id="patch_16">
		<g>
			<g>
				<g>
					<g>
						<defs>
							<rect id="SVGID_00000030483811859730835560000006832655300101127307_" x="59.1" y="25.9" width="385.9" height="209.4"/>
						</defs>
						<clipPath id="SVGID_00000144300570895032173130000005189389842621987999_">
							<use xlink:href="#SVGID_00000030483811859730835560000006832655300101127307_"  style="overflow:visible;"/>
						</clipPath>
						
							<path style="clip-path:url(#SVGID_00000144300570895032173130000005189389842621987999_);fill:none;stroke:#000000;stroke-linecap:round;stroke-linejoin:round;" d="
							M225.6,210.4c14.6-18.2,29-36.1,43.1-53.8"/>
					</g>
				</g>
			</g>
		</g>
		<g>
			<g>
				<g>
					<g>
						<defs>
							<rect id="SVGID_00000075846284562816479890000003030480835739238569_" x="59.1" y="25.9" width="385.9" height="209.4"/>
						</defs>
						<clipPath id="SVGID_00000151539667245605525280000000042077133581394616_">
							<use xlink:href="#SVGID_00000075846284562816479890000003030480835739238569_"  style="overflow:visible;"/>
						</clipPath>
						
							<path style="clip-path:url(#SVGID_00000151539667245605525280000000042077133581394616_);stroke:#000000;stroke-linecap:round;stroke-linejoin:round;" d="
							M264.6,158.5l4.1-1.9l-0.9,4.4L264.6,158.5z"/>
					</g>
				</g>
			</g>
		</g>
	</g>
	<g id="patch_17">
		<g>
			<g>
				<g>
					<g>
						<defs>
							<rect id="SVGID_00000022557406538830509400000006871641793144798346_" x="59.1" y="25.9" width="385.9" height="209.4"/>
						</defs>
						<clipPath id="SVGID_00000175306827545193081080000007373054136031113652_">
							<use xlink:href="#SVGID_00000022557406538830509400000006871641793144798346_"  style="overflow:visible;"/>
						</clipPath>
						
							<path style="clip-path:url(#SVGID_00000175306827545193081080000007373054136031113652_);fill:none;stroke:#000000;stroke-linecap:round;stroke-linejoin:round;" d="
							M358.5,197.1c-25.4-14.6-50.4-29-75.1-43.2"/>
					</g>
				</g>
			</g>
		</g>
		<g>
			<g>
				<g>
					<g>
						<defs>
							<rect id="SVGID_00000013164371477621715530000013781386384728166558_" x="59.1" y="25.9" width="385.9" height="209.4"/>
						</defs>
						<clipPath id="SVGID_00000070823994845941905990000003764714381704147116_">
							<use xlink:href="#SVGID_00000013164371477621715530000013781386384728166558_"  style="overflow:visible;"/>
						</clipPath>
						
							<path style="clip-path:url(#SVGID_00000070823994845941905990000003764714381704147116_);stroke:#000000;stroke-linecap:round;stroke-linejoin:round;" d="
							M285.8,157.6l-2.5-3.7l4.5,0.3L285.8,157.6z"/>
					</g>
				</g>
			</g>
		</g>
	</g>
	<g id="patch_18">
		<g>
			<g>
				<g>
					<g>
						<defs>
							<rect id="SVGID_00000111876692583408025460000007640510603972286110_" x="59.1" y="25.9" width="385.9" height="209.4"/>
						</defs>
						<clipPath id="SVGID_00000132078417449239634530000018200706541031514510_">
							<use xlink:href="#SVGID_00000111876692583408025460000007640510603972286110_"  style="overflow:visible;"/>
						</clipPath>
						
							<path style="clip-path:url(#SVGID_00000132078417449239634530000018200706541031514510_);fill:none;stroke:#000000;stroke-linecap:round;stroke-linejoin:round;" d="
							M380.5,185.5c-32.5-11.2-64.7-22.3-96.5-33.3"/>
					</g>
				</g>
			</g>
		</g>
		<g>
			<g>
				<g>
					<g>
						<defs>
							<rect id="SVGID_00000146498110942877869570000007907822678145110939_" x="59.1" y="25.9" width="385.9" height="209.4"/>
						</defs>
						<clipPath id="SVGID_00000178188500505905545540000012410290022042673314_">
							<use xlink:href="#SVGID_00000146498110942877869570000007907822678145110939_"  style="overflow:visible;"/>
						</clipPath>
						
							<path style="clip-path:url(#SVGID_00000178188500505905545540000012410290022042673314_);stroke:#000000;stroke-linecap:round;stroke-linejoin:round;" d="
							M287.1,155.4l-3.1-3.2l4.4-0.6L287.1,155.4z"/>
					</g>
				</g>
			</g>
		</g>
	</g>
	<g id="PathCollection_1">
		<g>
			<g>
				<g>
					<g>
						<defs>
							<rect id="SVGID_00000176008873075328423950000002868594664680809918_" x="59.1" y="25.9" width="385.9" height="209.4"/>
						</defs>
						<clipPath id="SVGID_00000073700534718887659960000005527758507364780172_">
							<use xlink:href="#SVGID_00000176008873075328423950000002868594664680809918_"  style="overflow:visible;"/>
						</clipPath>
						<g style="clip-path:url(#SVGID_00000073700534718887659960000005527758507364780172_);">
							<g>
								<path id="C0_0_c4387d28f2" class="st36" d="M229.3,78.2c2.1,0,4.1-0.8,5.6-2.3s2.3-3.5,2.3-5.6s-0.8-4.1-2.3-5.6
									s-3.5-2.3-5.6-2.3s-4.1,0.8-5.6,2.3s-2.3,3.5-2.3,5.6s0.8,4.1,2.3,5.6S227.2,78.2,229.3,78.2z"/>
							</g>
						</g>
					</g>
				</g>
			</g>
		</g>
		<g>
			<g>
				<g>
					<g>
						<defs>
							<rect id="SVGID_00000163780890310892247360000014806295909256339846_" x="59.1" y="25.9" width="385.9" height="209.4"/>
						</defs>
						<clipPath id="SVGID_00000111149278090860764390000001534279379274247835_">
							<use xlink:href="#SVGID_00000163780890310892247360000014806295909256339846_"  style="overflow:visible;"/>
						</clipPath>
						<g style="clip-path:url(#SVGID_00000111149278090860764390000001534279379274247835_);">
							<g>
								<path id="C0_0_c4387d28f2_00000013872933949572770980000014210257912267220097_" class="st38" d="M411.5,52
									c2.1,0,4.1-0.8,5.6-2.3s2.3-3.5,2.3-5.6s-0.8-4.1-2.3-5.6s-3.5-2.3-5.6-2.3s-4.1,0.8-5.6,2.3s-2.3,3.5-2.3,5.6
									s0.8,4.1,2.3,5.6S409.4,52,411.5,52z"/>
							</g>
						</g>
					</g>
				</g>
			</g>
		</g>
		<g>
			<g>
				<g>
					<g>
						<defs>
							<rect id="SVGID_00000008118749683774765540000015428035260558563994_" x="59.1" y="25.9" width="385.9" height="209.4"/>
						</defs>
						<clipPath id="SVGID_00000126320651724127076710000011509020790292319640_">
							<use xlink:href="#SVGID_00000008118749683774765540000015428035260558563994_"  style="overflow:visible;"/>
						</clipPath>
						<g style="clip-path:url(#SVGID_00000126320651724127076710000011509020790292319640_);">
							<g>
								<path id="C0_0_c4387d28f2_00000137826605513851043630000005465897691452930952_" class="st38" d="M115.4,143.8
									c2.1,0,4.1-0.8,5.6-2.3s2.3-3.5,2.3-5.6s-0.8-4.1-2.3-5.6s-3.5-2.3-5.6-2.3s-4.1,0.8-5.6,2.3s-2.3,3.5-2.3,5.6
									s0.8,4.1,2.3,5.6C111.3,142.9,113.3,143.8,115.4,143.8z"/>
							</g>
						</g>
					</g>
				</g>
			</g>
		</g>
		<g>
			<g>
				<g>
					<g>
						<defs>
							<rect id="SVGID_00000173161295112754514180000009729095523017005753_" x="59.1" y="25.9" width="385.9" height="209.4"/>
						</defs>
						<clipPath id="SVGID_00000100340866917419934000000001661927776070520228_">
							<use xlink:href="#SVGID_00000173161295112754514180000009729095523017005753_"  style="overflow:visible;"/>
						</clipPath>
						<g style="clip-path:url(#SVGID_00000100340866917419934000000001661927776070520228_);">
							<g>
								<path id="C0_0_c4387d28f2_00000176750881908670201530000018024212978877056186_" class="st38" d="M92.6,52
									c2.1,0,4.1-0.8,5.6-2.3s2.3-3.5,2.3-5.6s-0.8-4.1-2.3-5.6s-3.5-2.3-5.6-2.3S88.5,37,87,38.5s-2.3,3.5-2.3,5.6
									s0.8,4.1,2.3,5.6S90.5,52,92.6,52z"/>
							</g>
						</g>
					</g>
				</g>
			</g>
		</g>
		<g>
			<g>
				<g>
					<g>
						<defs>
							<rect id="SVGID_00000004507787902911717770000013613574187243039652_" x="59.1" y="25.9" width="385.9" height="209.4"/>
						</defs>
						<clipPath id="SVGID_00000162317173337125526150000005312166380617471114_">
							<use xlink:href="#SVGID_00000004507787902911717770000013613574187243039652_"  style="overflow:visible;"/>
						</clipPath>
						<g style="clip-path:url(#SVGID_00000162317173337125526150000005312166380617471114_);">
							<g>
								<path id="C0_0_c4387d28f2_00000019680048623767357120000009302507238889869977_" class="st42" d="M274.8,156.9
									c2.1,0,4.1-0.8,5.6-2.3s2.3-3.5,2.3-5.6s-0.8-4.1-2.3-5.6s-3.5-2.3-5.6-2.3s-4.1,0.8-5.6,2.3s-2.3,3.5-2.3,5.6
									s0.8,4.1,2.3,5.6S272.6,156.9,274.8,156.9z"/>
							</g>
						</g>
					</g>
				</g>
			</g>
		</g>
		<g>
			<g>
				<g>
					<g>
						<defs>
							<rect id="SVGID_00000026162970038939326400000012452409086698496931_" x="59.1" y="25.9" width="385.9" height="209.4"/>
						</defs>
						<clipPath id="SVGID_00000065774289642273839300000016714067528689774228_">
							<use xlink:href="#SVGID_00000026162970038939326400000012452409086698496931_"  style="overflow:visible;"/>
						</clipPath>
						<g style="clip-path:url(#SVGID_00000065774289642273839300000016714067528689774228_);">
							<g>
								<path id="C0_0_c4387d28f2_00000020356414716575981400000002036845510095612085_" class="st38" d="M411.5,156.9
									c2.1,0,4.1-0.8,5.6-2.3s2.3-3.5,2.3-5.6s-0.8-4.1-2.3-5.6s-3.5-2.3-5.6-2.3s-4.1,0.8-5.6,2.3s-2.3,3.5-2.3,5.6
									s0.8,4.1,2.3,5.6C407.4,156,409.4,156.9,411.5,156.9z"/>
							</g>
						</g>
					</g>
				</g>
			</g>
		</g>
		<g>
			<g>
				<g>
					<g>
						<defs>
							<rect id="SVGID_00000113339657923404737300000006214835481121346720_" x="59.1" y="25.9" width="385.9" height="209.4"/>
						</defs>
						<clipPath id="SVGID_00000091012374651436374880000001005737487315220136_">
							<use xlink:href="#SVGID_00000113339657923404737300000006214835481121346720_"  style="overflow:visible;"/>
						</clipPath>
						<g style="clip-path:url(#SVGID_00000091012374651436374880000001005737487315220136_);">
							<g>
								<path id="C0_0_c4387d28f2_00000082365394158838840380000011821770427543298182_" class="st45" d="M147.3,209.3
									c2.1,0,4.1-0.8,5.6-2.3s2.3-3.5,2.3-5.6s-0.8-4.1-2.3-5.6s-3.5-2.3-5.6-2.3c-2.1,0-4.1,0.8-5.6,2.3s-2.3,3.5-2.3,5.6
									s0.8,4.1,2.3,5.6S145.2,209.3,147.3,209.3z"/>
							</g>
						</g>
					</g>
				</g>
			</g>
		</g>
		<g>
			<g>
				<g>
					<g>
						<defs>
							<rect id="SVGID_00000035509916033134818570000013339056652639699355_" x="59.1" y="25.9" width="385.9" height="209.4"/>
						</defs>
						<clipPath id="SVGID_00000152986190420673692540000004122031055399458994_">
							<use xlink:href="#SVGID_00000035509916033134818570000013339056652639699355_"  style="overflow:visible;"/>
						</clipPath>
						<g style="clip-path:url(#SVGID_00000152986190420673692540000004122031055399458994_);">
							<g>
								<path id="C0_0_c4387d28f2_00000061460242417870935720000006640772603853257620_" class="st45" d="M183.7,217.2
									c2.1,0,4.1-0.8,5.6-2.3s2.3-3.5,2.3-5.6s-0.8-4.1-2.3-5.6s-3.5-2.3-5.6-2.3s-4.1,0.8-5.6,2.3s-2.3,3.5-2.3,5.6
									s0.8,4.1,2.3,5.6S181.6,217.2,183.7,217.2z"/>
							</g>
						</g>
					</g>
				</g>
			</g>
		</g>
		<g>
			<g>
				<g>
					<g>
						<defs>
							<rect id="SVGID_00000073701804393343238560000000373646475195305621_" x="59.1" y="25.9" width="385.9" height="209.4"/>
						</defs>
						<clipPath id="SVGID_00000031890028740024559180000000033668274358260381_">
							<use xlink:href="#SVGID_00000073701804393343238560000000373646475195305621_"  style="overflow:visible;"/>
						</clipPath>
						<g style="clip-path:url(#SVGID_00000031890028740024559180000000033668274358260381_);">
							<g>
								<path id="C0_0_c4387d28f2_00000152232753556608359390000012961777705370774939_" class="st45" d="M220.2,225.1
									c2.1,0,4.1-0.8,5.6-2.3s2.3-3.5,2.3-5.6s-0.8-4.1-2.3-5.6s-3.5-2.3-5.6-2.3s-4.1,0.8-5.6,2.3s-2.3,3.5-2.3,5.6
									s0.8,4.1,2.3,5.6S218.1,225.1,220.2,225.1z"/>
							</g>
						</g>
					</g>
				</g>
			</g>
		</g>
		<g>
			<g>
				<g>
					<g>
						<defs>
							<rect id="SVGID_00000041278459968387780930000016523838487839746997_" x="59.1" y="25.9" width="385.9" height="209.4"/>
						</defs>
						<clipPath id="SVGID_00000111190689752172000300000018090253150915728775_">
							<use xlink:href="#SVGID_00000041278459968387780930000016523838487839746997_"  style="overflow:visible;"/>
						</clipPath>
						<g style="clip-path:url(#SVGID_00000111190689752172000300000018090253150915728775_);">
							<g>
								<path id="C0_0_c4387d28f2_00000081610228992275562080000017068553968471763877_" class="st45" d="M366,209.3
									c2.1,0,4.1-0.8,5.6-2.3s2.3-3.5,2.3-5.6s-0.8-4.1-2.3-5.6s-3.5-2.3-5.6-2.3s-4.1,0.8-5.6,2.3s-2.3,3.5-2.3,5.6
									s0.8,4.1,2.3,5.6S363.9,209.3,366,209.3z"/>
							</g>
						</g>
					</g>
				</g>
			</g>
		</g>
		<g>
			<g>
				<g>
					<g>
						<defs>
							<rect id="SVGID_00000036240492435359975310000014103684783756054163_" x="59.1" y="25.9" width="385.9" height="209.4"/>
						</defs>
						<clipPath id="SVGID_00000062173107513912093390000005278988322505689231_">
							<use xlink:href="#SVGID_00000036240492435359975310000014103684783756054163_"  style="overflow:visible;"/>
						</clipPath>
						<g style="clip-path:url(#SVGID_00000062173107513912093390000005278988322505689231_);">
							<g>
								<path id="C0_0_c4387d28f2_00000158004770182948263880000011339960720143238025_" class="st45" d="M388.6,196.2
									c2.1,0,4.1-0.8,5.6-2.3s2.3-3.5,2.3-5.6s-0.8-4.1-2.3-5.6s-3.5-2.3-5.6-2.3s-4.1,0.8-5.6,2.3s-2.3,3.5-2.3,5.6
									s0.8,4.1,2.3,5.6S386.6,196.2,388.6,196.2z"/>
							</g>
						</g>
					</g>
				</g>
			</g>
		</g>
	</g>
	<g id="text_1">
		<g transform="translate(124.002188 19.918125)scale(0.12 -0.12)">
			<g>
				<path id="DejaVuSans-68" d="M421.8,64.8V8.1h11.9c10.1,0,17.4,2.3,22.1,6.8c4.7,4.6,7,11.8,7,21.6s-2.3,16.9-7,21.5
					c-4.7,4.6-12,6.8-22.1,6.8H421.8z M411.9,72.9h20.3c14.1,0,24.5-2.9,31.1-8.8c6.6-5.9,9.9-15.1,9.9-27.6
					c0-12.6-3.3-21.8-10-27.7c-6.6-5.9-17-8.8-31-8.8h-20.3V72.9z"/>
			</g>
			<g>
				<path id="DejaVuSans-105" d="M488.5,54.7h9V0h-9V54.7z M488.5,76h9V64.6h-9V76z"/>
			</g>
			<g>
				<path id="DejaVuSans-71" d="M566.4,10.4V30h-16.1v8.1h25.9V6.8c-3.8-2.7-8-4.7-12.6-6.1c-4.6-1.4-9.5-2.1-14.7-2.1
					c-11.4,0-20.3,3.3-26.8,10c-6.4,6.7-9.6,15.9-9.6,27.8s3.2,21.2,9.6,27.9c6.4,6.7,15.4,10,26.8,10c4.8,0,9.3-0.6,13.5-1.8
					c4.3-1.2,8.2-2.9,11.8-5.2V56.8c-3.6,3.1-7.5,5.4-11.6,7c-4.1,1.6-8.4,2.3-12.9,2.3c-8.9,0-15.6-2.5-20.1-7.5
					s-6.7-12.4-6.7-22.3c0-9.8,2.2-17.2,6.7-22.2s11.2-7.5,20.1-7.5c3.5,0,6.6,0.3,9.3,0.9C561.8,8.2,564.2,9.1,566.4,10.4z"/>
			</g>
			<g>
				<path id="DejaVuSans-114" d="M625.5,46.3c-1,0.6-2.1,1-3.3,1.3c-1.2,0.3-2.5,0.4-3.9,0.4c-5.1,0-9-1.7-11.7-5
					c-2.7-3.3-4.1-8-4.1-14.2V0h-9v54.7h9v-8.5c1.9,3.3,4.4,5.8,7.4,7.4c3,1.6,6.7,2.4,11,2.4c0.6,0,1.3,0,2-0.1
					c0.8-0.1,1.6-0.2,2.5-0.4L625.5,46.3z"/>
			</g>
			<g>
				<path id="DejaVuSans-97" d="M659.8,27.5c-7.3,0-12.3-0.8-15.1-2.5s-4.2-4.5-4.2-8.5c0-3.2,1.1-5.7,3.2-7.6s5-2.8,8.6-2.8
					c5,0,9,1.8,12,5.3s4.5,8.2,4.5,14.1v2H659.8z M677.7,31.2V0h-9v8.3c-2-3.3-4.6-5.8-7.7-7.3c-3.1-1.6-6.8-2.4-11.2-2.4
					c-5.6,0-10,1.6-13.4,4.7c-3.3,3.1-5,7.4-5,12.6c0,6.1,2.1,10.8,6.2,13.9c4.1,3.1,10.3,4.7,18.4,4.7h12.6v0.9
					c0,4.1-1.4,7.3-4.1,9.6s-6.5,3.4-11.5,3.4c-3.1,0-6.2-0.4-9.1-1.1c-3-0.8-5.8-1.9-8.5-3.4v8.3c3.3,1.3,6.5,2.2,9.6,2.8
					c3.1,0.6,6.1,1,9,1c7.9,0,13.8-2.1,17.7-6.2C675.7,45.7,677.7,39.5,677.7,31.2z"/>
			</g>
			<g>
				<path id="DejaVuSans-112" d="M704.9,8.2v-29h-9v75.5h9v-8.3c1.9,3.2,4.3,5.7,7.2,7.2c2.9,1.6,6.3,2.4,10.3,2.4
					c6.6,0,12-2.6,16.2-7.9s6.2-12.2,6.2-20.8s-2.1-15.5-6.2-20.8c-4.1-5.3-9.5-7.9-16.2-7.9c-4,0-7.4,0.8-10.3,2.4
					C709.2,2.5,706.8,5,704.9,8.2z M735.5,27.3c0,6.6-1.4,11.8-4.1,15.5s-6.5,5.6-11.2,5.6c-4.8,0-8.5-1.9-11.2-5.6
					s-4.1-8.9-4.1-15.5s1.4-11.8,4.1-15.5s6.5-5.6,11.2-5.6c4.8,0,8.5,1.9,11.2,5.6S735.5,20.7,735.5,27.3z"/>
			</g>
			<g>
				<path id="DejaVuSans-104" d="M805.1,33V0h-9v32.7c0,5.2-1,9-3,11.6c-2,2.6-5,3.9-9.1,3.9c-4.9,0-8.7-1.5-11.5-4.6
					s-4.2-7.3-4.2-12.6V0h-9v76h9V46.2c2.2,3.3,4.7,5.8,7.6,7.4c2.9,1.6,6.3,2.4,10.1,2.4c6.3,0,11-1.9,14.2-5.8
					C803.5,46.3,805.1,40.6,805.1,33z"/>
			</g>
			<g>
				<path id="DejaVuSans-32" d="M813.6,0"/>
			</g>
			<g>
				<path id="DejaVuSans-68_00000121981473020978250140000002428350377498259610_" d="M865.1,64.8V8.1H877c10.1,0,17.4,2.3,22.1,6.8
					c4.7,4.6,7,11.8,7,21.6s-2.3,16.9-7,21.5c-4.7,4.5-12,6.8-22.1,6.8H865.1z M855.2,72.9h20.3c14.1,0,24.5-2.9,31.1-8.8
					c6.6-5.9,9.9-15.1,9.9-27.6c0-12.6-3.3-21.8-10-27.7c-6.6-5.9-17-8.8-31-8.8h-20.3C855.2,0,855.2,72.9,855.2,72.9z"/>
			</g>
			<g>
				<path id="DejaVuSans-101" d="M978.6,29.6v-4.4h-41.3c0.4-6.2,2.3-10.9,5.6-14.1s8-4.9,13.9-4.9c3.4,0,6.8,0.4,10,1.3
					c3.2,0.8,6.5,2.1,9.7,3.8V2.8c-3.2-1.4-6.5-2.4-9.9-3.1s-6.8-1.1-10.3-1.1c-8.7,0-15.6,2.5-20.7,7.6c-5.1,5.1-7.6,12-7.6,20.6
					c0,8.9,2.4,16,7.2,21.3s11.4,7.9,19.6,7.9c7.4,0,13.2-2.4,17.5-7.1C976.5,44.2,978.6,37.7,978.6,29.6z M969.6,32.2
					c-0.1,4.9-1.4,8.8-4.1,11.8c-2.7,2.9-6.2,4.4-10.7,4.4c-5,0-9-1.4-12-4.2s-4.7-6.8-5.2-12H969.6z"/>
			</g>
			<g>
				<path id="DejaVuSans-103" d="M1029.3,28c0,6.5-1.3,11.6-4,15.1c-2.7,3.6-6.4,5.4-11.3,5.4c-4.8,0-8.6-1.8-11.2-5.4
					c-2.7-3.6-4-8.6-4-15.1s1.3-11.5,4-15.1s6.4-5.4,11.2-5.4c4.9,0,8.6,1.8,11.3,5.4C1028,16.5,1029.3,21.5,1029.3,28z M1038.3,6.8
					c0-9.3-2.1-16.2-6.2-20.8c-4.1-4.5-10.5-6.8-19-6.8c-3.2,0-6.1,0.2-8.9,0.7c-2.8,0.5-5.5,1.2-8.2,2.2v8.7
					c2.6-1.4,5.2-2.5,7.8-3.2s5.2-1,7.9-1c5.9,0,10.3,1.5,13.2,4.6c2.9,3.1,4.4,7.7,4.4,13.9v4.5c-1.9-3.2-4.2-5.6-7.1-7.2
					c-2.9-1.6-6.4-2.4-10.4-2.4c-6.7,0-12.1,2.6-16.2,7.7c-4.1,5.1-6.2,11.9-6.2,20.3c0,8.5,2.1,15.2,6.2,20.3
					c4.1,5.1,9.5,7.7,16.2,7.7c4,0,7.5-0.8,10.4-2.4c2.9-1.6,5.3-4,7.1-7.2v8.3h9V6.8z"/>
			</g>
			<g>
				<path id="DejaVuSans-114_00000031917841255588434890000009236852517855251374_" d="M1088.5,46.3c-1,0.6-2.1,1-3.3,1.3
					c-1.2,0.3-2.5,0.4-3.9,0.4c-5.1,0-9-1.7-11.7-5c-2.7-3.3-4.1-8-4.1-14.2V0h-9v54.7h9v-8.5c1.9,3.3,4.4,5.8,7.4,7.4
					c3,1.6,6.7,2.4,11,2.4c0.6,0,1.3,0,2-0.1c0.8-0.1,1.6-0.2,2.5-0.4L1088.5,46.3z"/>
			</g>
			<g>
				<path id="DejaVuSans-101_00000056398660667612243610000017737390236408340359_" d="M1142.5,29.6v-4.4h-41.3
					c0.4-6.2,2.3-10.9,5.6-14.1c3.3-3.2,8-4.9,13.9-4.9c3.4,0,6.8,0.4,10,1.3c3.2,0.8,6.5,2.1,9.7,3.8V2.8c-3.2-1.4-6.5-2.4-9.9-3.1
					s-6.8-1.1-10.3-1.1c-8.7,0-15.6,2.5-20.7,7.6c-5.1,5.1-7.6,12-7.6,20.6c0,8.9,2.4,16,7.2,21.3c4.8,5.3,11.4,7.9,19.6,7.9
					c7.4,0,13.2-2.4,17.5-7.1C1140.3,44.2,1142.5,37.7,1142.5,29.6z M1133.5,32.2c-0.1,4.9-1.4,8.8-4.1,11.8
					c-2.7,2.9-6.2,4.4-10.7,4.4c-5,0-9-1.4-12-4.2s-4.7-6.8-5.2-12H1133.5z"/>
			</g>
			<g>
				<path id="DejaVuSans-101_00000008865377184874468050000002702104482407956891_" d="M1204,29.6v-4.4h-41.3
					c0.4-6.2,2.3-10.9,5.6-14.1c3.3-3.2,8-4.9,13.9-4.9c3.4,0,6.8,0.4,10,1.3c3.2,0.8,6.5,2.1,9.7,3.8V2.8c-3.2-1.4-6.5-2.4-9.9-3.1
					s-6.8-1.1-10.3-1.1c-8.7,0-15.6,2.5-20.7,7.6c-5.1,5.1-7.6,12-7.6,20.6c0,8.9,2.4,16,7.2,21.3c4.8,5.3,11.4,7.9,19.6,7.9
					c7.4,0,13.2-2.4,17.5-7.1C1201.9,44.2,1204,37.7,1204,29.6z M1195,32.2c-0.1,4.9-1.4,8.8-4.1,11.8c-2.7,2.9-6.2,4.4-10.7,4.4
					c-5,0-9-1.4-12-4.2s-4.7-6.8-5.2-12H1195z"/>
			</g>
			<g>
				<path id="DejaVuSans-32_00000152950173802318264910000006619055435756960432_" d="M1209.3,0"/>
			</g>
			<g>
				<path id="DejaVuSans-67" d="M1305.5,67.3V56.9c-3.3,3.1-6.9,5.4-10.6,6.9c-3.8,1.5-7.8,2.3-12,2.3c-8.3,0-14.7-2.5-19.1-7.6
					s-6.6-12.5-6.6-22.1s2.2-17,6.6-22c4.4-5.1,10.8-7.6,19.1-7.6c4.2,0,8.2,0.8,12,2.3c3.8,1.5,7.3,3.8,10.6,6.9V5.6
					c-3.4-2.3-7.1-4.1-11-5.3s-7.9-1.7-12.2-1.7c-11,0-19.7,3.4-26.1,10.1c-6.3,6.8-9.5,16-9.5,27.7s3.2,21,9.5,27.7
					c6.4,6.8,15.1,10.1,26.1,10.1c4.4,0,8.5-0.6,12.3-1.7C1298.5,71.3,1302.1,69.6,1305.5,67.3z"/>
			</g>
			<g>
				<path id="DejaVuSans-101_00000098918869497292436720000007905112078765528451_" d="M1367.1,29.6v-4.4h-41.3
					c0.4-6.2,2.3-10.9,5.6-14.1c3.3-3.2,8-4.9,13.9-4.9c3.4,0,6.8,0.4,10,1.3c3.2,0.8,6.5,2.1,9.7,3.8V2.8c-3.2-1.4-6.5-2.4-9.9-3.1
					s-6.8-1.1-10.3-1.1c-8.7,0-15.6,2.5-20.7,7.6c-5.1,5.1-7.6,12-7.6,20.6c0,8.9,2.4,16,7.2,21.3c4.8,5.3,11.4,7.9,19.6,7.9
					c7.4,0,13.2-2.4,17.5-7.1C1365,44.2,1367.1,37.7,1367.1,29.6z M1358.2,32.2c-0.1,4.9-1.4,8.8-4.1,11.8
					c-2.7,2.9-6.2,4.4-10.7,4.4c-5,0-9-1.4-12-4.2s-4.7-6.8-5.2-12H1358.2z"/>
			</g>
			<g>
				<path id="DejaVuSans-110" d="M1427.3,33V0h-9v32.7c0,5.2-1,9-3,11.6c-2,2.6-5,3.9-9.1,3.9c-4.9,0-8.7-1.5-11.5-4.6
					c-2.8-3.1-4.2-7.3-4.2-12.6V0h-9v54.7h9v-8.5c2.2,3.3,4.7,5.8,7.6,7.4c2.9,1.6,6.3,2.4,10.1,2.4c6.3,0,11-1.9,14.2-5.8
					C1425.7,46.3,1427.3,40.6,1427.3,33z"/>
			</g>
			<g>
				<path id="DejaVuSans-116" d="M1454.1,70.2V54.7h18.5v-7h-18.5V18c0-4.5,0.6-7.3,1.8-8.6s3.7-1.9,7.5-1.9h9.2V0h-9.2
					c-6.9,0-11.7,1.3-14.4,3.9c-2.6,2.6-4,7.3-4,14.1v29.7h-6.6v7h6.6v15.5H1454.1z"/>
			</g>
			<g>
				<path id="DejaVuSans-114_00000128479221231288741600000010035528131917115789_" d="M1516.2,46.3c-1,0.6-2.1,1-3.3,1.3
					c-1.2,0.3-2.5,0.4-3.9,0.4c-5.1,0-9-1.7-11.7-5s-4.1-8-4.1-14.2V0h-9v54.7h9v-8.5c1.9,3.3,4.4,5.8,7.4,7.4c3,1.6,6.7,2.4,11,2.4
					c0.6,0,1.3,0,2-0.1c0.8-0.1,1.6-0.2,2.5-0.4L1516.2,46.3z"/>
			</g>
			<g>
				<path id="DejaVuSans-97_00000141448500770832227290000009262417363495866501_" d="M1550.4,27.5c-7.3,0-12.3-0.8-15.1-2.5
					c-2.8-1.7-4.2-4.5-4.2-8.5c0-3.2,1.1-5.7,3.2-7.6s5-2.8,8.6-2.8c5,0,9,1.8,12,5.3s4.5,8.2,4.5,14.1v2H1550.4z M1568.4,31.2V0h-9
					v8.3c-2.1-3.3-4.6-5.8-7.7-7.3s-6.8-2.4-11.2-2.4c-5.6,0-10,1.6-13.4,4.7c-3.3,3.1-5,7.4-5,12.6c0,6.1,2.1,10.8,6.2,13.9
					s10.3,4.7,18.4,4.7h12.6v0.9c0,4.1-1.4,7.3-4.1,9.6s-6.5,3.4-11.5,3.4c-3.1,0-6.2-0.4-9.1-1.1c-3-0.8-5.8-1.9-8.5-3.4v8.3
					c3.3,1.3,6.5,2.2,9.6,2.8s6.1,1,9,1c7.9,0,13.8-2.1,17.7-6.2C1566.4,45.7,1568.4,39.5,1568.4,31.2z"/>
			</g>
			<g>
				<path id="DejaVuSans-108" d="M1586.9,76h9V0h-9V76z"/>
			</g>
			<g>
				<path id="DejaVuSans-105_00000013161360526474588090000013614249605837568190_" d="M1614.6,54.7h9V0h-9V54.7z M1614.6,76h9V64.6
					h-9V76z"/>
			</g>
			<g>
				<path id="DejaVuSans-116_00000146493616968274574510000010275508451019053207_" d="M1651.3,70.2V54.7h18.5v-7h-18.5V18
					c0-4.5,0.6-7.3,1.8-8.6s3.7-1.9,7.5-1.9h9.2V0h-9.2c-6.9,0-11.7,1.3-14.4,3.9c-2.6,2.6-4,7.3-4,14.1v29.7h-6.6v7h6.6v15.5
					H1651.3z"/>
			</g>
			<g>
				<path id="DejaVuSans-121" d="M1704.4-5.1c-2.5-6.5-5-10.8-7.4-12.7c-2.4-2-5.6-3-9.7-3h-7.2v7.5h5.3c2.5,0,4.4,0.6,5.8,1.8
					s2.9,3.9,4.5,8.3l1.6,4.1l-22.1,53.8h9.5l17.1-42.8l17.1,42.8h9.5L1704.4-5.1z"/>
			</g>
		</g>
	</g>
</g>
</svg>
