<?xml version="1.0" encoding="utf-8"?>
<!-- Generator: Adobe Illustrator 26.0.2, SVG Export Plug-In . SVG Version: 6.00 Build 0)  -->
<svg version="1.1" id="Layer_1" xmlns="http://www.w3.org/2000/svg" xmlns:xlink="http://www.w3.org/1999/xlink" x="0px" y="0px"
	 viewBox="0 0 504 252" style="enable-background:new 0 0 504 252;" xml:space="preserve">
<style type="text/css">
	.st0{fill:none;}
	
		.st1{clip-path:url(#SVGID_00000094600216349813014770000010658896944638806689_);fill:none;stroke:#000000;stroke-linecap:round;stroke-linejoin:round;}
	
		.st2{clip-path:url(#SVGID_00000174563403590156597280000010649129433084302244_);stroke:#000000;stroke-linecap:round;stroke-linejoin:round;}
	
		.st3{clip-path:url(#SVGID_00000103950628114410209940000009550888828741607079_);fill:none;stroke:#000000;stroke-linecap:round;stroke-linejoin:round;}
	
		.st4{clip-path:url(#SVGID_00000177442307057233073580000004549879112351022236_);stroke:#000000;stroke-linecap:round;stroke-linejoin:round;}
	
		.st5{clip-path:url(#SVGID_00000113353039482640954510000012582667712531247758_);fill:none;stroke:#000000;stroke-linecap:round;stroke-linejoin:round;}
	
		.st6{clip-path:url(#SVGID_00000047037968091703788510000001532067200649629824_);stroke:#000000;stroke-linecap:round;stroke-linejoin:round;}
	
		.st7{clip-path:url(#SVGID_00000080171255924132914040000006911634359292897711_);fill:none;stroke:#000000;stroke-linecap:round;stroke-linejoin:round;}
	
		.st8{clip-path:url(#SVGID_00000023988482965058194630000017409158716772634530_);stroke:#000000;stroke-linecap:round;stroke-linejoin:round;}
	
		.st9{clip-path:url(#SVGID_00000150086131472971106160000011642427478404962182_);fill:none;stroke:#000000;stroke-linecap:round;stroke-linejoin:round;}
	
		.st10{clip-path:url(#SVGID_00000176040076673269540490000009394378991291025851_);stroke:#000000;stroke-linecap:round;stroke-linejoin:round;}
	
		.st11{clip-path:url(#SVGID_00000059311036706186139080000001994859567715453621_);fill:none;stroke:#000000;stroke-linecap:round;stroke-linejoin:round;}
	
		.st12{clip-path:url(#SVGID_00000101060932093320602390000012254577195295229077_);stroke:#000000;stroke-linecap:round;stroke-linejoin:round;}
	
		.st13{clip-path:url(#SVGID_00000063593902925653458360000003842342932239108750_);fill:none;stroke:#000000;stroke-linecap:round;stroke-linejoin:round;}
	
		.st14{clip-path:url(#SVGID_00000072997930871712028780000017315032493138408087_);stroke:#000000;stroke-linecap:round;stroke-linejoin:round;}
	
		.st15{clip-path:url(#SVGID_00000105425130589377511160000005582879352212586896_);fill:none;stroke:#000000;stroke-linecap:round;stroke-linejoin:round;}
	
		.st16{clip-path:url(#SVGID_00000117647411387903132320000017924330360055934372_);stroke:#000000;stroke-linecap:round;stroke-linejoin:round;}
	
		.st17{clip-path:url(#SVGID_00000023281557742251458950000011376265408776060335_);fill:none;stroke:#000000;stroke-linecap:round;stroke-linejoin:round;}
	
		.st18{clip-path:url(#SVGID_00000079458905449444892000000004783319451024572333_);stroke:#000000;stroke-linecap:round;stroke-linejoin:round;}
	
		.st19{clip-path:url(#SVGID_00000065046038909079505520000014489641442398449557_);fill:none;stroke:#000000;stroke-linecap:round;stroke-linejoin:round;}
	
		.st20{clip-path:url(#SVGID_00000102546019176047995070000012185171700375125641_);stroke:#000000;stroke-linecap:round;stroke-linejoin:round;}
	
		.st21{clip-path:url(#SVGID_00000173858151385332392990000015020173765739620483_);fill:none;stroke:#000000;stroke-linecap:round;stroke-linejoin:round;}
	
		.st22{clip-path:url(#SVGID_00000183249972598116346390000009135395880517474232_);stroke:#000000;stroke-linecap:round;stroke-linejoin:round;}
	
		.st23{clip-path:url(#SVGID_00000170968553872501771570000003589282925411079065_);fill:none;stroke:#000000;stroke-linecap:round;stroke-linejoin:round;}
	
		.st24{clip-path:url(#SVGID_00000133490354449062025500000009900619886707340726_);stroke:#000000;stroke-linecap:round;stroke-linejoin:round;}
	
		.st25{clip-path:url(#SVGID_00000018930972706680080560000012509824826936451976_);fill:none;stroke:#000000;stroke-linecap:round;stroke-linejoin:round;}
	
		.st26{clip-path:url(#SVGID_00000063627349097979115980000009965945343615175082_);stroke:#000000;stroke-linecap:round;stroke-linejoin:round;}
	
		.st27{clip-path:url(#SVGID_00000138535199584040452920000006959829401989225387_);fill:none;stroke:#000000;stroke-linecap:round;stroke-linejoin:round;}
	
		.st28{clip-path:url(#SVGID_00000134238201604348853030000005954884555249556925_);stroke:#000000;stroke-linecap:round;stroke-linejoin:round;}
	
		.st29{clip-path:url(#SVGID_00000146494506564877422500000000116637359666699934_);fill:none;stroke:#000000;stroke-linecap:round;stroke-linejoin:round;}
	
		.st30{clip-path:url(#SVGID_00000101784374346252095950000003039767360830590115_);stroke:#000000;stroke-linecap:round;stroke-linejoin:round;}
	
		.st31{clip-path:url(#SVGID_00000067203014619826747290000008178340988358210692_);fill:none;stroke:#000000;stroke-linecap:round;stroke-linejoin:round;}
	
		.st32{clip-path:url(#SVGID_00000060728657856542073520000005222498513693599889_);stroke:#000000;stroke-linecap:round;stroke-linejoin:round;}
	
		.st33{clip-path:url(#SVGID_00000154420403741372039320000008789899243686399108_);fill:none;stroke:#000000;stroke-linecap:round;stroke-linejoin:round;}
	
		.st34{clip-path:url(#SVGID_00000106146483512427992040000004255640876537835664_);stroke:#000000;stroke-linecap:round;stroke-linejoin:round;}
	.st35{clip-path:url(#SVGID_00000025403187058430875020000010294134468157294505_);}
	.st36{fill:#FDE725;stroke:#FDE725;stroke-linejoin:round;}
	.st37{clip-path:url(#SVGID_00000023986044211349003860000002931485910445650852_);}
	.st38{fill:#4AC16D;stroke:#4AC16D;stroke-linejoin:round;}
	.st39{clip-path:url(#SVGID_00000085971947004180309460000004812006352089372349_);}
	.st40{clip-path:url(#SVGID_00000070799282311516771190000015529756666228281020_);}
	.st41{clip-path:url(#SVGID_00000089570627552983106780000014362920559684520884_);}
	.st42{fill:#F1E51D;stroke:#F1E51D;stroke-linejoin:round;}
	.st43{clip-path:url(#SVGID_00000093161703837314311900000007214973159635600812_);}
	.st44{clip-path:url(#SVGID_00000085964927620757001180000016741186330322684843_);}
	.st45{fill:#440154;stroke:#440154;stroke-linejoin:round;}
	.st46{clip-path:url(#SVGID_00000027604839993498746240000005127310157701570230_);}
	.st47{clip-path:url(#SVGID_00000093877358905546477910000010605985350140349349_);}
	.st48{clip-path:url(#SVGID_00000119818470875592474340000005460621872403584406_);}
	.st49{clip-path:url(#SVGID_00000173129006346391044120000009755295942959723702_);}
</style>
<g id="matplotlib.axis_1">
</g>
<g id="patch_1">
	<path class="st0" d="M0,252h504V0H0V252z"/>
</g>
<g id="axes_1">
	<g id="patch_2">
		<g>
			<g>
				<g>
					<defs>
						<rect id="SVGID_1_" x="10.8" y="25.9" width="385.9" height="209.4"/>
					</defs>
					<clipPath id="SVGID_00000179640133888154932590000012357391526522457226_">
						<use xlink:href="#SVGID_1_"  style="overflow:visible;"/>
					</clipPath>
					
						<path style="clip-path:url(#SVGID_00000179640133888154932590000012357391526522457226_);fill:none;stroke:#000000;stroke-linecap:round;stroke-linejoin:round;" d="
						M189.6,69.1c55-7.9,109.7-15.8,164-23.6"/>
				</g>
			</g>
		</g>
		<g>
			<g>
				<g>
					<defs>
						<rect id="SVGID_00000160169718277944777610000018144072989320625310_" x="10.8" y="25.9" width="385.9" height="209.4"/>
					</defs>
					<clipPath id="SVGID_00000034086926476365559420000000663389766906043027_">
						<use xlink:href="#SVGID_00000160169718277944777610000018144072989320625310_"  style="overflow:visible;"/>
					</clipPath>
					
						<path style="clip-path:url(#SVGID_00000034086926476365559420000000663389766906043027_);stroke:#000000;stroke-linecap:round;stroke-linejoin:round;" d="
						M349.3,44.1l4.2,1.4l-3.7,2.5L349.3,44.1z"/>
				</g>
			</g>
		</g>
	</g>
	<g id="patch_3">
		<g>
			<g>
				<g>
					<defs>
						<rect id="SVGID_00000089574374810993454280000015529058536379550099_" x="10.8" y="25.9" width="385.9" height="209.4"/>
					</defs>
					<clipPath id="SVGID_00000147199969148637165030000002056899815246850435_">
						<use xlink:href="#SVGID_00000089574374810993454280000015529058536379550099_"  style="overflow:visible;"/>
					</clipPath>
					
						<path style="clip-path:url(#SVGID_00000147199969148637165030000002056899815246850435_);fill:none;stroke:#000000;stroke-linecap:round;stroke-linejoin:round;" d="
						M354.7,45.3c-55,7.9-109.7,15.8-164,23.6"/>
				</g>
			</g>
		</g>
		<g>
			<g>
				<g>
					<defs>
						<rect id="SVGID_00000077296518599756504110000014073803658935068040_" x="10.8" y="25.9" width="385.9" height="209.4"/>
					</defs>
					<clipPath id="SVGID_00000010312191144056811620000000335828322425198778_">
						<use xlink:href="#SVGID_00000077296518599756504110000014073803658935068040_"  style="overflow:visible;"/>
					</clipPath>
					
						<path style="clip-path:url(#SVGID_00000010312191144056811620000000335828322425198778_);stroke:#000000;stroke-linecap:round;stroke-linejoin:round;" d="
						M194.9,70.3l-4.2-1.4l3.7-2.5L194.9,70.3z"/>
				</g>
			</g>
		</g>
	</g>
	<g id="patch_4">
		<g>
			<g>
				<g>
					<defs>
						<rect id="SVGID_00000037688758181513841720000005956111263112657571_" x="10.8" y="25.9" width="385.9" height="209.4"/>
					</defs>
					<clipPath id="SVGID_00000168075003510069377840000015208316319300402843_">
						<use xlink:href="#SVGID_00000037688758181513841720000005956111263112657571_"  style="overflow:visible;"/>
					</clipPath>
					
						<path style="clip-path:url(#SVGID_00000168075003510069377840000015208316319300402843_);fill:none;stroke:#000000;stroke-linecap:round;stroke-linejoin:round;" d="
						M65,127.5c-6.2-25-12.3-49.6-18.3-73.9"/>
				</g>
			</g>
		</g>
		<g>
			<g>
				<g>
					<defs>
						<rect id="SVGID_00000067213850075468388360000014324652056110203036_" x="10.8" y="25.9" width="385.9" height="209.4"/>
					</defs>
					<clipPath id="SVGID_00000094600157884046278770000001348935355782971302_">
						<use xlink:href="#SVGID_00000067213850075468388360000014324652056110203036_"  style="overflow:visible;"/>
					</clipPath>
					
						<path style="clip-path:url(#SVGID_00000094600157884046278770000001348935355782971302_);stroke:#000000;stroke-linecap:round;stroke-linejoin:round;" d="
						M45.7,57.9l1-4.4l2.9,3.4L45.7,57.9z"/>
				</g>
			</g>
		</g>
	</g>
	<g id="patch_5">
		<g>
			<g>
				<g>
					<defs>
						<rect id="SVGID_00000112630343919713687550000010079016867153155224_" x="10.8" y="25.9" width="385.9" height="209.4"/>
					</defs>
					<clipPath id="SVGID_00000171704694999203205470000007638795038124398995_">
						<use xlink:href="#SVGID_00000112630343919713687550000010079016867153155224_"  style="overflow:visible;"/>
					</clipPath>
					
						<path style="clip-path:url(#SVGID_00000171704694999203205470000007638795038124398995_);fill:none;stroke:#000000;stroke-linecap:round;stroke-linejoin:round;" d="
						M74.6,131.5c33-19,65.6-37.8,97.9-56.4"/>
				</g>
			</g>
		</g>
		<g>
			<g>
				<g>
					<defs>
						<rect id="SVGID_00000098915352356697922380000018277442538632865159_" x="10.8" y="25.9" width="385.9" height="209.4"/>
					</defs>
					<clipPath id="SVGID_00000048484753438098188140000016298014402630432923_">
						<use xlink:href="#SVGID_00000098915352356697922380000018277442538632865159_"  style="overflow:visible;"/>
					</clipPath>
					
						<path style="clip-path:url(#SVGID_00000048484753438098188140000016298014402630432923_);stroke:#000000;stroke-linecap:round;stroke-linejoin:round;" d="
						M168,75.4l4.5-0.3l-2.5,3.7L168,75.4z"/>
				</g>
			</g>
		</g>
	</g>
	<g id="patch_6">
		<g>
			<g>
				<g>
					<defs>
						<rect id="SVGID_00000058587767936146050110000005999562410780611983_" x="10.8" y="25.9" width="385.9" height="209.4"/>
					</defs>
					<clipPath id="SVGID_00000005226630836129401940000015967757624628770230_">
						<use xlink:href="#SVGID_00000058587767936146050110000005999562410780611983_"  style="overflow:visible;"/>
					</clipPath>
					
						<path style="clip-path:url(#SVGID_00000005226630836129401940000015967757624628770230_);fill:none;stroke:#000000;stroke-linecap:round;stroke-linejoin:round;" d="
						M222.2,141.5c-12.3-21.2-24.4-42.1-36.3-62.7"/>
				</g>
			</g>
		</g>
		<g>
			<g>
				<g>
					<defs>
						<rect id="SVGID_00000083805773337233609260000001731085383000140189_" x="10.8" y="25.9" width="385.9" height="209.4"/>
					</defs>
					<clipPath id="SVGID_00000147903131512698693760000012429863355332152504_">
						<use xlink:href="#SVGID_00000083805773337233609260000001731085383000140189_"  style="overflow:visible;"/>
					</clipPath>
					
						<path style="clip-path:url(#SVGID_00000147903131512698693760000012429863355332152504_);stroke:#000000;stroke-linecap:round;stroke-linejoin:round;" d="
						M186.2,83.2l-0.3-4.5l3.7,2.5L186.2,83.2z"/>
				</g>
			</g>
		</g>
	</g>
	<g id="patch_7">
		<g>
			<g>
				<g>
					<defs>
						<rect id="SVGID_00000070838138104428761670000015261036309832689542_" x="10.8" y="25.9" width="385.9" height="209.4"/>
					</defs>
					<clipPath id="SVGID_00000108301701725479869020000005358805677459880383_">
						<use xlink:href="#SVGID_00000070838138104428761670000015261036309832689542_"  style="overflow:visible;"/>
					</clipPath>
					
						<path style="clip-path:url(#SVGID_00000108301701725479869020000005358805677459880383_);fill:none;stroke:#000000;stroke-linecap:round;stroke-linejoin:round;" d="
						M217.9,148.3c-47.4-3.9-94.4-7.8-141.1-11.6"/>
				</g>
			</g>
		</g>
		<g>
			<g>
				<g>
					<defs>
						<rect id="SVGID_00000033332279779345632440000017619486173411166601_" x="10.8" y="25.9" width="385.9" height="209.4"/>
					</defs>
					<clipPath id="SVGID_00000149373594191661526990000004803079257149412776_">
						<use xlink:href="#SVGID_00000033332279779345632440000017619486173411166601_"  style="overflow:visible;"/>
					</clipPath>
					
						<path style="clip-path:url(#SVGID_00000149373594191661526990000004803079257149412776_);stroke:#000000;stroke-linecap:round;stroke-linejoin:round;" d="
						M80.6,139l-3.8-2.3L81,135L80.6,139z"/>
				</g>
			</g>
		</g>
	</g>
	<g id="patch_8">
		<g>
			<g>
				<g>
					<defs>
						<rect id="SVGID_00000175317730051813155180000007479966704534431363_" x="10.8" y="25.9" width="385.9" height="209.4"/>
					</defs>
					<clipPath id="SVGID_00000132796395906125349000000016116257737293750446_">
						<use xlink:href="#SVGID_00000175317730051813155180000007479966704534431363_"  style="overflow:visible;"/>
					</clipPath>
					
						<path style="clip-path:url(#SVGID_00000132796395906125349000000016116257737293750446_);fill:none;stroke:#000000;stroke-linecap:round;stroke-linejoin:round;" d="
						M235.2,149c39.8,0,79.2,0,118.2,0"/>
				</g>
			</g>
		</g>
		<g>
			<g>
				<g>
					<defs>
						<rect id="SVGID_00000140010805677177046100000003414253086738028707_" x="10.8" y="25.9" width="385.9" height="209.4"/>
					</defs>
					<clipPath id="SVGID_00000109716455459263222040000002409956946066821772_">
						<use xlink:href="#SVGID_00000140010805677177046100000003414253086738028707_"  style="overflow:visible;"/>
					</clipPath>
					
						<path style="clip-path:url(#SVGID_00000109716455459263222040000002409956946066821772_);stroke:#000000;stroke-linecap:round;stroke-linejoin:round;" d="
						M349.5,147l4,2l-4,2V147z"/>
				</g>
			</g>
		</g>
	</g>
	<g id="patch_9">
		<g>
			<g>
				<g>
					<defs>
						<rect id="SVGID_00000035514458186826697850000008780582430794116017_" x="10.8" y="25.9" width="385.9" height="209.4"/>
					</defs>
					<clipPath id="SVGID_00000004511387588589795550000015484389183352455607_">
						<use xlink:href="#SVGID_00000035514458186826697850000008780582430794116017_"  style="overflow:visible;"/>
					</clipPath>
					
						<path style="clip-path:url(#SVGID_00000004511387588589795550000015484389183352455607_);fill:none;stroke:#000000;stroke-linecap:round;stroke-linejoin:round;" d="
						M355.3,145.5C299.8,121.6,244.7,97.8,190,74.2"/>
				</g>
			</g>
		</g>
		<g>
			<g>
				<g>
					<defs>
						<rect id="SVGID_00000022561380991498221660000000084436699361888942_" x="10.8" y="25.9" width="385.9" height="209.4"/>
					</defs>
					<clipPath id="SVGID_00000139292884468324443160000002443834957708446593_">
						<use xlink:href="#SVGID_00000022561380991498221660000000084436699361888942_"  style="overflow:visible;"/>
					</clipPath>
					
						<path style="clip-path:url(#SVGID_00000139292884468324443160000002443834957708446593_);stroke:#000000;stroke-linecap:round;stroke-linejoin:round;" d="
						M192.8,77.6l-2.9-3.4l4.5-0.3L192.8,77.6z"/>
				</g>
			</g>
		</g>
	</g>
	<g id="patch_10">
		<g>
			<g>
				<g>
					<defs>
						<rect id="SVGID_00000025433273242559465560000014935284441728832182_" x="10.8" y="25.9" width="385.9" height="209.4"/>
					</defs>
					<clipPath id="SVGID_00000031917790862858565020000013033763772539812771_">
						<use xlink:href="#SVGID_00000025433273242559465560000014935284441728832182_"  style="overflow:visible;"/>
					</clipPath>
					
						<path style="clip-path:url(#SVGID_00000031917790862858565020000013033763772539812771_);fill:none;stroke:#000000;stroke-linecap:round;stroke-linejoin:round;" d="
						M354.6,149c-39.8,0-79.2,0-118.2,0"/>
				</g>
			</g>
		</g>
		<g>
			<g>
				<g>
					<defs>
						<rect id="SVGID_00000158013644982348210320000014268273153937425031_" x="10.8" y="25.9" width="385.9" height="209.4"/>
					</defs>
					<clipPath id="SVGID_00000153666879037093591500000014336437740871021466_">
						<use xlink:href="#SVGID_00000158013644982348210320000014268273153937425031_"  style="overflow:visible;"/>
					</clipPath>
					
						<path style="clip-path:url(#SVGID_00000153666879037093591500000014336437740871021466_);stroke:#000000;stroke-linecap:round;stroke-linejoin:round;" d="
						M240.3,151l-4-2l4-2V151z"/>
				</g>
			</g>
		</g>
	</g>
	<g id="patch_11">
		<g>
			<g>
				<g>
					<defs>
						<rect id="SVGID_00000165941219713157453510000001205141927834962849_" x="10.8" y="25.9" width="385.9" height="209.4"/>
					</defs>
					<clipPath id="SVGID_00000075854933031524191910000007570821696271041460_">
						<use xlink:href="#SVGID_00000165941219713157453510000001205141927834962849_"  style="overflow:visible;"/>
					</clipPath>
					
						<path style="clip-path:url(#SVGID_00000075854933031524191910000007570821696271041460_);fill:none;stroke:#000000;stroke-linecap:round;stroke-linejoin:round;" d="
						M103.6,194.1c24.3-38.8,48.4-77.3,72.2-115.5"/>
				</g>
			</g>
		</g>
		<g>
			<g>
				<g>
					<defs>
						<rect id="SVGID_00000057866840354606671250000014664117679801588919_" x="10.8" y="25.9" width="385.9" height="209.4"/>
					</defs>
					<clipPath id="SVGID_00000165913768805126139060000013713510697319555458_">
						<use xlink:href="#SVGID_00000057866840354606671250000014664117679801588919_"  style="overflow:visible;"/>
					</clipPath>
					
						<path style="clip-path:url(#SVGID_00000165913768805126139060000013713510697319555458_);stroke:#000000;stroke-linecap:round;stroke-linejoin:round;" d="
						M172,80.9l3.8-2.3l-0.4,4.5L172,80.9z"/>
				</g>
			</g>
		</g>
	</g>
	<g id="patch_12">
		<g>
			<g>
				<g>
					<defs>
						<rect id="SVGID_00000165204862767038374830000001612789296138073240_" x="10.8" y="25.9" width="385.9" height="209.4"/>
					</defs>
					<clipPath id="SVGID_00000069368976947627544020000016630838380400354730_">
						<use xlink:href="#SVGID_00000165204862767038374830000001612789296138073240_"  style="overflow:visible;"/>
					</clipPath>
					
						<path style="clip-path:url(#SVGID_00000069368976947627544020000016630838380400354730_);fill:none;stroke:#000000;stroke-linecap:round;stroke-linejoin:round;" d="
						M107,198.1c37.2-15.3,74-30.4,110.5-45.4"/>
				</g>
			</g>
		</g>
		<g>
			<g>
				<g>
					<defs>
						<rect id="SVGID_00000111150872068062340060000014925457255686030736_" x="10.8" y="25.9" width="385.9" height="209.4"/>
					</defs>
					<clipPath id="SVGID_00000171704554866630211080000005302715528252541100_">
						<use xlink:href="#SVGID_00000111150872068062340060000014925457255686030736_"  style="overflow:visible;"/>
					</clipPath>
					
						<path style="clip-path:url(#SVGID_00000171704554866630211080000005302715528252541100_);stroke:#000000;stroke-linecap:round;stroke-linejoin:round;" d="
						M213,152.4l4.5,0.3l-2.9,3.4L213,152.4z"/>
				</g>
			</g>
		</g>
	</g>
	<g id="patch_13">
		<g>
			<g>
				<g>
					<defs>
						<rect id="SVGID_00000028310183713892624080000001893398526821717183_" x="10.8" y="25.9" width="385.9" height="209.4"/>
					</defs>
					<clipPath id="SVGID_00000116948464320232341600000006891608937220194441_">
						<use xlink:href="#SVGID_00000028310183713892624080000001893398526821717183_"  style="overflow:visible;"/>
					</clipPath>
					
						<path style="clip-path:url(#SVGID_00000116948464320232341600000006891608937220194441_);fill:none;stroke:#000000;stroke-linecap:round;stroke-linejoin:round;" d="
						M138.1,201.1c13.4-40.8,26.7-81.3,39.8-121.4"/>
				</g>
			</g>
		</g>
		<g>
			<g>
				<g>
					<defs>
						<rect id="SVGID_00000152949825689812185060000006742670491926891417_" x="10.8" y="25.9" width="385.9" height="209.4"/>
					</defs>
					<clipPath id="SVGID_00000042694485794365843490000012683008905410104960_">
						<use xlink:href="#SVGID_00000152949825689812185060000006742670491926891417_"  style="overflow:visible;"/>
					</clipPath>
					
						<path style="clip-path:url(#SVGID_00000042694485794365843490000012683008905410104960_);stroke:#000000;stroke-linecap:round;stroke-linejoin:round;" d="
						M174.8,82.8l3.1-3.2l0.7,4.4L174.8,82.8z"/>
				</g>
			</g>
		</g>
	</g>
	<g id="patch_14">
		<g>
			<g>
				<g>
					<defs>
						<rect id="SVGID_00000102544280769244224190000015007162229138751928_" x="10.8" y="25.9" width="385.9" height="209.4"/>
					</defs>
					<clipPath id="SVGID_00000109722564653135109180000004171147915715377826_">
						<use xlink:href="#SVGID_00000102544280769244224190000015007162229138751928_"  style="overflow:visible;"/>
					</clipPath>
					
						<path style="clip-path:url(#SVGID_00000109722564653135109180000004171147915715377826_);fill:none;stroke:#000000;stroke-linecap:round;stroke-linejoin:round;" d="
						M142.6,204.5c25.6-16.9,50.8-33.6,75.7-50.1"/>
				</g>
			</g>
		</g>
		<g>
			<g>
				<g>
					<defs>
						<rect id="SVGID_00000170986829166598628580000016907011356278506412_" x="10.8" y="25.9" width="385.9" height="209.4"/>
					</defs>
					<clipPath id="SVGID_00000016755964958724892620000015292672519922113955_">
						<use xlink:href="#SVGID_00000170986829166598628580000016907011356278506412_"  style="overflow:visible;"/>
					</clipPath>
					
						<path style="clip-path:url(#SVGID_00000016755964958724892620000015292672519922113955_);stroke:#000000;stroke-linecap:round;stroke-linejoin:round;" d="
						M213.9,154.9l4.4-0.5l-2.2,3.9L213.9,154.9z"/>
				</g>
			</g>
		</g>
	</g>
	<g id="patch_15">
		<g>
			<g>
				<g>
					<defs>
						<rect id="SVGID_00000042017663461929904030000018086381171688663185_" x="10.8" y="25.9" width="385.9" height="209.4"/>
					</defs>
					<clipPath id="SVGID_00000161601082227353925920000013982595463084465057_">
						<use xlink:href="#SVGID_00000042017663461929904030000018086381171688663185_"  style="overflow:visible;"/>
					</clipPath>
					
						<path style="clip-path:url(#SVGID_00000161601082227353925920000013982595463084465057_);fill:none;stroke:#000000;stroke-linecap:round;stroke-linejoin:round;" d="
						M172.4,208.5c2.7-43.2,5.3-86,8-128.4"/>
				</g>
			</g>
		</g>
		<g>
			<g>
				<g>
					<defs>
						<rect id="SVGID_00000024697905329747408370000016951398712129737397_" x="10.8" y="25.9" width="385.9" height="209.4"/>
					</defs>
					<clipPath id="SVGID_00000002361192721192533920000015704296325317369483_">
						<use xlink:href="#SVGID_00000024697905329747408370000016951398712129737397_"  style="overflow:visible;"/>
					</clipPath>
					
						<path style="clip-path:url(#SVGID_00000002361192721192533920000015704296325317369483_);stroke:#000000;stroke-linecap:round;stroke-linejoin:round;" d="
						M178.1,83.9l2.2-3.9l1.7,4.1L178.1,83.9z"/>
				</g>
			</g>
		</g>
	</g>
	<g id="patch_16">
		<g>
			<g>
				<g>
					<defs>
						<rect id="SVGID_00000062151557363967005970000007217598905408086424_" x="10.8" y="25.9" width="385.9" height="209.4"/>
					</defs>
					<clipPath id="SVGID_00000137094661840423505750000004195158579320504735_">
						<use xlink:href="#SVGID_00000062151557363967005970000007217598905408086424_"  style="overflow:visible;"/>
					</clipPath>
					
						<path style="clip-path:url(#SVGID_00000137094661840423505750000004195158579320504735_);fill:none;stroke:#000000;stroke-linecap:round;stroke-linejoin:round;" d="
						M177.3,210.4c14.6-18.2,29-36.1,43.1-53.8"/>
				</g>
			</g>
		</g>
		<g>
			<g>
				<g>
					<defs>
						<rect id="SVGID_00000065038962961689255530000007960201260343000494_" x="10.8" y="25.9" width="385.9" height="209.4"/>
					</defs>
					<clipPath id="SVGID_00000036954474317921395190000015755667848057604225_">
						<use xlink:href="#SVGID_00000065038962961689255530000007960201260343000494_"  style="overflow:visible;"/>
					</clipPath>
					
						<path style="clip-path:url(#SVGID_00000036954474317921395190000015755667848057604225_);stroke:#000000;stroke-linecap:round;stroke-linejoin:round;" d="
						M216.4,158.5l4.1-1.9l-0.9,4.4L216.4,158.5z"/>
				</g>
			</g>
		</g>
	</g>
	<g id="patch_17">
		<g>
			<g>
				<g>
					<defs>
						<rect id="SVGID_00000095300893274064435880000002336895524026940327_" x="10.8" y="25.9" width="385.9" height="209.4"/>
					</defs>
					<clipPath id="SVGID_00000041995397979137568340000014692832542223005323_">
						<use xlink:href="#SVGID_00000095300893274064435880000002336895524026940327_"  style="overflow:visible;"/>
					</clipPath>
					
						<path style="clip-path:url(#SVGID_00000041995397979137568340000014692832542223005323_);fill:none;stroke:#000000;stroke-linecap:round;stroke-linejoin:round;" d="
						M310.2,197.1c-25.4-14.6-50.4-29-75.1-43.2"/>
				</g>
			</g>
		</g>
		<g>
			<g>
				<g>
					<defs>
						<rect id="SVGID_00000039853966726209279750000006158530522299581603_" x="10.8" y="25.9" width="385.9" height="209.4"/>
					</defs>
					<clipPath id="SVGID_00000150787807461107899180000005002242572399127212_">
						<use xlink:href="#SVGID_00000039853966726209279750000006158530522299581603_"  style="overflow:visible;"/>
					</clipPath>
					
						<path style="clip-path:url(#SVGID_00000150787807461107899180000005002242572399127212_);stroke:#000000;stroke-linecap:round;stroke-linejoin:round;" d="
						M237.5,157.6l-2.5-3.7l4.5,0.3L237.5,157.6z"/>
				</g>
			</g>
		</g>
	</g>
	<g id="patch_18">
		<g>
			<g>
				<g>
					<defs>
						<rect id="SVGID_00000093896854373903930580000008974923601675872933_" x="10.8" y="25.9" width="385.9" height="209.4"/>
					</defs>
					<clipPath id="SVGID_00000129185183134663590030000009325069186805676175_">
						<use xlink:href="#SVGID_00000093896854373903930580000008974923601675872933_"  style="overflow:visible;"/>
					</clipPath>
					
						<path style="clip-path:url(#SVGID_00000129185183134663590030000009325069186805676175_);fill:none;stroke:#000000;stroke-linecap:round;stroke-linejoin:round;" d="
						M332.3,185.5c-32.5-11.2-64.7-22.3-96.5-33.3"/>
				</g>
			</g>
		</g>
		<g>
			<g>
				<g>
					<defs>
						<rect id="SVGID_00000116938712997442202260000018405331591998316703_" x="10.8" y="25.9" width="385.9" height="209.4"/>
					</defs>
					<clipPath id="SVGID_00000108307714566381625430000008870347133338727589_">
						<use xlink:href="#SVGID_00000116938712997442202260000018405331591998316703_"  style="overflow:visible;"/>
					</clipPath>
					
						<path style="clip-path:url(#SVGID_00000108307714566381625430000008870347133338727589_);stroke:#000000;stroke-linecap:round;stroke-linejoin:round;" d="
						M238.9,155.4l-3.1-3.2l4.4-0.6L238.9,155.4z"/>
				</g>
			</g>
		</g>
	</g>
	<g id="PathCollection_1">
		<g>
			<g>
				<g>
					<defs>
						<rect id="SVGID_00000057119181910549474630000009611516358110875053_" x="10.8" y="25.9" width="385.9" height="209.4"/>
					</defs>
					<clipPath id="SVGID_00000056421628151182315270000017247999348941264314_">
						<use xlink:href="#SVGID_00000057119181910549474630000009611516358110875053_"  style="overflow:visible;"/>
					</clipPath>
					<g style="clip-path:url(#SVGID_00000056421628151182315270000017247999348941264314_);">
						<g>
							<path id="C0_0_c4387d28f2" class="st36" d="M181,78.2c2.1,0,4.1-0.8,5.6-2.3s2.3-3.5,2.3-5.6s-0.8-4.1-2.3-5.6
								s-3.5-2.3-5.6-2.3s-4.1,0.8-5.6,2.3s-2.3,3.5-2.3,5.6s0.8,4.1,2.3,5.6S178.9,78.2,181,78.2z"/>
						</g>
					</g>
				</g>
			</g>
		</g>
		<g>
			<g>
				<g>
					<defs>
						<rect id="SVGID_00000059277115931532503220000012846465487428973467_" x="10.8" y="25.9" width="385.9" height="209.4"/>
					</defs>
					<clipPath id="SVGID_00000077322547735105097150000010525090095667406732_">
						<use xlink:href="#SVGID_00000059277115931532503220000012846465487428973467_"  style="overflow:visible;"/>
					</clipPath>
					<g style="clip-path:url(#SVGID_00000077322547735105097150000010525090095667406732_);">
						<g>
							<path id="C0_0_c4387d28f2_00000013872933949572770980000014210257912267220097_" class="st38" d="M363.2,52
								c2.1,0,4.1-0.8,5.6-2.3s2.3-3.5,2.3-5.6s-0.8-4.1-2.3-5.6s-3.5-2.3-5.6-2.3s-4.1,0.8-5.6,2.3s-2.3,3.5-2.3,5.6
								s0.8,4.1,2.3,5.6S361.1,52,363.2,52z"/>
						</g>
					</g>
				</g>
			</g>
		</g>
		<g>
			<g>
				<g>
					<defs>
						<rect id="SVGID_00000108989010363986941980000013296448482100990601_" x="10.8" y="25.9" width="385.9" height="209.4"/>
					</defs>
					<clipPath id="SVGID_00000042696912574915256450000005352125459756580792_">
						<use xlink:href="#SVGID_00000108989010363986941980000013296448482100990601_"  style="overflow:visible;"/>
					</clipPath>
					<g style="clip-path:url(#SVGID_00000042696912574915256450000005352125459756580792_);">
						<g>
							<path id="C0_0_c4387d28f2_00000137826605513851043630000005465897691452930952_" class="st38" d="M67.1,143.8
								c2.1,0,4.1-0.8,5.6-2.3s2.3-3.5,2.3-5.6s-0.8-4.1-2.3-5.6s-3.5-2.3-5.6-2.3s-4.1,0.8-5.6,2.3s-2.3,3.5-2.3,5.6
								s0.8,4.1,2.3,5.6C63,142.9,65,143.8,67.1,143.8z"/>
						</g>
					</g>
				</g>
			</g>
		</g>
		<g>
			<g>
				<g>
					<defs>
						<rect id="SVGID_00000024692200130924080130000004530859466208521345_" x="10.8" y="25.9" width="385.9" height="209.4"/>
					</defs>
					<clipPath id="SVGID_00000048469595222334048970000002615735255433852801_">
						<use xlink:href="#SVGID_00000024692200130924080130000004530859466208521345_"  style="overflow:visible;"/>
					</clipPath>
					<g style="clip-path:url(#SVGID_00000048469595222334048970000002615735255433852801_);">
						<g>
							<path id="C0_0_c4387d28f2_00000176750881908670201530000018024212978877056186_" class="st38" d="M44.3,52
								c2.1,0,4.1-0.8,5.6-2.3s2.3-3.5,2.3-5.6s-0.8-4.1-2.3-5.6s-3.5-2.3-5.6-2.3s-4.1,0.8-5.6,2.3s-2.3,3.5-2.3,5.6
								s0.8,4.1,2.3,5.6S42.2,52,44.3,52z"/>
						</g>
					</g>
				</g>
			</g>
		</g>
		<g>
			<g>
				<g>
					<defs>
						<rect id="SVGID_00000082344464474291088360000005688333544266200480_" x="10.8" y="25.9" width="385.9" height="209.4"/>
					</defs>
					<clipPath id="SVGID_00000026152090110468652580000006522526941089814155_">
						<use xlink:href="#SVGID_00000082344464474291088360000005688333544266200480_"  style="overflow:visible;"/>
					</clipPath>
					<g style="clip-path:url(#SVGID_00000026152090110468652580000006522526941089814155_);">
						<g>
							<path id="C0_0_c4387d28f2_00000019680048623767357120000009302507238889869977_" class="st42" d="M226.5,156.9
								c2.1,0,4.1-0.8,5.6-2.3s2.3-3.5,2.3-5.6s-0.8-4.1-2.3-5.6s-3.5-2.3-5.6-2.3s-4.1,0.8-5.6,2.3s-2.3,3.5-2.3,5.6
								s0.8,4.1,2.3,5.6S224.4,156.9,226.5,156.9z"/>
						</g>
					</g>
				</g>
			</g>
		</g>
		<g>
			<g>
				<g>
					<defs>
						<rect id="SVGID_00000122716605522169626320000018275424380036730045_" x="10.8" y="25.9" width="385.9" height="209.4"/>
					</defs>
					<clipPath id="SVGID_00000027576753808401130690000004277362089937076878_">
						<use xlink:href="#SVGID_00000122716605522169626320000018275424380036730045_"  style="overflow:visible;"/>
					</clipPath>
					<g style="clip-path:url(#SVGID_00000027576753808401130690000004277362089937076878_);">
						<g>
							<path id="C0_0_c4387d28f2_00000020356414716575981400000002036845510095612085_" class="st38" d="M363.2,156.9
								c2.1,0,4.1-0.8,5.6-2.3s2.3-3.5,2.3-5.6s-0.8-4.1-2.3-5.6s-3.5-2.3-5.6-2.3s-4.1,0.8-5.6,2.3s-2.3,3.5-2.3,5.6
								s0.8,4.1,2.3,5.6C359.1,156,361.1,156.9,363.2,156.9z"/>
						</g>
					</g>
				</g>
			</g>
		</g>
		<g>
			<g>
				<g>
					<defs>
						<rect id="SVGID_00000076580583430236079830000002484264209457924504_" x="10.8" y="25.9" width="385.9" height="209.4"/>
					</defs>
					<clipPath id="SVGID_00000060003886156093807190000007665573491471606929_">
						<use xlink:href="#SVGID_00000076580583430236079830000002484264209457924504_"  style="overflow:visible;"/>
					</clipPath>
					<g style="clip-path:url(#SVGID_00000060003886156093807190000007665573491471606929_);">
						<g>
							<path id="C0_0_c4387d28f2_00000082365394158838840380000011821770427543298182_" class="st45" d="M99,209.3
								c2.1,0,4.1-0.8,5.6-2.3s2.3-3.5,2.3-5.6s-0.8-4.1-2.3-5.6s-3.5-2.3-5.6-2.3s-4.1,0.8-5.6,2.3s-2.3,3.5-2.3,5.6
								s0.8,4.1,2.3,5.6S96.9,209.3,99,209.3z"/>
						</g>
					</g>
				</g>
			</g>
		</g>
		<g>
			<g>
				<g>
					<defs>
						<rect id="SVGID_00000017514974635346395990000008411260298295727032_" x="10.8" y="25.9" width="385.9" height="209.4"/>
					</defs>
					<clipPath id="SVGID_00000147217376023955651110000010092502735466295960_">
						<use xlink:href="#SVGID_00000017514974635346395990000008411260298295727032_"  style="overflow:visible;"/>
					</clipPath>
					<g style="clip-path:url(#SVGID_00000147217376023955651110000010092502735466295960_);">
						<g>
							<path id="C0_0_c4387d28f2_00000061460242417870935720000006640772603853257620_" class="st45" d="M135.4,217.2
								c2.1,0,4.1-0.8,5.6-2.3s2.3-3.5,2.3-5.6s-0.8-4.1-2.3-5.6s-3.5-2.3-5.6-2.3s-4.1,0.8-5.6,2.3s-2.3,3.5-2.3,5.6
								s0.8,4.1,2.3,5.6S133.3,217.2,135.4,217.2z"/>
						</g>
					</g>
				</g>
			</g>
		</g>
		<g>
			<g>
				<g>
					<defs>
						<rect id="SVGID_00000021090672869418697650000011130460538674291091_" x="10.8" y="25.9" width="385.9" height="209.4"/>
					</defs>
					<clipPath id="SVGID_00000085951670959643109190000013087713176232188308_">
						<use xlink:href="#SVGID_00000021090672869418697650000011130460538674291091_"  style="overflow:visible;"/>
					</clipPath>
					<g style="clip-path:url(#SVGID_00000085951670959643109190000013087713176232188308_);">
						<g>
							<path id="C0_0_c4387d28f2_00000152232753556608359390000012961777705370774939_" class="st45" d="M171.9,225.1
								c2.1,0,4.1-0.8,5.6-2.3s2.3-3.5,2.3-5.6s-0.8-4.1-2.3-5.6s-3.5-2.3-5.6-2.3s-4.1,0.8-5.6,2.3s-2.3,3.5-2.3,5.6
								s0.8,4.1,2.3,5.6S169.8,225.1,171.9,225.1z"/>
						</g>
					</g>
				</g>
			</g>
		</g>
		<g>
			<g>
				<g>
					<defs>
						<rect id="SVGID_00000129923164878825584270000002259229422377336202_" x="10.8" y="25.9" width="385.9" height="209.4"/>
					</defs>
					<clipPath id="SVGID_00000064327114485451376030000004030263767784661396_">
						<use xlink:href="#SVGID_00000129923164878825584270000002259229422377336202_"  style="overflow:visible;"/>
					</clipPath>
					<g style="clip-path:url(#SVGID_00000064327114485451376030000004030263767784661396_);">
						<g>
							<path id="C0_0_c4387d28f2_00000081610228992275562080000017068553968471763877_" class="st45" d="M317.7,209.3
								c2.1,0,4.1-0.8,5.6-2.3s2.3-3.5,2.3-5.6s-0.8-4.1-2.3-5.6s-3.5-2.3-5.6-2.3s-4.1,0.8-5.6,2.3s-2.3,3.5-2.3,5.6
								s0.8,4.1,2.3,5.6S315.6,209.3,317.7,209.3z"/>
						</g>
					</g>
				</g>
			</g>
		</g>
		<g>
			<g>
				<g>
					<defs>
						<rect id="SVGID_00000058579467140720543530000018223897396336811907_" x="10.8" y="25.9" width="385.9" height="209.4"/>
					</defs>
					<clipPath id="SVGID_00000084499155115944911740000005328101108197087105_">
						<use xlink:href="#SVGID_00000058579467140720543530000018223897396336811907_"  style="overflow:visible;"/>
					</clipPath>
					<g style="clip-path:url(#SVGID_00000084499155115944911740000005328101108197087105_);">
						<g>
							<path id="C0_0_c4387d28f2_00000158004770182948263880000011339960720143238025_" class="st45" d="M340.4,196.2
								c2.1,0,4.1-0.8,5.6-2.3s2.3-3.5,2.3-5.6s-0.8-4.1-2.3-5.6s-3.5-2.3-5.6-2.3s-4.1,0.8-5.6,2.3s-2.3,3.5-2.3,5.6
								s0.8,4.1,2.3,5.6S338.4,196.2,340.4,196.2z"/>
						</g>
					</g>
				</g>
			</g>
		</g>
	</g>
	<g id="text_1">
		<g transform="translate(124.002188 19.918125)scale(0.12 -0.12)">
			<g>
				<path id="DejaVuSans-68" d="M19.7,64.8V8.1h11.9c10.1,0,17.4,2.3,22.1,6.8c4.7,4.6,7,11.8,7,21.6s-2.3,16.9-7,21.5
					s-12,6.8-22.1,6.8H19.7z M9.8,72.9h20.3c14.1,0,24.5-2.9,31.1-8.8s9.9-15.1,9.9-27.6c0-12.6-3.3-21.8-10-27.7
					c-6.6-5.9-17-8.8-31-8.8H9.8V72.9z"/>
			</g>
			<g>
				<path id="DejaVuSans-105" d="M86.4,54.7h9V0h-9V54.7z M86.4,76h9V64.6h-9V76z"/>
			</g>
			<g>
				<path id="DejaVuSans-71" d="M164.3,10.4V30h-16.1v8.1h25.9V6.8c-3.8-2.7-8-4.7-12.6-6.1s-9.5-2.1-14.7-2.1
					c-11.4,0-20.3,3.3-26.8,10c-6.4,6.7-9.6,15.9-9.6,27.8s3.2,21.2,9.6,27.9c6.4,6.7,15.4,10,26.8,10c4.8,0,9.3-0.6,13.5-1.8
					c4.3-1.2,8.2-2.9,11.8-5.2V56.8c-3.6,3.1-7.5,5.4-11.6,7c-4.1,1.6-8.4,2.3-12.9,2.3c-8.9,0-15.6-2.5-20.1-7.5
					c-4.5-5-6.7-12.4-6.7-22.3c0-9.8,2.2-17.2,6.7-22.2c4.5-5,11.2-7.5,20.1-7.5c3.5,0,6.6,0.3,9.3,0.9
					C159.7,8.2,162.1,9.1,164.3,10.4z"/>
			</g>
			<g>
				<path id="DejaVuSans-114" d="M223.4,46.3c-1,0.6-2.1,1-3.3,1.3s-2.5,0.4-3.9,0.4c-5.1,0-9-1.7-11.7-5c-2.7-3.3-4.1-8-4.1-14.2V0
					h-9v54.7h9v-8.5c1.9,3.3,4.4,5.8,7.4,7.4c3,1.6,6.7,2.4,11,2.4c0.6,0,1.3,0,2-0.1c0.8-0.1,1.6-0.2,2.5-0.4L223.4,46.3z"/>
			</g>
			<g>
				<path id="DejaVuSans-97" d="M257.7,27.5c-7.3,0-12.3-0.8-15.1-2.5s-4.2-4.5-4.2-8.5c0-3.2,1.1-5.7,3.2-7.6
					c2.1-1.9,5-2.8,8.6-2.8c5,0,9,1.8,12,5.3s4.5,8.2,4.5,14.1v2H257.7z M275.6,31.2V0h-9v8.3c-2-3.3-4.6-5.8-7.7-7.3
					c-3.1-1.6-6.8-2.4-11.2-2.4c-5.6,0-10,1.6-13.4,4.7c-3.3,3.1-5,7.4-5,12.6c0,6.1,2.1,10.8,6.2,13.9c4.1,3.1,10.3,4.7,18.4,4.7
					h12.6v0.9c0,4.1-1.4,7.3-4.1,9.6s-6.5,3.4-11.5,3.4c-3.1,0-6.2-0.4-9.1-1.1c-3-0.8-5.8-1.9-8.5-3.4v8.3c3.3,1.3,6.5,2.2,9.6,2.8
					s6.1,1,9,1c7.9,0,13.8-2.1,17.7-6.2C273.6,45.7,275.6,39.5,275.6,31.2z"/>
			</g>
			<g>
				<path id="DejaVuSans-112" d="M302.8,8.2v-29h-9v75.5h9v-8.3c1.9,3.2,4.3,5.7,7.2,7.2c2.9,1.6,6.3,2.4,10.3,2.4
					c6.6,0,12-2.6,16.2-7.9s6.2-12.2,6.2-20.8s-2.1-15.5-6.2-20.8s-9.5-7.9-16.2-7.9c-4,0-7.4,0.8-10.3,2.4
					C307.1,2.5,304.7,5,302.8,8.2z M333.4,27.3c0,6.6-1.4,11.8-4.1,15.5s-6.5,5.6-11.2,5.6c-4.8,0-8.5-1.9-11.2-5.6
					s-4.1-8.9-4.1-15.5s1.4-11.8,4.1-15.5s6.5-5.6,11.2-5.6c4.8,0,8.5,1.9,11.2,5.6S333.4,20.7,333.4,27.3z"/>
			</g>
			<g>
				<path id="DejaVuSans-104" d="M403,33V0h-9v32.7c0,5.2-1,9-3,11.6c-2,2.6-5,3.9-9.1,3.9c-4.9,0-8.7-1.5-11.5-4.6
					s-4.2-7.3-4.2-12.6V0h-9v76h9V46.2c2.2,3.3,4.7,5.8,7.6,7.4c2.9,1.6,6.3,2.4,10.1,2.4c6.3,0,11-1.9,14.2-5.8
					C401.4,46.3,403,40.6,403,33z"/>
			</g>
			<g>
				<path id="DejaVuSans-32" d="M411.5,0"/>
			</g>
			<g>
				<path id="DejaVuSans-68_00000121981473020978250140000002428350377498259610_" d="M463,64.8V8.1h11.9c10.1,0,17.4,2.3,22.1,6.8
					c4.7,4.6,7,11.8,7,21.6s-2.3,16.9-7,21.5c-4.7,4.5-12,6.8-22.1,6.8H463z M453.1,72.9h20.3c14.1,0,24.5-2.9,31.1-8.8
					s9.9-15.1,9.9-27.6c0-12.6-3.3-21.8-10-27.7c-6.6-5.9-17-8.8-31-8.8h-20.3C453.1,0,453.1,72.9,453.1,72.9z"/>
			</g>
			<g>
				<path id="DejaVuSans-101" d="M576.5,29.6v-4.4h-41.3c0.4-6.2,2.3-10.9,5.6-14.1s8-4.9,13.9-4.9c3.4,0,6.8,0.4,10,1.3
					c3.2,0.8,6.5,2.1,9.7,3.8V2.8c-3.2-1.4-6.5-2.4-9.9-3.1s-6.8-1.1-10.3-1.1c-8.7,0-15.6,2.5-20.7,7.6c-5.1,5.1-7.6,12-7.6,20.6
					c0,8.9,2.4,16,7.2,21.3s11.4,7.9,19.6,7.9c7.4,0,13.2-2.4,17.5-7.1C574.4,44.2,576.5,37.7,576.5,29.6z M567.5,32.2
					c-0.1,4.9-1.4,8.8-4.1,11.8c-2.7,2.9-6.2,4.4-10.7,4.4c-5,0-9-1.4-12-4.2s-4.7-6.8-5.2-12H567.5z"/>
			</g>
			<g>
				<path id="DejaVuSans-103" d="M627.2,28c0,6.5-1.3,11.6-4,15.1c-2.7,3.6-6.4,5.4-11.3,5.4c-4.8,0-8.6-1.8-11.2-5.4
					c-2.7-3.6-4-8.6-4-15.1s1.3-11.5,4-15.1s6.4-5.4,11.2-5.4c4.9,0,8.6,1.8,11.3,5.4S627.2,21.5,627.2,28z M636.2,6.8
					c0-9.3-2.1-16.2-6.2-20.8c-4.1-4.5-10.5-6.8-19-6.8c-3.2,0-6.1,0.2-8.9,0.7c-2.8,0.5-5.5,1.2-8.2,2.2v8.7
					c2.6-1.4,5.2-2.5,7.8-3.2s5.2-1,7.9-1c5.9,0,10.3,1.5,13.2,4.6s4.4,7.7,4.4,13.9v4.5c-1.9-3.2-4.2-5.6-7.1-7.2
					c-2.9-1.6-6.4-2.4-10.4-2.4c-6.7,0-12.1,2.6-16.2,7.7c-4.1,5.1-6.2,11.9-6.2,20.3c0,8.5,2.1,15.2,6.2,20.3
					c4.1,5.1,9.5,7.7,16.2,7.7c4,0,7.5-0.8,10.4-2.4c2.9-1.6,5.3-4,7.1-7.2v8.3h9V6.8z"/>
			</g>
			<g>
				<path id="DejaVuSans-114_00000031917841255588434890000009236852517855251374_" d="M686.4,46.3c-1,0.6-2.1,1-3.3,1.3
					s-2.5,0.4-3.9,0.4c-5.1,0-9-1.7-11.7-5s-4.1-8-4.1-14.2V0h-9v54.7h9v-8.5c1.9,3.3,4.4,5.8,7.4,7.4c3,1.6,6.7,2.4,11,2.4
					c0.6,0,1.3,0,2-0.1c0.8-0.1,1.6-0.2,2.5-0.4L686.4,46.3z"/>
			</g>
			<g>
				<path id="DejaVuSans-101_00000056398660667612243610000017737390236408340359_" d="M740.4,29.6v-4.4h-41.3
					c0.4-6.2,2.3-10.9,5.6-14.1s8-4.9,13.9-4.9c3.4,0,6.8,0.4,10,1.3c3.2,0.8,6.5,2.1,9.7,3.8V2.8c-3.2-1.4-6.5-2.4-9.9-3.1
					s-6.8-1.1-10.3-1.1c-8.7,0-15.6,2.5-20.7,7.6c-5.1,5.1-7.6,12-7.6,20.6c0,8.9,2.4,16,7.2,21.3s11.4,7.9,19.6,7.9
					c7.4,0,13.2-2.4,17.5-7.1C738.2,44.2,740.4,37.7,740.4,29.6z M731.4,32.2c-0.1,4.9-1.4,8.8-4.1,11.8c-2.7,2.9-6.2,4.4-10.7,4.4
					c-5,0-9-1.4-12-4.2s-4.7-6.8-5.2-12H731.4z"/>
			</g>
			<g>
				<path id="DejaVuSans-101_00000008865377184874468050000002702104482407956891_" d="M801.9,29.6v-4.4h-41.3
					c0.4-6.2,2.3-10.9,5.6-14.1s8-4.9,13.9-4.9c3.4,0,6.8,0.4,10,1.3c3.2,0.8,6.5,2.1,9.7,3.8V2.8c-3.2-1.4-6.5-2.4-9.9-3.1
					s-6.8-1.1-10.3-1.1c-8.7,0-15.6,2.5-20.7,7.6c-5.1,5.1-7.6,12-7.6,20.6c0,8.9,2.4,16,7.2,21.3s11.4,7.9,19.6,7.9
					c7.4,0,13.2-2.4,17.5-7.1C799.8,44.2,801.9,37.7,801.9,29.6z M792.9,32.2c-0.1,4.9-1.4,8.8-4.1,11.8c-2.7,2.9-6.2,4.4-10.7,4.4
					c-5,0-9-1.4-12-4.2s-4.7-6.8-5.2-12H792.9z"/>
			</g>
			<g>
				<path id="DejaVuSans-32_00000152950173802318264910000006619055435756960432_" d="M807.2,0"/>
			</g>
			<g>
				<path id="DejaVuSans-67" d="M903.4,67.3V56.9c-3.3,3.1-6.9,5.4-10.6,6.9c-3.8,1.5-7.8,2.3-12,2.3c-8.3,0-14.7-2.5-19.1-7.6
					c-4.4-5.1-6.6-12.5-6.6-22.1s2.2-17,6.6-22c4.4-5.1,10.8-7.6,19.1-7.6c4.2,0,8.2,0.8,12,2.3s7.3,3.8,10.6,6.9V5.6
					c-3.4-2.3-7.1-4.1-11-5.3s-7.9-1.7-12.2-1.7c-11,0-19.7,3.4-26.1,10.1c-6.3,6.8-9.5,16-9.5,27.7s3.2,21,9.5,27.7
					c6.4,6.8,15.1,10.1,26.1,10.1c4.4,0,8.5-0.6,12.3-1.7C896.4,71.3,900,69.6,903.4,67.3z"/>
			</g>
			<g>
				<path id="DejaVuSans-101_00000098918869497292436720000007905112078765528451_" d="M965,29.6v-4.4h-41.3
					c0.4-6.2,2.3-10.9,5.6-14.1s8-4.9,13.9-4.9c3.4,0,6.8,0.4,10,1.3c3.2,0.8,6.5,2.1,9.7,3.8V2.8c-3.2-1.4-6.5-2.4-9.9-3.1
					s-6.8-1.1-10.3-1.1c-8.7,0-15.6,2.5-20.7,7.6c-5.1,5.1-7.6,12-7.6,20.6c0,8.9,2.4,16,7.2,21.3S933,56,941.2,56
					c7.4,0,13.2-2.4,17.5-7.1C962.9,44.2,965,37.7,965,29.6z M956.1,32.2C956,37.1,954.7,41,952,44c-2.7,2.9-6.2,4.4-10.7,4.4
					c-5,0-9-1.4-12-4.2s-4.7-6.8-5.2-12H956.1z"/>
			</g>
			<g>
				<path id="DejaVuSans-110" d="M1025.2,33V0h-9v32.7c0,5.2-1,9-3,11.6c-2,2.6-5,3.9-9.1,3.9c-4.9,0-8.7-1.5-11.5-4.6
					s-4.2-7.3-4.2-12.6V0h-9v54.7h9v-8.5c2.2,3.3,4.7,5.8,7.6,7.4c2.9,1.6,6.3,2.4,10.1,2.4c6.3,0,11-1.9,14.2-5.8
					C1023.6,46.3,1025.2,40.6,1025.2,33z"/>
			</g>
			<g>
				<path id="DejaVuSans-116" d="M1052,70.2V54.7h18.5v-7H1052V18c0-4.5,0.6-7.3,1.8-8.6s3.7-1.9,7.5-1.9h9.2V0h-9.2
					c-6.9,0-11.7,1.3-14.4,3.9c-2.6,2.6-4,7.3-4,14.1v29.7h-6.6v7h6.6v15.5H1052z"/>
			</g>
			<g>
				<path id="DejaVuSans-114_00000128479221231288741600000010035528131917115789_" d="M1114.1,46.3c-1,0.6-2.1,1-3.3,1.3
					c-1.2,0.3-2.5,0.4-3.9,0.4c-5.1,0-9-1.7-11.7-5s-4.1-8-4.1-14.2V0h-9v54.7h9v-8.5c1.9,3.3,4.4,5.8,7.4,7.4c3,1.6,6.7,2.4,11,2.4
					c0.6,0,1.3,0,2-0.1c0.8-0.1,1.6-0.2,2.5-0.4L1114.1,46.3z"/>
			</g>
			<g>
				<path id="DejaVuSans-97_00000141448500770832227290000009262417363495866501_" d="M1148.3,27.5c-7.3,0-12.3-0.8-15.1-2.5
					c-2.8-1.7-4.2-4.5-4.2-8.5c0-3.2,1.1-5.7,3.2-7.6s5-2.8,8.6-2.8c5,0,9,1.8,12,5.3s4.5,8.2,4.5,14.1v2H1148.3z M1166.3,31.2V0h-9
					v8.3c-2.1-3.3-4.6-5.8-7.7-7.3s-6.8-2.4-11.2-2.4c-5.6,0-10,1.6-13.4,4.7c-3.3,3.1-5,7.4-5,12.6c0,6.1,2.1,10.8,6.2,13.9
					s10.3,4.7,18.4,4.7h12.6v0.9c0,4.1-1.4,7.3-4.1,9.6s-6.5,3.4-11.5,3.4c-3.1,0-6.2-0.4-9.1-1.1c-3-0.8-5.8-1.9-8.5-3.4v8.3
					c3.3,1.3,6.5,2.2,9.6,2.8s6.1,1,9,1c7.9,0,13.8-2.1,17.7-6.2C1164.3,45.7,1166.3,39.5,1166.3,31.2z"/>
			</g>
			<g>
				<path id="DejaVuSans-108" d="M1184.8,76h9V0h-9V76z"/>
			</g>
			<g>
				<path id="DejaVuSans-105_00000013161360526474588090000013614249605837568190_" d="M1212.5,54.7h9V0h-9V54.7z M1212.5,76h9V64.6
					h-9V76z"/>
			</g>
			<g>
				<path id="DejaVuSans-116_00000146493616968274574510000010275508451019053207_" d="M1249.2,70.2V54.7h18.5v-7h-18.5V18
					c0-4.5,0.6-7.3,1.8-8.6s3.7-1.9,7.5-1.9h9.2V0h-9.2c-6.9,0-11.7,1.3-14.4,3.9c-2.6,2.6-4,7.3-4,14.1v29.7h-6.6v7h6.6v15.5
					H1249.2z"/>
			</g>
			<g>
				<path id="DejaVuSans-121" d="M1302.3-5.1c-2.5-6.5-5-10.8-7.4-12.7c-2.4-2-5.6-3-9.7-3h-7.2v7.5h5.3c2.5,0,4.4,0.6,5.8,1.8
					s2.9,3.9,4.5,8.3l1.6,4.1l-22.1,53.8h9.5l17.1-42.8l17.1,42.8h9.5L1302.3-5.1z"/>
			</g>
		</g>
	</g>
</g>
</svg>
