<?xml version="1.0" encoding="utf-8"?>
<!-- Generator: Adobe Illustrator 26.0.2, SVG Export Plug-In . SVG Version: 6.00 Build 0)  -->
<svg version="1.1" id="Layer_1" xmlns="http://www.w3.org/2000/svg" xmlns:xlink="http://www.w3.org/1999/xlink" x="0px" y="0px"
	 viewBox="0 0 504 252" style="enable-background:new 0 0 504 252;" xml:space="preserve">
<style type="text/css">
	.st0{fill:none;}
	
		.st1{clip-path:url(#SVGID_00000177486500276640127020000016762511728225550252_);fill:none;stroke:#000000;stroke-linecap:round;stroke-linejoin:round;}
	
		.st2{clip-path:url(#SVGID_00000038414937960505673710000007760989092165484682_);stroke:#000000;stroke-linecap:round;stroke-linejoin:round;}
	
		.st3{clip-path:url(#SVGID_00000005984155390026807030000015901752456343545489_);fill:none;stroke:#000000;stroke-linecap:round;stroke-linejoin:round;}
	
		.st4{clip-path:url(#SVGID_00000115500959769095676520000005970555063320643489_);stroke:#000000;stroke-linecap:round;stroke-linejoin:round;}
	
		.st5{clip-path:url(#SVGID_00000047027791479178404250000001140804062463586235_);fill:none;stroke:#000000;stroke-linecap:round;stroke-linejoin:round;}
	
		.st6{clip-path:url(#SVGID_00000063612347958953171460000002389768589026068875_);stroke:#000000;stroke-linecap:round;stroke-linejoin:round;}
	
		.st7{clip-path:url(#SVGID_00000004534699674692247680000000974137156208096176_);fill:none;stroke:#000000;stroke-linecap:round;stroke-linejoin:round;}
	
		.st8{clip-path:url(#SVGID_00000125583905720932481860000002189360038442701470_);stroke:#000000;stroke-linecap:round;stroke-linejoin:round;}
	
		.st9{clip-path:url(#SVGID_00000060001122838951712260000015421512383619586691_);fill:none;stroke:#000000;stroke-linecap:round;stroke-linejoin:round;}
	
		.st10{clip-path:url(#SVGID_00000132081332392690993700000013308505516072993695_);stroke:#000000;stroke-linecap:round;stroke-linejoin:round;}
	
		.st11{clip-path:url(#SVGID_00000042718368148689529640000009522853898072156089_);fill:none;stroke:#000000;stroke-linecap:round;stroke-linejoin:round;}
	
		.st12{clip-path:url(#SVGID_00000071525905842450341940000002349171118061190565_);stroke:#000000;stroke-linecap:round;stroke-linejoin:round;}
	
		.st13{clip-path:url(#SVGID_00000160895161015631299750000017620581275963645583_);fill:none;stroke:#000000;stroke-linecap:round;stroke-linejoin:round;}
	
		.st14{clip-path:url(#SVGID_00000124144382652880200920000006489460488235137688_);stroke:#000000;stroke-linecap:round;stroke-linejoin:round;}
	
		.st15{clip-path:url(#SVGID_00000114756280129541961050000015007897785185659034_);fill:none;stroke:#000000;stroke-linecap:round;stroke-linejoin:round;}
	
		.st16{clip-path:url(#SVGID_00000137093587468114333170000016570781734198322311_);stroke:#000000;stroke-linecap:round;stroke-linejoin:round;}
	
		.st17{clip-path:url(#SVGID_00000003065145112579215360000005091950013816294533_);fill:none;stroke:#000000;stroke-linecap:round;stroke-linejoin:round;}
	
		.st18{clip-path:url(#SVGID_00000070804227006804945690000014798450811659081386_);stroke:#000000;stroke-linecap:round;stroke-linejoin:round;}
	
		.st19{clip-path:url(#SVGID_00000057148566570524265480000014057491875023445940_);fill:none;stroke:#000000;stroke-linecap:round;stroke-linejoin:round;}
	
		.st20{clip-path:url(#SVGID_00000110460727165058636150000002836881471348259985_);stroke:#000000;stroke-linecap:round;stroke-linejoin:round;}
	
		.st21{clip-path:url(#SVGID_00000142157041736077512660000001403810008652847269_);fill:none;stroke:#000000;stroke-linecap:round;stroke-linejoin:round;}
	
		.st22{clip-path:url(#SVGID_00000026137453233660028210000018392490035293613752_);stroke:#000000;stroke-linecap:round;stroke-linejoin:round;}
	
		.st23{clip-path:url(#SVGID_00000060731247743442518330000010554703985395773090_);fill:none;stroke:#000000;stroke-linecap:round;stroke-linejoin:round;}
	
		.st24{clip-path:url(#SVGID_00000069372822700763632690000003431567967607358393_);stroke:#000000;stroke-linecap:round;stroke-linejoin:round;}
	
		.st25{clip-path:url(#SVGID_00000088843503012441275020000004071706497196829107_);fill:none;stroke:#000000;stroke-linecap:round;stroke-linejoin:round;}
	
		.st26{clip-path:url(#SVGID_00000129186123555732218400000006851263926930814080_);stroke:#000000;stroke-linecap:round;stroke-linejoin:round;}
	
		.st27{clip-path:url(#SVGID_00000082346236985068673160000012742353044054062512_);fill:none;stroke:#000000;stroke-linecap:round;stroke-linejoin:round;}
	
		.st28{clip-path:url(#SVGID_00000134968389847293390520000004806233243615764380_);stroke:#000000;stroke-linecap:round;stroke-linejoin:round;}
	
		.st29{clip-path:url(#SVGID_00000065776579042157536680000014053655472528790188_);fill:none;stroke:#000000;stroke-linecap:round;stroke-linejoin:round;}
	
		.st30{clip-path:url(#SVGID_00000009551889759392061060000016817256934682730899_);stroke:#000000;stroke-linecap:round;stroke-linejoin:round;}
	
		.st31{clip-path:url(#SVGID_00000105393888353282537930000001721053809502306747_);fill:none;stroke:#000000;stroke-linecap:round;stroke-linejoin:round;}
	
		.st32{clip-path:url(#SVGID_00000023273739823047507880000006479851902526288768_);stroke:#000000;stroke-linecap:round;stroke-linejoin:round;}
	
		.st33{clip-path:url(#SVGID_00000017514508739173333370000018244780495197089204_);fill:none;stroke:#000000;stroke-linecap:round;stroke-linejoin:round;}
	
		.st34{clip-path:url(#SVGID_00000029743361267627069520000009380912576673999805_);stroke:#000000;stroke-linecap:round;stroke-linejoin:round;}
	.st35{clip-path:url(#SVGID_00000034074006162181903880000004211877783859668406_);}
	.st36{fill:#FDE725;stroke:#FDE725;stroke-linejoin:round;}
	.st37{clip-path:url(#SVGID_00000098913527375532594200000013689008504023812257_);}
	.st38{fill:#440154;stroke:#440154;stroke-linejoin:round;}
	.st39{clip-path:url(#SVGID_00000016063403620420606130000013856897145814989207_);}
	.st40{fill:#34B679;stroke:#34B679;stroke-linejoin:round;}
	.st41{clip-path:url(#SVGID_00000049938561286980451200000010188323844826804888_);}
	.st42{fill:#2DB27D;stroke:#2DB27D;stroke-linejoin:round;}
	.st43{clip-path:url(#SVGID_00000152222454832734155230000007872260234390822328_);}
	.st44{fill:#EFE51C;stroke:#EFE51C;stroke-linejoin:round;}
	.st45{clip-path:url(#SVGID_00000168833084620040512130000002575788434392307872_);}
	.st46{clip-path:url(#SVGID_00000039107957320891199060000015966788645921715627_);}
	.st47{clip-path:url(#SVGID_00000042014935881226043520000007519593971203669161_);}
	.st48{clip-path:url(#SVGID_00000182511420254683711020000004292723515657290894_);}
	.st49{clip-path:url(#SVGID_00000137819777833808373270000015606086869750514365_);}
	.st50{clip-path:url(#SVGID_00000059310650625517882490000008755588216773536942_);}
	
		.st51{clip-path:url(#SVGID_00000073681087860150993200000000170079178554083743_);fill:#FFFFFF;stroke:#FFFFFF;stroke-width:1.000000e-02;}
</style>
<g id="patch_1">
	<path class="st0" d="M0,252h504V0H0V252z"/>
</g>
<g id="matplotlib.axis_1">
</g>
<g id="axes_1">
	<g id="patch_2">
		<g>
			<g>
				<defs>
					<rect id="SVGID_1_" x="10.8" y="25.9" width="385.9" height="209.4"/>
				</defs>
				<clipPath id="SVGID_00000083074217058526435600000001593125842812725399_">
					<use xlink:href="#SVGID_1_"  style="overflow:visible;"/>
				</clipPath>
				
					<path style="clip-path:url(#SVGID_00000083074217058526435600000001593125842812725399_);fill:none;stroke:#000000;stroke-linecap:round;stroke-linejoin:round;" d="
					M189.6,69.1c55-7.9,109.7-15.8,164-23.6"/>
			</g>
		</g>
		<g>
			<g>
				<defs>
					<rect id="SVGID_00000008149511329840477320000004297044707119694215_" x="10.8" y="25.9" width="385.9" height="209.4"/>
				</defs>
				<clipPath id="SVGID_00000106848277717247593480000000915523623073984923_">
					<use xlink:href="#SVGID_00000008149511329840477320000004297044707119694215_"  style="overflow:visible;"/>
				</clipPath>
				
					<path style="clip-path:url(#SVGID_00000106848277717247593480000000915523623073984923_);stroke:#000000;stroke-linecap:round;stroke-linejoin:round;" d="
					M349.3,44.1l4.2,1.4l-3.7,2.5L349.3,44.1z"/>
			</g>
		</g>
	</g>
	<g id="patch_3">
		<g>
			<g>
				<defs>
					<rect id="SVGID_00000115505938224875145680000008584491441401331878_" x="10.8" y="25.9" width="385.9" height="209.4"/>
				</defs>
				<clipPath id="SVGID_00000013177426771392442370000009454306909222561923_">
					<use xlink:href="#SVGID_00000115505938224875145680000008584491441401331878_"  style="overflow:visible;"/>
				</clipPath>
				
					<path style="clip-path:url(#SVGID_00000013177426771392442370000009454306909222561923_);fill:none;stroke:#000000;stroke-linecap:round;stroke-linejoin:round;" d="
					M354.7,45.3c-55,7.9-109.7,15.8-164,23.6"/>
			</g>
		</g>
		<g>
			<g>
				<defs>
					<rect id="SVGID_00000109013054116738427070000000040206066670254737_" x="10.8" y="25.9" width="385.9" height="209.4"/>
				</defs>
				<clipPath id="SVGID_00000109004645334445544850000004542692813927035790_">
					<use xlink:href="#SVGID_00000109013054116738427070000000040206066670254737_"  style="overflow:visible;"/>
				</clipPath>
				
					<path style="clip-path:url(#SVGID_00000109004645334445544850000004542692813927035790_);stroke:#000000;stroke-linecap:round;stroke-linejoin:round;" d="
					M194.9,70.3l-4.2-1.4l3.7-2.5L194.9,70.3z"/>
			</g>
		</g>
	</g>
	<g id="patch_4">
		<g>
			<g>
				<defs>
					<rect id="SVGID_00000057831898747744176140000015312054862563050427_" x="10.8" y="25.9" width="385.9" height="209.4"/>
				</defs>
				<clipPath id="SVGID_00000089550087269279051280000006537125106563451323_">
					<use xlink:href="#SVGID_00000057831898747744176140000015312054862563050427_"  style="overflow:visible;"/>
				</clipPath>
				
					<path style="clip-path:url(#SVGID_00000089550087269279051280000006537125106563451323_);fill:none;stroke:#000000;stroke-linecap:round;stroke-linejoin:round;" d="
					M65,127.5c-6.2-25-12.3-49.6-18.3-73.9"/>
			</g>
		</g>
		<g>
			<g>
				<defs>
					<rect id="SVGID_00000126300574726851027130000012326628731323310479_" x="10.8" y="25.9" width="385.9" height="209.4"/>
				</defs>
				<clipPath id="SVGID_00000067194678156417033990000000727772573523258775_">
					<use xlink:href="#SVGID_00000126300574726851027130000012326628731323310479_"  style="overflow:visible;"/>
				</clipPath>
				
					<path style="clip-path:url(#SVGID_00000067194678156417033990000000727772573523258775_);stroke:#000000;stroke-linecap:round;stroke-linejoin:round;" d="
					M45.7,57.9l1-4.4l2.9,3.4L45.7,57.9z"/>
			</g>
		</g>
	</g>
	<g id="patch_5">
		<g>
			<g>
				<defs>
					<rect id="SVGID_00000128468406373053533470000018137934748599631289_" x="10.8" y="25.9" width="385.9" height="209.4"/>
				</defs>
				<clipPath id="SVGID_00000059301339731091731940000005960757802670723244_">
					<use xlink:href="#SVGID_00000128468406373053533470000018137934748599631289_"  style="overflow:visible;"/>
				</clipPath>
				
					<path style="clip-path:url(#SVGID_00000059301339731091731940000005960757802670723244_);fill:none;stroke:#000000;stroke-linecap:round;stroke-linejoin:round;" d="
					M74.6,131.5c33-19,65.6-37.8,97.9-56.4"/>
			</g>
		</g>
		<g>
			<g>
				<defs>
					<rect id="SVGID_00000023987089384024094480000013247442417574772104_" x="10.8" y="25.9" width="385.9" height="209.4"/>
				</defs>
				<clipPath id="SVGID_00000057120895463766132360000008450088198793182380_">
					<use xlink:href="#SVGID_00000023987089384024094480000013247442417574772104_"  style="overflow:visible;"/>
				</clipPath>
				
					<path style="clip-path:url(#SVGID_00000057120895463766132360000008450088198793182380_);stroke:#000000;stroke-linecap:round;stroke-linejoin:round;" d="
					M168,75.4l4.5-0.3l-2.5,3.7L168,75.4z"/>
			</g>
		</g>
	</g>
	<g id="patch_6">
		<g>
			<g>
				<defs>
					<rect id="SVGID_00000044166177261276579720000004082933129236188811_" x="10.8" y="25.9" width="385.9" height="209.4"/>
				</defs>
				<clipPath id="SVGID_00000119109778931173660880000011086393019219861695_">
					<use xlink:href="#SVGID_00000044166177261276579720000004082933129236188811_"  style="overflow:visible;"/>
				</clipPath>
				
					<path style="clip-path:url(#SVGID_00000119109778931173660880000011086393019219861695_);fill:none;stroke:#000000;stroke-linecap:round;stroke-linejoin:round;" d="
					M222.2,141.5c-12.3-21.2-24.4-42.1-36.3-62.7"/>
			</g>
		</g>
		<g>
			<g>
				<defs>
					<rect id="SVGID_00000110455625233279857030000012654344763801391288_" x="10.8" y="25.9" width="385.9" height="209.4"/>
				</defs>
				<clipPath id="SVGID_00000127040245251775079370000015357200665951929250_">
					<use xlink:href="#SVGID_00000110455625233279857030000012654344763801391288_"  style="overflow:visible;"/>
				</clipPath>
				
					<path style="clip-path:url(#SVGID_00000127040245251775079370000015357200665951929250_);stroke:#000000;stroke-linecap:round;stroke-linejoin:round;" d="
					M186.2,83.2l-0.3-4.5l3.7,2.5L186.2,83.2z"/>
			</g>
		</g>
	</g>
	<g id="patch_7">
		<g>
			<g>
				<defs>
					<rect id="SVGID_00000118359703376270623960000001972831927354322345_" x="10.8" y="25.9" width="385.9" height="209.4"/>
				</defs>
				<clipPath id="SVGID_00000092447657247429079810000006685363414352895109_">
					<use xlink:href="#SVGID_00000118359703376270623960000001972831927354322345_"  style="overflow:visible;"/>
				</clipPath>
				
					<path style="clip-path:url(#SVGID_00000092447657247429079810000006685363414352895109_);fill:none;stroke:#000000;stroke-linecap:round;stroke-linejoin:round;" d="
					M217.9,148.3c-47.4-3.9-94.4-7.8-141.1-11.6"/>
			</g>
		</g>
		<g>
			<g>
				<defs>
					<rect id="SVGID_00000116933351113039606030000000699674684986401437_" x="10.8" y="25.9" width="385.9" height="209.4"/>
				</defs>
				<clipPath id="SVGID_00000062153309557349859840000002731818946914946698_">
					<use xlink:href="#SVGID_00000116933351113039606030000000699674684986401437_"  style="overflow:visible;"/>
				</clipPath>
				
					<path style="clip-path:url(#SVGID_00000062153309557349859840000002731818946914946698_);stroke:#000000;stroke-linecap:round;stroke-linejoin:round;" d="
					M80.6,139l-3.8-2.3L81,135L80.6,139z"/>
			</g>
		</g>
	</g>
	<g id="patch_8">
		<g>
			<g>
				<defs>
					<rect id="SVGID_00000126289459049643503810000013649742700977930651_" x="10.8" y="25.9" width="385.9" height="209.4"/>
				</defs>
				<clipPath id="SVGID_00000101094550370666074090000010073975288417409195_">
					<use xlink:href="#SVGID_00000126289459049643503810000013649742700977930651_"  style="overflow:visible;"/>
				</clipPath>
				
					<path style="clip-path:url(#SVGID_00000101094550370666074090000010073975288417409195_);fill:none;stroke:#000000;stroke-linecap:round;stroke-linejoin:round;" d="
					M235.2,149c39.8,0,79.2,0,118.2,0"/>
			</g>
		</g>
		<g>
			<g>
				<defs>
					<rect id="SVGID_00000096764376707662125820000008697757397720817536_" x="10.8" y="25.9" width="385.9" height="209.4"/>
				</defs>
				<clipPath id="SVGID_00000176757155419389401790000010518004179946602935_">
					<use xlink:href="#SVGID_00000096764376707662125820000008697757397720817536_"  style="overflow:visible;"/>
				</clipPath>
				
					<path style="clip-path:url(#SVGID_00000176757155419389401790000010518004179946602935_);stroke:#000000;stroke-linecap:round;stroke-linejoin:round;" d="
					M349.5,147l4,2l-4,2V147z"/>
			</g>
		</g>
	</g>
	<g id="patch_9">
		<g>
			<g>
				<defs>
					<rect id="SVGID_00000172426922516407153890000005879942534747046807_" x="10.8" y="25.9" width="385.9" height="209.4"/>
				</defs>
				<clipPath id="SVGID_00000183970088931752321080000015983052037889703356_">
					<use xlink:href="#SVGID_00000172426922516407153890000005879942534747046807_"  style="overflow:visible;"/>
				</clipPath>
				
					<path style="clip-path:url(#SVGID_00000183970088931752321080000015983052037889703356_);fill:none;stroke:#000000;stroke-linecap:round;stroke-linejoin:round;" d="
					M355.3,145.5C299.8,121.6,244.7,97.8,190,74.2"/>
			</g>
		</g>
		<g>
			<g>
				<defs>
					<rect id="SVGID_00000065780813719908590490000016713915475579795875_" x="10.8" y="25.9" width="385.9" height="209.4"/>
				</defs>
				<clipPath id="SVGID_00000067948604782700348660000016062250000840815251_">
					<use xlink:href="#SVGID_00000065780813719908590490000016713915475579795875_"  style="overflow:visible;"/>
				</clipPath>
				
					<path style="clip-path:url(#SVGID_00000067948604782700348660000016062250000840815251_);stroke:#000000;stroke-linecap:round;stroke-linejoin:round;" d="
					M192.8,77.6l-2.9-3.4l4.5-0.3L192.8,77.6z"/>
			</g>
		</g>
	</g>
	<g id="patch_10">
		<g>
			<g>
				<defs>
					<rect id="SVGID_00000152965320662149839970000012226297621498174109_" x="10.8" y="25.9" width="385.9" height="209.4"/>
				</defs>
				<clipPath id="SVGID_00000096033816919582455350000015740314800475211663_">
					<use xlink:href="#SVGID_00000152965320662149839970000012226297621498174109_"  style="overflow:visible;"/>
				</clipPath>
				
					<path style="clip-path:url(#SVGID_00000096033816919582455350000015740314800475211663_);fill:none;stroke:#000000;stroke-linecap:round;stroke-linejoin:round;" d="
					M354.6,149c-39.8,0-79.2,0-118.2,0"/>
			</g>
		</g>
		<g>
			<g>
				<defs>
					<rect id="SVGID_00000065067547999569659100000010138114579711367355_" x="10.8" y="25.9" width="385.9" height="209.4"/>
				</defs>
				<clipPath id="SVGID_00000043430585162596269490000015585066828148533907_">
					<use xlink:href="#SVGID_00000065067547999569659100000010138114579711367355_"  style="overflow:visible;"/>
				</clipPath>
				
					<path style="clip-path:url(#SVGID_00000043430585162596269490000015585066828148533907_);stroke:#000000;stroke-linecap:round;stroke-linejoin:round;" d="
					M240.3,151l-4-2l4-2V151z"/>
			</g>
		</g>
	</g>
	<g id="patch_11">
		<g>
			<g>
				<defs>
					<rect id="SVGID_00000175292999074341852110000003144317370581833605_" x="10.8" y="25.9" width="385.9" height="209.4"/>
				</defs>
				<clipPath id="SVGID_00000076579990285385410010000005510414034730336901_">
					<use xlink:href="#SVGID_00000175292999074341852110000003144317370581833605_"  style="overflow:visible;"/>
				</clipPath>
				
					<path style="clip-path:url(#SVGID_00000076579990285385410010000005510414034730336901_);fill:none;stroke:#000000;stroke-linecap:round;stroke-linejoin:round;" d="
					M103.6,194.1c24.3-38.8,48.4-77.3,72.2-115.5"/>
			</g>
		</g>
		<g>
			<g>
				<defs>
					<rect id="SVGID_00000113343972560413872720000018181130461412253091_" x="10.8" y="25.9" width="385.9" height="209.4"/>
				</defs>
				<clipPath id="SVGID_00000055689209015049250790000000456733773947577005_">
					<use xlink:href="#SVGID_00000113343972560413872720000018181130461412253091_"  style="overflow:visible;"/>
				</clipPath>
				
					<path style="clip-path:url(#SVGID_00000055689209015049250790000000456733773947577005_);stroke:#000000;stroke-linecap:round;stroke-linejoin:round;" d="
					M172,80.9l3.8-2.3l-0.4,4.5L172,80.9z"/>
			</g>
		</g>
	</g>
	<g id="patch_12">
		<g>
			<g>
				<defs>
					<rect id="SVGID_00000048502978610607016400000013081885006003505329_" x="10.8" y="25.9" width="385.9" height="209.4"/>
				</defs>
				<clipPath id="SVGID_00000026847155831421821790000010034605549027690157_">
					<use xlink:href="#SVGID_00000048502978610607016400000013081885006003505329_"  style="overflow:visible;"/>
				</clipPath>
				
					<path style="clip-path:url(#SVGID_00000026847155831421821790000010034605549027690157_);fill:none;stroke:#000000;stroke-linecap:round;stroke-linejoin:round;" d="
					M107,198.1c37.2-15.3,74-30.4,110.5-45.4"/>
			</g>
		</g>
		<g>
			<g>
				<defs>
					<rect id="SVGID_00000087403117449685963840000004444220163962515082_" x="10.8" y="25.9" width="385.9" height="209.4"/>
				</defs>
				<clipPath id="SVGID_00000019672901759136063440000011154862116385592206_">
					<use xlink:href="#SVGID_00000087403117449685963840000004444220163962515082_"  style="overflow:visible;"/>
				</clipPath>
				
					<path style="clip-path:url(#SVGID_00000019672901759136063440000011154862116385592206_);stroke:#000000;stroke-linecap:round;stroke-linejoin:round;" d="
					M213,152.4l4.5,0.3l-2.9,3.4L213,152.4z"/>
			</g>
		</g>
	</g>
	<g id="patch_13">
		<g>
			<g>
				<defs>
					<rect id="SVGID_00000094605316993208158170000001371514596312618635_" x="10.8" y="25.9" width="385.9" height="209.4"/>
				</defs>
				<clipPath id="SVGID_00000106854139240467454480000000762110963795019674_">
					<use xlink:href="#SVGID_00000094605316993208158170000001371514596312618635_"  style="overflow:visible;"/>
				</clipPath>
				
					<path style="clip-path:url(#SVGID_00000106854139240467454480000000762110963795019674_);fill:none;stroke:#000000;stroke-linecap:round;stroke-linejoin:round;" d="
					M138.1,201.1c13.4-40.8,26.7-81.3,39.8-121.4"/>
			</g>
		</g>
		<g>
			<g>
				<defs>
					<rect id="SVGID_00000124123483035825377830000005288663555412507304_" x="10.8" y="25.9" width="385.9" height="209.4"/>
				</defs>
				<clipPath id="SVGID_00000093153593878245137640000010250646311013653407_">
					<use xlink:href="#SVGID_00000124123483035825377830000005288663555412507304_"  style="overflow:visible;"/>
				</clipPath>
				
					<path style="clip-path:url(#SVGID_00000093153593878245137640000010250646311013653407_);stroke:#000000;stroke-linecap:round;stroke-linejoin:round;" d="
					M174.8,82.8l3.1-3.2l0.7,4.4L174.8,82.8z"/>
			</g>
		</g>
	</g>
	<g id="patch_14">
		<g>
			<g>
				<defs>
					<rect id="SVGID_00000150813807401987928960000010168449182187280039_" x="10.8" y="25.9" width="385.9" height="209.4"/>
				</defs>
				<clipPath id="SVGID_00000140009321417021639580000002788380491615152317_">
					<use xlink:href="#SVGID_00000150813807401987928960000010168449182187280039_"  style="overflow:visible;"/>
				</clipPath>
				
					<path style="clip-path:url(#SVGID_00000140009321417021639580000002788380491615152317_);fill:none;stroke:#000000;stroke-linecap:round;stroke-linejoin:round;" d="
					M142.6,204.5c25.6-16.9,50.8-33.6,75.7-50.1"/>
			</g>
		</g>
		<g>
			<g>
				<defs>
					<rect id="SVGID_00000088848557284975431940000001842859149484766094_" x="10.8" y="25.9" width="385.9" height="209.4"/>
				</defs>
				<clipPath id="SVGID_00000156566043548356584950000012528262728327257273_">
					<use xlink:href="#SVGID_00000088848557284975431940000001842859149484766094_"  style="overflow:visible;"/>
				</clipPath>
				
					<path style="clip-path:url(#SVGID_00000156566043548356584950000012528262728327257273_);stroke:#000000;stroke-linecap:round;stroke-linejoin:round;" d="
					M213.9,154.9l4.4-0.5l-2.2,3.9L213.9,154.9z"/>
			</g>
		</g>
	</g>
	<g id="patch_15">
		<g>
			<g>
				<defs>
					<rect id="SVGID_00000156564486794161333580000016206812764686879414_" x="10.8" y="25.9" width="385.9" height="209.4"/>
				</defs>
				<clipPath id="SVGID_00000129914802462075308150000008543181939578387123_">
					<use xlink:href="#SVGID_00000156564486794161333580000016206812764686879414_"  style="overflow:visible;"/>
				</clipPath>
				
					<path style="clip-path:url(#SVGID_00000129914802462075308150000008543181939578387123_);fill:none;stroke:#000000;stroke-linecap:round;stroke-linejoin:round;" d="
					M172.4,208.5c2.7-43.2,5.3-86,8-128.4"/>
			</g>
		</g>
		<g>
			<g>
				<defs>
					<rect id="SVGID_00000083777840336799037610000008157969801450554525_" x="10.8" y="25.9" width="385.9" height="209.4"/>
				</defs>
				<clipPath id="SVGID_00000142879732029746493220000014145489049335290815_">
					<use xlink:href="#SVGID_00000083777840336799037610000008157969801450554525_"  style="overflow:visible;"/>
				</clipPath>
				
					<path style="clip-path:url(#SVGID_00000142879732029746493220000014145489049335290815_);stroke:#000000;stroke-linecap:round;stroke-linejoin:round;" d="
					M178.1,83.9l2.2-3.9l1.7,4.1L178.1,83.9z"/>
			</g>
		</g>
	</g>
	<g id="patch_16">
		<g>
			<g>
				<defs>
					<rect id="SVGID_00000034065500846362606960000004142921181105851522_" x="10.8" y="25.9" width="385.9" height="209.4"/>
				</defs>
				<clipPath id="SVGID_00000089544379142154805660000014313798849398428601_">
					<use xlink:href="#SVGID_00000034065500846362606960000004142921181105851522_"  style="overflow:visible;"/>
				</clipPath>
				
					<path style="clip-path:url(#SVGID_00000089544379142154805660000014313798849398428601_);fill:none;stroke:#000000;stroke-linecap:round;stroke-linejoin:round;" d="
					M177.3,210.4c14.6-18.2,29-36.1,43.1-53.8"/>
			</g>
		</g>
		<g>
			<g>
				<defs>
					<rect id="SVGID_00000047769263608067767210000000635833575852714907_" x="10.8" y="25.9" width="385.9" height="209.4"/>
				</defs>
				<clipPath id="SVGID_00000099651800243874117350000000522234331390838185_">
					<use xlink:href="#SVGID_00000047769263608067767210000000635833575852714907_"  style="overflow:visible;"/>
				</clipPath>
				
					<path style="clip-path:url(#SVGID_00000099651800243874117350000000522234331390838185_);stroke:#000000;stroke-linecap:round;stroke-linejoin:round;" d="
					M216.4,158.5l4.1-1.9l-0.9,4.4L216.4,158.5z"/>
			</g>
		</g>
	</g>
	<g id="patch_17">
		<g>
			<g>
				<defs>
					<rect id="SVGID_00000100369740337597010540000014448333369509772206_" x="10.8" y="25.9" width="385.9" height="209.4"/>
				</defs>
				<clipPath id="SVGID_00000124881128653186369100000015365669585932801213_">
					<use xlink:href="#SVGID_00000100369740337597010540000014448333369509772206_"  style="overflow:visible;"/>
				</clipPath>
				
					<path style="clip-path:url(#SVGID_00000124881128653186369100000015365669585932801213_);fill:none;stroke:#000000;stroke-linecap:round;stroke-linejoin:round;" d="
					M310.2,197.1c-25.4-14.6-50.4-29-75.1-43.2"/>
			</g>
		</g>
		<g>
			<g>
				<defs>
					<rect id="SVGID_00000173119758480831757810000002656873256295945915_" x="10.8" y="25.9" width="385.9" height="209.4"/>
				</defs>
				<clipPath id="SVGID_00000010301398762533149530000005957181388547935641_">
					<use xlink:href="#SVGID_00000173119758480831757810000002656873256295945915_"  style="overflow:visible;"/>
				</clipPath>
				
					<path style="clip-path:url(#SVGID_00000010301398762533149530000005957181388547935641_);stroke:#000000;stroke-linecap:round;stroke-linejoin:round;" d="
					M237.5,157.6l-2.5-3.7l4.5,0.3L237.5,157.6z"/>
			</g>
		</g>
	</g>
	<g id="patch_18">
		<g>
			<g>
				<defs>
					<rect id="SVGID_00000034808343778330766000000017425556445299916436_" x="10.8" y="25.9" width="385.9" height="209.4"/>
				</defs>
				<clipPath id="SVGID_00000116209826317839806700000003950800334280357798_">
					<use xlink:href="#SVGID_00000034808343778330766000000017425556445299916436_"  style="overflow:visible;"/>
				</clipPath>
				
					<path style="clip-path:url(#SVGID_00000116209826317839806700000003950800334280357798_);fill:none;stroke:#000000;stroke-linecap:round;stroke-linejoin:round;" d="
					M332.3,185.5c-32.5-11.2-64.7-22.3-96.5-33.3"/>
			</g>
		</g>
		<g>
			<g>
				<defs>
					<rect id="SVGID_00000152971213858051415910000000319282562601885878_" x="10.8" y="25.9" width="385.9" height="209.4"/>
				</defs>
				<clipPath id="SVGID_00000082362583792433060560000003913332292630307763_">
					<use xlink:href="#SVGID_00000152971213858051415910000000319282562601885878_"  style="overflow:visible;"/>
				</clipPath>
				
					<path style="clip-path:url(#SVGID_00000082362583792433060560000003913332292630307763_);stroke:#000000;stroke-linecap:round;stroke-linejoin:round;" d="
					M238.9,155.4l-3.1-3.2l4.4-0.6L238.9,155.4z"/>
			</g>
		</g>
	</g>
	<g id="PathCollection_1">
		<g>
			<g>
				<defs>
					<rect id="SVGID_00000120548812138252987020000003111387822946856091_" x="10.8" y="25.9" width="385.9" height="209.4"/>
				</defs>
				<clipPath id="SVGID_00000172429323759132264450000011552929979860686508_">
					<use xlink:href="#SVGID_00000120548812138252987020000003111387822946856091_"  style="overflow:visible;"/>
				</clipPath>
				<g style="clip-path:url(#SVGID_00000172429323759132264450000011552929979860686508_);">
					<g>
						<path id="C0_0_661754849a" class="st36" d="M181,78.2c2.1,0,4.1-0.8,5.6-2.3s2.3-3.5,2.3-5.6s-0.8-4.1-2.3-5.6
							s-3.5-2.3-5.6-2.3s-4.1,0.8-5.6,2.3s-2.3,3.5-2.3,5.6s0.8,4.1,2.3,5.6S178.9,78.2,181,78.2z"/>
					</g>
				</g>
			</g>
		</g>
		<g>
			<g>
				<defs>
					<rect id="SVGID_00000165943464688913629780000003652121432290760597_" x="10.8" y="25.9" width="385.9" height="209.4"/>
				</defs>
				<clipPath id="SVGID_00000047061353186962442030000014842982800906805164_">
					<use xlink:href="#SVGID_00000165943464688913629780000003652121432290760597_"  style="overflow:visible;"/>
				</clipPath>
				<g style="clip-path:url(#SVGID_00000047061353186962442030000014842982800906805164_);">
					<g>
						<path id="C0_0_661754849a_00000145060195338769514540000017253884716765506484_" class="st38" d="M363.2,52
							c2.1,0,4.1-0.8,5.6-2.3s2.3-3.5,2.3-5.6s-0.8-4.1-2.3-5.6s-3.5-2.3-5.6-2.3s-4.1,0.8-5.6,2.3s-2.3,3.5-2.3,5.6
							s0.8,4.1,2.3,5.6S361.1,52,363.2,52z"/>
					</g>
				</g>
			</g>
		</g>
		<g>
			<g>
				<defs>
					<rect id="SVGID_00000003787409338675627970000011603646066993142437_" x="10.8" y="25.9" width="385.9" height="209.4"/>
				</defs>
				<clipPath id="SVGID_00000167373619504093286800000011877910646566553002_">
					<use xlink:href="#SVGID_00000003787409338675627970000011603646066993142437_"  style="overflow:visible;"/>
				</clipPath>
				<g style="clip-path:url(#SVGID_00000167373619504093286800000011877910646566553002_);">
					<g>
						<path id="C0_0_661754849a_00000067235896094069426400000004500584391471459205_" class="st40" d="M67.1,143.8
							c2.1,0,4.1-0.8,5.6-2.3s2.3-3.5,2.3-5.6s-0.8-4.1-2.3-5.6s-3.5-2.3-5.6-2.3s-4.1,0.8-5.6,2.3s-2.3,3.5-2.3,5.6
							s0.8,4.1,2.3,5.6C63,142.9,65,143.8,67.1,143.8z"/>
					</g>
				</g>
			</g>
		</g>
		<g>
			<g>
				<defs>
					<rect id="SVGID_00000131365136681520900160000012553138482503643011_" x="10.8" y="25.9" width="385.9" height="209.4"/>
				</defs>
				<clipPath id="SVGID_00000122713630935698751510000003038474800916968629_">
					<use xlink:href="#SVGID_00000131365136681520900160000012553138482503643011_"  style="overflow:visible;"/>
				</clipPath>
				<g style="clip-path:url(#SVGID_00000122713630935698751510000003038474800916968629_);">
					<g>
						<path id="C0_0_661754849a_00000127739649972606278400000001509850574508925355_" class="st42" d="M44.3,52
							c2.1,0,4.1-0.8,5.6-2.3s2.3-3.5,2.3-5.6s-0.8-4.1-2.3-5.6s-3.5-2.3-5.6-2.3s-4.1,0.8-5.6,2.3s-2.3,3.5-2.3,5.6
							s0.8,4.1,2.3,5.6S42.2,52,44.3,52z"/>
					</g>
				</g>
			</g>
		</g>
		<g>
			<g>
				<defs>
					<rect id="SVGID_00000024687043922024783020000018115946069280794006_" x="10.8" y="25.9" width="385.9" height="209.4"/>
				</defs>
				<clipPath id="SVGID_00000026855275800085307510000011469326336049570450_">
					<use xlink:href="#SVGID_00000024687043922024783020000018115946069280794006_"  style="overflow:visible;"/>
				</clipPath>
				<g style="clip-path:url(#SVGID_00000026855275800085307510000011469326336049570450_);">
					<g>
						<path id="C0_0_661754849a_00000000928699138606162270000002552249760710262200_" class="st44" d="M226.5,156.9
							c2.1,0,4.1-0.8,5.6-2.3s2.3-3.5,2.3-5.6s-0.8-4.1-2.3-5.6s-3.5-2.3-5.6-2.3s-4.1,0.8-5.6,2.3s-2.3,3.5-2.3,5.6
							s0.8,4.1,2.3,5.6S224.4,156.9,226.5,156.9z"/>
					</g>
				</g>
			</g>
		</g>
		<g>
			<g>
				<defs>
					<rect id="SVGID_00000018211423342105203070000010143070824411444918_" x="10.8" y="25.9" width="385.9" height="209.4"/>
				</defs>
				<clipPath id="SVGID_00000177469630619870763100000017460412750592796044_">
					<use xlink:href="#SVGID_00000018211423342105203070000010143070824411444918_"  style="overflow:visible;"/>
				</clipPath>
				<g style="clip-path:url(#SVGID_00000177469630619870763100000017460412750592796044_);">
					<g>
						<path id="C0_0_661754849a_00000036242334078227937570000016579579285704828094_" class="st40" d="M363.2,156.9
							c2.1,0,4.1-0.8,5.6-2.3s2.3-3.5,2.3-5.6s-0.8-4.1-2.3-5.6s-3.5-2.3-5.6-2.3s-4.1,0.8-5.6,2.3s-2.3,3.5-2.3,5.6
							s0.8,4.1,2.3,5.6C359.1,156,361.1,156.9,363.2,156.9z"/>
					</g>
				</g>
			</g>
		</g>
		<g>
			<g>
				<defs>
					<rect id="SVGID_00000158009583220187645170000017684977891033462424_" x="10.8" y="25.9" width="385.9" height="209.4"/>
				</defs>
				<clipPath id="SVGID_00000008844511130930565800000017831919060217798807_">
					<use xlink:href="#SVGID_00000158009583220187645170000017684977891033462424_"  style="overflow:visible;"/>
				</clipPath>
				<g style="clip-path:url(#SVGID_00000008844511130930565800000017831919060217798807_);">
					<g>
						<path id="C0_0_661754849a_00000127753450724904998880000008526831475384325520_" class="st38" d="M99,209.3
							c2.1,0,4.1-0.8,5.6-2.3s2.3-3.5,2.3-5.6s-0.8-4.1-2.3-5.6s-3.5-2.3-5.6-2.3s-4.1,0.8-5.6,2.3s-2.3,3.5-2.3,5.6
							s0.8,4.1,2.3,5.6S96.9,209.3,99,209.3z"/>
					</g>
				</g>
			</g>
		</g>
		<g>
			<g>
				<defs>
					<rect id="SVGID_00000047772315109990129050000016197339708216901302_" x="10.8" y="25.9" width="385.9" height="209.4"/>
				</defs>
				<clipPath id="SVGID_00000136376186741260173410000007860926888910920609_">
					<use xlink:href="#SVGID_00000047772315109990129050000016197339708216901302_"  style="overflow:visible;"/>
				</clipPath>
				<g style="clip-path:url(#SVGID_00000136376186741260173410000007860926888910920609_);">
					<g>
						<path id="C0_0_661754849a_00000031166156416002485860000006717413728869398717_" class="st38" d="M135.4,217.2
							c2.1,0,4.1-0.8,5.6-2.3s2.3-3.5,2.3-5.6s-0.8-4.1-2.3-5.6s-3.5-2.3-5.6-2.3s-4.1,0.8-5.6,2.3s-2.3,3.5-2.3,5.6
							s0.8,4.1,2.3,5.6S133.3,217.2,135.4,217.2z"/>
					</g>
				</g>
			</g>
		</g>
		<g>
			<g>
				<defs>
					<rect id="SVGID_00000096738291733198347710000011993286970366554540_" x="10.8" y="25.9" width="385.9" height="209.4"/>
				</defs>
				<clipPath id="SVGID_00000088108976235623569310000012669370509037372078_">
					<use xlink:href="#SVGID_00000096738291733198347710000011993286970366554540_"  style="overflow:visible;"/>
				</clipPath>
				<g style="clip-path:url(#SVGID_00000088108976235623569310000012669370509037372078_);">
					<g>
						<path id="C0_0_661754849a_00000065768218004534522430000017596464124630385841_" class="st38" d="M171.9,225.1
							c2.1,0,4.1-0.8,5.6-2.3s2.3-3.5,2.3-5.6s-0.8-4.1-2.3-5.6s-3.5-2.3-5.6-2.3s-4.1,0.8-5.6,2.3s-2.3,3.5-2.3,5.6
							s0.8,4.1,2.3,5.6S169.8,225.1,171.9,225.1z"/>
					</g>
				</g>
			</g>
		</g>
		<g>
			<g>
				<defs>
					<rect id="SVGID_00000026132009391388027820000016905482101666196388_" x="10.8" y="25.9" width="385.9" height="209.4"/>
				</defs>
				<clipPath id="SVGID_00000088823552049184472810000017220065144198397361_">
					<use xlink:href="#SVGID_00000026132009391388027820000016905482101666196388_"  style="overflow:visible;"/>
				</clipPath>
				<g style="clip-path:url(#SVGID_00000088823552049184472810000017220065144198397361_);">
					<g>
						<path id="C0_0_661754849a_00000059268443001436378260000008847522209202218126_" class="st38" d="M317.7,209.3
							c2.1,0,4.1-0.8,5.6-2.3s2.3-3.5,2.3-5.6s-0.8-4.1-2.3-5.6s-3.5-2.3-5.6-2.3s-4.1,0.8-5.6,2.3s-2.3,3.5-2.3,5.6
							s0.8,4.1,2.3,5.6S315.6,209.3,317.7,209.3z"/>
					</g>
				</g>
			</g>
		</g>
		<g>
			<g>
				<defs>
					<rect id="SVGID_00000048462491427099989780000006538774514267484058_" x="10.8" y="25.9" width="385.9" height="209.4"/>
				</defs>
				<clipPath id="SVGID_00000164474530332588173210000007628902951566886031_">
					<use xlink:href="#SVGID_00000048462491427099989780000006538774514267484058_"  style="overflow:visible;"/>
				</clipPath>
				<g style="clip-path:url(#SVGID_00000164474530332588173210000007628902951566886031_);">
					<g>
						<path id="C0_0_661754849a_00000025418501481133227100000017008258729514952125_" class="st38" d="M340.4,196.2
							c2.1,0,4.1-0.8,5.6-2.3s2.3-3.5,2.3-5.6s-0.8-4.1-2.3-5.6s-3.5-2.3-5.6-2.3s-4.1,0.8-5.6,2.3s-2.3,3.5-2.3,5.6
							s0.8,4.1,2.3,5.6S338.4,196.2,340.4,196.2z"/>
					</g>
				</g>
			</g>
		</g>
	</g>
	<g id="text_1">
		<g transform="translate(128.796563 19.918125)scale(0.12 -0.12)">
			<g>
				<path id="DejaVuSans-68" d="M19.7,64.8V8.1h11.9c10.1,0,17.4,2.3,22.1,6.8c4.7,4.6,7,11.8,7,21.6s-2.3,16.9-7,21.5
					s-12,6.8-22.1,6.8H19.7z M9.8,72.9h20.3c14.1,0,24.5-2.9,31.1-8.8s9.9-15.1,9.9-27.6c0-12.6-3.3-21.8-10-27.7
					c-6.6-5.9-17-8.8-31-8.8H9.8V72.9z"/>
			</g>
			<g>
				<path id="DejaVuSans-105" d="M86.4,54.7h9V0h-9V54.7z M86.4,76h9V64.6h-9V76z"/>
			</g>
			<g>
				<path id="DejaVuSans-71" d="M164.3,10.4V30h-16.1v8.1h25.9V6.8c-3.8-2.7-8-4.7-12.6-6.1s-9.5-2.1-14.7-2.1
					c-11.4,0-20.3,3.3-26.8,10c-6.4,6.7-9.6,15.9-9.6,27.8s3.2,21.2,9.6,27.9c6.4,6.7,15.4,10,26.8,10c4.8,0,9.3-0.6,13.5-1.8
					c4.3-1.2,8.2-2.9,11.8-5.2V56.8c-3.6,3.1-7.5,5.4-11.6,7c-4.1,1.6-8.4,2.3-12.9,2.3c-8.9,0-15.6-2.5-20.1-7.5
					s-6.7-12.4-6.7-22.3c0-9.8,2.2-17.2,6.7-22.2c4.5-5,11.2-7.5,20.1-7.5c3.5,0,6.6,0.3,9.3,0.9C159.7,8.2,162.1,9.1,164.3,10.4z"
					/>
			</g>
			<g>
				<path id="DejaVuSans-114" d="M223.4,46.3c-1,0.6-2.1,1-3.3,1.3s-2.5,0.4-3.9,0.4c-5.1,0-9-1.7-11.7-5s-4.1-8-4.1-14.2V0h-9v54.7
					h9v-8.5c1.9,3.3,4.4,5.8,7.4,7.4c3,1.6,6.7,2.4,11,2.4c0.6,0,1.3,0,2-0.1c0.8-0.1,1.6-0.2,2.5-0.4L223.4,46.3z"/>
			</g>
			<g>
				<path id="DejaVuSans-97" d="M257.7,27.5c-7.3,0-12.3-0.8-15.1-2.5s-4.2-4.5-4.2-8.5c0-3.2,1.1-5.7,3.2-7.6
					c2.1-1.9,5-2.8,8.6-2.8c5,0,9,1.8,12,5.3s4.5,8.2,4.5,14.1v2H257.7z M275.6,31.2V0h-9v8.3c-2-3.3-4.6-5.8-7.7-7.3
					s-6.8-2.4-11.2-2.4c-5.6,0-10,1.6-13.4,4.7c-3.3,3.1-5,7.4-5,12.6c0,6.1,2.1,10.8,6.2,13.9c4.1,3.1,10.3,4.7,18.4,4.7h12.6v0.9
					c0,4.1-1.4,7.3-4.1,9.6s-6.5,3.4-11.5,3.4c-3.1,0-6.2-0.4-9.1-1.1c-3-0.8-5.8-1.9-8.5-3.4v8.3c3.3,1.3,6.5,2.2,9.6,2.8
					s6.1,1,9,1c7.9,0,13.8-2.1,17.7-6.2C273.6,45.7,275.6,39.5,275.6,31.2z"/>
			</g>
			<g>
				<path id="DejaVuSans-112" d="M302.8,8.2v-29h-9v75.5h9v-8.3c1.9,3.2,4.3,5.7,7.2,7.2c2.9,1.6,6.3,2.4,10.3,2.4
					c6.6,0,12-2.6,16.2-7.9s6.2-12.2,6.2-20.8s-2.1-15.5-6.2-20.8s-9.5-7.9-16.2-7.9c-4,0-7.4,0.8-10.3,2.4
					C307.1,2.5,304.7,5,302.8,8.2z M333.4,27.3c0,6.6-1.4,11.8-4.1,15.5s-6.5,5.6-11.2,5.6c-4.8,0-8.5-1.9-11.2-5.6
					s-4.1-8.9-4.1-15.5s1.4-11.8,4.1-15.5s6.5-5.6,11.2-5.6c4.8,0,8.5,1.9,11.2,5.6S333.4,20.7,333.4,27.3z"/>
			</g>
			<g>
				<path id="DejaVuSans-104" d="M403,33V0h-9v32.7c0,5.2-1,9-3,11.6c-2,2.6-5,3.9-9.1,3.9c-4.9,0-8.7-1.5-11.5-4.6
					s-4.2-7.3-4.2-12.6V0h-9v76h9V46.2c2.2,3.3,4.7,5.8,7.6,7.4c2.9,1.6,6.3,2.4,10.1,2.4c6.3,0,11-1.9,14.2-5.8
					C401.4,46.3,403,40.6,403,33z"/>
			</g>
			<g>
				<path id="DejaVuSans-32" d="M411.5,0"/>
			</g>
			<g>
				<path id="DejaVuSans-72" d="M453.1,72.9h9.9V43h35.8v29.9h9.9V0h-9.9v34.7H463V0h-9.9V72.9z"/>
			</g>
			<g>
				<path id="DejaVuSans-73" d="M528.3,72.9h9.9V0h-9.9V72.9z"/>
			</g>
			<g>
				<path id="DejaVuSans-84" d="M547.7,72.9h61.7v-8.3h-25.9V0h-9.9v64.6h-25.9C547.7,64.6,547.7,72.9,547.7,72.9z"/>
			</g>
			<g>
				<path id="DejaVuSans-83" d="M662.6,70.5v-9.6c-3.7,1.8-7.3,3.1-10.6,4c-3.3,0.9-6.5,1.3-9.6,1.3c-5.4,0-9.5-1-12.4-3.1
					c-2.9-2.1-4.4-5-4.4-8.9c0-3.2,1-5.7,2.9-7.3s5.6-3,11-4l6-1.2c7.4-1.4,12.8-3.9,16.3-7.4S667,26,667,20.1
					c0-7.1-2.4-12.4-7.1-16.1c-4.7-3.6-11.7-5.5-20.8-5.5c-3.4,0-7.1,0.4-11,1.2s-7.9,1.9-12.1,3.5v10.2c4-2.2,7.9-3.9,11.8-5.1
					c3.8-1.1,7.6-1.7,11.3-1.7c5.6,0,10,1.1,13,3.3c3.1,2.2,4.6,5.4,4.6,9.5c0,3.6-1.1,6.4-3.3,8.4s-5.8,3.5-10.8,4.5l-6,1.2
					c-7.4,1.5-12.7,3.8-16,6.9c-3.3,3.1-4.9,7.5-4.9,13c0,6.4,2.3,11.5,6.8,15.2s10.8,5.6,18.8,5.6c3.4,0,6.9-0.3,10.5-0.9
					C655.3,72.7,658.9,71.7,662.6,70.5z"/>
			</g>
			<g>
				<path id="DejaVuSans-32_00000160187143912618366610000006853983915559040897_" d="M672.6,0"/>
			</g>
			<g>
				<path id="DejaVuSans-65" d="M738.5,63.2l-13.4-36.3H752L738.5,63.2z M733,72.9h11.2L771.9,0h-10.2L755,18.7h-32.9L715.5,0h-10.4
					L733,72.9z"/>
			</g>
			<g>
				<path id="DejaVuSans-117" d="M781.3,21.6v33.1h9V21.9c0-5.2,1-9.1,3-11.7s5.1-3.9,9.1-3.9c4.8,0,8.7,1.5,11.5,4.6
					s4.2,7.3,4.2,12.7v31h9V0h-9v8.4c-2.2-3.3-4.7-5.8-7.6-7.4c-2.9-1.6-6.2-2.4-10-2.4c-6.3,0-11.1,2-14.3,5.9
					C782.9,8.3,781.3,14.1,781.3,21.6z"/>
			</g>
			<g>
				<path id="DejaVuSans-116" d="M854.4,70.2V54.7h18.5v-7h-18.5V18c0-4.5,0.6-7.3,1.8-8.6s3.7-1.9,7.5-1.9h9.2V0h-9.2
					c-6.9,0-11.7,1.3-14.4,3.9c-2.6,2.6-4,7.3-4,14.1v29.7h-6.6v7h6.6v15.5H854.4z"/>
			</g>
			<g>
				<path id="DejaVuSans-104_00000060749903388286634740000014627020827652064166_" d="M930.2,33V0h-9v32.7c0,5.2-1,9-3,11.6
					c-2,2.6-5,3.9-9.1,3.9c-4.9,0-8.7-1.5-11.5-4.6s-4.2-7.3-4.2-12.6V0h-9v76h9V46.2c2.2,3.3,4.7,5.8,7.6,7.4
					c2.9,1.6,6.3,2.4,10.1,2.4c6.3,0,11-1.9,14.2-5.8C928.6,46.3,930.2,40.6,930.2,33z"/>
			</g>
			<g>
				<path id="DejaVuSans-111" d="M969.3,48.4c-4.8,0-8.6-1.9-11.4-5.6c-2.8-3.8-4.2-8.9-4.2-15.5s1.4-11.7,4.2-15.5
					s6.6-5.6,11.5-5.6c4.8,0,8.6,1.9,11.4,5.7c2.8,3.8,4.2,8.9,4.2,15.4s-1.4,11.6-4.2,15.4C977.9,46.5,974.1,48.4,969.3,48.4z
					 M969.3,56c7.8,0,13.9-2.5,18.4-7.6s6.7-12.1,6.7-21.1c0-8.9-2.2-16-6.7-21.1s-10.6-7.6-18.4-7.6c-7.8,0-14,2.5-18.4,7.6
					s-6.7,12.1-6.7,21.1s2.2,16,6.7,21.1C955.3,53.5,961.5,56,969.3,56z"/>
			</g>
			<g>
				<path id="DejaVuSans-114_00000047759144676585160950000010883453473103720589_" d="M1041,46.3c-1,0.6-2.1,1-3.3,1.3
					c-1.2,0.3-2.5,0.4-3.9,0.4c-5.1,0-9-1.7-11.7-5s-4.1-8-4.1-14.2V0h-9v54.7h9v-8.5c1.9,3.3,4.4,5.8,7.4,7.4c3,1.6,6.7,2.4,11,2.4
					c0.6,0,1.3,0,2-0.1c0.8-0.1,1.6-0.2,2.5-0.4L1041,46.3z"/>
			</g>
			<g>
				<path id="DejaVuSans-105_00000040542612089953055120000012326815560284690820_" d="M1050.4,54.7h9V0h-9V54.7z M1050.4,76h9V64.6
					h-9V76z"/>
			</g>
			<g>
				<path id="DejaVuSans-116_00000090282364522834183000000001912414101448517514_" d="M1087.1,70.2V54.7h18.5v-7h-18.5V18
					c0-4.5,0.6-7.3,1.8-8.6s3.7-1.9,7.5-1.9h9.2V0h-9.2c-6.9,0-11.7,1.3-14.4,3.9c-2.6,2.6-4,7.3-4,14.1v29.7h-6.6v7h6.6v15.5
					H1087.1z"/>
			</g>
			<g>
				<path id="DejaVuSans-105_00000093148643099810055840000001695300821825248701_" d="M1117.4,54.7h9V0h-9V54.7z M1117.4,76h9V64.6
					h-9V76z"/>
			</g>
			<g>
				<path id="DejaVuSans-101" d="M1192,29.6v-4.4h-41.3c0.4-6.2,2.3-10.9,5.6-14.1c3.3-3.2,8-4.9,13.9-4.9c3.4,0,6.8,0.4,10,1.3
					c3.2,0.8,6.5,2.1,9.7,3.8V2.8c-3.2-1.4-6.5-2.4-9.9-3.1s-6.8-1.1-10.3-1.1c-8.7,0-15.6,2.5-20.7,7.6s-7.6,12-7.6,20.6
					c0,8.9,2.4,16,7.2,21.3c4.8,5.3,11.4,7.9,19.6,7.9c7.4,0,13.2-2.4,17.5-7.1C1189.9,44.2,1192,37.7,1192,29.6z M1183,32.2
					c-0.1,4.9-1.4,8.8-4.1,11.8c-2.7,2.9-6.2,4.4-10.7,4.4c-5,0-9-1.4-12-4.2s-4.7-6.8-5.2-12H1183z"/>
			</g>
			<g>
				<path id="DejaVuSans-115" d="M1241.6,53.1v-8.5c-2.5,1.3-5.2,2.3-7.9,2.9c-2.7,0.7-5.6,1-8.5,1c-4.5,0-7.8-0.7-10-2
					c-2.2-1.4-3.3-3.4-3.3-6.2c0-2.1,0.8-3.7,2.4-4.9s4.8-2.3,9.6-3.4l3.1-0.7c6.4-1.4,10.9-3.3,13.6-5.8s4-6,4-10.4
					c0-5.1-2-9.1-6-12.1s-9.5-4.4-16.6-4.4c-2.9,0-6,0.3-9.2,0.9s-6.5,1.4-10,2.6v9.3c3.3-1.7,6.6-3,9.8-3.9
					c3.2-0.9,6.4-1.3,9.6-1.3c4.2,0,7.5,0.7,9.8,2.2c2.3,1.4,3.4,3.5,3.4,6.1c0,2.4-0.8,4.3-2.5,5.6c-1.6,1.3-5.2,2.6-10.8,3.8
					l-3.1,0.7c-5.6,1.2-9.6,3-12.1,5.4s-3.7,5.8-3.7,10c0,5.1,1.8,9.1,5.5,11.9c3.6,2.8,8.8,4.2,15.5,4.2c3.3,0,6.4-0.2,9.4-0.7
					C1236.4,54.8,1239.1,54.1,1241.6,53.1z"/>
			</g>
		</g>
	</g>
</g>
<g id="patch_19">
	<g>
		<g>
			<defs>
				<rect id="SVGID_00000083800567827646911960000013981324900582484638_" x="420.8" y="25.9" width="10.5" height="209.4"/>
			</defs>
			<clipPath id="SVGID_00000063612198733302866170000010694361110283019708_">
				<use xlink:href="#SVGID_00000083800567827646911960000013981324900582484638_"  style="overflow:visible;"/>
			</clipPath>
			
				<path style="clip-path:url(#SVGID_00000063612198733302866170000010694361110283019708_);fill:#FFFFFF;stroke:#FFFFFF;stroke-width:1.000000e-02;" d="
				M420.8,235.3v-0.8V26.7v-0.8h10.5v0.8v207.8v0.8H420.8z"/>
		</g>
	</g>
</g>
</svg>
