<?xml version="1.0" encoding="utf-8"?>
<!-- Generator: Adobe Illustrator 26.0.2, SVG Export Plug-In . SVG Version: 6.00 Build 0)  -->
<svg version="1.1" id="Layer_1" xmlns="http://www.w3.org/2000/svg" xmlns:xlink="http://www.w3.org/1999/xlink" x="0px" y="0px"
	 viewBox="0 0 504 252" style="enable-background:new 0 0 504 252;" xml:space="preserve">
<style type="text/css">
	.st0{fill:none;}
	
		.st1{clip-path:url(#SVGID_00000087381556088743908880000002142232967600177312_);fill:none;stroke:#000000;stroke-linecap:round;stroke-linejoin:round;}
	
		.st2{clip-path:url(#SVGID_00000138548435125321560630000002131283126537494187_);stroke:#000000;stroke-linecap:round;stroke-linejoin:round;}
	
		.st3{clip-path:url(#SVGID_00000048502855462461161290000014785934004028382869_);fill:none;stroke:#000000;stroke-linecap:round;stroke-linejoin:round;}
	
		.st4{clip-path:url(#SVGID_00000104680580001882868220000009603307057947008177_);stroke:#000000;stroke-linecap:round;stroke-linejoin:round;}
	
		.st5{clip-path:url(#SVGID_00000173860261254837257400000004341910102150923392_);fill:none;stroke:#000000;stroke-linecap:round;stroke-linejoin:round;}
	
		.st6{clip-path:url(#SVGID_00000031191498066620854050000015451021038787967108_);stroke:#000000;stroke-linecap:round;stroke-linejoin:round;}
	
		.st7{clip-path:url(#SVGID_00000115513239377937419900000018395456780244162750_);fill:none;stroke:#000000;stroke-linecap:round;stroke-linejoin:round;}
	
		.st8{clip-path:url(#SVGID_00000176015085133751894840000018275688812130238598_);stroke:#000000;stroke-linecap:round;stroke-linejoin:round;}
	
		.st9{clip-path:url(#SVGID_00000068677268952586923880000013571833858497447834_);fill:none;stroke:#000000;stroke-linecap:round;stroke-linejoin:round;}
	
		.st10{clip-path:url(#SVGID_00000020363353128807810580000006871635768324535460_);stroke:#000000;stroke-linecap:round;stroke-linejoin:round;}
	
		.st11{clip-path:url(#SVGID_00000150790378378160612580000016799123995549972622_);fill:none;stroke:#000000;stroke-linecap:round;stroke-linejoin:round;}
	
		.st12{clip-path:url(#SVGID_00000040562656206513231210000013093309056591791752_);stroke:#000000;stroke-linecap:round;stroke-linejoin:round;}
	
		.st13{clip-path:url(#SVGID_00000086680777301712306810000015009114787124814484_);fill:none;stroke:#000000;stroke-linecap:round;stroke-linejoin:round;}
	
		.st14{clip-path:url(#SVGID_00000043430539914614909630000014769204808007026859_);stroke:#000000;stroke-linecap:round;stroke-linejoin:round;}
	
		.st15{clip-path:url(#SVGID_00000138569329343501500170000015388324470169266574_);fill:none;stroke:#000000;stroke-linecap:round;stroke-linejoin:round;}
	
		.st16{clip-path:url(#SVGID_00000138565683016882476760000012865283894320962209_);stroke:#000000;stroke-linecap:round;stroke-linejoin:round;}
	
		.st17{clip-path:url(#SVGID_00000030477446588897009040000000014744682720137396_);fill:none;stroke:#000000;stroke-linecap:round;stroke-linejoin:round;}
	
		.st18{clip-path:url(#SVGID_00000021839296201866048350000001332272697584130738_);stroke:#000000;stroke-linecap:round;stroke-linejoin:round;}
	
		.st19{clip-path:url(#SVGID_00000161600963319221339900000008761063455943899294_);fill:none;stroke:#000000;stroke-linecap:round;stroke-linejoin:round;}
	
		.st20{clip-path:url(#SVGID_00000080903238478267517270000003143116790438390409_);stroke:#000000;stroke-linecap:round;stroke-linejoin:round;}
	
		.st21{clip-path:url(#SVGID_00000165941108331077879980000009454871850472910000_);fill:none;stroke:#000000;stroke-linecap:round;stroke-linejoin:round;}
	
		.st22{clip-path:url(#SVGID_00000023998305806899287740000010861218887637744051_);stroke:#000000;stroke-linecap:round;stroke-linejoin:round;}
	
		.st23{clip-path:url(#SVGID_00000056399392692094825350000017725777717580612995_);fill:none;stroke:#000000;stroke-linecap:round;stroke-linejoin:round;}
	
		.st24{clip-path:url(#SVGID_00000022526187455414165400000011118464370796313786_);stroke:#000000;stroke-linecap:round;stroke-linejoin:round;}
	
		.st25{clip-path:url(#SVGID_00000112597845582923445950000015081566358480725639_);fill:none;stroke:#000000;stroke-linecap:round;stroke-linejoin:round;}
	
		.st26{clip-path:url(#SVGID_00000160152213828796949730000008393363514165779613_);stroke:#000000;stroke-linecap:round;stroke-linejoin:round;}
	
		.st27{clip-path:url(#SVGID_00000051363473301467750130000002181824605650988974_);fill:none;stroke:#000000;stroke-linecap:round;stroke-linejoin:round;}
	
		.st28{clip-path:url(#SVGID_00000111181138364960264910000018141986210053864333_);stroke:#000000;stroke-linecap:round;stroke-linejoin:round;}
	
		.st29{clip-path:url(#SVGID_00000068652676167123963040000010120617311895484553_);fill:none;stroke:#000000;stroke-linecap:round;stroke-linejoin:round;}
	
		.st30{clip-path:url(#SVGID_00000090284026466724037920000007948575346910047617_);stroke:#000000;stroke-linecap:round;stroke-linejoin:round;}
	
		.st31{clip-path:url(#SVGID_00000062886424495297342060000017872529614673042585_);fill:none;stroke:#000000;stroke-linecap:round;stroke-linejoin:round;}
	
		.st32{clip-path:url(#SVGID_00000052793984411449303100000009515389188037956234_);stroke:#000000;stroke-linecap:round;stroke-linejoin:round;}
	
		.st33{clip-path:url(#SVGID_00000163785575955497996780000017217276989961562298_);fill:none;stroke:#000000;stroke-linecap:round;stroke-linejoin:round;}
	
		.st34{clip-path:url(#SVGID_00000140721381665313395060000017145515970616385441_);stroke:#000000;stroke-linecap:round;stroke-linejoin:round;}
	.st35{clip-path:url(#SVGID_00000171711390814434705300000010727778519821687227_);}
	.st36{fill:#FDE725;stroke:#FDE725;stroke-linejoin:round;}
	.st37{clip-path:url(#SVGID_00000083811867567793836370000015206783438869438655_);}
	.st38{fill:#375A8C;stroke:#375A8C;stroke-linejoin:round;}
	.st39{clip-path:url(#SVGID_00000109713104190383430730000003276259499608008119_);}
	.st40{fill:#3B528B;stroke:#3B528B;stroke-linejoin:round;}
	.st41{clip-path:url(#SVGID_00000129906599766144714610000010460273547245633212_);}
	.st42{fill:#423F85;stroke:#423F85;stroke-linejoin:round;}
	.st43{clip-path:url(#SVGID_00000079485193951325636060000003888951625470427305_);}
	.st44{fill:#7FD34E;stroke:#7FD34E;stroke-linejoin:round;}
	.st45{clip-path:url(#SVGID_00000049939404956272160060000011475490338031915148_);}
	.st46{clip-path:url(#SVGID_00000163033266178877257250000013633390725908379283_);}
	.st47{fill:#440154;stroke:#440154;stroke-linejoin:round;}
	.st48{clip-path:url(#SVGID_00000099662613077864349860000002919522604115719558_);}
	.st49{clip-path:url(#SVGID_00000172424068483954381410000012138045945888106115_);}
	.st50{clip-path:url(#SVGID_00000057858203432784689000000015675260735362744477_);}
	.st51{clip-path:url(#SVGID_00000120519969395335280220000004740191479955857319_);}
</style>
<g id="patch_1">
	<path class="st0" d="M0,252h504V0H0V252z"/>
</g>
<g id="matplotlib.axis_1">
</g>
<g id="axes_1">
	<g id="patch_2">
		<g>
			<g>
				<g>
					<g>
						<defs>
							<rect id="SVGID_1_" x="59.1" y="25.9" width="385.9" height="215.3"/>
						</defs>
						<clipPath id="SVGID_00000101100643036479425510000006486843143910882177_">
							<use xlink:href="#SVGID_1_"  style="overflow:visible;"/>
						</clipPath>
						
							<path style="clip-path:url(#SVGID_00000101100643036479425510000006486843143910882177_);fill:none;stroke:#000000;stroke-linecap:round;stroke-linejoin:round;" d="
							M237.8,70.3c55-8.1,109.7-16.2,164-24.3"/>
					</g>
				</g>
			</g>
		</g>
		<g>
			<g>
				<g>
					<g>
						<defs>
							<rect id="SVGID_00000124855136847891106060000004312552816228685469_" x="59.1" y="25.9" width="385.9" height="215.3"/>
						</defs>
						<clipPath id="SVGID_00000084514052790820135970000014798107654612192699_">
							<use xlink:href="#SVGID_00000124855136847891106060000004312552816228685469_"  style="overflow:visible;"/>
						</clipPath>
						
							<path style="clip-path:url(#SVGID_00000084514052790820135970000014798107654612192699_);stroke:#000000;stroke-linecap:round;stroke-linejoin:round;" d="
							M397.5,44.6l4.2,1.4l-3.7,2.6L397.5,44.6z"/>
					</g>
				</g>
			</g>
		</g>
	</g>
	<g id="patch_3">
		<g>
			<g>
				<g>
					<g>
						<defs>
							<rect id="SVGID_00000045620052636390607220000014592356606640191407_" x="59.1" y="25.9" width="385.9" height="215.3"/>
						</defs>
						<clipPath id="SVGID_00000109716339355111586690000013854469234520129667_">
							<use xlink:href="#SVGID_00000045620052636390607220000014592356606640191407_"  style="overflow:visible;"/>
						</clipPath>
						
							<path style="clip-path:url(#SVGID_00000109716339355111586690000013854469234520129667_);fill:none;stroke:#000000;stroke-linecap:round;stroke-linejoin:round;" d="
							M402.9,45.9c-55,8.1-109.7,16.2-164,24.3"/>
					</g>
				</g>
			</g>
		</g>
		<g>
			<g>
				<g>
					<g>
						<defs>
							<rect id="SVGID_00000022539147349178562040000018412404344211710603_" x="59.1" y="25.9" width="385.9" height="215.3"/>
						</defs>
						<clipPath id="SVGID_00000039109250909973573420000007210481003073397912_">
							<use xlink:href="#SVGID_00000022539147349178562040000018412404344211710603_"  style="overflow:visible;"/>
						</clipPath>
						
							<path style="clip-path:url(#SVGID_00000039109250909973573420000007210481003073397912_);stroke:#000000;stroke-linecap:round;stroke-linejoin:round;" d="
							M243.2,71.5l-4.2-1.4l3.7-2.6L243.2,71.5z"/>
					</g>
				</g>
			</g>
		</g>
	</g>
	<g id="patch_4">
		<g>
			<g>
				<g>
					<g>
						<defs>
							<rect id="SVGID_00000178926352222275794970000005623219889810243982_" x="59.1" y="25.9" width="385.9" height="215.3"/>
						</defs>
						<clipPath id="SVGID_00000165927839917097846080000018118756422738350496_">
							<use xlink:href="#SVGID_00000178926352222275794970000005623219889810243982_"  style="overflow:visible;"/>
						</clipPath>
						
							<path style="clip-path:url(#SVGID_00000165927839917097846080000018118756422738350496_);fill:none;stroke:#000000;stroke-linecap:round;stroke-linejoin:round;" d="
							M113.3,130.5c-6.2-25.8-12.4-51.3-18.5-76.4"/>
					</g>
				</g>
			</g>
		</g>
		<g>
			<g>
				<g>
					<g>
						<defs>
							<rect id="SVGID_00000142862277368218728270000015317994325811699359_" x="59.1" y="25.9" width="385.9" height="215.3"/>
						</defs>
						<clipPath id="SVGID_00000109024656625829377080000016459812127430072718_">
							<use xlink:href="#SVGID_00000142862277368218728270000015317994325811699359_"  style="overflow:visible;"/>
						</clipPath>
						
							<path style="clip-path:url(#SVGID_00000109024656625829377080000016459812127430072718_);stroke:#000000;stroke-linecap:round;stroke-linejoin:round;" d="
							M93.9,58.5l1-4.4l2.9,3.4L93.9,58.5z"/>
					</g>
				</g>
			</g>
		</g>
	</g>
	<g id="patch_5">
		<g>
			<g>
				<g>
					<g>
						<defs>
							<rect id="SVGID_00000121970448797997642350000015699638037586121393_" x="59.1" y="25.9" width="385.9" height="215.3"/>
						</defs>
						<clipPath id="SVGID_00000098197384789165846260000010192703808530630046_">
							<use xlink:href="#SVGID_00000121970448797997642350000015699638037586121393_"  style="overflow:visible;"/>
						</clipPath>
						
							<path style="clip-path:url(#SVGID_00000098197384789165846260000010192703808530630046_);fill:none;stroke:#000000;stroke-linecap:round;stroke-linejoin:round;" d="
							M122.8,134.5c33-19.5,65.7-38.9,98-58"/>
					</g>
				</g>
			</g>
		</g>
		<g>
			<g>
				<g>
					<g>
						<defs>
							<rect id="SVGID_00000049193146838894769880000015669163828673882788_" x="59.1" y="25.9" width="385.9" height="215.3"/>
						</defs>
						<clipPath id="SVGID_00000063600469595721253510000011991421175223216014_">
							<use xlink:href="#SVGID_00000049193146838894769880000015669163828673882788_"  style="overflow:visible;"/>
						</clipPath>
						
							<path style="clip-path:url(#SVGID_00000063600469595721253510000011991421175223216014_);stroke:#000000;stroke-linecap:round;stroke-linejoin:round;" d="
							M216.4,76.9l4.5-0.3l-2.4,3.8L216.4,76.9z"/>
					</g>
				</g>
			</g>
		</g>
	</g>
	<g id="patch_6">
		<g>
			<g>
				<g>
					<g>
						<defs>
							<rect id="SVGID_00000071521695276910562570000000006048163343844997_" x="59.1" y="25.9" width="385.9" height="215.3"/>
						</defs>
						<clipPath id="SVGID_00000182526390800502142240000004676251489522502071_">
							<use xlink:href="#SVGID_00000071521695276910562570000000006048163343844997_"  style="overflow:visible;"/>
						</clipPath>
						
							<path style="clip-path:url(#SVGID_00000182526390800502142240000004676251489522502071_);fill:none;stroke:#000000;stroke-linecap:round;stroke-linejoin:round;" d="
							M270.6,144.9c-12.4-21.9-24.5-43.5-36.5-64.8"/>
					</g>
				</g>
			</g>
		</g>
		<g>
			<g>
				<g>
					<g>
						<defs>
							<rect id="SVGID_00000011032088102077922160000011538835877092252311_" x="59.1" y="25.9" width="385.9" height="215.3"/>
						</defs>
						<clipPath id="SVGID_00000086671902895774186810000012122410813385573308_">
							<use xlink:href="#SVGID_00000011032088102077922160000011538835877092252311_"  style="overflow:visible;"/>
						</clipPath>
						
							<path style="clip-path:url(#SVGID_00000086671902895774186810000012122410813385573308_);stroke:#000000;stroke-linecap:round;stroke-linejoin:round;" d="
							M234.3,84.5l-0.2-4.5l3.7,2.5L234.3,84.5z"/>
					</g>
				</g>
			</g>
		</g>
	</g>
	<g id="patch_7">
		<g>
			<g>
				<g>
					<g>
						<defs>
							<rect id="SVGID_00000169558999333569813480000002467156600964921733_" x="59.1" y="25.9" width="385.9" height="215.3"/>
						</defs>
						<clipPath id="SVGID_00000114063058457565232230000006557302460643240088_">
							<use xlink:href="#SVGID_00000169558999333569813480000002467156600964921733_"  style="overflow:visible;"/>
						</clipPath>
						
							<path style="clip-path:url(#SVGID_00000114063058457565232230000006557302460643240088_);fill:none;stroke:#000000;stroke-linecap:round;stroke-linejoin:round;" d="
							M266.1,151.7c-47.4-4-94.4-8-141.1-11.9"/>
					</g>
				</g>
			</g>
		</g>
		<g>
			<g>
				<g>
					<g>
						<defs>
							<rect id="SVGID_00000154394804561782298370000003490816431816535229_" x="59.1" y="25.9" width="385.9" height="215.3"/>
						</defs>
						<clipPath id="SVGID_00000172413355057579403850000018002646052432206506_">
							<use xlink:href="#SVGID_00000154394804561782298370000003490816431816535229_"  style="overflow:visible;"/>
						</clipPath>
						
							<path style="clip-path:url(#SVGID_00000172413355057579403850000018002646052432206506_);stroke:#000000;stroke-linecap:round;stroke-linejoin:round;" d="
							M128.9,142.1l-3.8-2.3l4.2-1.7L128.9,142.1z"/>
					</g>
				</g>
			</g>
		</g>
	</g>
	<g id="patch_8">
		<g>
			<g>
				<g>
					<g>
						<defs>
							<rect id="SVGID_00000071541384506150799350000014227845450836368574_" x="59.1" y="25.9" width="385.9" height="215.3"/>
						</defs>
						<clipPath id="SVGID_00000092414998691788606230000000247969946401021315_">
							<use xlink:href="#SVGID_00000071541384506150799350000014227845450836368574_"  style="overflow:visible;"/>
						</clipPath>
						
							<path style="clip-path:url(#SVGID_00000092414998691788606230000000247969946401021315_);fill:none;stroke:#000000;stroke-linecap:round;stroke-linejoin:round;" d="
							M283.5,152.4c39.8,0,79.2,0,118.2,0"/>
					</g>
				</g>
			</g>
		</g>
		<g>
			<g>
				<g>
					<g>
						<defs>
							<rect id="SVGID_00000003792947480732259420000009413488316737996222_" x="59.1" y="25.9" width="385.9" height="215.3"/>
						</defs>
						<clipPath id="SVGID_00000147911488155630814800000004390202864986833084_">
							<use xlink:href="#SVGID_00000003792947480732259420000009413488316737996222_"  style="overflow:visible;"/>
						</clipPath>
						
							<path style="clip-path:url(#SVGID_00000147911488155630814800000004390202864986833084_);stroke:#000000;stroke-linecap:round;stroke-linejoin:round;" d="
							M397.6,150.4l4,2l-4,2V150.4z"/>
					</g>
				</g>
			</g>
		</g>
	</g>
	<g id="patch_9">
		<g>
			<g>
				<g>
					<g>
						<defs>
							<rect id="SVGID_00000078730443496587271570000002043952276185905292_" x="59.1" y="25.9" width="385.9" height="215.3"/>
						</defs>
						<clipPath id="SVGID_00000049219753412695920000000001905328316641073292_">
							<use xlink:href="#SVGID_00000078730443496587271570000002043952276185905292_"  style="overflow:visible;"/>
						</clipPath>
						
							<path style="clip-path:url(#SVGID_00000049219753412695920000000001905328316641073292_);fill:none;stroke:#000000;stroke-linecap:round;stroke-linejoin:round;" d="
							M403.5,148.9C348,124.3,292.9,99.8,238.2,75.5"/>
					</g>
				</g>
			</g>
		</g>
		<g>
			<g>
				<g>
					<g>
						<defs>
							<rect id="SVGID_00000047743780852218520030000002737838797640428720_" x="59.1" y="25.9" width="385.9" height="215.3"/>
						</defs>
						<clipPath id="SVGID_00000170983857319245413570000004498944836337416636_">
							<use xlink:href="#SVGID_00000047743780852218520030000002737838797640428720_"  style="overflow:visible;"/>
						</clipPath>
						
							<path style="clip-path:url(#SVGID_00000170983857319245413570000004498944836337416636_);stroke:#000000;stroke-linecap:round;stroke-linejoin:round;" d="
							M241.1,79l-2.8-3.5l4.5-0.2L241.1,79z"/>
					</g>
				</g>
			</g>
		</g>
	</g>
	<g id="patch_10">
		<g>
			<g>
				<g>
					<g>
						<defs>
							<rect id="SVGID_00000047765723031471909560000017226154762118790304_" x="59.1" y="25.9" width="385.9" height="215.3"/>
						</defs>
						<clipPath id="SVGID_00000002348285998959662870000012640102871503272070_">
							<use xlink:href="#SVGID_00000047765723031471909560000017226154762118790304_"  style="overflow:visible;"/>
						</clipPath>
						
							<path style="clip-path:url(#SVGID_00000002348285998959662870000012640102871503272070_);fill:none;stroke:#000000;stroke-linecap:round;stroke-linejoin:round;" d="
							M402.9,152.4c-39.8,0-79.2,0-118.2,0"/>
					</g>
				</g>
			</g>
		</g>
		<g>
			<g>
				<g>
					<g>
						<defs>
							<rect id="SVGID_00000165952596379075358230000005219782846308717233_" x="59.1" y="25.9" width="385.9" height="215.3"/>
						</defs>
						<clipPath id="SVGID_00000008847013920947695820000003243705519605153926_">
							<use xlink:href="#SVGID_00000165952596379075358230000005219782846308717233_"  style="overflow:visible;"/>
						</clipPath>
						
							<path style="clip-path:url(#SVGID_00000008847013920947695820000003243705519605153926_);stroke:#000000;stroke-linecap:round;stroke-linejoin:round;" d="
							M288.6,154.4l-4-2l4-2V154.4z"/>
					</g>
				</g>
			</g>
		</g>
	</g>
	<g id="patch_11">
		<g>
			<g>
				<g>
					<g>
						<defs>
							<rect id="SVGID_00000128453210552588438630000011434339046807620798_" x="59.1" y="25.9" width="385.9" height="215.3"/>
						</defs>
						<clipPath id="SVGID_00000092453328150435620630000014124688477467765378_">
							<use xlink:href="#SVGID_00000128453210552588438630000011434339046807620798_"  style="overflow:visible;"/>
						</clipPath>
						
							<path style="clip-path:url(#SVGID_00000092453328150435620630000014124688477467765378_);fill:none;stroke:#000000;stroke-linecap:round;stroke-linejoin:round;" d="
							M151.8,198.9c24.3-40,48.5-79.7,72.4-119"/>
					</g>
				</g>
			</g>
		</g>
		<g>
			<g>
				<g>
					<g>
						<defs>
							<rect id="SVGID_00000098184706710161012280000010666028474374014354_" x="59.1" y="25.9" width="385.9" height="215.3"/>
						</defs>
						<clipPath id="SVGID_00000064319524575258742610000017201925878973572010_">
							<use xlink:href="#SVGID_00000098184706710161012280000010666028474374014354_"  style="overflow:visible;"/>
						</clipPath>
						
							<path style="clip-path:url(#SVGID_00000064319524575258742610000017201925878973572010_);stroke:#000000;stroke-linecap:round;stroke-linejoin:round;" d="
							M220.4,82.3l3.8-2.4l-0.4,4.5L220.4,82.3z"/>
					</g>
				</g>
			</g>
		</g>
	</g>
	<g id="patch_12">
		<g>
			<g>
				<g>
					<g>
						<defs>
							<rect id="SVGID_00000136390729868565536600000016787871982217148588_" x="59.1" y="25.9" width="385.9" height="215.3"/>
						</defs>
						<clipPath id="SVGID_00000076565622646028020200000013217052357190070952_">
							<use xlink:href="#SVGID_00000136390729868565536600000016787871982217148588_"  style="overflow:visible;"/>
						</clipPath>
						
							<path style="clip-path:url(#SVGID_00000076565622646028020200000013217052357190070952_);fill:none;stroke:#000000;stroke-linecap:round;stroke-linejoin:round;" d="
							M155.2,203c37.2-15.7,74.1-31.3,110.6-46.7"/>
					</g>
				</g>
			</g>
		</g>
		<g>
			<g>
				<g>
					<g>
						<defs>
							<rect id="SVGID_00000131357959527673125270000017059671074360915101_" x="59.1" y="25.9" width="385.9" height="215.3"/>
						</defs>
						<clipPath id="SVGID_00000109731192462282722340000017388946926408368312_">
							<use xlink:href="#SVGID_00000131357959527673125270000017059671074360915101_"  style="overflow:visible;"/>
						</clipPath>
						
							<path style="clip-path:url(#SVGID_00000109731192462282722340000017388946926408368312_);stroke:#000000;stroke-linecap:round;stroke-linejoin:round;" d="
							M261.4,155.9l4.5,0.3l-2.9,3.4L261.4,155.9z"/>
					</g>
				</g>
			</g>
		</g>
	</g>
	<g id="patch_13">
		<g>
			<g>
				<g>
					<g>
						<defs>
							<rect id="SVGID_00000134941686701166120210000014511450999546971064_" x="59.1" y="25.9" width="385.9" height="215.3"/>
						</defs>
						<clipPath id="SVGID_00000062185258847292459710000008303995502266215567_">
							<use xlink:href="#SVGID_00000134941686701166120210000014511450999546971064_"  style="overflow:visible;"/>
						</clipPath>
						
							<path style="clip-path:url(#SVGID_00000062185258847292459710000008303995502266215567_);fill:none;stroke:#000000;stroke-linecap:round;stroke-linejoin:round;" d="
							M186.3,206.2c13.4-42.1,26.8-83.9,40-125.3"/>
					</g>
				</g>
			</g>
		</g>
		<g>
			<g>
				<g>
					<g>
						<defs>
							<rect id="SVGID_00000039832238611454730070000005967798660280647044_" x="59.1" y="25.9" width="385.9" height="215.3"/>
						</defs>
						<clipPath id="SVGID_00000072258730614413310100000000273488731616149950_">
							<use xlink:href="#SVGID_00000039832238611454730070000005967798660280647044_"  style="overflow:visible;"/>
						</clipPath>
						
							<path style="clip-path:url(#SVGID_00000072258730614413310100000000273488731616149950_);stroke:#000000;stroke-linecap:round;stroke-linejoin:round;" d="
							M223.2,84.1l3.1-3.2l0.7,4.4L223.2,84.1z"/>
					</g>
				</g>
			</g>
		</g>
	</g>
	<g id="patch_14">
		<g>
			<g>
				<g>
					<g>
						<defs>
							<rect id="SVGID_00000096761344818101845680000013047627248064450469_" x="59.1" y="25.9" width="385.9" height="215.3"/>
						</defs>
						<clipPath id="SVGID_00000079475871930920859010000010097031790352541350_">
							<use xlink:href="#SVGID_00000096761344818101845680000013047627248064450469_"  style="overflow:visible;"/>
						</clipPath>
						
							<path style="clip-path:url(#SVGID_00000079475871930920859010000010097031790352541350_);fill:none;stroke:#000000;stroke-linecap:round;stroke-linejoin:round;" d="
							M190.9,209.6c25.6-17.4,50.9-34.6,75.9-51.6"/>
					</g>
				</g>
			</g>
		</g>
		<g>
			<g>
				<g>
					<g>
						<defs>
							<rect id="SVGID_00000130613369133912718960000012724987545850363545_" x="59.1" y="25.9" width="385.9" height="215.3"/>
						</defs>
						<clipPath id="SVGID_00000106861310781001980180000003421982179151281543_">
							<use xlink:href="#SVGID_00000130613369133912718960000012724987545850363545_"  style="overflow:visible;"/>
						</clipPath>
						
							<path style="clip-path:url(#SVGID_00000106861310781001980180000003421982179151281543_);stroke:#000000;stroke-linecap:round;stroke-linejoin:round;" d="
							M262.2,158.5l4.4-0.6l-2.2,3.9L262.2,158.5z"/>
					</g>
				</g>
			</g>
		</g>
	</g>
	<g id="patch_15">
		<g>
			<g>
				<g>
					<g>
						<defs>
							<rect id="SVGID_00000142862295433759068320000002184400650302488234_" x="59.1" y="25.9" width="385.9" height="215.3"/>
						</defs>
						<clipPath id="SVGID_00000041279975346699111200000002280680314324788620_">
							<use xlink:href="#SVGID_00000142862295433759068320000002184400650302488234_"  style="overflow:visible;"/>
						</clipPath>
						
							<path style="clip-path:url(#SVGID_00000041279975346699111200000002280680314324788620_);fill:none;stroke:#000000;stroke-linecap:round;stroke-linejoin:round;" d="
							M220.7,213.9c2.7-44.6,5.4-88.7,8-132.6"/>
					</g>
				</g>
			</g>
		</g>
		<g>
			<g>
				<g>
					<g>
						<defs>
							<rect id="SVGID_00000127039081257117239430000016636254414809035681_" x="59.1" y="25.9" width="385.9" height="215.3"/>
						</defs>
						<clipPath id="SVGID_00000030447407415204806280000005467865480108592028_">
							<use xlink:href="#SVGID_00000127039081257117239430000016636254414809035681_"  style="overflow:visible;"/>
						</clipPath>
						
							<path style="clip-path:url(#SVGID_00000030447407415204806280000005467865480108592028_);stroke:#000000;stroke-linecap:round;stroke-linejoin:round;" d="
							M226.4,85.2l2.2-3.9l1.8,4.1L226.4,85.2z"/>
					</g>
				</g>
			</g>
		</g>
	</g>
	<g id="patch_16">
		<g>
			<g>
				<g>
					<g>
						<defs>
							<rect id="SVGID_00000024001679747025840840000011352242922146536577_" x="59.1" y="25.9" width="385.9" height="215.3"/>
						</defs>
						<clipPath id="SVGID_00000019664891570910797240000006238949369727747739_">
							<use xlink:href="#SVGID_00000024001679747025840840000011352242922146536577_"  style="overflow:visible;"/>
						</clipPath>
						
							<path style="clip-path:url(#SVGID_00000019664891570910797240000006238949369727747739_);fill:none;stroke:#000000;stroke-linecap:round;stroke-linejoin:round;" d="
							M225.5,215.7c14.7-18.8,29.1-37.3,43.3-55.5"/>
					</g>
				</g>
			</g>
		</g>
		<g>
			<g>
				<g>
					<g>
						<defs>
							<rect id="SVGID_00000173134738411988593580000002061250299027997599_" x="59.1" y="25.9" width="385.9" height="215.3"/>
						</defs>
						<clipPath id="SVGID_00000125570941385294996020000015101751563913842867_">
							<use xlink:href="#SVGID_00000173134738411988593580000002061250299027997599_"  style="overflow:visible;"/>
						</clipPath>
						
							<path style="clip-path:url(#SVGID_00000125570941385294996020000015101751563913842867_);stroke:#000000;stroke-linecap:round;stroke-linejoin:round;" d="
							M264.8,162.1l4-1.9l-0.9,4.4L264.8,162.1z"/>
					</g>
				</g>
			</g>
		</g>
	</g>
	<g id="patch_17">
		<g>
			<g>
				<g>
					<g>
						<defs>
							<rect id="SVGID_00000141454014104169188570000008049272938310619319_" x="59.1" y="25.9" width="385.9" height="215.3"/>
						</defs>
						<clipPath id="SVGID_00000179627102824933892700000006945681902457370538_">
							<use xlink:href="#SVGID_00000141454014104169188570000008049272938310619319_"  style="overflow:visible;"/>
						</clipPath>
						
							<path style="clip-path:url(#SVGID_00000179627102824933892700000006945681902457370538_);fill:none;stroke:#000000;stroke-linecap:round;stroke-linejoin:round;" d="
							M358.5,201.9c-25.4-15-50.5-29.9-75.3-44.5"/>
					</g>
				</g>
			</g>
		</g>
		<g>
			<g>
				<g>
					<g>
						<defs>
							<rect id="SVGID_00000178927394874346780350000017526443673960512911_" x="59.1" y="25.9" width="385.9" height="215.3"/>
						</defs>
						<clipPath id="SVGID_00000088127412621661981850000003283767562483563934_">
							<use xlink:href="#SVGID_00000178927394874346780350000017526443673960512911_"  style="overflow:visible;"/>
						</clipPath>
						
							<path style="clip-path:url(#SVGID_00000088127412621661981850000003283767562483563934_);stroke:#000000;stroke-linecap:round;stroke-linejoin:round;" d="
							M285.6,161.2l-2.4-3.8l4.5,0.3L285.6,161.2z"/>
					</g>
				</g>
			</g>
		</g>
	</g>
	<g id="patch_18">
		<g>
			<g>
				<g>
					<g>
						<defs>
							<rect id="SVGID_00000149375852448042497380000016688748251533069985_" x="59.1" y="25.9" width="385.9" height="215.3"/>
						</defs>
						<clipPath id="SVGID_00000152243039969304939450000017149753427285491881_">
							<use xlink:href="#SVGID_00000149375852448042497380000016688748251533069985_"  style="overflow:visible;"/>
						</clipPath>
						
							<path style="clip-path:url(#SVGID_00000152243039969304939450000017149753427285491881_);fill:none;stroke:#000000;stroke-linecap:round;stroke-linejoin:round;" d="
							M380.5,190c-32.5-11.5-64.7-23-96.5-34.3"/>
					</g>
				</g>
			</g>
		</g>
		<g>
			<g>
				<g>
					<g>
						<defs>
							<rect id="SVGID_00000148625475239775630410000016545976971804169641_" x="59.1" y="25.9" width="385.9" height="215.3"/>
						</defs>
						<clipPath id="SVGID_00000149342897285239486070000005756923365182582185_">
							<use xlink:href="#SVGID_00000148625475239775630410000016545976971804169641_"  style="overflow:visible;"/>
						</clipPath>
						
							<path style="clip-path:url(#SVGID_00000149342897285239486070000005756923365182582185_);stroke:#000000;stroke-linecap:round;stroke-linejoin:round;" d="
							M287.1,158.9l-3.1-3.2l4.4-0.5L287.1,158.9z"/>
					</g>
				</g>
			</g>
		</g>
	</g>
	<g id="PathCollection_1">
		<g>
			<g>
				<g>
					<g>
						<defs>
							<rect id="SVGID_00000172436927268321303770000008354045492090967426_" x="59.1" y="25.9" width="385.9" height="215.3"/>
						</defs>
						<clipPath id="SVGID_00000057132675264542986720000006864081510045345975_">
							<use xlink:href="#SVGID_00000172436927268321303770000008354045492090967426_"  style="overflow:visible;"/>
						</clipPath>
						<g style="clip-path:url(#SVGID_00000057132675264542986720000006864081510045345975_);">
							<g>
								<path id="C0_0_5ef6641bc7" class="st36" d="M229.3,79.5c2.1,0,4.1-0.8,5.6-2.3s2.3-3.5,2.3-5.6s-0.8-4.1-2.3-5.6
									s-3.5-2.3-5.6-2.3s-4.1,0.8-5.6,2.3s-2.3,3.5-2.3,5.6s0.8,4.1,2.3,5.6S227.2,79.5,229.3,79.5z"/>
							</g>
						</g>
					</g>
				</g>
			</g>
		</g>
		<g>
			<g>
				<g>
					<g>
						<defs>
							<rect id="SVGID_00000070087819167658668720000011288072922322871479_" x="59.1" y="25.9" width="385.9" height="215.3"/>
						</defs>
						<clipPath id="SVGID_00000183213216361188813950000013171522473316227482_">
							<use xlink:href="#SVGID_00000070087819167658668720000011288072922322871479_"  style="overflow:visible;"/>
						</clipPath>
						<g style="clip-path:url(#SVGID_00000183213216361188813950000013171522473316227482_);">
							<g>
								<path id="C0_0_5ef6641bc7_00000104700098857846535860000017656303067114973369_" class="st38" d="M411.5,52.5
									c2.1,0,4.1-0.8,5.6-2.3s2.3-3.5,2.3-5.6s-0.8-4.1-2.3-5.6s-3.5-2.3-5.6-2.3s-4.1,0.8-5.6,2.3s-2.3,3.5-2.3,5.6
									s0.8,4.1,2.3,5.6S409.4,52.5,411.5,52.5z"/>
							</g>
						</g>
					</g>
				</g>
			</g>
		</g>
		<g>
			<g>
				<g>
					<g>
						<defs>
							<rect id="SVGID_00000080184223371091948710000015367028515514420116_" x="59.1" y="25.9" width="385.9" height="215.3"/>
						</defs>
						<clipPath id="SVGID_00000046315838342786382210000005500337022537934760_">
							<use xlink:href="#SVGID_00000080184223371091948710000015367028515514420116_"  style="overflow:visible;"/>
						</clipPath>
						<g style="clip-path:url(#SVGID_00000046315838342786382210000005500337022537934760_);">
							<g>
								<path id="C0_0_5ef6641bc7_00000152952027350242286810000005629566652383487138_" class="st40" d="M115.4,146.9
									c2.1,0,4.1-0.8,5.6-2.3s2.3-3.6,2.3-5.6s-0.8-4.1-2.3-5.6s-3.5-2.3-5.6-2.3s-4.1,0.8-5.6,2.3s-2.3,3.5-2.3,5.6
									s0.8,4.1,2.3,5.6C111.3,146,113.3,146.9,115.4,146.9z"/>
							</g>
						</g>
					</g>
				</g>
			</g>
		</g>
		<g>
			<g>
				<g>
					<g>
						<defs>
							<rect id="SVGID_00000121237881832017919900000016427267748243882129_" x="59.1" y="25.9" width="385.9" height="215.3"/>
						</defs>
						<clipPath id="SVGID_00000125569795222462570660000014766432639098137265_">
							<use xlink:href="#SVGID_00000121237881832017919900000016427267748243882129_"  style="overflow:visible;"/>
						</clipPath>
						<g style="clip-path:url(#SVGID_00000125569795222462570660000014766432639098137265_);">
							<g>
								<path id="C0_0_5ef6641bc7_00000134246048149436636860000012078273974309848505_" class="st42" d="M92.6,52.5
									c2.1,0,4.1-0.8,5.6-2.3s2.3-3.5,2.3-5.6s-0.8-4.1-2.3-5.6s-3.5-2.3-5.6-2.3S88.5,37.5,87,39s-2.3,3.5-2.3,5.6
									s0.8,4.1,2.3,5.6S90.5,52.5,92.6,52.5z"/>
							</g>
						</g>
					</g>
				</g>
			</g>
		</g>
		<g>
			<g>
				<g>
					<g>
						<defs>
							<rect id="SVGID_00000049904312430196638320000009362659999515219613_" x="59.1" y="25.9" width="385.9" height="215.3"/>
						</defs>
						<clipPath id="SVGID_00000163071511456563081320000007813343341934478994_">
							<use xlink:href="#SVGID_00000049904312430196638320000009362659999515219613_"  style="overflow:visible;"/>
						</clipPath>
						<g style="clip-path:url(#SVGID_00000163071511456563081320000007813343341934478994_);">
							<g>
								<path id="C0_0_5ef6641bc7_00000139276301268877106250000015429141415949356182_" class="st44" d="M274.8,160.3
									c2.1,0,4.1-0.8,5.6-2.3s2.3-3.5,2.3-5.6s-0.8-4.1-2.3-5.6s-3.5-2.3-5.6-2.3s-4.1,0.8-5.6,2.3s-2.3,3.5-2.3,5.6
									s0.8,4.1,2.3,5.6S272.6,160.3,274.8,160.3z"/>
							</g>
						</g>
					</g>
				</g>
			</g>
		</g>
		<g>
			<g>
				<g>
					<g>
						<defs>
							<rect id="SVGID_00000057143551022687772930000011557233517455377075_" x="59.1" y="25.9" width="385.9" height="215.3"/>
						</defs>
						<clipPath id="SVGID_00000077303706417150715400000007324551638753376168_">
							<use xlink:href="#SVGID_00000057143551022687772930000011557233517455377075_"  style="overflow:visible;"/>
						</clipPath>
						<g style="clip-path:url(#SVGID_00000077303706417150715400000007324551638753376168_);">
							<g>
								<path id="C0_0_5ef6641bc7_00000028286023048933042680000008026786549655672472_" class="st40" d="M411.5,160.3
									c2.1,0,4.1-0.8,5.6-2.3s2.3-3.5,2.3-5.6s-0.8-4.1-2.3-5.6s-3.5-2.3-5.6-2.3s-4.1,0.8-5.6,2.3s-2.3,3.5-2.3,5.6
									s0.8,4.1,2.3,5.6S409.4,160.3,411.5,160.3z"/>
							</g>
						</g>
					</g>
				</g>
			</g>
		</g>
		<g>
			<g>
				<g>
					<g>
						<defs>
							<rect id="SVGID_00000074444222489155698950000001363821277436991898_" x="59.1" y="25.9" width="385.9" height="215.3"/>
						</defs>
						<clipPath id="SVGID_00000005238682972897363190000003718955049847477665_">
							<use xlink:href="#SVGID_00000074444222489155698950000001363821277436991898_"  style="overflow:visible;"/>
						</clipPath>
						<g style="clip-path:url(#SVGID_00000005238682972897363190000003718955049847477665_);">
							<g>
								<path id="C0_0_5ef6641bc7_00000088115233125316576150000006629409285947050671_" class="st47" d="M147.3,214.2
									c2.1,0,4.1-0.8,5.6-2.3s2.3-3.5,2.3-5.6s-0.8-4.1-2.3-5.6s-3.5-2.3-5.6-2.3c-2.1,0-4.1,0.8-5.6,2.3s-2.3,3.5-2.3,5.6
									s0.8,4.1,2.3,5.6S145.2,214.2,147.3,214.2z"/>
							</g>
						</g>
					</g>
				</g>
			</g>
		</g>
		<g>
			<g>
				<g>
					<g>
						<defs>
							<rect id="SVGID_00000070814661551766463950000010993361941366086315_" x="59.1" y="25.9" width="385.9" height="215.3"/>
						</defs>
						<clipPath id="SVGID_00000084516614257338979450000013916860770144426941_">
							<use xlink:href="#SVGID_00000070814661551766463950000010993361941366086315_"  style="overflow:visible;"/>
						</clipPath>
						<g style="clip-path:url(#SVGID_00000084516614257338979450000013916860770144426941_);">
							<g>
								<path id="C0_0_5ef6641bc7_00000139257752687344337460000004159223917731980679_" class="st47" d="M183.7,222.3
									c2.1,0,4.1-0.8,5.6-2.3s2.3-3.5,2.3-5.6s-0.8-4.1-2.3-5.6s-3.5-2.3-5.6-2.3s-4.1,0.8-5.6,2.3s-2.3,3.5-2.3,5.6
									s0.8,4.1,2.3,5.6S181.6,222.3,183.7,222.3z"/>
							</g>
						</g>
					</g>
				</g>
			</g>
		</g>
		<g>
			<g>
				<g>
					<g>
						<defs>
							<rect id="SVGID_00000044166901819414752070000001235380782606690741_" x="59.1" y="25.9" width="385.9" height="215.3"/>
						</defs>
						<clipPath id="SVGID_00000050650217654551007380000014363259794036983218_">
							<use xlink:href="#SVGID_00000044166901819414752070000001235380782606690741_"  style="overflow:visible;"/>
						</clipPath>
						<g style="clip-path:url(#SVGID_00000050650217654551007380000014363259794036983218_);">
							<g>
								<path id="C0_0_5ef6641bc7_00000039854299178622125050000014392811744787525268_" class="st47" d="M220.2,230.4
									c2.1,0,4.1-0.8,5.6-2.3s2.3-3.5,2.3-5.6s-0.8-4.1-2.3-5.6s-3.5-2.3-5.6-2.3s-4.1,0.8-5.6,2.3s-2.3,3.5-2.3,5.6
									s0.8,4.1,2.3,5.6S218.1,230.4,220.2,230.4z"/>
							</g>
						</g>
					</g>
				</g>
			</g>
		</g>
		<g>
			<g>
				<g>
					<g>
						<defs>
							<rect id="SVGID_00000082366505929950401290000002811388595847288961_" x="59.1" y="25.9" width="385.9" height="215.3"/>
						</defs>
						<clipPath id="SVGID_00000170243360793313136730000016135728028221950134_">
							<use xlink:href="#SVGID_00000082366505929950401290000002811388595847288961_"  style="overflow:visible;"/>
						</clipPath>
						<g style="clip-path:url(#SVGID_00000170243360793313136730000016135728028221950134_);">
							<g>
								<path id="C0_0_5ef6641bc7_00000126324919121963838860000009815388779924716439_" class="st47" d="M366,214.2
									c2.1,0,4.1-0.8,5.6-2.3s2.3-3.5,2.3-5.6s-0.8-4.1-2.3-5.6s-3.5-2.3-5.6-2.3s-4.1,0.8-5.6,2.3s-2.3,3.5-2.3,5.6
									s0.8,4.1,2.3,5.6C361.8,213.4,363.9,214.2,366,214.2z"/>
							</g>
						</g>
					</g>
				</g>
			</g>
		</g>
		<g>
			<g>
				<g>
					<g>
						<defs>
							<rect id="SVGID_00000087381657905355818760000006484054483286677122_" x="59.1" y="25.9" width="385.9" height="215.3"/>
						</defs>
						<clipPath id="SVGID_00000005261000411298613930000011783927349860561066_">
							<use xlink:href="#SVGID_00000087381657905355818760000006484054483286677122_"  style="overflow:visible;"/>
						</clipPath>
						<g style="clip-path:url(#SVGID_00000005261000411298613930000011783927349860561066_);">
							<g>
								<path id="C0_0_5ef6641bc7_00000103961354665368584390000010201675171113239482_" class="st47" d="M388.6,200.8
									c2.1,0,4.1-0.8,5.6-2.3s2.3-3.5,2.3-5.6s-0.8-4.1-2.3-5.6s-3.5-2.3-5.6-2.3s-4.1,0.8-5.6,2.3s-2.3,3.5-2.3,5.6
									s0.8,4.1,2.3,5.6C384.5,199.9,386.5,200.8,388.6,200.8z"/>
							</g>
						</g>
					</g>
				</g>
			</g>
		</g>
	</g>
	<g id="text_1">
		<g transform="translate(132.821425 19.918125)scale(0.12 -0.12)">
			<g>
				<path id="DejaVuSans-68" d="M421.8,64.8V8.1h11.9c10.1,0,17.4,2.3,22.1,6.8c4.7,4.6,7,11.8,7,21.6s-2.3,16.9-7,21.5
					c-4.7,4.6-12,6.8-22.1,6.8H421.8z M411.9,72.9h20.3c14.1,0,24.5-2.9,31.1-8.8c6.6-5.9,9.9-15.1,9.9-27.6
					c0-12.6-3.3-21.8-10-27.7c-6.6-5.9-17-8.8-31-8.8h-20.3V72.9z"/>
			</g>
			<g>
				<path id="DejaVuSans-105" d="M488.5,54.7h9V0h-9V54.7z M488.5,76h9V64.6h-9V76z"/>
			</g>
			<g>
				<path id="DejaVuSans-71" d="M566.4,10.4V30h-16.1v8.1h25.9V6.8c-3.8-2.7-8-4.7-12.6-6.1c-4.6-1.4-9.5-2.1-14.7-2.1
					c-11.4,0-20.3,3.3-26.8,10c-6.4,6.7-9.6,15.9-9.6,27.8s3.2,21.2,9.6,27.9c6.4,6.7,15.4,10,26.8,10c4.8,0,9.3-0.6,13.5-1.8
					c4.3-1.2,8.2-2.9,11.8-5.2V56.8c-3.6,3.1-7.5,5.4-11.6,7c-4.1,1.6-8.4,2.3-12.9,2.3c-8.9,0-15.6-2.5-20.1-7.5
					s-6.7-12.4-6.7-22.3c0-9.8,2.2-17.2,6.7-22.2c4.5-5,11.2-7.5,20.1-7.5c3.5,0,6.6,0.3,9.3,0.9C561.8,8.2,564.2,9.1,566.4,10.4z"
					/>
			</g>
			<g>
				<path id="DejaVuSans-114" d="M625.5,46.3c-1,0.6-2.1,1-3.3,1.3s-2.5,0.4-3.9,0.4c-5.1,0-9-1.7-11.7-5c-2.7-3.3-4.1-8-4.1-14.2V0
					h-9v54.7h9v-8.5c1.9,3.3,4.4,5.8,7.4,7.4c3,1.6,6.7,2.4,11,2.4c0.6,0,1.3,0,2-0.1c0.8-0.1,1.6-0.2,2.5-0.4L625.5,46.3z"/>
			</g>
			<g>
				<path id="DejaVuSans-97" d="M659.8,27.5c-7.3,0-12.3-0.8-15.1-2.5s-4.2-4.5-4.2-8.5c0-3.2,1.1-5.7,3.2-7.6
					c2.1-1.9,5-2.8,8.6-2.8c5,0,9,1.8,12,5.3s4.5,8.2,4.5,14.1v2H659.8z M677.7,31.2V0h-9v8.3c-2-3.3-4.6-5.8-7.7-7.3
					c-3.1-1.5-6.8-2.4-11.2-2.4c-5.6,0-10,1.6-13.4,4.7c-3.3,3.1-5,7.4-5,12.6c0,6.1,2.1,10.8,6.2,13.9c4.1,3.1,10.3,4.7,18.4,4.7
					h12.6v0.9c0,4.1-1.4,7.3-4.1,9.6s-6.5,3.4-11.5,3.4c-3.1,0-6.2-0.4-9.1-1.1c-3-0.8-5.8-1.9-8.5-3.4v8.3c3.3,1.3,6.5,2.2,9.6,2.8
					c3.1,0.6,6.1,1,9,1c7.9,0,13.8-2.1,17.7-6.2C675.7,45.7,677.7,39.5,677.7,31.2z"/>
			</g>
			<g>
				<path id="DejaVuSans-112" d="M704.9,8.2v-29h-9v75.5h9v-8.3c1.9,3.2,4.3,5.7,7.2,7.2c2.9,1.6,6.3,2.4,10.3,2.4
					c6.6,0,12-2.6,16.2-7.9c4.2-5.3,6.2-12.2,6.2-20.8s-2.1-15.5-6.2-20.8c-4.1-5.3-9.5-7.9-16.2-7.9c-4,0-7.4,0.8-10.3,2.4
					C709.2,2.5,706.8,5,704.9,8.2z M735.5,27.3c0,6.6-1.4,11.8-4.1,15.5s-6.5,5.6-11.2,5.6c-4.8,0-8.5-1.9-11.2-5.6
					s-4.1-8.9-4.1-15.5s1.4-11.8,4.1-15.5s6.5-5.6,11.2-5.6c4.8,0,8.5,1.9,11.2,5.6S735.5,20.7,735.5,27.3z"/>
			</g>
			<g>
				<path id="DejaVuSans-104" d="M805.1,33V0h-9v32.7c0,5.2-1,9-3,11.6c-2,2.6-5,3.9-9.1,3.9c-4.9,0-8.7-1.5-11.5-4.6
					s-4.2-7.3-4.2-12.6V0h-9v76h9V46.2c2.2,3.3,4.7,5.8,7.6,7.4c2.9,1.6,6.3,2.4,10.1,2.4c6.3,0,11-1.9,14.2-5.8
					C803.5,46.3,805.1,40.6,805.1,33z"/>
			</g>
			<g>
				<path id="DejaVuSans-32" d="M813.6,0"/>
			</g>
			<g>
				<path id="DejaVuSans-75" d="M855.2,72.9h9.9V42.1l32.7,30.8h12.7l-36.2-34L913.1,0h-13l-35,35.1V0h-9.9V72.9z"/>
			</g>
			<g>
				<path id="DejaVuSans-97_00000176755539421105544220000014031086352532390826_" d="M943.5,27.5c-7.3,0-12.3-0.8-15.1-2.5
					s-4.2-4.5-4.2-8.5c0-3.2,1.1-5.7,3.2-7.6c2.1-1.9,5-2.8,8.6-2.8c5,0,9,1.8,12,5.3s4.5,8.2,4.5,14.1v2H943.5z M961.4,31.2V0h-9
					v8.3c-2.1-3.3-4.6-5.8-7.7-7.3s-6.8-2.4-11.2-2.4c-5.6,0-10,1.6-13.4,4.7c-3.3,3.1-5,7.4-5,12.6c0,6.1,2.1,10.8,6.2,13.9
					c4.1,3.1,10.3,4.7,18.4,4.7h12.6v0.9c0,4.1-1.4,7.3-4.1,9.6s-6.5,3.4-11.5,3.4c-3.1,0-6.2-0.4-9.1-1.1c-3-0.8-5.8-1.9-8.5-3.4
					v8.3c3.3,1.3,6.5,2.2,9.6,2.8s6.1,1,9,1c7.9,0,13.8-2.1,17.7-6.2C959.5,45.7,961.4,39.5,961.4,31.2z"/>
			</g>
			<g>
				<path id="DejaVuSans-116" d="M988.8,70.2V54.7h18.5v-7h-18.5V18c0-4.5,0.6-7.3,1.8-8.6s3.7-1.9,7.5-1.9h9.2V0h-9.2
					c-6.9,0-11.7,1.3-14.4,3.9c-2.6,2.6-4,7.3-4,14.1v29.7h-6.6v7h6.6v15.5H988.8z"/>
			</g>
			<g>
				<path id="DejaVuSans-122" d="M1015.2,54.7h42.7v-8.2l-33.8-39.3h33.8V0H1014v8.2l33.8,39.3h-32.6V54.7z"/>
			</g>
			<g>
				<path id="DejaVuSans-32_00000163775365054257377040000003897558331454348168_" d="M1062.2,0"/>
			</g>
			<g>
				<path id="DejaVuSans-67" d="M1158.4,67.3V56.9c-3.3,3.1-6.9,5.4-10.6,6.9c-3.8,1.5-7.8,2.3-12,2.3c-8.3,0-14.7-2.5-19.1-7.6
					c-4.4-5.1-6.6-12.5-6.6-22.1s2.2-17,6.6-22c4.4-5.1,10.8-7.6,19.1-7.6c4.2,0,8.2,0.8,12,2.3c3.8,1.5,7.3,3.8,10.6,6.9V5.6
					c-3.4-2.3-7.1-4.1-11-5.3s-7.9-1.7-12.2-1.7c-11,0-19.7,3.4-26.1,10.1c-6.3,6.8-9.5,16-9.5,27.7s3.2,21,9.5,27.7
					c6.4,6.8,15.1,10.1,26.1,10.1c4.4,0,8.5-0.6,12.3-1.7C1151.4,71.3,1155,69.6,1158.4,67.3z"/>
			</g>
			<g>
				<path id="DejaVuSans-101" d="M1220,29.6v-4.4h-41.3c0.4-6.2,2.3-10.9,5.6-14.1c3.3-3.2,8-4.9,13.9-4.9c3.4,0,6.8,0.4,10,1.3
					c3.2,0.8,6.5,2.1,9.7,3.8V2.8c-3.2-1.4-6.5-2.4-9.9-3.1s-6.8-1.1-10.3-1.1c-8.7,0-15.6,2.5-20.7,7.6c-5.1,5.1-7.6,12-7.6,20.6
					c0,8.9,2.4,16,7.2,21.3c4.8,5.3,11.4,7.9,19.6,7.9c7.4,0,13.2-2.4,17.5-7.1C1217.9,44.2,1220,37.7,1220,29.6z M1211,32.2
					c-0.1,4.9-1.4,8.8-4.1,11.8c-2.7,2.9-6.2,4.4-10.7,4.4c-5,0-9-1.4-12-4.2s-4.7-6.8-5.2-12H1211z"/>
			</g>
			<g>
				<path id="DejaVuSans-110" d="M1280.2,33V0h-9v32.7c0,5.2-1,9-3,11.6c-2,2.6-5,3.9-9.1,3.9c-4.9,0-8.7-1.5-11.5-4.6
					c-2.8-3.1-4.2-7.3-4.2-12.6V0h-9v54.7h9v-8.5c2.2,3.3,4.7,5.8,7.6,7.4c2.9,1.6,6.3,2.4,10.1,2.4c6.3,0,11-1.9,14.2-5.8
					C1278.6,46.3,1280.2,40.6,1280.2,33z"/>
			</g>
			<g>
				<path id="DejaVuSans-116_00000127732149758815309960000014647486182918175663_" d="M1307,70.2V54.7h18.5v-7H1307V18
					c0-4.5,0.6-7.3,1.8-8.6c1.2-1.3,3.7-1.9,7.5-1.9h9.2V0h-9.2c-6.9,0-11.7,1.3-14.4,3.9c-2.6,2.6-4,7.3-4,14.1v29.7h-6.6v7h6.6
					v15.5H1307z"/>
			</g>
			<g>
				<path id="DejaVuSans-114_00000031913530276735485960000001665770133824549029_" d="M1369,46.3c-1,0.6-2.1,1-3.3,1.3
					c-1.2,0.3-2.5,0.4-3.9,0.4c-5.1,0-9-1.7-11.7-5c-2.7-3.3-4.1-8-4.1-14.2V0h-9v54.7h9v-8.5c1.9,3.3,4.4,5.8,7.4,7.4
					c3,1.6,6.7,2.4,11,2.4c0.6,0,1.3,0,2-0.1c0.8-0.1,1.6-0.2,2.5-0.4L1369,46.3z"/>
			</g>
			<g>
				<path id="DejaVuSans-97_00000034803331578254724050000015136746682967826851_" d="M1403.3,27.5c-7.3,0-12.3-0.8-15.1-2.5
					c-2.8-1.7-4.2-4.5-4.2-8.5c0-3.2,1.1-5.7,3.2-7.6c2.1-1.9,5-2.8,8.6-2.8c5,0,9,1.8,12,5.3s4.5,8.2,4.5,14.1v2H1403.3z
					 M1421.3,31.2V0h-9v8.3c-2.1-3.3-4.6-5.8-7.7-7.3c-3.1-1.5-6.8-2.4-11.2-2.4c-5.6,0-10,1.6-13.4,4.7c-3.3,3.1-5,7.4-5,12.6
					c0,6.1,2.1,10.8,6.2,13.9s10.3,4.7,18.4,4.7h12.6v0.9c0,4.1-1.4,7.3-4.1,9.6s-6.5,3.4-11.5,3.4c-3.1,0-6.2-0.4-9.1-1.1
					c-3-0.8-5.8-1.9-8.5-3.4v8.3c3.3,1.3,6.5,2.2,9.6,2.8s6.1,1,9,1c7.9,0,13.8-2.1,17.7-6.2C1419.3,45.7,1421.3,39.5,1421.3,31.2z"
					/>
			</g>
			<g>
				<path id="DejaVuSans-108" d="M1439.8,76h9V0h-9V76z"/>
			</g>
			<g>
				<path id="DejaVuSans-105_00000160166876334220478250000011642953508434075532_" d="M1467.5,54.7h9V0h-9V54.7z M1467.5,76h9V64.6
					h-9V76z"/>
			</g>
			<g>
				<path id="DejaVuSans-116_00000080907564514107173720000016437375789508687797_" d="M1504.2,70.2V54.7h18.5v-7h-18.5V18
					c0-4.5,0.6-7.3,1.8-8.6s3.7-1.9,7.5-1.9h9.2V0h-9.2c-6.9,0-11.7,1.3-14.4,3.9c-2.6,2.6-4,7.3-4,14.1v29.7h-6.6v7h6.6v15.5
					H1504.2z"/>
			</g>
			<g>
				<path id="DejaVuSans-121" d="M1557.3-5.1c-2.5-6.5-5-10.8-7.4-12.7c-2.4-2-5.6-3-9.7-3h-7.2v7.5h5.3c2.5,0,4.4,0.6,5.8,1.8
					s2.9,3.9,4.5,8.3l1.6,4.1l-22.1,53.8h9.5l17.1-42.8l17.1,42.8h9.5L1557.3-5.1z"/>
			</g>
		</g>
	</g>
</g>
</svg>
