<?xml version="1.0" encoding="utf-8"?>
<!-- Generator: Adobe Illustrator 26.0.2, SVG Export Plug-In . SVG Version: 6.00 Build 0)  -->
<svg version="1.1" id="Layer_1" xmlns="http://www.w3.org/2000/svg" xmlns:xlink="http://www.w3.org/1999/xlink" x="0px" y="0px"
	 viewBox="0 0 504 252" style="enable-background:new 0 0 504 252;" xml:space="preserve">
<style type="text/css">
	.st0{fill:none;}
	
		.st1{clip-path:url(#SVGID_00000127761282612548854150000007552887712956443554_);fill:none;stroke:#000000;stroke-linecap:round;stroke-linejoin:round;}
	
		.st2{clip-path:url(#SVGID_00000169536671117857019370000003212195336081522567_);stroke:#000000;stroke-linecap:round;stroke-linejoin:round;}
	
		.st3{clip-path:url(#SVGID_00000124132352347584747700000017471992615443078575_);fill:none;stroke:#000000;stroke-linecap:round;stroke-linejoin:round;}
	
		.st4{clip-path:url(#SVGID_00000020378257211278911290000002571544026030150331_);stroke:#000000;stroke-linecap:round;stroke-linejoin:round;}
	
		.st5{clip-path:url(#SVGID_00000054984694714959101540000013667906483394534835_);fill:none;stroke:#000000;stroke-linecap:round;stroke-linejoin:round;}
	
		.st6{clip-path:url(#SVGID_00000003088159203538003690000008504035321021047466_);stroke:#000000;stroke-linecap:round;stroke-linejoin:round;}
	
		.st7{clip-path:url(#SVGID_00000112629101532626502030000015974446694145940397_);fill:none;stroke:#000000;stroke-linecap:round;stroke-linejoin:round;}
	
		.st8{clip-path:url(#SVGID_00000149359884705249063300000007017797852550976130_);stroke:#000000;stroke-linecap:round;stroke-linejoin:round;}
	
		.st9{clip-path:url(#SVGID_00000146471957101823259320000007656584061393027496_);fill:none;stroke:#000000;stroke-linecap:round;stroke-linejoin:round;}
	
		.st10{clip-path:url(#SVGID_00000097487040449044451380000010407093209305214090_);stroke:#000000;stroke-linecap:round;stroke-linejoin:round;}
	
		.st11{clip-path:url(#SVGID_00000031902986615660460480000008718908031736768412_);fill:none;stroke:#000000;stroke-linecap:round;stroke-linejoin:round;}
	
		.st12{clip-path:url(#SVGID_00000070814138894832466020000009789715832128290219_);stroke:#000000;stroke-linecap:round;stroke-linejoin:round;}
	
		.st13{clip-path:url(#SVGID_00000044890354869164712830000000380107318239125133_);fill:none;stroke:#000000;stroke-linecap:round;stroke-linejoin:round;}
	
		.st14{clip-path:url(#SVGID_00000003812803308409762360000014040557154613854095_);stroke:#000000;stroke-linecap:round;stroke-linejoin:round;}
	
		.st15{clip-path:url(#SVGID_00000032638784374354759310000004876996033190323135_);fill:none;stroke:#000000;stroke-linecap:round;stroke-linejoin:round;}
	
		.st16{clip-path:url(#SVGID_00000147182801370647662180000013416481060702234029_);stroke:#000000;stroke-linecap:round;stroke-linejoin:round;}
	
		.st17{clip-path:url(#SVGID_00000079466419209571406470000005996674449452706182_);fill:none;stroke:#000000;stroke-linecap:round;stroke-linejoin:round;}
	
		.st18{clip-path:url(#SVGID_00000069373033752322487590000018138734427509092747_);stroke:#000000;stroke-linecap:round;stroke-linejoin:round;}
	
		.st19{clip-path:url(#SVGID_00000122720969291891186490000005898284394499295167_);fill:none;stroke:#000000;stroke-linecap:round;stroke-linejoin:round;}
	
		.st20{clip-path:url(#SVGID_00000147193198043466149510000016953886243948837546_);stroke:#000000;stroke-linecap:round;stroke-linejoin:round;}
	
		.st21{clip-path:url(#SVGID_00000062185551848232533060000007973782633229440689_);fill:none;stroke:#000000;stroke-linecap:round;stroke-linejoin:round;}
	
		.st22{clip-path:url(#SVGID_00000142162934126956200880000003847535398363668352_);stroke:#000000;stroke-linecap:round;stroke-linejoin:round;}
	
		.st23{clip-path:url(#SVGID_00000024719930026021393540000011993514889035768758_);fill:none;stroke:#000000;stroke-linecap:round;stroke-linejoin:round;}
	
		.st24{clip-path:url(#SVGID_00000083082350529600700440000000758375687310677145_);stroke:#000000;stroke-linecap:round;stroke-linejoin:round;}
	
		.st25{clip-path:url(#SVGID_00000026845303220904484720000005006637913062758545_);fill:none;stroke:#000000;stroke-linecap:round;stroke-linejoin:round;}
	
		.st26{clip-path:url(#SVGID_00000160169040080048237870000002171311350193419194_);stroke:#000000;stroke-linecap:round;stroke-linejoin:round;}
	
		.st27{clip-path:url(#SVGID_00000027576649753477978780000004782204019282992044_);fill:none;stroke:#000000;stroke-linecap:round;stroke-linejoin:round;}
	
		.st28{clip-path:url(#SVGID_00000120551272558879152270000005496305141697701511_);stroke:#000000;stroke-linecap:round;stroke-linejoin:round;}
	
		.st29{clip-path:url(#SVGID_00000154387690862603777470000007932520333286265477_);fill:none;stroke:#000000;stroke-linecap:round;stroke-linejoin:round;}
	
		.st30{clip-path:url(#SVGID_00000157293078573736656540000003306417720190534793_);stroke:#000000;stroke-linecap:round;stroke-linejoin:round;}
	
		.st31{clip-path:url(#SVGID_00000070802187410283028800000014121282868743693220_);fill:none;stroke:#000000;stroke-linecap:round;stroke-linejoin:round;}
	
		.st32{clip-path:url(#SVGID_00000049930169485496290280000015436757961930589328_);stroke:#000000;stroke-linecap:round;stroke-linejoin:round;}
	
		.st33{clip-path:url(#SVGID_00000027574621957767561910000016624352225935689603_);fill:none;stroke:#000000;stroke-linecap:round;stroke-linejoin:round;}
	
		.st34{clip-path:url(#SVGID_00000132804562193895337920000015537073177539692929_);stroke:#000000;stroke-linecap:round;stroke-linejoin:round;}
	.st35{clip-path:url(#SVGID_00000026873725769715269560000014646509069295087266_);}
	.st36{fill:#FDE725;stroke:#FDE725;stroke-linejoin:round;}
	.st37{clip-path:url(#SVGID_00000152954820925578375500000014490865401117026460_);}
	.st38{fill:#375A8C;stroke:#375A8C;stroke-linejoin:round;}
	.st39{clip-path:url(#SVGID_00000051351107624317764160000012588978173268130724_);}
	.st40{fill:#3B528B;stroke:#3B528B;stroke-linejoin:round;}
	.st41{clip-path:url(#SVGID_00000152985769645286463820000006162166354699805616_);}
	.st42{fill:#423F85;stroke:#423F85;stroke-linejoin:round;}
	.st43{clip-path:url(#SVGID_00000065772951433886306120000012708681811971348620_);}
	.st44{fill:#7FD34E;stroke:#7FD34E;stroke-linejoin:round;}
	.st45{clip-path:url(#SVGID_00000162311902226176715880000009682374778808154798_);}
	.st46{clip-path:url(#SVGID_00000044175100238025923720000001515749478064302982_);}
	.st47{fill:#440154;stroke:#440154;stroke-linejoin:round;}
	.st48{clip-path:url(#SVGID_00000042713187546225517780000017071249859767420862_);}
	.st49{clip-path:url(#SVGID_00000136413039353417589010000013120873745200725942_);}
	.st50{clip-path:url(#SVGID_00000182529057048175481070000015296024229971889591_);}
	.st51{clip-path:url(#SVGID_00000177466060732613213770000004867407923331193990_);}
</style>
<g id="patch_1">
	<path class="st0" d="M0,252h504V0H0V252z"/>
</g>
<g id="matplotlib.axis_1">
</g>
<g id="axes_1">
	<g id="patch_2">
		<g>
			<g>
				<g>
					<defs>
						<rect id="SVGID_1_" x="10.8" y="25.9" width="385.9" height="215.3"/>
					</defs>
					<clipPath id="SVGID_00000091735496031034555630000003712532758749663370_">
						<use xlink:href="#SVGID_1_"  style="overflow:visible;"/>
					</clipPath>
					
						<path style="clip-path:url(#SVGID_00000091735496031034555630000003712532758749663370_);fill:none;stroke:#000000;stroke-linecap:round;stroke-linejoin:round;" d="
						M189.5,70.3c55-8.1,109.7-16.2,164-24.3"/>
				</g>
			</g>
		</g>
		<g>
			<g>
				<g>
					<defs>
						<rect id="SVGID_00000064346163876849279880000006281381466346358959_" x="10.8" y="25.9" width="385.9" height="215.3"/>
					</defs>
					<clipPath id="SVGID_00000134217870836148725690000005747141537685361549_">
						<use xlink:href="#SVGID_00000064346163876849279880000006281381466346358959_"  style="overflow:visible;"/>
					</clipPath>
					
						<path style="clip-path:url(#SVGID_00000134217870836148725690000005747141537685361549_);stroke:#000000;stroke-linecap:round;stroke-linejoin:round;" d="
						M349.3,44.6l4.2,1.4l-3.7,2.6L349.3,44.6z"/>
				</g>
			</g>
		</g>
	</g>
	<g id="patch_3">
		<g>
			<g>
				<g>
					<defs>
						<rect id="SVGID_00000066510902086030122640000001528888340486765721_" x="10.8" y="25.9" width="385.9" height="215.3"/>
					</defs>
					<clipPath id="SVGID_00000088094908650387974610000009291195545017616805_">
						<use xlink:href="#SVGID_00000066510902086030122640000001528888340486765721_"  style="overflow:visible;"/>
					</clipPath>
					
						<path style="clip-path:url(#SVGID_00000088094908650387974610000009291195545017616805_);fill:none;stroke:#000000;stroke-linecap:round;stroke-linejoin:round;" d="
						M354.6,45.9c-55,8.1-109.7,16.2-164,24.3"/>
				</g>
			</g>
		</g>
		<g>
			<g>
				<g>
					<defs>
						<rect id="SVGID_00000129919554251536982630000002571409296485141397_" x="10.8" y="25.9" width="385.9" height="215.3"/>
					</defs>
					<clipPath id="SVGID_00000075883216605352626100000008826715758243417748_">
						<use xlink:href="#SVGID_00000129919554251536982630000002571409296485141397_"  style="overflow:visible;"/>
					</clipPath>
					
						<path style="clip-path:url(#SVGID_00000075883216605352626100000008826715758243417748_);stroke:#000000;stroke-linecap:round;stroke-linejoin:round;" d="
						M194.9,71.5l-4.2-1.4l3.7-2.6L194.9,71.5z"/>
				</g>
			</g>
		</g>
	</g>
	<g id="patch_4">
		<g>
			<g>
				<g>
					<defs>
						<rect id="SVGID_00000176016420468265260870000003756662752262472596_" x="10.8" y="25.9" width="385.9" height="215.3"/>
					</defs>
					<clipPath id="SVGID_00000162354039747022529010000010683166377239556512_">
						<use xlink:href="#SVGID_00000176016420468265260870000003756662752262472596_"  style="overflow:visible;"/>
					</clipPath>
					
						<path style="clip-path:url(#SVGID_00000162354039747022529010000010683166377239556512_);fill:none;stroke:#000000;stroke-linecap:round;stroke-linejoin:round;" d="
						M65,130.5c-6.2-25.8-12.4-51.3-18.5-76.4"/>
				</g>
			</g>
		</g>
		<g>
			<g>
				<g>
					<defs>
						<rect id="SVGID_00000070093373535422617370000008230656128850261949_" x="10.8" y="25.9" width="385.9" height="215.3"/>
					</defs>
					<clipPath id="SVGID_00000135666815620594788440000000790379593830945691_">
						<use xlink:href="#SVGID_00000070093373535422617370000008230656128850261949_"  style="overflow:visible;"/>
					</clipPath>
					
						<path style="clip-path:url(#SVGID_00000135666815620594788440000000790379593830945691_);stroke:#000000;stroke-linecap:round;stroke-linejoin:round;" d="
						M45.6,58.5l1-4.4l2.9,3.4L45.6,58.5z"/>
				</g>
			</g>
		</g>
	</g>
	<g id="patch_5">
		<g>
			<g>
				<g>
					<defs>
						<rect id="SVGID_00000120524678963678660240000016370920999354564256_" x="10.8" y="25.9" width="385.9" height="215.3"/>
					</defs>
					<clipPath id="SVGID_00000024688809975931268980000007000560904195702921_">
						<use xlink:href="#SVGID_00000120524678963678660240000016370920999354564256_"  style="overflow:visible;"/>
					</clipPath>
					
						<path style="clip-path:url(#SVGID_00000024688809975931268980000007000560904195702921_);fill:none;stroke:#000000;stroke-linecap:round;stroke-linejoin:round;" d="
						M74.5,134.5c33-19.5,65.7-38.9,98-58"/>
				</g>
			</g>
		</g>
		<g>
			<g>
				<g>
					<defs>
						<rect id="SVGID_00000044863577404261910350000011652418451329470384_" x="10.8" y="25.9" width="385.9" height="215.3"/>
					</defs>
					<clipPath id="SVGID_00000035530775970094199550000010395902072219604638_">
						<use xlink:href="#SVGID_00000044863577404261910350000011652418451329470384_"  style="overflow:visible;"/>
					</clipPath>
					
						<path style="clip-path:url(#SVGID_00000035530775970094199550000010395902072219604638_);stroke:#000000;stroke-linecap:round;stroke-linejoin:round;" d="
						M168.1,76.9l4.5-0.3l-2.4,3.8L168.1,76.9z"/>
				</g>
			</g>
		</g>
	</g>
	<g id="patch_6">
		<g>
			<g>
				<g>
					<defs>
						<rect id="SVGID_00000086672910144310573420000015674092177943951514_" x="10.8" y="25.9" width="385.9" height="215.3"/>
					</defs>
					<clipPath id="SVGID_00000078005960180587852480000008953611014410941886_">
						<use xlink:href="#SVGID_00000086672910144310573420000015674092177943951514_"  style="overflow:visible;"/>
					</clipPath>
					
						<path style="clip-path:url(#SVGID_00000078005960180587852480000008953611014410941886_);fill:none;stroke:#000000;stroke-linecap:round;stroke-linejoin:round;" d="
						M222.3,144.9c-12.4-21.9-24.5-43.5-36.5-64.8"/>
				</g>
			</g>
		</g>
		<g>
			<g>
				<g>
					<defs>
						<rect id="SVGID_00000043439502939892353880000012184131280427230655_" x="10.8" y="25.9" width="385.9" height="215.3"/>
					</defs>
					<clipPath id="SVGID_00000168816624299571918780000013323309955427771312_">
						<use xlink:href="#SVGID_00000043439502939892353880000012184131280427230655_"  style="overflow:visible;"/>
					</clipPath>
					
						<path style="clip-path:url(#SVGID_00000168816624299571918780000013323309955427771312_);stroke:#000000;stroke-linecap:round;stroke-linejoin:round;" d="
						M186,84.5l-0.2-4.5l3.7,2.5L186,84.5z"/>
				</g>
			</g>
		</g>
	</g>
	<g id="patch_7">
		<g>
			<g>
				<g>
					<defs>
						<rect id="SVGID_00000075884425406234522560000011944342628982934425_" x="10.8" y="25.9" width="385.9" height="215.3"/>
					</defs>
					<clipPath id="SVGID_00000118394840325607308250000006889065406962189216_">
						<use xlink:href="#SVGID_00000075884425406234522560000011944342628982934425_"  style="overflow:visible;"/>
					</clipPath>
					
						<path style="clip-path:url(#SVGID_00000118394840325607308250000006889065406962189216_);fill:none;stroke:#000000;stroke-linecap:round;stroke-linejoin:round;" d="
						M217.9,151.7c-47.4-4-94.4-8-141.1-11.9"/>
				</g>
			</g>
		</g>
		<g>
			<g>
				<g>
					<defs>
						<rect id="SVGID_00000134934468070684083050000006561420583693676424_" x="10.8" y="25.9" width="385.9" height="215.3"/>
					</defs>
					<clipPath id="SVGID_00000074440724087083935210000000191060600686000284_">
						<use xlink:href="#SVGID_00000134934468070684083050000006561420583693676424_"  style="overflow:visible;"/>
					</clipPath>
					
						<path style="clip-path:url(#SVGID_00000074440724087083935210000000191060600686000284_);stroke:#000000;stroke-linecap:round;stroke-linejoin:round;" d="
						M80.6,142.1l-3.8-2.3l4.2-1.7L80.6,142.1z"/>
				</g>
			</g>
		</g>
	</g>
	<g id="patch_8">
		<g>
			<g>
				<g>
					<defs>
						<rect id="SVGID_00000065042243563727706560000006140213227645198748_" x="10.8" y="25.9" width="385.9" height="215.3"/>
					</defs>
					<clipPath id="SVGID_00000049909238212679906570000000076950401132819369_">
						<use xlink:href="#SVGID_00000065042243563727706560000006140213227645198748_"  style="overflow:visible;"/>
					</clipPath>
					
						<path style="clip-path:url(#SVGID_00000049909238212679906570000000076950401132819369_);fill:none;stroke:#000000;stroke-linecap:round;stroke-linejoin:round;" d="
						M235.2,152.4c39.8,0,79.2,0,118.2,0"/>
				</g>
			</g>
		</g>
		<g>
			<g>
				<g>
					<defs>
						<rect id="SVGID_00000177480760273094531710000014738692372092772255_" x="10.8" y="25.9" width="385.9" height="215.3"/>
					</defs>
					<clipPath id="SVGID_00000034806026681970966490000007910610829925960867_">
						<use xlink:href="#SVGID_00000177480760273094531710000014738692372092772255_"  style="overflow:visible;"/>
					</clipPath>
					
						<path style="clip-path:url(#SVGID_00000034806026681970966490000007910610829925960867_);stroke:#000000;stroke-linecap:round;stroke-linejoin:round;" d="
						M349.4,150.4l4,2l-4,2V150.4z"/>
				</g>
			</g>
		</g>
	</g>
	<g id="patch_9">
		<g>
			<g>
				<g>
					<defs>
						<rect id="SVGID_00000177454338900269743900000005990943487573171342_" x="10.8" y="25.9" width="385.9" height="215.3"/>
					</defs>
					<clipPath id="SVGID_00000098926428548178526590000016507133938259217083_">
						<use xlink:href="#SVGID_00000177454338900269743900000005990943487573171342_"  style="overflow:visible;"/>
					</clipPath>
					
						<path style="clip-path:url(#SVGID_00000098926428548178526590000016507133938259217083_);fill:none;stroke:#000000;stroke-linecap:round;stroke-linejoin:round;" d="
						M355.3,148.9c-55.5-24.6-110.6-49.1-165.4-73.4"/>
				</g>
			</g>
		</g>
		<g>
			<g>
				<g>
					<defs>
						<rect id="SVGID_00000063607498663970587690000010372025219356442803_" x="10.8" y="25.9" width="385.9" height="215.3"/>
					</defs>
					<clipPath id="SVGID_00000073684270389582549290000011525556166172674724_">
						<use xlink:href="#SVGID_00000063607498663970587690000010372025219356442803_"  style="overflow:visible;"/>
					</clipPath>
					
						<path style="clip-path:url(#SVGID_00000073684270389582549290000011525556166172674724_);stroke:#000000;stroke-linecap:round;stroke-linejoin:round;" d="
						M192.8,79l-2.8-3.5l4.5-0.2L192.8,79z"/>
				</g>
			</g>
		</g>
	</g>
	<g id="patch_10">
		<g>
			<g>
				<g>
					<defs>
						<rect id="SVGID_00000125594853596066225890000002404169309684494976_" x="10.8" y="25.9" width="385.9" height="215.3"/>
					</defs>
					<clipPath id="SVGID_00000107568702656176673220000013628663831404325785_">
						<use xlink:href="#SVGID_00000125594853596066225890000002404169309684494976_"  style="overflow:visible;"/>
					</clipPath>
					
						<path style="clip-path:url(#SVGID_00000107568702656176673220000013628663831404325785_);fill:none;stroke:#000000;stroke-linecap:round;stroke-linejoin:round;" d="
						M354.6,152.4c-39.8,0-79.2,0-118.2,0"/>
				</g>
			</g>
		</g>
		<g>
			<g>
				<g>
					<defs>
						<rect id="SVGID_00000138573186219642850650000007518909049877192839_" x="10.8" y="25.9" width="385.9" height="215.3"/>
					</defs>
					<clipPath id="SVGID_00000081641876961036149280000011824192054481639819_">
						<use xlink:href="#SVGID_00000138573186219642850650000007518909049877192839_"  style="overflow:visible;"/>
					</clipPath>
					
						<path style="clip-path:url(#SVGID_00000081641876961036149280000011824192054481639819_);stroke:#000000;stroke-linecap:round;stroke-linejoin:round;" d="
						M240.3,154.4l-4-2l4-2V154.4z"/>
				</g>
			</g>
		</g>
	</g>
	<g id="patch_11">
		<g>
			<g>
				<g>
					<defs>
						<rect id="SVGID_00000040549889646816074840000017213088823181513875_" x="10.8" y="25.9" width="385.9" height="215.3"/>
					</defs>
					<clipPath id="SVGID_00000154402922985731580070000009416097801155615144_">
						<use xlink:href="#SVGID_00000040549889646816074840000017213088823181513875_"  style="overflow:visible;"/>
					</clipPath>
					
						<path style="clip-path:url(#SVGID_00000154402922985731580070000009416097801155615144_);fill:none;stroke:#000000;stroke-linecap:round;stroke-linejoin:round;" d="
						M103.5,198.9c24.3-40,48.5-79.7,72.4-119"/>
				</g>
			</g>
		</g>
		<g>
			<g>
				<g>
					<defs>
						<rect id="SVGID_00000100352903780610258670000009916496639280117378_" x="10.8" y="25.9" width="385.9" height="215.3"/>
					</defs>
					<clipPath id="SVGID_00000018209690063232040120000012278953967086419127_">
						<use xlink:href="#SVGID_00000100352903780610258670000009916496639280117378_"  style="overflow:visible;"/>
					</clipPath>
					
						<path style="clip-path:url(#SVGID_00000018209690063232040120000012278953967086419127_);stroke:#000000;stroke-linecap:round;stroke-linejoin:round;" d="
						M172.1,82.3l3.8-2.4l-0.4,4.5L172.1,82.3z"/>
				</g>
			</g>
		</g>
	</g>
	<g id="patch_12">
		<g>
			<g>
				<g>
					<defs>
						<rect id="SVGID_00000078766672926533655820000012206316507995794602_" x="10.8" y="25.9" width="385.9" height="215.3"/>
					</defs>
					<clipPath id="SVGID_00000055684141661750263750000016752570044879210915_">
						<use xlink:href="#SVGID_00000078766672926533655820000012206316507995794602_"  style="overflow:visible;"/>
					</clipPath>
					
						<path style="clip-path:url(#SVGID_00000055684141661750263750000016752570044879210915_);fill:none;stroke:#000000;stroke-linecap:round;stroke-linejoin:round;" d="
						M106.9,203c37.2-15.7,74.1-31.3,110.6-46.7"/>
				</g>
			</g>
		</g>
		<g>
			<g>
				<g>
					<defs>
						<rect id="SVGID_00000144337643721667177970000014969274488017559974_" x="10.8" y="25.9" width="385.9" height="215.3"/>
					</defs>
					<clipPath id="SVGID_00000029762551120863167280000014609078736534657182_">
						<use xlink:href="#SVGID_00000144337643721667177970000014969274488017559974_"  style="overflow:visible;"/>
					</clipPath>
					
						<path style="clip-path:url(#SVGID_00000029762551120863167280000014609078736534657182_);stroke:#000000;stroke-linecap:round;stroke-linejoin:round;" d="
						M213.1,155.9l4.5,0.3l-2.9,3.4L213.1,155.9z"/>
				</g>
			</g>
		</g>
	</g>
	<g id="patch_13">
		<g>
			<g>
				<g>
					<defs>
						<rect id="SVGID_00000036232973730393515230000010688713866199643326_" x="10.8" y="25.9" width="385.9" height="215.3"/>
					</defs>
					<clipPath id="SVGID_00000132773525096554402770000017334680113114559362_">
						<use xlink:href="#SVGID_00000036232973730393515230000010688713866199643326_"  style="overflow:visible;"/>
					</clipPath>
					
						<path style="clip-path:url(#SVGID_00000132773525096554402770000017334680113114559362_);fill:none;stroke:#000000;stroke-linecap:round;stroke-linejoin:round;" d="
						M138,206.2c13.4-42.1,26.8-83.9,40-125.3"/>
				</g>
			</g>
		</g>
		<g>
			<g>
				<g>
					<defs>
						<rect id="SVGID_00000043416030155106934280000001190833967954792081_" x="10.8" y="25.9" width="385.9" height="215.3"/>
					</defs>
					<clipPath id="SVGID_00000178192461758316048200000003603467476983107224_">
						<use xlink:href="#SVGID_00000043416030155106934280000001190833967954792081_"  style="overflow:visible;"/>
					</clipPath>
					
						<path style="clip-path:url(#SVGID_00000178192461758316048200000003603467476983107224_);stroke:#000000;stroke-linecap:round;stroke-linejoin:round;" d="
						M174.9,84.1l3.1-3.2l0.7,4.4L174.9,84.1z"/>
				</g>
			</g>
		</g>
	</g>
	<g id="patch_14">
		<g>
			<g>
				<g>
					<defs>
						<rect id="SVGID_00000008142767401065435370000010029687922846428582_" x="10.8" y="25.9" width="385.9" height="215.3"/>
					</defs>
					<clipPath id="SVGID_00000003785555949386724960000016417006912747198116_">
						<use xlink:href="#SVGID_00000008142767401065435370000010029687922846428582_"  style="overflow:visible;"/>
					</clipPath>
					
						<path style="clip-path:url(#SVGID_00000003785555949386724960000016417006912747198116_);fill:none;stroke:#000000;stroke-linecap:round;stroke-linejoin:round;" d="
						M142.6,209.6c25.6-17.4,50.9-34.6,75.9-51.6"/>
				</g>
			</g>
		</g>
		<g>
			<g>
				<g>
					<defs>
						<rect id="SVGID_00000112623215155261366910000009072611913170507685_" x="10.8" y="25.9" width="385.9" height="215.3"/>
					</defs>
					<clipPath id="SVGID_00000044151308259072145340000005357973071600337051_">
						<use xlink:href="#SVGID_00000112623215155261366910000009072611913170507685_"  style="overflow:visible;"/>
					</clipPath>
					
						<path style="clip-path:url(#SVGID_00000044151308259072145340000005357973071600337051_);stroke:#000000;stroke-linecap:round;stroke-linejoin:round;" d="
						M214,158.5l4.4-0.6l-2.2,3.9L214,158.5z"/>
				</g>
			</g>
		</g>
	</g>
	<g id="patch_15">
		<g>
			<g>
				<g>
					<defs>
						<rect id="SVGID_00000134235858490606968020000004752349590703307412_" x="10.8" y="25.9" width="385.9" height="215.3"/>
					</defs>
					<clipPath id="SVGID_00000165193383077210125910000014680912752720649913_">
						<use xlink:href="#SVGID_00000134235858490606968020000004752349590703307412_"  style="overflow:visible;"/>
					</clipPath>
					
						<path style="clip-path:url(#SVGID_00000165193383077210125910000014680912752720649913_);fill:none;stroke:#000000;stroke-linecap:round;stroke-linejoin:round;" d="
						M172.4,213.9c2.7-44.6,5.4-88.7,8-132.6"/>
				</g>
			</g>
		</g>
		<g>
			<g>
				<g>
					<defs>
						<rect id="SVGID_00000173879302363193907950000004307042811895386528_" x="10.8" y="25.9" width="385.9" height="215.3"/>
					</defs>
					<clipPath id="SVGID_00000033348355869913244720000018180247793112198021_">
						<use xlink:href="#SVGID_00000173879302363193907950000004307042811895386528_"  style="overflow:visible;"/>
					</clipPath>
					
						<path style="clip-path:url(#SVGID_00000033348355869913244720000018180247793112198021_);stroke:#000000;stroke-linecap:round;stroke-linejoin:round;" d="
						M178.1,85.2l2.2-3.9l1.8,4.1L178.1,85.2z"/>
				</g>
			</g>
		</g>
	</g>
	<g id="patch_16">
		<g>
			<g>
				<g>
					<defs>
						<rect id="SVGID_00000003827200880005309810000009251409615558276031_" x="10.8" y="25.9" width="385.9" height="215.3"/>
					</defs>
					<clipPath id="SVGID_00000166654092186303917600000011478386526221447347_">
						<use xlink:href="#SVGID_00000003827200880005309810000009251409615558276031_"  style="overflow:visible;"/>
					</clipPath>
					
						<path style="clip-path:url(#SVGID_00000166654092186303917600000011478386526221447347_);fill:none;stroke:#000000;stroke-linecap:round;stroke-linejoin:round;" d="
						M177.2,215.7c14.7-18.8,29.1-37.3,43.3-55.5"/>
				</g>
			</g>
		</g>
		<g>
			<g>
				<g>
					<defs>
						<rect id="SVGID_00000057117788409502296910000007399094328225651349_" x="10.8" y="25.9" width="385.9" height="215.3"/>
					</defs>
					<clipPath id="SVGID_00000106839531772226735300000014356106297970163588_">
						<use xlink:href="#SVGID_00000057117788409502296910000007399094328225651349_"  style="overflow:visible;"/>
					</clipPath>
					
						<path style="clip-path:url(#SVGID_00000106839531772226735300000014356106297970163588_);stroke:#000000;stroke-linecap:round;stroke-linejoin:round;" d="
						M216.5,162.1l4-1.9l-0.9,4.4L216.5,162.1z"/>
				</g>
			</g>
		</g>
	</g>
	<g id="patch_17">
		<g>
			<g>
				<g>
					<defs>
						<rect id="SVGID_00000177481931434400322840000008160239492868283826_" x="10.8" y="25.9" width="385.9" height="215.3"/>
					</defs>
					<clipPath id="SVGID_00000011744948723848023790000005903749239821070987_">
						<use xlink:href="#SVGID_00000177481931434400322840000008160239492868283826_"  style="overflow:visible;"/>
					</clipPath>
					
						<path style="clip-path:url(#SVGID_00000011744948723848023790000005903749239821070987_);fill:none;stroke:#000000;stroke-linecap:round;stroke-linejoin:round;" d="
						M310.2,201.9c-25.4-15-50.5-29.9-75.3-44.5"/>
				</g>
			</g>
		</g>
		<g>
			<g>
				<g>
					<defs>
						<rect id="SVGID_00000121982292604619766420000007299152473572388251_" x="10.8" y="25.9" width="385.9" height="215.3"/>
					</defs>
					<clipPath id="SVGID_00000075865413850872129660000001655722926164369536_">
						<use xlink:href="#SVGID_00000121982292604619766420000007299152473572388251_"  style="overflow:visible;"/>
					</clipPath>
					
						<path style="clip-path:url(#SVGID_00000075865413850872129660000001655722926164369536_);stroke:#000000;stroke-linecap:round;stroke-linejoin:round;" d="
						M237.4,161.2l-2.4-3.8l4.5,0.3L237.4,161.2z"/>
				</g>
			</g>
		</g>
	</g>
	<g id="patch_18">
		<g>
			<g>
				<g>
					<defs>
						<rect id="SVGID_00000034795954039279208880000018330050509715012238_" x="10.8" y="25.9" width="385.9" height="215.3"/>
					</defs>
					<clipPath id="SVGID_00000102538032667552376880000008020289538152764345_">
						<use xlink:href="#SVGID_00000034795954039279208880000018330050509715012238_"  style="overflow:visible;"/>
					</clipPath>
					
						<path style="clip-path:url(#SVGID_00000102538032667552376880000008020289538152764345_);fill:none;stroke:#000000;stroke-linecap:round;stroke-linejoin:round;" d="
						M332.3,190c-32.5-11.5-64.7-23-96.5-34.3"/>
				</g>
			</g>
		</g>
		<g>
			<g>
				<g>
					<defs>
						<rect id="SVGID_00000034056296297261064610000011470291345277813898_" x="10.8" y="25.9" width="385.9" height="215.3"/>
					</defs>
					<clipPath id="SVGID_00000099651220451536994480000000453923265270138245_">
						<use xlink:href="#SVGID_00000034056296297261064610000011470291345277813898_"  style="overflow:visible;"/>
					</clipPath>
					
						<path style="clip-path:url(#SVGID_00000099651220451536994480000000453923265270138245_);stroke:#000000;stroke-linecap:round;stroke-linejoin:round;" d="
						M238.8,158.9l-3.1-3.2l4.4-0.5L238.8,158.9z"/>
				</g>
			</g>
		</g>
	</g>
	<g id="PathCollection_1">
		<g>
			<g>
				<g>
					<defs>
						<rect id="SVGID_00000117650650606702416530000007622553593891567277_" x="10.8" y="25.9" width="385.9" height="215.3"/>
					</defs>
					<clipPath id="SVGID_00000117651326589904164080000015279378547431164046_">
						<use xlink:href="#SVGID_00000117650650606702416530000007622553593891567277_"  style="overflow:visible;"/>
					</clipPath>
					<g style="clip-path:url(#SVGID_00000117651326589904164080000015279378547431164046_);">
						<g>
							<path id="C0_0_5ef6641bc7" class="st36" d="M181,79.5c2.1,0,4.1-0.8,5.6-2.3s2.3-3.5,2.3-5.6s-0.8-4.1-2.3-5.6
								s-3.5-2.3-5.6-2.3s-4.1,0.8-5.6,2.3s-2.3,3.5-2.3,5.6s0.8,4.1,2.3,5.6S178.9,79.5,181,79.5z"/>
						</g>
					</g>
				</g>
			</g>
		</g>
		<g>
			<g>
				<g>
					<defs>
						<rect id="SVGID_00000106137576827072032860000007469122726708268437_" x="10.8" y="25.9" width="385.9" height="215.3"/>
					</defs>
					<clipPath id="SVGID_00000085210574284481660130000008664054976350311075_">
						<use xlink:href="#SVGID_00000106137576827072032860000007469122726708268437_"  style="overflow:visible;"/>
					</clipPath>
					<g style="clip-path:url(#SVGID_00000085210574284481660130000008664054976350311075_);">
						<g>
							<path id="C0_0_5ef6641bc7_00000104700098857846535860000017656303067114973369_" class="st38" d="M363.2,52.5
								c2.1,0,4.1-0.8,5.6-2.3s2.3-3.5,2.3-5.6s-0.8-4.1-2.3-5.6s-3.5-2.3-5.6-2.3s-4.1,0.8-5.6,2.3s-2.3,3.5-2.3,5.6
								s0.8,4.1,2.3,5.6S361.1,52.5,363.2,52.5z"/>
						</g>
					</g>
				</g>
			</g>
		</g>
		<g>
			<g>
				<g>
					<defs>
						<rect id="SVGID_00000093135542263989796380000000435730683971714984_" x="10.8" y="25.9" width="385.9" height="215.3"/>
					</defs>
					<clipPath id="SVGID_00000019653996188827715060000006320930451669560761_">
						<use xlink:href="#SVGID_00000093135542263989796380000000435730683971714984_"  style="overflow:visible;"/>
					</clipPath>
					<g style="clip-path:url(#SVGID_00000019653996188827715060000006320930451669560761_);">
						<g>
							<path id="C0_0_5ef6641bc7_00000152952027350242286810000005629566652383487138_" class="st40" d="M67.1,146.9
								c2.1,0,4.1-0.8,5.6-2.3S75,141,75,139s-0.8-4.1-2.3-5.6s-3.5-2.3-5.6-2.3s-4.1,0.8-5.6,2.3s-2.3,3.5-2.3,5.6s0.8,4.1,2.3,5.6
								C63,146,65,146.9,67.1,146.9z"/>
						</g>
					</g>
				</g>
			</g>
		</g>
		<g>
			<g>
				<g>
					<defs>
						<rect id="SVGID_00000076581899414490571020000016155190329789820602_" x="10.8" y="25.9" width="385.9" height="215.3"/>
					</defs>
					<clipPath id="SVGID_00000008868771047119581070000015244654792182177167_">
						<use xlink:href="#SVGID_00000076581899414490571020000016155190329789820602_"  style="overflow:visible;"/>
					</clipPath>
					<g style="clip-path:url(#SVGID_00000008868771047119581070000015244654792182177167_);">
						<g>
							<path id="C0_0_5ef6641bc7_00000134246048149436636860000012078273974309848505_" class="st42" d="M44.3,52.5
								c2.1,0,4.1-0.8,5.6-2.3s2.3-3.5,2.3-5.6s-0.8-4.1-2.3-5.6s-3.5-2.3-5.6-2.3s-4.1,0.8-5.6,2.3s-2.3,3.5-2.3,5.6
								s0.8,4.1,2.3,5.6S42.2,52.5,44.3,52.5z"/>
						</g>
					</g>
				</g>
			</g>
		</g>
		<g>
			<g>
				<g>
					<defs>
						<rect id="SVGID_00000119830541181435180040000009073457055642003851_" x="10.8" y="25.9" width="385.9" height="215.3"/>
					</defs>
					<clipPath id="SVGID_00000009551744812024885780000014001788533138166958_">
						<use xlink:href="#SVGID_00000119830541181435180040000009073457055642003851_"  style="overflow:visible;"/>
					</clipPath>
					<g style="clip-path:url(#SVGID_00000009551744812024885780000014001788533138166958_);">
						<g>
							<path id="C0_0_5ef6641bc7_00000139276301268877106250000015429141415949356182_" class="st44" d="M226.5,160.3
								c2.1,0,4.1-0.8,5.6-2.3s2.3-3.5,2.3-5.6s-0.8-4.1-2.3-5.6s-3.5-2.3-5.6-2.3s-4.1,0.8-5.6,2.3s-2.3,3.5-2.3,5.6
								s0.8,4.1,2.3,5.6S224.4,160.3,226.5,160.3z"/>
						</g>
					</g>
				</g>
			</g>
		</g>
		<g>
			<g>
				<g>
					<defs>
						<rect id="SVGID_00000139294110251379865760000007826257729339549072_" x="10.8" y="25.9" width="385.9" height="215.3"/>
					</defs>
					<clipPath id="SVGID_00000067956570020238877140000003087151448393669791_">
						<use xlink:href="#SVGID_00000139294110251379865760000007826257729339549072_"  style="overflow:visible;"/>
					</clipPath>
					<g style="clip-path:url(#SVGID_00000067956570020238877140000003087151448393669791_);">
						<g>
							<path id="C0_0_5ef6641bc7_00000028286023048933042680000008026786549655672472_" class="st40" d="M363.2,160.3
								c2.1,0,4.1-0.8,5.6-2.3s2.3-3.5,2.3-5.6s-0.8-4.1-2.3-5.6s-3.5-2.3-5.6-2.3s-4.1,0.8-5.6,2.3s-2.3,3.5-2.3,5.6
								s0.8,4.1,2.3,5.6S361.1,160.3,363.2,160.3z"/>
						</g>
					</g>
				</g>
			</g>
		</g>
		<g>
			<g>
				<g>
					<defs>
						<rect id="SVGID_00000027603597787024853480000001516182600432867226_" x="10.8" y="25.9" width="385.9" height="215.3"/>
					</defs>
					<clipPath id="SVGID_00000007398905867674194610000018279414416555994001_">
						<use xlink:href="#SVGID_00000027603597787024853480000001516182600432867226_"  style="overflow:visible;"/>
					</clipPath>
					<g style="clip-path:url(#SVGID_00000007398905867674194610000018279414416555994001_);">
						<g>
							<path id="C0_0_5ef6641bc7_00000088115233125316576150000006629409285947050671_" class="st47" d="M99,214.2
								c2.1,0,4.1-0.8,5.6-2.3s2.3-3.5,2.3-5.6s-0.8-4.1-2.3-5.6s-3.5-2.3-5.6-2.3s-4.1,0.8-5.6,2.3s-2.3,3.5-2.3,5.6
								s0.8,4.1,2.3,5.6S96.9,214.2,99,214.2z"/>
						</g>
					</g>
				</g>
			</g>
		</g>
		<g>
			<g>
				<g>
					<defs>
						<rect id="SVGID_00000045585174929564674030000012697145912554285190_" x="10.8" y="25.9" width="385.9" height="215.3"/>
					</defs>
					<clipPath id="SVGID_00000121996802871247657910000007830176826000155278_">
						<use xlink:href="#SVGID_00000045585174929564674030000012697145912554285190_"  style="overflow:visible;"/>
					</clipPath>
					<g style="clip-path:url(#SVGID_00000121996802871247657910000007830176826000155278_);">
						<g>
							<path id="C0_0_5ef6641bc7_00000139257752687344337460000004159223917731980679_" class="st47" d="M135.4,222.3
								c2.1,0,4.1-0.8,5.6-2.3s2.3-3.5,2.3-5.6s-0.8-4.1-2.3-5.6s-3.5-2.3-5.6-2.3s-4.1,0.8-5.6,2.3s-2.3,3.5-2.3,5.6
								s0.8,4.1,2.3,5.6S133.3,222.3,135.4,222.3z"/>
						</g>
					</g>
				</g>
			</g>
		</g>
		<g>
			<g>
				<g>
					<defs>
						<rect id="SVGID_00000100355745872163923710000015389264136799864450_" x="10.8" y="25.9" width="385.9" height="215.3"/>
					</defs>
					<clipPath id="SVGID_00000082343179439793868990000003700857426888535719_">
						<use xlink:href="#SVGID_00000100355745872163923710000015389264136799864450_"  style="overflow:visible;"/>
					</clipPath>
					<g style="clip-path:url(#SVGID_00000082343179439793868990000003700857426888535719_);">
						<g>
							<path id="C0_0_5ef6641bc7_00000039854299178622125050000014392811744787525268_" class="st47" d="M171.9,230.4
								c2.1,0,4.1-0.8,5.6-2.3s2.3-3.5,2.3-5.6s-0.8-4.1-2.3-5.6s-3.5-2.3-5.6-2.3s-4.1,0.8-5.6,2.3s-2.3,3.5-2.3,5.6
								s0.8,4.1,2.3,5.6S169.8,230.4,171.9,230.4z"/>
						</g>
					</g>
				</g>
			</g>
		</g>
		<g>
			<g>
				<g>
					<defs>
						<rect id="SVGID_00000163048776898521533740000016060459915479777970_" x="10.8" y="25.9" width="385.9" height="215.3"/>
					</defs>
					<clipPath id="SVGID_00000162320154201780877540000001325954550972681133_">
						<use xlink:href="#SVGID_00000163048776898521533740000016060459915479777970_"  style="overflow:visible;"/>
					</clipPath>
					<g style="clip-path:url(#SVGID_00000162320154201780877540000001325954550972681133_);">
						<g>
							<path id="C0_0_5ef6641bc7_00000126324919121963838860000009815388779924716439_" class="st47" d="M317.7,214.2
								c2.1,0,4.1-0.8,5.6-2.3s2.3-3.5,2.3-5.6s-0.8-4.1-2.3-5.6s-3.5-2.3-5.6-2.3s-4.1,0.8-5.6,2.3s-2.3,3.5-2.3,5.6
								s0.8,4.1,2.3,5.6C313.5,213.4,315.6,214.2,317.7,214.2z"/>
						</g>
					</g>
				</g>
			</g>
		</g>
		<g>
			<g>
				<g>
					<defs>
						<rect id="SVGID_00000018201776128942533130000016470774325078770070_" x="10.8" y="25.9" width="385.9" height="215.3"/>
					</defs>
					<clipPath id="SVGID_00000146490476595081421640000013766024954465324454_">
						<use xlink:href="#SVGID_00000018201776128942533130000016470774325078770070_"  style="overflow:visible;"/>
					</clipPath>
					<g style="clip-path:url(#SVGID_00000146490476595081421640000013766024954465324454_);">
						<g>
							<path id="C0_0_5ef6641bc7_00000103961354665368584390000010201675171113239482_" class="st47" d="M340.4,200.8
								c2.1,0,4.1-0.8,5.6-2.3s2.3-3.5,2.3-5.6s-0.8-4.1-2.3-5.6s-3.5-2.3-5.6-2.3s-4.1,0.8-5.6,2.3s-2.3,3.5-2.3,5.6
								s0.8,4.1,2.3,5.6C336.3,199.9,338.3,200.8,340.4,200.8z"/>
						</g>
					</g>
				</g>
			</g>
		</g>
	</g>
	<g id="text_1">
		<g transform="translate(132.821425 19.918125)scale(0.12 -0.12)">
			<g>
				<path id="DejaVuSans-68" d="M19.7,64.8V8.1h11.9c10.1,0,17.4,2.3,22.1,6.8c4.7,4.6,7,11.8,7,21.6s-2.3,16.9-7,21.5
					s-12,6.8-22.1,6.8H19.7z M9.8,72.9h20.3c14.1,0,24.5-2.9,31.1-8.8s9.9-15.1,9.9-27.6c0-12.6-3.3-21.8-10-27.7
					c-6.6-5.9-17-8.8-31-8.8H9.8V72.9z"/>
			</g>
			<g>
				<path id="DejaVuSans-105" d="M86.4,54.7h9V0h-9V54.7z M86.4,76h9V64.6h-9V76z"/>
			</g>
			<g>
				<path id="DejaVuSans-71" d="M164.3,10.4V30h-16.1v8.1h25.9V6.8c-3.8-2.7-8-4.7-12.6-6.1s-9.5-2.1-14.7-2.1
					c-11.4,0-20.3,3.3-26.8,10c-6.4,6.7-9.6,15.9-9.6,27.8s3.2,21.2,9.6,27.9c6.4,6.7,15.4,10,26.8,10c4.8,0,9.3-0.6,13.5-1.8
					c4.3-1.2,8.2-2.9,11.8-5.2V56.8c-3.6,3.1-7.5,5.4-11.6,7c-4.1,1.6-8.4,2.3-12.9,2.3c-8.9,0-15.6-2.5-20.1-7.5
					c-4.5-5-6.7-12.4-6.7-22.3c0-9.8,2.2-17.2,6.7-22.2c4.5-5,11.2-7.5,20.1-7.5c3.5,0,6.6,0.3,9.3,0.9
					C159.7,8.2,162.1,9.1,164.3,10.4z"/>
			</g>
			<g>
				<path id="DejaVuSans-114" d="M223.4,46.3c-1,0.6-2.1,1-3.3,1.3s-2.5,0.4-3.9,0.4c-5.1,0-9-1.7-11.7-5s-4.1-8-4.1-14.2V0h-9v54.7
					h9v-8.5c1.9,3.3,4.4,5.8,7.4,7.4c3,1.6,6.7,2.4,11,2.4c0.6,0,1.3,0,2-0.1c0.8-0.1,1.6-0.2,2.5-0.4L223.4,46.3z"/>
			</g>
			<g>
				<path id="DejaVuSans-97" d="M257.7,27.5c-7.3,0-12.3-0.8-15.1-2.5s-4.2-4.5-4.2-8.5c0-3.2,1.1-5.7,3.2-7.6
					c2.1-1.9,5-2.8,8.6-2.8c5,0,9,1.8,12,5.3s4.5,8.2,4.5,14.1v2H257.7z M275.6,31.2V0h-9v8.3c-2-3.3-4.6-5.8-7.7-7.3
					s-6.8-2.4-11.2-2.4c-5.6,0-10,1.6-13.4,4.7c-3.3,3.1-5,7.4-5,12.6c0,6.1,2.1,10.8,6.2,13.9c4.1,3.1,10.3,4.7,18.4,4.7h12.6v0.9
					c0,4.1-1.4,7.3-4.1,9.6s-6.5,3.4-11.5,3.4c-3.1,0-6.2-0.4-9.1-1.1c-3-0.8-5.8-1.9-8.5-3.4v8.3c3.3,1.3,6.5,2.2,9.6,2.8
					s6.1,1,9,1c7.9,0,13.8-2.1,17.7-6.2C273.6,45.7,275.6,39.5,275.6,31.2z"/>
			</g>
			<g>
				<path id="DejaVuSans-112" d="M302.8,8.2v-29h-9v75.5h9v-8.3c1.9,3.2,4.3,5.7,7.2,7.2c2.9,1.6,6.3,2.4,10.3,2.4
					c6.6,0,12-2.6,16.2-7.9s6.2-12.2,6.2-20.8s-2.1-15.5-6.2-20.8s-9.5-7.9-16.2-7.9c-4,0-7.4,0.8-10.3,2.4
					C307.1,2.5,304.7,5,302.8,8.2z M333.4,27.3c0,6.6-1.4,11.8-4.1,15.5s-6.5,5.6-11.2,5.6c-4.8,0-8.5-1.9-11.2-5.6
					s-4.1-8.9-4.1-15.5s1.4-11.8,4.1-15.5s6.5-5.6,11.2-5.6c4.8,0,8.5,1.9,11.2,5.6S333.4,20.7,333.4,27.3z"/>
			</g>
			<g>
				<path id="DejaVuSans-104" d="M403,33V0h-9v32.7c0,5.2-1,9-3,11.6c-2,2.6-5,3.9-9.1,3.9c-4.9,0-8.7-1.5-11.5-4.6
					s-4.2-7.3-4.2-12.6V0h-9v76h9V46.2c2.2,3.3,4.7,5.8,7.6,7.4c2.9,1.6,6.3,2.4,10.1,2.4c6.3,0,11-1.9,14.2-5.8
					C401.4,46.3,403,40.6,403,33z"/>
			</g>
			<g>
				<path id="DejaVuSans-32" d="M411.5,0"/>
			</g>
			<g>
				<path id="DejaVuSans-75" d="M453.1,72.9h9.9V42.1l32.7,30.8h12.7l-36.2-34L511,0h-13l-35,35.1V0h-9.9V72.9z"/>
			</g>
			<g>
				<path id="DejaVuSans-97_00000176755539421105544220000014031086352532390826_" d="M541.4,27.5c-7.3,0-12.3-0.8-15.1-2.5
					s-4.2-4.5-4.2-8.5c0-3.2,1.1-5.7,3.2-7.6c2.1-1.9,5-2.8,8.6-2.8c5,0,9,1.8,12,5.3s4.5,8.2,4.5,14.1v2H541.4z M559.3,31.2V0h-9
					v8.3c-2.1-3.3-4.6-5.8-7.7-7.3s-6.8-2.4-11.2-2.4c-5.6,0-10,1.6-13.4,4.7c-3.3,3.1-5,7.4-5,12.6c0,6.1,2.1,10.8,6.2,13.9
					c4.1,3.1,10.3,4.7,18.4,4.7h12.6v0.9c0,4.1-1.4,7.3-4.1,9.6s-6.5,3.4-11.5,3.4c-3.1,0-6.2-0.4-9.1-1.1c-3-0.8-5.8-1.9-8.5-3.4
					v8.3c3.3,1.3,6.5,2.2,9.6,2.8s6.1,1,9,1c7.9,0,13.8-2.1,17.7-6.2C557.4,45.7,559.3,39.5,559.3,31.2z"/>
			</g>
			<g>
				<path id="DejaVuSans-116" d="M586.7,70.2V54.7h18.5v-7h-18.5V18c0-4.5,0.6-7.3,1.8-8.6s3.7-1.9,7.5-1.9h9.2V0H596
					c-6.9,0-11.7,1.3-14.4,3.9c-2.6,2.6-4,7.3-4,14.1v29.7H571v7h6.6v15.5H586.7z"/>
			</g>
			<g>
				<path id="DejaVuSans-122" d="M613.1,54.7h42.7v-8.2L622,7.2h33.8V0h-43.9v8.2l33.8,39.3h-32.6V54.7z"/>
			</g>
			<g>
				<path id="DejaVuSans-32_00000163775365054257377040000003897558331454348168_" d="M660.1,0"/>
			</g>
			<g>
				<path id="DejaVuSans-67" d="M756.3,67.3V56.9c-3.3,3.1-6.9,5.4-10.6,6.9c-3.8,1.5-7.8,2.3-12,2.3c-8.3,0-14.7-2.5-19.1-7.6
					c-4.4-5.1-6.6-12.5-6.6-22.1s2.2-17,6.6-22c4.4-5.1,10.8-7.6,19.1-7.6c4.2,0,8.2,0.8,12,2.3s7.3,3.8,10.6,6.9V5.6
					c-3.4-2.3-7.1-4.1-11-5.3s-7.9-1.7-12.2-1.7c-11,0-19.7,3.4-26.1,10.1c-6.3,6.8-9.5,16-9.5,27.7s3.2,21,9.5,27.7
					c6.4,6.8,15.1,10.1,26.1,10.1c4.4,0,8.5-0.6,12.3-1.7C749.3,71.3,752.9,69.6,756.3,67.3z"/>
			</g>
			<g>
				<path id="DejaVuSans-101" d="M817.9,29.6v-4.4h-41.3c0.4-6.2,2.3-10.9,5.6-14.1s8-4.9,13.9-4.9c3.4,0,6.8,0.4,10,1.3
					c3.2,0.8,6.5,2.1,9.7,3.8V2.8c-3.2-1.4-6.5-2.4-9.9-3.1s-6.8-1.1-10.3-1.1c-8.7,0-15.6,2.5-20.7,7.6c-5.1,5.1-7.6,12-7.6,20.6
					c0,8.9,2.4,16,7.2,21.3s11.4,7.9,19.6,7.9c7.4,0,13.2-2.4,17.5-7.1C815.8,44.2,817.9,37.7,817.9,29.6z M808.9,32.2
					c-0.1,4.9-1.4,8.8-4.1,11.8c-2.7,2.9-6.2,4.4-10.7,4.4c-5,0-9-1.4-12-4.2s-4.7-6.8-5.2-12H808.9z"/>
			</g>
			<g>
				<path id="DejaVuSans-110" d="M878.1,33V0h-9v32.7c0,5.2-1,9-3,11.6c-2,2.6-5,3.9-9.1,3.9c-4.9,0-8.7-1.5-11.5-4.6
					s-4.2-7.3-4.2-12.6V0h-9v54.7h9v-8.5c2.2,3.3,4.7,5.8,7.6,7.4c2.9,1.6,6.3,2.4,10.1,2.4c6.3,0,11-1.9,14.2-5.8
					C876.5,46.3,878.1,40.6,878.1,33z"/>
			</g>
			<g>
				<path id="DejaVuSans-116_00000127732149758815309960000014647486182918175663_" d="M904.9,70.2V54.7h18.5v-7h-18.5V18
					c0-4.5,0.6-7.3,1.8-8.6s3.7-1.9,7.5-1.9h9.2V0h-9.2c-6.9,0-11.7,1.3-14.4,3.9c-2.6,2.6-4,7.3-4,14.1v29.7h-6.6v7h6.6v15.5H904.9
					z"/>
			</g>
			<g>
				<path id="DejaVuSans-114_00000031913530276735485960000001665770133824549029_" d="M966.9,46.3c-1,0.6-2.1,1-3.3,1.3
					s-2.5,0.4-3.9,0.4c-5.1,0-9-1.7-11.7-5s-4.1-8-4.1-14.2V0h-9v54.7h9v-8.5c1.9,3.3,4.4,5.8,7.4,7.4c3,1.6,6.7,2.4,11,2.4
					c0.6,0,1.3,0,2-0.1c0.8-0.1,1.6-0.2,2.5-0.4L966.9,46.3z"/>
			</g>
			<g>
				<path id="DejaVuSans-97_00000034803331578254724050000015136746682967826851_" d="M1001.2,27.5c-7.3,0-12.3-0.8-15.1-2.5
					s-4.2-4.5-4.2-8.5c0-3.2,1.1-5.7,3.2-7.6c2.1-1.9,5-2.8,8.6-2.8c5,0,9,1.8,12,5.3s4.5,8.2,4.5,14.1v2H1001.2z M1019.2,31.2V0h-9
					v8.3c-2.1-3.3-4.6-5.8-7.7-7.3s-6.8-2.4-11.2-2.4c-5.6,0-10,1.6-13.4,4.7c-3.3,3.1-5,7.4-5,12.6c0,6.1,2.1,10.8,6.2,13.9
					c4.1,3.1,10.3,4.7,18.4,4.7h12.6v0.9c0,4.1-1.4,7.3-4.1,9.6s-6.5,3.4-11.5,3.4c-3.1,0-6.2-0.4-9.1-1.1c-3-0.8-5.8-1.9-8.5-3.4
					v8.3c3.3,1.3,6.5,2.2,9.6,2.8s6.1,1,9,1c7.9,0,13.8-2.1,17.7-6.2C1017.2,45.7,1019.2,39.5,1019.2,31.2z"/>
			</g>
			<g>
				<path id="DejaVuSans-108" d="M1037.7,76h9V0h-9V76z"/>
			</g>
			<g>
				<path id="DejaVuSans-105_00000160166876334220478250000011642953508434075532_" d="M1065.4,54.7h9V0h-9V54.7z M1065.4,76h9V64.6
					h-9V76z"/>
			</g>
			<g>
				<path id="DejaVuSans-116_00000080907564514107173720000016437375789508687797_" d="M1102.1,70.2V54.7h18.5v-7h-18.5V18
					c0-4.5,0.6-7.3,1.8-8.6s3.7-1.9,7.5-1.9h9.2V0h-9.2c-6.9,0-11.7,1.3-14.4,3.9c-2.6,2.6-4,7.3-4,14.1v29.7h-6.6v7h6.6v15.5
					H1102.1z"/>
			</g>
			<g>
				<path id="DejaVuSans-121" d="M1155.2-5.1c-2.5-6.5-5-10.8-7.4-12.7c-2.4-2-5.6-3-9.7-3h-7.2v7.5h5.3c2.5,0,4.4,0.6,5.8,1.8
					s2.9,3.9,4.5,8.3l1.6,4.1L1126,54.7h9.5l17.1-42.8l17.1,42.8h9.5L1155.2-5.1z"/>
			</g>
		</g>
	</g>
</g>
</svg>
