<?xml version="1.0" encoding="utf-8"?>
<!-- Generator: Adobe Illustrator 26.0.2, SVG Export Plug-In . SVG Version: 6.00 Build 0)  -->
<svg version="1.1" id="Layer_1" xmlns="http://www.w3.org/2000/svg" xmlns:xlink="http://www.w3.org/1999/xlink" x="0px" y="0px"
	 viewBox="0 0 504 252" style="enable-background:new 0 0 504 252;" xml:space="preserve">
<style type="text/css">
	.st0{fill:none;}
	
		.st1{clip-path:url(#SVGID_00000061437625522447730600000001903826162306932923_);fill:none;stroke:#000000;stroke-linecap:round;stroke-linejoin:round;}
	
		.st2{clip-path:url(#SVGID_00000157288423098468786550000003163030753542996136_);stroke:#000000;stroke-linecap:round;stroke-linejoin:round;}
	
		.st3{clip-path:url(#SVGID_00000137100702823555266940000018327435053832543394_);fill:none;stroke:#000000;stroke-linecap:round;stroke-linejoin:round;}
	
		.st4{clip-path:url(#SVGID_00000117669419387321906990000009600417906174784151_);stroke:#000000;stroke-linecap:round;stroke-linejoin:round;}
	
		.st5{clip-path:url(#SVGID_00000049179646812915854730000014492219271600545925_);fill:none;stroke:#000000;stroke-linecap:round;stroke-linejoin:round;}
	
		.st6{clip-path:url(#SVGID_00000155847919705555257100000005875396650290414742_);stroke:#000000;stroke-linecap:round;stroke-linejoin:round;}
	
		.st7{clip-path:url(#SVGID_00000022532725437385959070000001858326171866214312_);fill:none;stroke:#000000;stroke-linecap:round;stroke-linejoin:round;}
	
		.st8{clip-path:url(#SVGID_00000053505975106046769860000017893541622619121828_);stroke:#000000;stroke-linecap:round;stroke-linejoin:round;}
	
		.st9{clip-path:url(#SVGID_00000090273629810905018120000006017518135788017810_);fill:none;stroke:#000000;stroke-linecap:round;stroke-linejoin:round;}
	
		.st10{clip-path:url(#SVGID_00000143602859246803087600000017672549590653964435_);stroke:#000000;stroke-linecap:round;stroke-linejoin:round;}
	
		.st11{clip-path:url(#SVGID_00000140718665556832238410000016370251665785620409_);fill:none;stroke:#000000;stroke-linecap:round;stroke-linejoin:round;}
	
		.st12{clip-path:url(#SVGID_00000129172197895103145980000016961820791295430056_);stroke:#000000;stroke-linecap:round;stroke-linejoin:round;}
	
		.st13{clip-path:url(#SVGID_00000070835510031410549990000000289611076880158902_);fill:none;stroke:#000000;stroke-linecap:round;stroke-linejoin:round;}
	
		.st14{clip-path:url(#SVGID_00000047052930740090349520000011122722169722699145_);stroke:#000000;stroke-linecap:round;stroke-linejoin:round;}
	
		.st15{clip-path:url(#SVGID_00000150075990525417249480000004510845365292216988_);fill:none;stroke:#000000;stroke-linecap:round;stroke-linejoin:round;}
	
		.st16{clip-path:url(#SVGID_00000065063005221187812800000010129203097467533503_);stroke:#000000;stroke-linecap:round;stroke-linejoin:round;}
	
		.st17{clip-path:url(#SVGID_00000028319886367740511490000009403892168177392574_);fill:none;stroke:#000000;stroke-linecap:round;stroke-linejoin:round;}
	
		.st18{clip-path:url(#SVGID_00000107560099537541566830000002036101830098152375_);stroke:#000000;stroke-linecap:round;stroke-linejoin:round;}
	
		.st19{clip-path:url(#SVGID_00000083083557992123697970000012114321859093849501_);fill:none;stroke:#000000;stroke-linecap:round;stroke-linejoin:round;}
	
		.st20{clip-path:url(#SVGID_00000145038274060256491630000011187519994557545629_);stroke:#000000;stroke-linecap:round;stroke-linejoin:round;}
	
		.st21{clip-path:url(#SVGID_00000037677869558804689020000005000479298865704338_);fill:none;stroke:#000000;stroke-linecap:round;stroke-linejoin:round;}
	
		.st22{clip-path:url(#SVGID_00000181081539210637036100000006339557056381046667_);stroke:#000000;stroke-linecap:round;stroke-linejoin:round;}
	
		.st23{clip-path:url(#SVGID_00000043447834561174851410000006824975638260215181_);fill:none;stroke:#000000;stroke-linecap:round;stroke-linejoin:round;}
	
		.st24{clip-path:url(#SVGID_00000135661786078019825780000007729110335311636908_);stroke:#000000;stroke-linecap:round;stroke-linejoin:round;}
	
		.st25{clip-path:url(#SVGID_00000011005688937557208300000004303772024499922582_);fill:none;stroke:#000000;stroke-linecap:round;stroke-linejoin:round;}
	
		.st26{clip-path:url(#SVGID_00000010309786054475778520000005655314931283085490_);stroke:#000000;stroke-linecap:round;stroke-linejoin:round;}
	
		.st27{clip-path:url(#SVGID_00000172398080523167584240000008207835072237098395_);fill:none;stroke:#000000;stroke-linecap:round;stroke-linejoin:round;}
	
		.st28{clip-path:url(#SVGID_00000085946166508039812850000006160513788093737910_);stroke:#000000;stroke-linecap:round;stroke-linejoin:round;}
	
		.st29{clip-path:url(#SVGID_00000169543937670699307340000004451339765286072208_);fill:none;stroke:#000000;stroke-linecap:round;stroke-linejoin:round;}
	
		.st30{clip-path:url(#SVGID_00000165932810489838141540000017745511967038881669_);stroke:#000000;stroke-linecap:round;stroke-linejoin:round;}
	
		.st31{clip-path:url(#SVGID_00000183947922946743874840000008456460070674711210_);fill:none;stroke:#000000;stroke-linecap:round;stroke-linejoin:round;}
	
		.st32{clip-path:url(#SVGID_00000177455916015026766070000010017303894251458197_);stroke:#000000;stroke-linecap:round;stroke-linejoin:round;}
	
		.st33{clip-path:url(#SVGID_00000011029770955266164910000001425284002522795177_);fill:none;stroke:#000000;stroke-linecap:round;stroke-linejoin:round;}
	
		.st34{clip-path:url(#SVGID_00000077300949641371619640000006942305922374202541_);stroke:#000000;stroke-linecap:round;stroke-linejoin:round;}
	.st35{clip-path:url(#SVGID_00000055696231072455802710000012137469708370841237_);}
	.st36{fill:#FDE725;stroke:#FDE725;stroke-linejoin:round;}
	.st37{clip-path:url(#SVGID_00000113325159516847916850000012004896071576138686_);}
	.st38{clip-path:url(#SVGID_00000113349709802734533390000004653329897702061702_);}
	.st39{fill:#440154;stroke:#440154;stroke-linejoin:round;}
	.st40{clip-path:url(#SVGID_00000172401188613481800300000010152746272409997977_);}
	.st41{clip-path:url(#SVGID_00000170975676598408565630000016994713219711512216_);}
	.st42{clip-path:url(#SVGID_00000113351697115700205730000013109682877255851186_);}
	.st43{clip-path:url(#SVGID_00000063600869560266655950000017196583839662244515_);}
	.st44{clip-path:url(#SVGID_00000111910214812030679350000016174127327198178971_);}
	.st45{clip-path:url(#SVGID_00000067232596490181018830000006457631721213501118_);}
	.st46{clip-path:url(#SVGID_00000115516090460488387610000017741934920720697769_);}
	.st47{clip-path:url(#SVGID_00000005958482305216285840000008364257422950563483_);}
</style>
<g id="patch_1">
	<path class="st0" d="M0,252h504V0H0V252z"/>
</g>
<g id="matplotlib.axis_1">
</g>
<g id="axes_1">
	<g id="patch_2">
		<g>
			<g>
				<g>
					<g>
						<defs>
							<rect id="SVGID_1_" x="59.1" y="25.9" width="385.9" height="209.4"/>
						</defs>
						<clipPath id="SVGID_00000096053137748579209320000016369954812951703735_">
							<use xlink:href="#SVGID_1_"  style="overflow:visible;"/>
						</clipPath>
						
							<path style="clip-path:url(#SVGID_00000096053137748579209320000016369954812951703735_);fill:none;stroke:#000000;stroke-linecap:round;stroke-linejoin:round;" d="
							M237.9,69.1c55-7.9,109.7-15.8,164-23.6"/>
					</g>
				</g>
			</g>
		</g>
		<g>
			<g>
				<g>
					<g>
						<defs>
							<rect id="SVGID_00000159469034563246253890000005376755010454749369_" x="59.1" y="25.9" width="385.9" height="209.4"/>
						</defs>
						<clipPath id="SVGID_00000000932323984249777250000007767198651799994251_">
							<use xlink:href="#SVGID_00000159469034563246253890000005376755010454749369_"  style="overflow:visible;"/>
						</clipPath>
						
							<path style="clip-path:url(#SVGID_00000000932323984249777250000007767198651799994251_);stroke:#000000;stroke-linecap:round;stroke-linejoin:round;" d="
							M397.5,44.1l4.2,1.4L398,48L397.5,44.1z"/>
					</g>
				</g>
			</g>
		</g>
	</g>
	<g id="patch_3">
		<g>
			<g>
				<g>
					<g>
						<defs>
							<rect id="SVGID_00000174575933091878697570000007148295402889514424_" x="59.1" y="25.9" width="385.9" height="209.4"/>
						</defs>
						<clipPath id="SVGID_00000090282883057493952850000010442910495342000001_">
							<use xlink:href="#SVGID_00000174575933091878697570000007148295402889514424_"  style="overflow:visible;"/>
						</clipPath>
						
							<path style="clip-path:url(#SVGID_00000090282883057493952850000010442910495342000001_);fill:none;stroke:#000000;stroke-linecap:round;stroke-linejoin:round;" d="
							M403,45.3c-55,7.9-109.7,15.8-164,23.6"/>
					</g>
				</g>
			</g>
		</g>
		<g>
			<g>
				<g>
					<g>
						<defs>
							<rect id="SVGID_00000160910293897048870380000002273578698418161025_" x="59.1" y="25.9" width="385.9" height="209.4"/>
						</defs>
						<clipPath id="SVGID_00000182521236126885342990000013211512427352058540_">
							<use xlink:href="#SVGID_00000160910293897048870380000002273578698418161025_"  style="overflow:visible;"/>
						</clipPath>
						
							<path style="clip-path:url(#SVGID_00000182521236126885342990000013211512427352058540_);stroke:#000000;stroke-linecap:round;stroke-linejoin:round;" d="
							M243.2,70.3l-4.2-1.4l3.7-2.5L243.2,70.3z"/>
					</g>
				</g>
			</g>
		</g>
	</g>
	<g id="patch_4">
		<g>
			<g>
				<g>
					<g>
						<defs>
							<rect id="SVGID_00000169521856083892156640000005995125757484797111_" x="59.1" y="25.9" width="385.9" height="209.4"/>
						</defs>
						<clipPath id="SVGID_00000124843760565288746410000012542706169189590671_">
							<use xlink:href="#SVGID_00000169521856083892156640000005995125757484797111_"  style="overflow:visible;"/>
						</clipPath>
						
							<path style="clip-path:url(#SVGID_00000124843760565288746410000012542706169189590671_);fill:none;stroke:#000000;stroke-linecap:round;stroke-linejoin:round;" d="
							M113.3,127.5c-6.2-25-12.3-49.6-18.3-73.9"/>
					</g>
				</g>
			</g>
		</g>
		<g>
			<g>
				<g>
					<g>
						<defs>
							<rect id="SVGID_00000180357426829729944040000016641467619831498639_" x="59.1" y="25.9" width="385.9" height="209.4"/>
						</defs>
						<clipPath id="SVGID_00000173847372432709860360000003034291333169119883_">
							<use xlink:href="#SVGID_00000180357426829729944040000016641467619831498639_"  style="overflow:visible;"/>
						</clipPath>
						
							<path style="clip-path:url(#SVGID_00000173847372432709860360000003034291333169119883_);stroke:#000000;stroke-linecap:round;stroke-linejoin:round;" d="
							M94,57.9l1-4.4l2.9,3.4L94,57.9z"/>
					</g>
				</g>
			</g>
		</g>
	</g>
	<g id="patch_5">
		<g>
			<g>
				<g>
					<g>
						<defs>
							<rect id="SVGID_00000182489028799476474130000006240549140529123231_" x="59.1" y="25.9" width="385.9" height="209.4"/>
						</defs>
						<clipPath id="SVGID_00000144339232825194944760000013840897635259598466_">
							<use xlink:href="#SVGID_00000182489028799476474130000006240549140529123231_"  style="overflow:visible;"/>
						</clipPath>
						
							<path style="clip-path:url(#SVGID_00000144339232825194944760000013840897635259598466_);fill:none;stroke:#000000;stroke-linecap:round;stroke-linejoin:round;" d="
							M122.9,131.5c33-19,65.6-37.8,97.9-56.4"/>
					</g>
				</g>
			</g>
		</g>
		<g>
			<g>
				<g>
					<g>
						<defs>
							<rect id="SVGID_00000041255783888359388930000005763663755190006418_" x="59.1" y="25.9" width="385.9" height="209.4"/>
						</defs>
						<clipPath id="SVGID_00000150794525178449874520000012322504427061705102_">
							<use xlink:href="#SVGID_00000041255783888359388930000005763663755190006418_"  style="overflow:visible;"/>
						</clipPath>
						
							<path style="clip-path:url(#SVGID_00000150794525178449874520000012322504427061705102_);stroke:#000000;stroke-linecap:round;stroke-linejoin:round;" d="
							M216.3,75.4l4.5-0.3l-2.5,3.7L216.3,75.4z"/>
					</g>
				</g>
			</g>
		</g>
	</g>
	<g id="patch_6">
		<g>
			<g>
				<g>
					<g>
						<defs>
							<rect id="SVGID_00000008833531636981053110000017279676481715806379_" x="59.1" y="25.9" width="385.9" height="209.4"/>
						</defs>
						<clipPath id="SVGID_00000129202985528667751280000015304312773653059462_">
							<use xlink:href="#SVGID_00000008833531636981053110000017279676481715806379_"  style="overflow:visible;"/>
						</clipPath>
						
							<path style="clip-path:url(#SVGID_00000129202985528667751280000015304312773653059462_);fill:none;stroke:#000000;stroke-linecap:round;stroke-linejoin:round;" d="
							M270.5,141.5c-12.3-21.2-24.4-42.1-36.3-62.7"/>
					</g>
				</g>
			</g>
		</g>
		<g>
			<g>
				<g>
					<g>
						<defs>
							<rect id="SVGID_00000063602207042415384660000014695382269081418132_" x="59.1" y="25.9" width="385.9" height="209.4"/>
						</defs>
						<clipPath id="SVGID_00000089541562053096665880000007915541385976581801_">
							<use xlink:href="#SVGID_00000063602207042415384660000014695382269081418132_"  style="overflow:visible;"/>
						</clipPath>
						
							<path style="clip-path:url(#SVGID_00000089541562053096665880000007915541385976581801_);stroke:#000000;stroke-linecap:round;stroke-linejoin:round;" d="
							M234.5,83.2l-0.3-4.5l3.7,2.5L234.5,83.2z"/>
					</g>
				</g>
			</g>
		</g>
	</g>
	<g id="patch_7">
		<g>
			<g>
				<g>
					<g>
						<defs>
							<rect id="SVGID_00000062888881174121740390000005647492860221785003_" x="59.1" y="25.9" width="385.9" height="209.4"/>
						</defs>
						<clipPath id="SVGID_00000126289428966090759180000004834886608097101478_">
							<use xlink:href="#SVGID_00000062888881174121740390000005647492860221785003_"  style="overflow:visible;"/>
						</clipPath>
						
							<path style="clip-path:url(#SVGID_00000126289428966090759180000004834886608097101478_);fill:none;stroke:#000000;stroke-linecap:round;stroke-linejoin:round;" d="
							M266.1,148.3c-47.4-3.9-94.4-7.8-141.1-11.6"/>
					</g>
				</g>
			</g>
		</g>
		<g>
			<g>
				<g>
					<g>
						<defs>
							<rect id="SVGID_00000060016854490321427030000015822151880413126817_" x="59.1" y="25.9" width="385.9" height="209.4"/>
						</defs>
						<clipPath id="SVGID_00000171682878580355517560000001923427101201544878_">
							<use xlink:href="#SVGID_00000060016854490321427030000015822151880413126817_"  style="overflow:visible;"/>
						</clipPath>
						
							<path style="clip-path:url(#SVGID_00000171682878580355517560000001923427101201544878_);stroke:#000000;stroke-linecap:round;stroke-linejoin:round;" d="
							M128.9,139l-3.8-2.3l4.2-1.7L128.9,139z"/>
					</g>
				</g>
			</g>
		</g>
	</g>
	<g id="patch_8">
		<g>
			<g>
				<g>
					<g>
						<defs>
							<rect id="SVGID_00000181770643680222074470000012072631899504615865_" x="59.1" y="25.9" width="385.9" height="209.4"/>
						</defs>
						<clipPath id="SVGID_00000008868399558190627860000011855403906987145091_">
							<use xlink:href="#SVGID_00000181770643680222074470000012072631899504615865_"  style="overflow:visible;"/>
						</clipPath>
						
							<path style="clip-path:url(#SVGID_00000008868399558190627860000011855403906987145091_);fill:none;stroke:#000000;stroke-linecap:round;stroke-linejoin:round;" d="
							M283.5,149c39.8,0,79.2,0,118.2,0"/>
					</g>
				</g>
			</g>
		</g>
		<g>
			<g>
				<g>
					<g>
						<defs>
							<rect id="SVGID_00000163049462464331889810000010502001720637301145_" x="59.1" y="25.9" width="385.9" height="209.4"/>
						</defs>
						<clipPath id="SVGID_00000021092387569364766560000007286836103357998520_">
							<use xlink:href="#SVGID_00000163049462464331889810000010502001720637301145_"  style="overflow:visible;"/>
						</clipPath>
						
							<path style="clip-path:url(#SVGID_00000021092387569364766560000007286836103357998520_);stroke:#000000;stroke-linecap:round;stroke-linejoin:round;" d="
							M397.8,147l4,2l-4,2V147z"/>
					</g>
				</g>
			</g>
		</g>
	</g>
	<g id="patch_9">
		<g>
			<g>
				<g>
					<g>
						<defs>
							<rect id="SVGID_00000019674686097436677560000011547514362836737177_" x="59.1" y="25.9" width="385.9" height="209.4"/>
						</defs>
						<clipPath id="SVGID_00000042703717475734798770000010263930331714929797_">
							<use xlink:href="#SVGID_00000019674686097436677560000011547514362836737177_"  style="overflow:visible;"/>
						</clipPath>
						
							<path style="clip-path:url(#SVGID_00000042703717475734798770000010263930331714929797_);fill:none;stroke:#000000;stroke-linecap:round;stroke-linejoin:round;" d="
							M403.5,145.5C348,121.6,293,97.8,238.3,74.2"/>
					</g>
				</g>
			</g>
		</g>
		<g>
			<g>
				<g>
					<g>
						<defs>
							<rect id="SVGID_00000150099287375329912810000006303583858769629061_" x="59.1" y="25.9" width="385.9" height="209.4"/>
						</defs>
						<clipPath id="SVGID_00000147183797705252599930000014073517304067654021_">
							<use xlink:href="#SVGID_00000150099287375329912810000006303583858769629061_"  style="overflow:visible;"/>
						</clipPath>
						
							<path style="clip-path:url(#SVGID_00000147183797705252599930000014073517304067654021_);stroke:#000000;stroke-linecap:round;stroke-linejoin:round;" d="
							M241.1,77.6l-2.9-3.4l4.5-0.3L241.1,77.6z"/>
					</g>
				</g>
			</g>
		</g>
	</g>
	<g id="patch_10">
		<g>
			<g>
				<g>
					<g>
						<defs>
							<rect id="SVGID_00000026151082029955645060000012120613143765680318_" x="59.1" y="25.9" width="385.9" height="209.4"/>
						</defs>
						<clipPath id="SVGID_00000152960319444149326460000010757304422270328467_">
							<use xlink:href="#SVGID_00000026151082029955645060000012120613143765680318_"  style="overflow:visible;"/>
						</clipPath>
						
							<path style="clip-path:url(#SVGID_00000152960319444149326460000010757304422270328467_);fill:none;stroke:#000000;stroke-linecap:round;stroke-linejoin:round;" d="
							M402.9,149c-39.8,0-79.2,0-118.2,0"/>
					</g>
				</g>
			</g>
		</g>
		<g>
			<g>
				<g>
					<g>
						<defs>
							<rect id="SVGID_00000080894577912310887920000007324366308961563545_" x="59.1" y="25.9" width="385.9" height="209.4"/>
						</defs>
						<clipPath id="SVGID_00000176043235185941791420000004394503738024817029_">
							<use xlink:href="#SVGID_00000080894577912310887920000007324366308961563545_"  style="overflow:visible;"/>
						</clipPath>
						
							<path style="clip-path:url(#SVGID_00000176043235185941791420000004394503738024817029_);stroke:#000000;stroke-linecap:round;stroke-linejoin:round;" d="
							M288.6,151l-4-2l4-2V151z"/>
					</g>
				</g>
			</g>
		</g>
	</g>
	<g id="patch_11">
		<g>
			<g>
				<g>
					<g>
						<defs>
							<rect id="SVGID_00000173148842631713564930000012689336296357216699_" x="59.1" y="25.9" width="385.9" height="209.4"/>
						</defs>
						<clipPath id="SVGID_00000009571525021844909850000016885981397484644287_">
							<use xlink:href="#SVGID_00000173148842631713564930000012689336296357216699_"  style="overflow:visible;"/>
						</clipPath>
						
							<path style="clip-path:url(#SVGID_00000009571525021844909850000016885981397484644287_);fill:none;stroke:#000000;stroke-linecap:round;stroke-linejoin:round;" d="
							M151.9,194.1c24.3-38.8,48.4-77.3,72.2-115.5"/>
					</g>
				</g>
			</g>
		</g>
		<g>
			<g>
				<g>
					<g>
						<defs>
							<rect id="SVGID_00000167356884820755780580000004495657767429594022_" x="59.1" y="25.9" width="385.9" height="209.4"/>
						</defs>
						<clipPath id="SVGID_00000148643655363090282640000009679329349858370214_">
							<use xlink:href="#SVGID_00000167356884820755780580000004495657767429594022_"  style="overflow:visible;"/>
						</clipPath>
						
							<path style="clip-path:url(#SVGID_00000148643655363090282640000009679329349858370214_);stroke:#000000;stroke-linecap:round;stroke-linejoin:round;" d="
							M220.3,80.9l3.8-2.3l-0.4,4.5L220.3,80.9z"/>
					</g>
				</g>
			</g>
		</g>
	</g>
	<g id="patch_12">
		<g>
			<g>
				<g>
					<g>
						<defs>
							<rect id="SVGID_00000158733807432518274540000014077600679518067074_" x="59.1" y="25.9" width="385.9" height="209.4"/>
						</defs>
						<clipPath id="SVGID_00000068678234276795475800000003549940803012261055_">
							<use xlink:href="#SVGID_00000158733807432518274540000014077600679518067074_"  style="overflow:visible;"/>
						</clipPath>
						
							<path style="clip-path:url(#SVGID_00000068678234276795475800000003549940803012261055_);fill:none;stroke:#000000;stroke-linecap:round;stroke-linejoin:round;" d="
							M155.3,198.1c37.2-15.3,74-30.4,110.5-45.4"/>
					</g>
				</g>
			</g>
		</g>
		<g>
			<g>
				<g>
					<g>
						<defs>
							<rect id="SVGID_00000137092396597687743290000015232726134971746181_" x="59.1" y="25.9" width="385.9" height="209.4"/>
						</defs>
						<clipPath id="SVGID_00000084511626172395939510000005513958644117449151_">
							<use xlink:href="#SVGID_00000137092396597687743290000015232726134971746181_"  style="overflow:visible;"/>
						</clipPath>
						
							<path style="clip-path:url(#SVGID_00000084511626172395939510000005513958644117449151_);stroke:#000000;stroke-linecap:round;stroke-linejoin:round;" d="
							M261.2,152.4l4.5,0.3l-2.9,3.4L261.2,152.4z"/>
					</g>
				</g>
			</g>
		</g>
	</g>
	<g id="patch_13">
		<g>
			<g>
				<g>
					<g>
						<defs>
							<rect id="SVGID_00000062905892140952993340000007260719706546557328_" x="59.1" y="25.9" width="385.9" height="209.4"/>
						</defs>
						<clipPath id="SVGID_00000015349092615194643150000006472337162187758518_">
							<use xlink:href="#SVGID_00000062905892140952993340000007260719706546557328_"  style="overflow:visible;"/>
						</clipPath>
						
							<path style="clip-path:url(#SVGID_00000015349092615194643150000006472337162187758518_);fill:none;stroke:#000000;stroke-linecap:round;stroke-linejoin:round;" d="
							M186.4,201.1c13.4-40.8,26.7-81.3,39.8-121.4"/>
					</g>
				</g>
			</g>
		</g>
		<g>
			<g>
				<g>
					<g>
						<defs>
							<rect id="SVGID_00000109725335450709935250000003018115950332593803_" x="59.1" y="25.9" width="385.9" height="209.4"/>
						</defs>
						<clipPath id="SVGID_00000155104695629011800820000002652126236433953923_">
							<use xlink:href="#SVGID_00000109725335450709935250000003018115950332593803_"  style="overflow:visible;"/>
						</clipPath>
						
							<path style="clip-path:url(#SVGID_00000155104695629011800820000002652126236433953923_);stroke:#000000;stroke-linecap:round;stroke-linejoin:round;" d="
							M223.1,82.8l3.1-3.2l0.7,4.4L223.1,82.8z"/>
					</g>
				</g>
			</g>
		</g>
	</g>
	<g id="patch_14">
		<g>
			<g>
				<g>
					<g>
						<defs>
							<rect id="SVGID_00000048461054768948127890000006142441343437784459_" x="59.1" y="25.9" width="385.9" height="209.4"/>
						</defs>
						<clipPath id="SVGID_00000102521137553618693770000003821083770876342671_">
							<use xlink:href="#SVGID_00000048461054768948127890000006142441343437784459_"  style="overflow:visible;"/>
						</clipPath>
						
							<path style="clip-path:url(#SVGID_00000102521137553618693770000003821083770876342671_);fill:none;stroke:#000000;stroke-linecap:round;stroke-linejoin:round;" d="
							M190.9,204.5c25.6-16.9,50.8-33.6,75.7-50.1"/>
					</g>
				</g>
			</g>
		</g>
		<g>
			<g>
				<g>
					<g>
						<defs>
							<rect id="SVGID_00000112633185668506670890000006626967112032556985_" x="59.1" y="25.9" width="385.9" height="209.4"/>
						</defs>
						<clipPath id="SVGID_00000101800667282216468080000017758340440133253520_">
							<use xlink:href="#SVGID_00000112633185668506670890000006626967112032556985_"  style="overflow:visible;"/>
						</clipPath>
						
							<path style="clip-path:url(#SVGID_00000101800667282216468080000017758340440133253520_);stroke:#000000;stroke-linecap:round;stroke-linejoin:round;" d="
							M262.1,154.9l4.4-0.5l-2.2,3.9L262.1,154.9z"/>
					</g>
				</g>
			</g>
		</g>
	</g>
	<g id="patch_15">
		<g>
			<g>
				<g>
					<g>
						<defs>
							<rect id="SVGID_00000081622603259426862120000009346431370970790328_" x="59.1" y="25.9" width="385.9" height="209.4"/>
						</defs>
						<clipPath id="SVGID_00000165927729530899075210000002905642414348278185_">
							<use xlink:href="#SVGID_00000081622603259426862120000009346431370970790328_"  style="overflow:visible;"/>
						</clipPath>
						
							<path style="clip-path:url(#SVGID_00000165927729530899075210000002905642414348278185_);fill:none;stroke:#000000;stroke-linecap:round;stroke-linejoin:round;" d="
							M220.7,208.5c2.7-43.2,5.3-86,8-128.4"/>
					</g>
				</g>
			</g>
		</g>
		<g>
			<g>
				<g>
					<g>
						<defs>
							<rect id="SVGID_00000096762858422875060650000007422380182474500525_" x="59.1" y="25.9" width="385.9" height="209.4"/>
						</defs>
						<clipPath id="SVGID_00000176009075072663343240000015908971782203522458_">
							<use xlink:href="#SVGID_00000096762858422875060650000007422380182474500525_"  style="overflow:visible;"/>
						</clipPath>
						
							<path style="clip-path:url(#SVGID_00000176009075072663343240000015908971782203522458_);stroke:#000000;stroke-linecap:round;stroke-linejoin:round;" d="
							M226.4,83.9l2.2-3.9l1.7,4.1L226.4,83.9z"/>
					</g>
				</g>
			</g>
		</g>
	</g>
	<g id="patch_16">
		<g>
			<g>
				<g>
					<g>
						<defs>
							<rect id="SVGID_00000007412333303624032310000009568801550485903490_" x="59.1" y="25.9" width="385.9" height="209.4"/>
						</defs>
						<clipPath id="SVGID_00000098899470340810303200000001387576041905119915_">
							<use xlink:href="#SVGID_00000007412333303624032310000009568801550485903490_"  style="overflow:visible;"/>
						</clipPath>
						
							<path style="clip-path:url(#SVGID_00000098899470340810303200000001387576041905119915_);fill:none;stroke:#000000;stroke-linecap:round;stroke-linejoin:round;" d="
							M225.6,210.4c14.6-18.2,29-36.1,43.1-53.8"/>
					</g>
				</g>
			</g>
		</g>
		<g>
			<g>
				<g>
					<g>
						<defs>
							<rect id="SVGID_00000056413522824491426650000008715304831328224649_" x="59.1" y="25.9" width="385.9" height="209.4"/>
						</defs>
						<clipPath id="SVGID_00000133498267019209478510000008603618406806651563_">
							<use xlink:href="#SVGID_00000056413522824491426650000008715304831328224649_"  style="overflow:visible;"/>
						</clipPath>
						
							<path style="clip-path:url(#SVGID_00000133498267019209478510000008603618406806651563_);stroke:#000000;stroke-linecap:round;stroke-linejoin:round;" d="
							M264.6,158.5l4.1-1.9l-0.9,4.4L264.6,158.5z"/>
					</g>
				</g>
			</g>
		</g>
	</g>
	<g id="patch_17">
		<g>
			<g>
				<g>
					<g>
						<defs>
							<rect id="SVGID_00000119832011691111243120000014659745164155397560_" x="59.1" y="25.9" width="385.9" height="209.4"/>
						</defs>
						<clipPath id="SVGID_00000158010227311947178960000003633136545373968018_">
							<use xlink:href="#SVGID_00000119832011691111243120000014659745164155397560_"  style="overflow:visible;"/>
						</clipPath>
						
							<path style="clip-path:url(#SVGID_00000158010227311947178960000003633136545373968018_);fill:none;stroke:#000000;stroke-linecap:round;stroke-linejoin:round;" d="
							M358.5,197.1c-25.4-14.6-50.4-29-75.1-43.2"/>
					</g>
				</g>
			</g>
		</g>
		<g>
			<g>
				<g>
					<g>
						<defs>
							<rect id="SVGID_00000154404355083389517460000001767674986171185548_" x="59.1" y="25.9" width="385.9" height="209.4"/>
						</defs>
						<clipPath id="SVGID_00000091017697837185164650000012352149256099132076_">
							<use xlink:href="#SVGID_00000154404355083389517460000001767674986171185548_"  style="overflow:visible;"/>
						</clipPath>
						
							<path style="clip-path:url(#SVGID_00000091017697837185164650000012352149256099132076_);stroke:#000000;stroke-linecap:round;stroke-linejoin:round;" d="
							M285.8,157.6l-2.5-3.7l4.5,0.3L285.8,157.6z"/>
					</g>
				</g>
			</g>
		</g>
	</g>
	<g id="patch_18">
		<g>
			<g>
				<g>
					<g>
						<defs>
							<rect id="SVGID_00000118369633102096522930000004114318783508858005_" x="59.1" y="25.9" width="385.9" height="209.4"/>
						</defs>
						<clipPath id="SVGID_00000157293268820967338520000001530403144127456910_">
							<use xlink:href="#SVGID_00000118369633102096522930000004114318783508858005_"  style="overflow:visible;"/>
						</clipPath>
						
							<path style="clip-path:url(#SVGID_00000157293268820967338520000001530403144127456910_);fill:none;stroke:#000000;stroke-linecap:round;stroke-linejoin:round;" d="
							M380.5,185.5c-32.5-11.2-64.7-22.3-96.5-33.3"/>
					</g>
				</g>
			</g>
		</g>
		<g>
			<g>
				<g>
					<g>
						<defs>
							<rect id="SVGID_00000074408743710354293890000010206136828911720836_" x="59.1" y="25.9" width="385.9" height="209.4"/>
						</defs>
						<clipPath id="SVGID_00000105385219057574108320000005987066588652598945_">
							<use xlink:href="#SVGID_00000074408743710354293890000010206136828911720836_"  style="overflow:visible;"/>
						</clipPath>
						
							<path style="clip-path:url(#SVGID_00000105385219057574108320000005987066588652598945_);stroke:#000000;stroke-linecap:round;stroke-linejoin:round;" d="
							M287.1,155.4l-3.1-3.2l4.4-0.6L287.1,155.4z"/>
					</g>
				</g>
			</g>
		</g>
	</g>
	<g id="PathCollection_1">
		<g>
			<g>
				<g>
					<g>
						<defs>
							<rect id="SVGID_00000091011839582466049880000010869978611755767991_" x="59.1" y="25.9" width="385.9" height="209.4"/>
						</defs>
						<clipPath id="SVGID_00000173843664056793027570000009733894285866015397_">
							<use xlink:href="#SVGID_00000091011839582466049880000010869978611755767991_"  style="overflow:visible;"/>
						</clipPath>
						<g style="clip-path:url(#SVGID_00000173843664056793027570000009733894285866015397_);">
							<g>
								<path id="C0_0_e6875040e2" class="st36" d="M229.3,78.2c2.1,0,4.1-0.8,5.6-2.3s2.3-3.5,2.3-5.6s-0.8-4.1-2.3-5.6
									s-3.5-2.3-5.6-2.3s-4.1,0.8-5.6,2.3s-2.3,3.5-2.3,5.6s0.8,4.1,2.3,5.6S227.2,78.2,229.3,78.2z"/>
							</g>
						</g>
					</g>
				</g>
			</g>
		</g>
		<g>
			<g>
				<g>
					<g>
						<defs>
							<rect id="SVGID_00000000905084832639252290000003179980622002200997_" x="59.1" y="25.9" width="385.9" height="209.4"/>
						</defs>
						<clipPath id="SVGID_00000171687089531511855570000011353762113750675647_">
							<use xlink:href="#SVGID_00000000905084832639252290000003179980622002200997_"  style="overflow:visible;"/>
						</clipPath>
						<g style="clip-path:url(#SVGID_00000171687089531511855570000011353762113750675647_);">
							<g>
								<path id="C0_0_e6875040e2_00000040553443963450593480000010751433186284550078_" class="st36" d="M411.5,52
									c2.1,0,4.1-0.8,5.6-2.3s2.3-3.5,2.3-5.6s-0.8-4.1-2.3-5.6s-3.5-2.3-5.6-2.3s-4.1,0.8-5.6,2.3s-2.3,3.5-2.3,5.6
									s0.8,4.1,2.3,5.6S409.4,52,411.5,52z"/>
							</g>
						</g>
					</g>
				</g>
			</g>
		</g>
		<g>
			<g>
				<g>
					<g>
						<defs>
							<rect id="SVGID_00000122678693039163162030000006546095319998802851_" x="59.1" y="25.9" width="385.9" height="209.4"/>
						</defs>
						<clipPath id="SVGID_00000143575841046095488410000005896164903450251919_">
							<use xlink:href="#SVGID_00000122678693039163162030000006546095319998802851_"  style="overflow:visible;"/>
						</clipPath>
						<g style="clip-path:url(#SVGID_00000143575841046095488410000005896164903450251919_);">
							<g>
								<path id="C0_0_e6875040e2_00000011728070184877931500000016298269704341412738_" class="st39" d="M115.4,143.8
									c2.1,0,4.1-0.8,5.6-2.3s2.3-3.5,2.3-5.6s-0.8-4.1-2.3-5.6s-3.5-2.3-5.6-2.3s-4.1,0.8-5.6,2.3s-2.3,3.5-2.3,5.6
									s0.8,4.1,2.3,5.6C111.3,142.9,113.3,143.8,115.4,143.8z"/>
							</g>
						</g>
					</g>
				</g>
			</g>
		</g>
		<g>
			<g>
				<g>
					<g>
						<defs>
							<rect id="SVGID_00000079468703770024294110000006748936213179869599_" x="59.1" y="25.9" width="385.9" height="209.4"/>
						</defs>
						<clipPath id="SVGID_00000036244707078860882720000011288522638155450804_">
							<use xlink:href="#SVGID_00000079468703770024294110000006748936213179869599_"  style="overflow:visible;"/>
						</clipPath>
						<g style="clip-path:url(#SVGID_00000036244707078860882720000011288522638155450804_);">
							<g>
								<path id="C0_0_e6875040e2_00000005952099330041632130000002956853456702253217_" class="st39" d="M92.6,52
									c2.1,0,4.1-0.8,5.6-2.3s2.3-3.5,2.3-5.6s-0.8-4.1-2.3-5.6s-3.5-2.3-5.6-2.3S88.5,37,87,38.5s-2.3,3.5-2.3,5.6
									s0.8,4.1,2.3,5.6S90.5,52,92.6,52z"/>
							</g>
						</g>
					</g>
				</g>
			</g>
		</g>
		<g>
			<g>
				<g>
					<g>
						<defs>
							<rect id="SVGID_00000047778635827445134950000007096390065056966814_" x="59.1" y="25.9" width="385.9" height="209.4"/>
						</defs>
						<clipPath id="SVGID_00000075126828790510727010000016162575973564496291_">
							<use xlink:href="#SVGID_00000047778635827445134950000007096390065056966814_"  style="overflow:visible;"/>
						</clipPath>
						<g style="clip-path:url(#SVGID_00000075126828790510727010000016162575973564496291_);">
							<g>
								<path id="C0_0_e6875040e2_00000127728665942978456420000013128236412686954652_" class="st39" d="M274.8,156.9
									c2.1,0,4.1-0.8,5.6-2.3s2.3-3.5,2.3-5.6s-0.8-4.1-2.3-5.6s-3.5-2.3-5.6-2.3s-4.1,0.8-5.6,2.3s-2.3,3.5-2.3,5.6
									s0.8,4.1,2.3,5.6S272.6,156.9,274.8,156.9z"/>
							</g>
						</g>
					</g>
				</g>
			</g>
		</g>
		<g>
			<g>
				<g>
					<g>
						<defs>
							<rect id="SVGID_00000039106663709566939890000009925401324502550407_" x="59.1" y="25.9" width="385.9" height="209.4"/>
						</defs>
						<clipPath id="SVGID_00000074408859757856968480000014624076350438511806_">
							<use xlink:href="#SVGID_00000039106663709566939890000009925401324502550407_"  style="overflow:visible;"/>
						</clipPath>
						<g style="clip-path:url(#SVGID_00000074408859757856968480000014624076350438511806_);">
							<g>
								<path id="C0_0_e6875040e2_00000007427830353831016720000018378211870684061356_" class="st39" d="M411.5,156.9
									c2.1,0,4.1-0.8,5.6-2.3s2.3-3.5,2.3-5.6s-0.8-4.1-2.3-5.6s-3.5-2.3-5.6-2.3s-4.1,0.8-5.6,2.3s-2.3,3.5-2.3,5.6
									s0.8,4.1,2.3,5.6C407.4,156,409.4,156.9,411.5,156.9z"/>
							</g>
						</g>
					</g>
				</g>
			</g>
		</g>
		<g>
			<g>
				<g>
					<g>
						<defs>
							<rect id="SVGID_00000048487662480819945700000004310586867916212151_" x="59.1" y="25.9" width="385.9" height="209.4"/>
						</defs>
						<clipPath id="SVGID_00000144338965476392228970000012168946823095214741_">
							<use xlink:href="#SVGID_00000048487662480819945700000004310586867916212151_"  style="overflow:visible;"/>
						</clipPath>
						<g style="clip-path:url(#SVGID_00000144338965476392228970000012168946823095214741_);">
							<g>
								<path id="C0_0_e6875040e2_00000097461259666245203840000010561543980925289134_" class="st39" d="M147.3,209.3
									c2.1,0,4.1-0.8,5.6-2.3s2.3-3.5,2.3-5.6s-0.8-4.1-2.3-5.6s-3.5-2.3-5.6-2.3c-2.1,0-4.1,0.8-5.6,2.3s-2.3,3.5-2.3,5.6
									s0.8,4.1,2.3,5.6S145.2,209.3,147.3,209.3z"/>
							</g>
						</g>
					</g>
				</g>
			</g>
		</g>
		<g>
			<g>
				<g>
					<g>
						<defs>
							<rect id="SVGID_00000114792752508622714840000002868684529100803002_" x="59.1" y="25.9" width="385.9" height="209.4"/>
						</defs>
						<clipPath id="SVGID_00000032630269691463204140000000840680577339382682_">
							<use xlink:href="#SVGID_00000114792752508622714840000002868684529100803002_"  style="overflow:visible;"/>
						</clipPath>
						<g style="clip-path:url(#SVGID_00000032630269691463204140000000840680577339382682_);">
							<g>
								<path id="C0_0_e6875040e2_00000080186673841911146690000002483950865502425988_" class="st39" d="M183.7,217.2
									c2.1,0,4.1-0.8,5.6-2.3s2.3-3.5,2.3-5.6s-0.8-4.1-2.3-5.6s-3.5-2.3-5.6-2.3s-4.1,0.8-5.6,2.3s-2.3,3.5-2.3,5.6
									s0.8,4.1,2.3,5.6S181.6,217.2,183.7,217.2z"/>
							</g>
						</g>
					</g>
				</g>
			</g>
		</g>
		<g>
			<g>
				<g>
					<g>
						<defs>
							<rect id="SVGID_00000115475704595802015450000005188059992093506474_" x="59.1" y="25.9" width="385.9" height="209.4"/>
						</defs>
						<clipPath id="SVGID_00000129917200985586138530000010604678555127403192_">
							<use xlink:href="#SVGID_00000115475704595802015450000005188059992093506474_"  style="overflow:visible;"/>
						</clipPath>
						<g style="clip-path:url(#SVGID_00000129917200985586138530000010604678555127403192_);">
							<g>
								<path id="C0_0_e6875040e2_00000080182816529184566950000013796191146121174676_" class="st39" d="M220.2,225.1
									c2.1,0,4.1-0.8,5.6-2.3s2.3-3.5,2.3-5.6s-0.8-4.1-2.3-5.6s-3.5-2.3-5.6-2.3s-4.1,0.8-5.6,2.3s-2.3,3.5-2.3,5.6
									s0.8,4.1,2.3,5.6S218.1,225.1,220.2,225.1z"/>
							</g>
						</g>
					</g>
				</g>
			</g>
		</g>
		<g>
			<g>
				<g>
					<g>
						<defs>
							<rect id="SVGID_00000180333426692766333780000002819710863545581728_" x="59.1" y="25.9" width="385.9" height="209.4"/>
						</defs>
						<clipPath id="SVGID_00000001635203508658404870000005208876079646563754_">
							<use xlink:href="#SVGID_00000180333426692766333780000002819710863545581728_"  style="overflow:visible;"/>
						</clipPath>
						<g style="clip-path:url(#SVGID_00000001635203508658404870000005208876079646563754_);">
							<g>
								<path id="C0_0_e6875040e2_00000037693529798385796260000016074192595125394054_" class="st39" d="M366,209.3
									c2.1,0,4.1-0.8,5.6-2.3s2.3-3.5,2.3-5.6s-0.8-4.1-2.3-5.6s-3.5-2.3-5.6-2.3s-4.1,0.8-5.6,2.3s-2.3,3.5-2.3,5.6
									s0.8,4.1,2.3,5.6S363.9,209.3,366,209.3z"/>
							</g>
						</g>
					</g>
				</g>
			</g>
		</g>
		<g>
			<g>
				<g>
					<g>
						<defs>
							<rect id="SVGID_00000127031039288246337440000005762529151934525610_" x="59.1" y="25.9" width="385.9" height="209.4"/>
						</defs>
						<clipPath id="SVGID_00000109014155160922947460000013041734217473046672_">
							<use xlink:href="#SVGID_00000127031039288246337440000005762529151934525610_"  style="overflow:visible;"/>
						</clipPath>
						<g style="clip-path:url(#SVGID_00000109014155160922947460000013041734217473046672_);">
							<g>
								<path id="C0_0_e6875040e2_00000124153957426314812150000003818253591072053411_" class="st39" d="M388.6,196.2
									c2.1,0,4.1-0.8,5.6-2.3s2.3-3.5,2.3-5.6s-0.8-4.1-2.3-5.6s-3.5-2.3-5.6-2.3s-4.1,0.8-5.6,2.3s-2.3,3.5-2.3,5.6
									s0.8,4.1,2.3,5.6S386.6,196.2,388.6,196.2z"/>
							</g>
						</g>
					</g>
				</g>
			</g>
		</g>
	</g>
	<g id="text_1">
		<g transform="translate(110.044688 19.918125)scale(0.12 -0.12)">
			<g>
				<path id="DejaVuSans-68" d="M421.8,64.8V8.1h11.9c10.1,0,17.4,2.3,22.1,6.8c4.7,4.6,7,11.8,7,21.6s-2.3,16.9-7,21.5
					c-4.7,4.6-12,6.8-22.1,6.8H421.8z M411.9,72.9h20.3c14.1,0,24.5-2.9,31.1-8.8c6.6-5.9,9.9-15.1,9.9-27.6
					c0-12.6-3.3-21.8-10-27.7c-6.6-5.9-17-8.8-31-8.8h-20.3V72.9z"/>
			</g>
			<g>
				<path id="DejaVuSans-105" d="M488.5,54.7h9V0h-9V54.7z M488.5,76h9V64.6h-9V76z"/>
			</g>
			<g>
				<path id="DejaVuSans-71" d="M566.4,10.4V30h-16.1v8.1h25.9V6.8c-3.8-2.7-8-4.7-12.6-6.1c-4.6-1.4-9.5-2.1-14.7-2.1
					c-11.4,0-20.3,3.3-26.8,10c-6.4,6.7-9.6,15.9-9.6,27.8s3.2,21.2,9.6,27.9c6.4,6.7,15.4,10,26.8,10c4.8,0,9.3-0.6,13.5-1.8
					c4.3-1.2,8.2-2.9,11.8-5.2V56.8c-3.6,3.1-7.5,5.4-11.6,7c-4.1,1.6-8.4,2.3-12.9,2.3c-8.9,0-15.6-2.5-20.1-7.5
					s-6.7-12.4-6.7-22.3c0-9.8,2.2-17.2,6.7-22.2c4.5-5,11.2-7.5,20.1-7.5c3.5,0,6.6,0.3,9.3,0.9C561.8,8.2,564.2,9.1,566.4,10.4z"
					/>
			</g>
			<g>
				<path id="DejaVuSans-114" d="M625.5,46.3c-1,0.6-2.1,1-3.3,1.3s-2.5,0.4-3.9,0.4c-5.1,0-9-1.7-11.7-5c-2.7-3.3-4.1-8-4.1-14.2V0
					h-9v54.7h9v-8.5c1.9,3.3,4.4,5.8,7.4,7.4c3,1.6,6.7,2.4,11,2.4c0.6,0,1.3,0,2-0.1c0.8-0.1,1.6-0.2,2.5-0.4L625.5,46.3z"/>
			</g>
			<g>
				<path id="DejaVuSans-97" d="M659.8,27.5c-7.3,0-12.3-0.8-15.1-2.5s-4.2-4.5-4.2-8.5c0-3.2,1.1-5.7,3.2-7.6
					c2.1-1.9,5-2.8,8.6-2.8c5,0,9,1.8,12,5.3s4.5,8.2,4.5,14.1v2H659.8z M677.7,31.2V0h-9v8.3c-2-3.3-4.6-5.8-7.7-7.3
					c-3.1-1.5-6.8-2.4-11.2-2.4c-5.6,0-10,1.6-13.4,4.7c-3.3,3.1-5,7.4-5,12.6c0,6.1,2.1,10.8,6.2,13.9c4.1,3.1,10.3,4.7,18.4,4.7
					h12.6v0.9c0,4.1-1.4,7.3-4.1,9.6s-6.5,3.4-11.5,3.4c-3.1,0-6.2-0.4-9.1-1.1c-3-0.8-5.8-1.9-8.5-3.4v8.3c3.3,1.3,6.5,2.2,9.6,2.8
					c3.1,0.6,6.1,1,9,1c7.9,0,13.8-2.1,17.7-6.2C675.7,45.7,677.7,39.5,677.7,31.2z"/>
			</g>
			<g>
				<path id="DejaVuSans-112" d="M704.9,8.2v-29h-9v75.5h9v-8.3c1.9,3.2,4.3,5.7,7.2,7.2c2.9,1.6,6.3,2.4,10.3,2.4
					c6.6,0,12-2.6,16.2-7.9s6.2-12.2,6.2-20.8s-2.1-15.5-6.2-20.8c-4.1-5.3-9.5-7.9-16.2-7.9c-4,0-7.4,0.8-10.3,2.4
					C709.2,2.5,706.8,5,704.9,8.2z M735.5,27.3c0,6.6-1.4,11.8-4.1,15.5c-2.7,3.7-6.5,5.6-11.2,5.6c-4.8,0-8.5-1.9-11.2-5.6
					s-4.1-8.9-4.1-15.5s1.4-11.8,4.1-15.5s6.5-5.6,11.2-5.6c4.8,0,8.5,1.9,11.2,5.6C734.1,15.5,735.5,20.7,735.5,27.3z"/>
			</g>
			<g>
				<path id="DejaVuSans-104" d="M805.1,33V0h-9v32.7c0,5.2-1,9-3,11.6c-2,2.6-5,3.9-9.1,3.9c-4.9,0-8.7-1.5-11.5-4.6
					s-4.2-7.3-4.2-12.6V0h-9v76h9V46.2c2.2,3.3,4.7,5.8,7.6,7.4c2.9,1.6,6.3,2.4,10.1,2.4c6.3,0,11-1.9,14.2-5.8
					C803.5,46.3,805.1,40.6,805.1,33z"/>
			</g>
			<g>
				<path id="DejaVuSans-32" d="M813.6,0"/>
			</g>
			<g>
				<path id="DejaVuSans-69" d="M855.2,72.9h46.1v-8.3h-36.2V43h34.7v-8.3h-34.7V8.3h37.1V0h-47V72.9z"/>
			</g>
			<g>
				<path id="DejaVuSans-105_00000092447978454177936210000015721121291026916516_" d="M918,54.7h9V0h-9V54.7z M918,76h9V64.6h-9V76
					z"/>
			</g>
			<g>
				<path id="DejaVuSans-103" d="M981.8,28c0,6.5-1.3,11.6-4,15.1c-2.7,3.6-6.4,5.4-11.3,5.4c-4.8,0-8.6-1.8-11.2-5.4
					c-2.7-3.6-4-8.6-4-15.1s1.3-11.5,4-15.1s6.4-5.4,11.2-5.4c4.9,0,8.6,1.8,11.3,5.4C980.4,16.5,981.8,21.5,981.8,28z M990.8,6.8
					c0-9.3-2.1-16.2-6.2-20.8c-4.1-4.5-10.5-6.8-19-6.8c-3.2,0-6.1,0.2-8.9,0.7s-5.5,1.2-8.2,2.2v8.7c2.6-1.4,5.2-2.5,7.8-3.2
					s5.2-1,7.9-1c5.9,0,10.3,1.5,13.2,4.6s4.4,7.7,4.4,13.9v4.5c-1.9-3.2-4.2-5.6-7.1-7.2S968.3,0,964.3,0c-6.7,0-12.1,2.6-16.2,7.7
					c-4.1,5.1-6.2,11.9-6.2,20.3c0,8.5,2.1,15.2,6.2,20.3c4.1,5.1,9.5,7.7,16.2,7.7c4,0,7.5-0.8,10.4-2.4s5.3-4,7.1-7.2v8.3h9V6.8z"
					/>
			</g>
			<g>
				<path id="DejaVuSans-101" d="M1056.1,29.6v-4.4h-41.3c0.4-6.2,2.3-10.9,5.6-14.1s8-4.9,13.9-4.9c3.4,0,6.8,0.4,10,1.3
					c3.2,0.9,6.5,2.1,9.7,3.8V2.8c-3.2-1.4-6.5-2.4-9.9-3.1s-6.8-1.1-10.3-1.1c-8.7,0-15.6,2.5-20.7,7.6c-5.1,5.1-7.6,12-7.6,20.6
					c0,8.9,2.4,16,7.2,21.3s11.4,7.9,19.6,7.9c7.4,0,13.2-2.4,17.5-7.1C1053.9,44.2,1056.1,37.7,1056.1,29.6z M1047.1,32.2
					c-0.1,4.9-1.4,8.8-4.1,11.8c-2.7,2.9-6.2,4.4-10.7,4.4c-5,0-9-1.4-12-4.2s-4.7-6.8-5.2-12H1047.1z"/>
			</g>
			<g>
				<path id="DejaVuSans-110" d="M1116.3,33V0h-9v32.7c0,5.2-1,9-3,11.6c-2,2.6-5,3.9-9.1,3.9c-4.9,0-8.7-1.5-11.5-4.6
					c-2.8-3.1-4.2-7.3-4.2-12.6V0h-9v54.7h9v-8.5c2.2,3.3,4.7,5.8,7.6,7.4c2.9,1.6,6.3,2.4,10.1,2.4c6.3,0,11-1.9,14.2-5.8
					C1114.7,46.3,1116.3,40.6,1116.3,33z"/>
			</g>
			<g>
				<path id="DejaVuSans-118" d="M1127.7,54.7h9.5l17.1-45.9l17.1,45.9h9.5L1160.4,0h-12.2L1127.7,54.7z"/>
			</g>
			<g>
				<path id="DejaVuSans-101_00000145739048496790928290000002323424824582205886_" d="M1240.1,29.6v-4.4h-41.3
					c0.4-6.2,2.3-10.9,5.6-14.1c3.3-3.2,8-4.9,13.9-4.9c3.4,0,6.8,0.4,10,1.3c3.2,0.8,6.5,2.1,9.7,3.8V2.8c-3.2-1.4-6.5-2.4-9.9-3.1
					s-6.8-1.1-10.3-1.1c-8.7,0-15.6,2.5-20.7,7.6c-5.1,5.1-7.6,12-7.6,20.6c0,8.9,2.4,16,7.2,21.3c4.8,5.3,11.4,7.9,19.6,7.9
					c7.4,0,13.2-2.4,17.5-7.1C1238,44.2,1240.1,37.7,1240.1,29.6z M1231.2,32.2c-0.1,4.9-1.4,8.8-4.1,11.8
					c-2.7,2.9-6.2,4.4-10.7,4.4c-5,0-9-1.4-12-4.2s-4.7-6.8-5.2-12H1231.2z"/>
			</g>
			<g>
				<path id="DejaVuSans-99" d="M1294.2,52.6v-8.4c-2.5,1.4-5.1,2.5-7.6,3.2c-2.6,0.7-5.1,1-7.7,1c-5.8,0-10.4-1.8-13.6-5.5
					c-3.2-3.7-4.8-8.9-4.8-15.5s1.6-11.9,4.8-15.6c3.2-3.7,7.8-5.5,13.6-5.5c2.6,0,5.2,0.3,7.7,1c2.6,0.7,5.1,1.7,7.6,3.2V2.1
					c-2.5-1.2-5.1-2-7.8-2.6c-2.7-0.6-5.5-0.9-8.6-0.9c-8.2,0-14.8,2.6-19.6,7.8c-4.8,5.2-7.3,12.2-7.3,21c0,8.9,2.4,15.9,7.3,21
					s11.6,7.7,20.2,7.7c2.8,0,5.5-0.3,8.1-0.9C1289.2,54.6,1291.8,53.7,1294.2,52.6z"/>
			</g>
			<g>
				<path id="DejaVuSans-116" d="M1318.8,70.2V54.7h18.5v-7h-18.5V18c0-4.5,0.6-7.3,1.8-8.6c1.2-1.3,3.7-1.9,7.5-1.9h9.2V0h-9.2
					c-6.9,0-11.7,1.3-14.4,3.9c-2.6,2.6-4,7.3-4,14.1v29.7h-6.6v7h6.6v15.5H1318.8z"/>
			</g>
			<g>
				<path id="DejaVuSans-111" d="M1370.3,48.4c-4.8,0-8.6-1.9-11.4-5.6c-2.8-3.8-4.2-8.9-4.2-15.5s1.4-11.7,4.2-15.5
					c2.8-3.8,6.6-5.6,11.5-5.6c4.8,0,8.6,1.9,11.4,5.7c2.8,3.8,4.2,8.9,4.2,15.4s-1.4,11.6-4.2,15.4
					C1378.8,46.5,1375,48.4,1370.3,48.4z M1370.3,56c7.8,0,13.9-2.5,18.4-7.6s6.7-12.1,6.7-21.1c0-8.9-2.2-16-6.7-21.1
					s-10.6-7.6-18.4-7.6c-7.8,0-14,2.5-18.4,7.6s-6.7,12.1-6.7,21.1s2.2,16,6.7,21.1C1356.3,53.5,1362.4,56,1370.3,56z"/>
			</g>
			<g>
				<path id="DejaVuSans-114_00000079449698415024305440000001890375518923494295_" d="M1441.9,46.3c-1,0.6-2.1,1-3.3,1.3
					c-1.2,0.3-2.5,0.4-3.9,0.4c-5.1,0-9-1.7-11.7-5c-2.7-3.3-4.1-8-4.1-14.2V0h-9v54.7h9v-8.5c1.9,3.3,4.4,5.8,7.4,7.4
					c3,1.6,6.7,2.4,11,2.4c0.6,0,1.3,0,2-0.1c0.8-0.1,1.6-0.2,2.5-0.4L1441.9,46.3z"/>
			</g>
			<g>
				<path id="DejaVuSans-32_00000008145886546956211830000015990754865492001409_" d="M1441.9,0"/>
			</g>
			<g>
				<path id="DejaVuSans-67" d="M1538.1,67.3V56.9c-3.3,3.1-6.9,5.4-10.6,6.9c-3.8,1.5-7.8,2.3-12,2.3c-8.3,0-14.7-2.5-19.1-7.6
					s-6.6-12.5-6.6-22.1s2.2-17,6.6-22c4.4-5.1,10.8-7.6,19.1-7.6c4.2,0,8.2,0.8,12,2.3s7.3,3.8,10.6,6.9V5.6
					c-3.4-2.3-7.1-4.1-11-5.3s-7.9-1.7-12.2-1.7c-11,0-19.7,3.4-26.1,10.1c-6.3,6.8-9.5,16-9.5,27.7s3.2,21,9.5,27.7
					c6.4,6.8,15.1,10.1,26.1,10.1c4.4,0,8.5-0.6,12.3-1.7C1531.1,71.3,1534.8,69.6,1538.1,67.3z"/>
			</g>
			<g>
				<path id="DejaVuSans-101_00000162315845155486762730000018274118279858191019_" d="M1599.8,29.6v-4.4h-41.3
					c0.4-6.2,2.3-10.9,5.6-14.1c3.3-3.2,8-4.9,13.9-4.9c3.4,0,6.8,0.4,10,1.3c3.2,0.8,6.5,2.1,9.7,3.8V2.8c-3.2-1.4-6.5-2.4-9.9-3.1
					s-6.8-1.1-10.3-1.1c-8.7,0-15.6,2.5-20.7,7.6s-7.6,12-7.6,20.6c0,8.9,2.4,16,7.2,21.3c4.8,5.3,11.4,7.9,19.6,7.9
					c7.4,0,13.2-2.4,17.5-7.1C1597.6,44.2,1599.8,37.7,1599.8,29.6z M1590.8,32.2c-0.1,4.9-1.4,8.8-4.1,11.8
					c-2.7,2.9-6.2,4.4-10.7,4.4c-5,0-9-1.4-12-4.2s-4.7-6.8-5.2-12H1590.8z"/>
			</g>
			<g>
				<path id="DejaVuSans-110_00000010310126806078247600000001343814753312425659_" d="M1660,33V0h-9v32.7c0,5.2-1,9-3,11.6
					c-2,2.6-5,3.9-9.1,3.9c-4.9,0-8.7-1.5-11.5-4.6s-4.2-7.3-4.2-12.6V0h-9v54.7h9v-8.5c2.2,3.3,4.7,5.8,7.6,7.4
					c2.9,1.6,6.3,2.4,10.1,2.4c6.3,0,11-1.9,14.2-5.8C1658.4,46.3,1660,40.6,1660,33z"/>
			</g>
			<g>
				<path id="DejaVuSans-116_00000031920482321234538460000003473049289396953279_" d="M1686.8,70.2V54.7h18.5v-7h-18.5V18
					c0-4.5,0.6-7.3,1.8-8.6s3.7-1.9,7.5-1.9h9.2V0h-9.2c-6.9,0-11.7,1.3-14.4,3.9c-2.6,2.6-4,7.3-4,14.1v29.7h-6.6v7h6.6v15.5
					H1686.8z"/>
			</g>
			<g>
				<path id="DejaVuSans-114_00000160894978845993658210000012607375221640942755_" d="M1748.8,46.3c-1,0.6-2.1,1-3.3,1.3
					c-1.2,0.3-2.5,0.4-3.9,0.4c-5.1,0-9-1.7-11.7-5s-4.1-8-4.1-14.2V0h-9v54.7h9v-8.5c1.9,3.3,4.4,5.8,7.4,7.4c3,1.6,6.7,2.4,11,2.4
					c0.6,0,1.3,0,2-0.1c0.8-0.1,1.6-0.2,2.5-0.4L1748.8,46.3z"/>
			</g>
			<g>
				<path id="DejaVuSans-97_00000127045768519219718250000014231163843674726841_" d="M1783.1,27.5c-7.3,0-12.3-0.8-15.1-2.5
					c-2.8-1.7-4.2-4.5-4.2-8.5c0-3.2,1.1-5.7,3.2-7.6s5-2.8,8.6-2.8c5,0,9,1.8,12,5.3s4.5,8.2,4.5,14.1v2H1783.1z M1801,31.2V0h-9
					v8.3c-2.1-3.3-4.6-5.8-7.7-7.3s-6.8-2.4-11.2-2.4c-5.6,0-10,1.6-13.4,4.7c-3.3,3.1-5,7.4-5,12.6c0,6.1,2.1,10.8,6.2,13.9
					s10.3,4.7,18.4,4.7h12.6v0.9c0,4.1-1.4,7.3-4.1,9.6s-6.5,3.4-11.5,3.4c-3.1,0-6.2-0.4-9.1-1.1c-3-0.8-5.8-1.9-8.5-3.4v8.3
					c3.3,1.3,6.5,2.2,9.6,2.8s6.1,1,9,1c7.9,0,13.8-2.1,17.7-6.2C1799,45.7,1801,39.5,1801,31.2z"/>
			</g>
			<g>
				<path id="DejaVuSans-108" d="M1819.5,76h9V0h-9V76z"/>
			</g>
			<g>
				<path id="DejaVuSans-105_00000016074062154839050970000010697151507226360986_" d="M1847.3,54.7h9V0h-9V54.7z M1847.3,76h9V64.6
					h-9V76z"/>
			</g>
			<g>
				<path id="DejaVuSans-116_00000168086677243740420640000003796027835976916920_" d="M1883.9,70.2V54.7h18.5v-7h-18.5V18
					c0-4.5,0.6-7.3,1.8-8.6s3.7-1.9,7.5-1.9h9.2V0h-9.2c-6.9,0-11.7,1.3-14.4,3.9c-2.6,2.6-4,7.3-4,14.1v29.7h-6.6v7h6.6v15.5
					H1883.9z"/>
			</g>
			<g>
				<path id="DejaVuSans-121" d="M1937-5.1c-2.5-6.5-5-10.8-7.4-12.7c-2.4-2-5.6-3-9.7-3h-7.2v7.5h5.3c2.5,0,4.4,0.6,5.8,1.8
					s2.9,3.9,4.5,8.3l1.6,4.1l-22.1,53.8h9.5l17.1-42.8l17.1,42.8h9.5L1937-5.1z"/>
			</g>
		</g>
	</g>
</g>
</svg>
