<?xml version="1.0" encoding="utf-8"?>
<!-- Generator: Adobe Illustrator 26.0.2, SVG Export Plug-In . SVG Version: 6.00 Build 0)  -->
<svg version="1.1" id="Layer_1" xmlns="http://www.w3.org/2000/svg" xmlns:xlink="http://www.w3.org/1999/xlink" x="0px" y="0px"
	 viewBox="0 0 504 252" style="enable-background:new 0 0 504 252;" xml:space="preserve">
<style type="text/css">
	.st0{fill:none;}
	
		.st1{clip-path:url(#SVGID_00000147192099756964937860000012833782875059428534_);fill:none;stroke:#000000;stroke-linecap:round;stroke-linejoin:round;}
	
		.st2{clip-path:url(#SVGID_00000005257596278873890640000015945497405487215273_);stroke:#000000;stroke-linecap:round;stroke-linejoin:round;}
	
		.st3{clip-path:url(#SVGID_00000142895898781200897070000005594168779811549850_);fill:none;stroke:#000000;stroke-linecap:round;stroke-linejoin:round;}
	
		.st4{clip-path:url(#SVGID_00000159436908879760763370000003013045367258020759_);stroke:#000000;stroke-linecap:round;stroke-linejoin:round;}
	
		.st5{clip-path:url(#SVGID_00000134212164911236722370000000079405309890929846_);fill:none;stroke:#000000;stroke-linecap:round;stroke-linejoin:round;}
	
		.st6{clip-path:url(#SVGID_00000019636522812505937490000017948429744632981632_);stroke:#000000;stroke-linecap:round;stroke-linejoin:round;}
	
		.st7{clip-path:url(#SVGID_00000104673868353568582500000011395040248914278074_);fill:none;stroke:#000000;stroke-linecap:round;stroke-linejoin:round;}
	
		.st8{clip-path:url(#SVGID_00000134961318457852646200000017323038791668146063_);stroke:#000000;stroke-linecap:round;stroke-linejoin:round;}
	
		.st9{clip-path:url(#SVGID_00000021105539975137936020000004858430041884976030_);fill:none;stroke:#000000;stroke-linecap:round;stroke-linejoin:round;}
	
		.st10{clip-path:url(#SVGID_00000127010136536027516080000007707807966207658378_);stroke:#000000;stroke-linecap:round;stroke-linejoin:round;}
	
		.st11{clip-path:url(#SVGID_00000129919100976478779210000000104131330331653785_);fill:none;stroke:#000000;stroke-linecap:round;stroke-linejoin:round;}
	
		.st12{clip-path:url(#SVGID_00000088821033251517331420000009685220703539381633_);stroke:#000000;stroke-linecap:round;stroke-linejoin:round;}
	
		.st13{clip-path:url(#SVGID_00000132771485831784986090000012401237033709579438_);fill:none;stroke:#000000;stroke-linecap:round;stroke-linejoin:round;}
	
		.st14{clip-path:url(#SVGID_00000067226167321598834550000007069192833858924985_);stroke:#000000;stroke-linecap:round;stroke-linejoin:round;}
	
		.st15{clip-path:url(#SVGID_00000042009911649899065310000018092564633144442790_);fill:none;stroke:#000000;stroke-linecap:round;stroke-linejoin:round;}
	
		.st16{clip-path:url(#SVGID_00000125586076781350998700000013062040990018699698_);stroke:#000000;stroke-linecap:round;stroke-linejoin:round;}
	
		.st17{clip-path:url(#SVGID_00000108311515633150833350000011774225576822684322_);fill:none;stroke:#000000;stroke-linecap:round;stroke-linejoin:round;}
	
		.st18{clip-path:url(#SVGID_00000013165348424463719280000016789190897270377151_);stroke:#000000;stroke-linecap:round;stroke-linejoin:round;}
	
		.st19{clip-path:url(#SVGID_00000013907373200946431140000002860657299578443914_);fill:none;stroke:#000000;stroke-linecap:round;stroke-linejoin:round;}
	
		.st20{clip-path:url(#SVGID_00000019663415282880794150000009077672668023444886_);stroke:#000000;stroke-linecap:round;stroke-linejoin:round;}
	
		.st21{clip-path:url(#SVGID_00000027598488882067942150000007004570452699497389_);fill:none;stroke:#000000;stroke-linecap:round;stroke-linejoin:round;}
	
		.st22{clip-path:url(#SVGID_00000138572558967187122870000003618281847182760345_);stroke:#000000;stroke-linecap:round;stroke-linejoin:round;}
	
		.st23{clip-path:url(#SVGID_00000085960290957161548510000010172786767924255664_);fill:none;stroke:#000000;stroke-linecap:round;stroke-linejoin:round;}
	
		.st24{clip-path:url(#SVGID_00000050623986141277275660000008982877942943565713_);stroke:#000000;stroke-linecap:round;stroke-linejoin:round;}
	
		.st25{clip-path:url(#SVGID_00000062194301624473807830000014859198687695763864_);fill:none;stroke:#000000;stroke-linecap:round;stroke-linejoin:round;}
	
		.st26{clip-path:url(#SVGID_00000098217250843880328740000014133718792251990461_);stroke:#000000;stroke-linecap:round;stroke-linejoin:round;}
	
		.st27{clip-path:url(#SVGID_00000034047486668628132500000008319088468848399003_);fill:none;stroke:#000000;stroke-linecap:round;stroke-linejoin:round;}
	
		.st28{clip-path:url(#SVGID_00000033369947753260942290000000931737882436405930_);stroke:#000000;stroke-linecap:round;stroke-linejoin:round;}
	
		.st29{clip-path:url(#SVGID_00000135654699885175588200000009614354936637306267_);fill:none;stroke:#000000;stroke-linecap:round;stroke-linejoin:round;}
	
		.st30{clip-path:url(#SVGID_00000182509987759110605940000006106587643384436130_);stroke:#000000;stroke-linecap:round;stroke-linejoin:round;}
	
		.st31{clip-path:url(#SVGID_00000041978518971434346880000001656479127406178738_);fill:none;stroke:#000000;stroke-linecap:round;stroke-linejoin:round;}
	
		.st32{clip-path:url(#SVGID_00000104683010207302584000000008997593112697915318_);stroke:#000000;stroke-linecap:round;stroke-linejoin:round;}
	
		.st33{clip-path:url(#SVGID_00000180366733920217485490000005622227069491584417_);fill:none;stroke:#000000;stroke-linecap:round;stroke-linejoin:round;}
	
		.st34{clip-path:url(#SVGID_00000067229335840732411680000001588647744433471145_);stroke:#000000;stroke-linecap:round;stroke-linejoin:round;}
	.st35{clip-path:url(#SVGID_00000099639160830697314310000014891850329984106682_);}
	.st36{fill:#FDE725;stroke:#FDE725;stroke-linejoin:round;}
	.st37{clip-path:url(#SVGID_00000077284216224056287950000001302498638787348880_);}
	.st38{clip-path:url(#SVGID_00000021104432693321071140000008161114013410375084_);}
	.st39{fill:#440154;stroke:#440154;stroke-linejoin:round;}
	.st40{clip-path:url(#SVGID_00000065042574408542795080000014257618275215832492_);}
	.st41{clip-path:url(#SVGID_00000003081545819750791150000017829880202737700228_);}
	.st42{clip-path:url(#SVGID_00000030485108993272857470000005112192291898345897_);}
	.st43{clip-path:url(#SVGID_00000042012293301476865880000002469984426594016681_);}
	.st44{clip-path:url(#SVGID_00000124872011578361744890000001282343300799972486_);}
	.st45{clip-path:url(#SVGID_00000106106561203067819500000008530437843810233244_);}
	.st46{clip-path:url(#SVGID_00000021087970080931303050000017835040353812392879_);}
	.st47{clip-path:url(#SVGID_00000171713048214839082080000001065297402904956544_);}
</style>
<g id="patch_1">
	<path class="st0" d="M0,252h504V0H0V252z"/>
</g>
<g id="matplotlib.axis_1">
</g>
<g id="axes_1">
	<g id="patch_2">
		<g>
			<g>
				<g>
					<defs>
						<rect id="SVGID_1_" x="10.8" y="25.9" width="385.9" height="209.4"/>
					</defs>
					<clipPath id="SVGID_00000051368171831221184390000010468238609317041573_">
						<use xlink:href="#SVGID_1_"  style="overflow:visible;"/>
					</clipPath>
					
						<path style="clip-path:url(#SVGID_00000051368171831221184390000010468238609317041573_);fill:none;stroke:#000000;stroke-linecap:round;stroke-linejoin:round;" d="
						M189.6,69.1c55-7.9,109.7-15.8,164-23.6"/>
				</g>
			</g>
		</g>
		<g>
			<g>
				<g>
					<defs>
						<rect id="SVGID_00000128487168249507686640000014057185053413027725_" x="10.8" y="25.9" width="385.9" height="209.4"/>
					</defs>
					<clipPath id="SVGID_00000016775463469350095210000015286148714941643660_">
						<use xlink:href="#SVGID_00000128487168249507686640000014057185053413027725_"  style="overflow:visible;"/>
					</clipPath>
					
						<path style="clip-path:url(#SVGID_00000016775463469350095210000015286148714941643660_);stroke:#000000;stroke-linecap:round;stroke-linejoin:round;" d="
						M349.3,44.1l4.2,1.4l-3.7,2.5L349.3,44.1z"/>
				</g>
			</g>
		</g>
	</g>
	<g id="patch_3">
		<g>
			<g>
				<g>
					<defs>
						<rect id="SVGID_00000140725206731606757660000008329158204183973566_" x="10.8" y="25.9" width="385.9" height="209.4"/>
					</defs>
					<clipPath id="SVGID_00000123404406403857681540000011364509732964286639_">
						<use xlink:href="#SVGID_00000140725206731606757660000008329158204183973566_"  style="overflow:visible;"/>
					</clipPath>
					
						<path style="clip-path:url(#SVGID_00000123404406403857681540000011364509732964286639_);fill:none;stroke:#000000;stroke-linecap:round;stroke-linejoin:round;" d="
						M354.7,45.3c-55,7.9-109.7,15.8-164,23.6"/>
				</g>
			</g>
		</g>
		<g>
			<g>
				<g>
					<defs>
						<rect id="SVGID_00000078010786317411263530000007818617580304070822_" x="10.8" y="25.9" width="385.9" height="209.4"/>
					</defs>
					<clipPath id="SVGID_00000085227266977354892360000010157601909897910959_">
						<use xlink:href="#SVGID_00000078010786317411263530000007818617580304070822_"  style="overflow:visible;"/>
					</clipPath>
					
						<path style="clip-path:url(#SVGID_00000085227266977354892360000010157601909897910959_);stroke:#000000;stroke-linecap:round;stroke-linejoin:round;" d="
						M194.9,70.3l-4.2-1.4l3.7-2.5L194.9,70.3z"/>
				</g>
			</g>
		</g>
	</g>
	<g id="patch_4">
		<g>
			<g>
				<g>
					<defs>
						<rect id="SVGID_00000183248760846959743630000015227980137001783464_" x="10.8" y="25.9" width="385.9" height="209.4"/>
					</defs>
					<clipPath id="SVGID_00000166647673734803205850000013074023670101082798_">
						<use xlink:href="#SVGID_00000183248760846959743630000015227980137001783464_"  style="overflow:visible;"/>
					</clipPath>
					
						<path style="clip-path:url(#SVGID_00000166647673734803205850000013074023670101082798_);fill:none;stroke:#000000;stroke-linecap:round;stroke-linejoin:round;" d="
						M65,127.5c-6.2-25-12.3-49.6-18.3-73.9"/>
				</g>
			</g>
		</g>
		<g>
			<g>
				<g>
					<defs>
						<rect id="SVGID_00000019644665986468583340000001159082422004062088_" x="10.8" y="25.9" width="385.9" height="209.4"/>
					</defs>
					<clipPath id="SVGID_00000067215791509030169870000011575063384826574252_">
						<use xlink:href="#SVGID_00000019644665986468583340000001159082422004062088_"  style="overflow:visible;"/>
					</clipPath>
					
						<path style="clip-path:url(#SVGID_00000067215791509030169870000011575063384826574252_);stroke:#000000;stroke-linecap:round;stroke-linejoin:round;" d="
						M45.7,57.9l1-4.4l2.9,3.4L45.7,57.9z"/>
				</g>
			</g>
		</g>
	</g>
	<g id="patch_5">
		<g>
			<g>
				<g>
					<defs>
						<rect id="SVGID_00000101061141992153967880000014872033139083001489_" x="10.8" y="25.9" width="385.9" height="209.4"/>
					</defs>
					<clipPath id="SVGID_00000114050870598486083000000005328810580372711848_">
						<use xlink:href="#SVGID_00000101061141992153967880000014872033139083001489_"  style="overflow:visible;"/>
					</clipPath>
					
						<path style="clip-path:url(#SVGID_00000114050870598486083000000005328810580372711848_);fill:none;stroke:#000000;stroke-linecap:round;stroke-linejoin:round;" d="
						M74.6,131.5c33-19,65.6-37.8,97.9-56.4"/>
				</g>
			</g>
		</g>
		<g>
			<g>
				<g>
					<defs>
						<rect id="SVGID_00000028312711159223998720000003660364187797183651_" x="10.8" y="25.9" width="385.9" height="209.4"/>
					</defs>
					<clipPath id="SVGID_00000018930869711048117130000004853830678221908102_">
						<use xlink:href="#SVGID_00000028312711159223998720000003660364187797183651_"  style="overflow:visible;"/>
					</clipPath>
					
						<path style="clip-path:url(#SVGID_00000018930869711048117130000004853830678221908102_);stroke:#000000;stroke-linecap:round;stroke-linejoin:round;" d="
						M168,75.4l4.5-0.3l-2.5,3.7L168,75.4z"/>
				</g>
			</g>
		</g>
	</g>
	<g id="patch_6">
		<g>
			<g>
				<g>
					<defs>
						<rect id="SVGID_00000137118519884976861900000008882939906138752147_" x="10.8" y="25.9" width="385.9" height="209.4"/>
					</defs>
					<clipPath id="SVGID_00000141425609985428909970000015199634835744603014_">
						<use xlink:href="#SVGID_00000137118519884976861900000008882939906138752147_"  style="overflow:visible;"/>
					</clipPath>
					
						<path style="clip-path:url(#SVGID_00000141425609985428909970000015199634835744603014_);fill:none;stroke:#000000;stroke-linecap:round;stroke-linejoin:round;" d="
						M222.2,141.5c-12.3-21.2-24.4-42.1-36.3-62.7"/>
				</g>
			</g>
		</g>
		<g>
			<g>
				<g>
					<defs>
						<rect id="SVGID_00000116236311819012427980000009669332368555646593_" x="10.8" y="25.9" width="385.9" height="209.4"/>
					</defs>
					<clipPath id="SVGID_00000181065088657461394090000007250706417598750133_">
						<use xlink:href="#SVGID_00000116236311819012427980000009669332368555646593_"  style="overflow:visible;"/>
					</clipPath>
					
						<path style="clip-path:url(#SVGID_00000181065088657461394090000007250706417598750133_);stroke:#000000;stroke-linecap:round;stroke-linejoin:round;" d="
						M186.2,83.2l-0.3-4.5l3.7,2.5L186.2,83.2z"/>
				</g>
			</g>
		</g>
	</g>
	<g id="patch_7">
		<g>
			<g>
				<g>
					<defs>
						<rect id="SVGID_00000172411927403610519940000000453584821394612405_" x="10.8" y="25.9" width="385.9" height="209.4"/>
					</defs>
					<clipPath id="SVGID_00000178175037813837920910000013338545557517265576_">
						<use xlink:href="#SVGID_00000172411927403610519940000000453584821394612405_"  style="overflow:visible;"/>
					</clipPath>
					
						<path style="clip-path:url(#SVGID_00000178175037813837920910000013338545557517265576_);fill:none;stroke:#000000;stroke-linecap:round;stroke-linejoin:round;" d="
						M217.9,148.3c-47.4-3.9-94.4-7.8-141.1-11.6"/>
				</g>
			</g>
		</g>
		<g>
			<g>
				<g>
					<defs>
						<rect id="SVGID_00000176725799824767116850000007816971395110682247_" x="10.8" y="25.9" width="385.9" height="209.4"/>
					</defs>
					<clipPath id="SVGID_00000075160386236442050080000017297718257418489480_">
						<use xlink:href="#SVGID_00000176725799824767116850000007816971395110682247_"  style="overflow:visible;"/>
					</clipPath>
					
						<path style="clip-path:url(#SVGID_00000075160386236442050080000017297718257418489480_);stroke:#000000;stroke-linecap:round;stroke-linejoin:round;" d="
						M80.6,139l-3.8-2.3L81,135L80.6,139z"/>
				</g>
			</g>
		</g>
	</g>
	<g id="patch_8">
		<g>
			<g>
				<g>
					<defs>
						<rect id="SVGID_00000026135787856392535240000004163801110147943825_" x="10.8" y="25.9" width="385.9" height="209.4"/>
					</defs>
					<clipPath id="SVGID_00000116195891214863240000000008630487090742801814_">
						<use xlink:href="#SVGID_00000026135787856392535240000004163801110147943825_"  style="overflow:visible;"/>
					</clipPath>
					
						<path style="clip-path:url(#SVGID_00000116195891214863240000000008630487090742801814_);fill:none;stroke:#000000;stroke-linecap:round;stroke-linejoin:round;" d="
						M235.2,149c39.8,0,79.2,0,118.2,0"/>
				</g>
			</g>
		</g>
		<g>
			<g>
				<g>
					<defs>
						<rect id="SVGID_00000009555691250008401050000008976708138849107097_" x="10.8" y="25.9" width="385.9" height="209.4"/>
					</defs>
					<clipPath id="SVGID_00000115497342999947536410000000166848689996509063_">
						<use xlink:href="#SVGID_00000009555691250008401050000008976708138849107097_"  style="overflow:visible;"/>
					</clipPath>
					
						<path style="clip-path:url(#SVGID_00000115497342999947536410000000166848689996509063_);stroke:#000000;stroke-linecap:round;stroke-linejoin:round;" d="
						M349.5,147l4,2l-4,2V147z"/>
				</g>
			</g>
		</g>
	</g>
	<g id="patch_9">
		<g>
			<g>
				<g>
					<defs>
						<rect id="SVGID_00000153682374305007423070000012441181287170481078_" x="10.8" y="25.9" width="385.9" height="209.4"/>
					</defs>
					<clipPath id="SVGID_00000071556929144308248120000003077280653709893546_">
						<use xlink:href="#SVGID_00000153682374305007423070000012441181287170481078_"  style="overflow:visible;"/>
					</clipPath>
					
						<path style="clip-path:url(#SVGID_00000071556929144308248120000003077280653709893546_);fill:none;stroke:#000000;stroke-linecap:round;stroke-linejoin:round;" d="
						M355.3,145.5C299.8,121.6,244.7,97.8,190,74.2"/>
				</g>
			</g>
		</g>
		<g>
			<g>
				<g>
					<defs>
						<rect id="SVGID_00000138552163435597417110000001776798655425428363_" x="10.8" y="25.9" width="385.9" height="209.4"/>
					</defs>
					<clipPath id="SVGID_00000049211874608730226940000013663663507235556780_">
						<use xlink:href="#SVGID_00000138552163435597417110000001776798655425428363_"  style="overflow:visible;"/>
					</clipPath>
					
						<path style="clip-path:url(#SVGID_00000049211874608730226940000013663663507235556780_);stroke:#000000;stroke-linecap:round;stroke-linejoin:round;" d="
						M192.8,77.6l-2.9-3.4l4.5-0.3L192.8,77.6z"/>
				</g>
			</g>
		</g>
	</g>
	<g id="patch_10">
		<g>
			<g>
				<g>
					<defs>
						<rect id="SVGID_00000026871224579546999870000001425612932476385967_" x="10.8" y="25.9" width="385.9" height="209.4"/>
					</defs>
					<clipPath id="SVGID_00000059285870429382093470000016237813514879324834_">
						<use xlink:href="#SVGID_00000026871224579546999870000001425612932476385967_"  style="overflow:visible;"/>
					</clipPath>
					
						<path style="clip-path:url(#SVGID_00000059285870429382093470000016237813514879324834_);fill:none;stroke:#000000;stroke-linecap:round;stroke-linejoin:round;" d="
						M354.6,149c-39.8,0-79.2,0-118.2,0"/>
				</g>
			</g>
		</g>
		<g>
			<g>
				<g>
					<defs>
						<rect id="SVGID_00000158747208929354606460000001590152105251185805_" x="10.8" y="25.9" width="385.9" height="209.4"/>
					</defs>
					<clipPath id="SVGID_00000067220374326078021910000008448628365169983928_">
						<use xlink:href="#SVGID_00000158747208929354606460000001590152105251185805_"  style="overflow:visible;"/>
					</clipPath>
					
						<path style="clip-path:url(#SVGID_00000067220374326078021910000008448628365169983928_);stroke:#000000;stroke-linecap:round;stroke-linejoin:round;" d="
						M240.3,151l-4-2l4-2V151z"/>
				</g>
			</g>
		</g>
	</g>
	<g id="patch_11">
		<g>
			<g>
				<g>
					<defs>
						<rect id="SVGID_00000091000665171371940220000001853566240399744952_" x="10.8" y="25.9" width="385.9" height="209.4"/>
					</defs>
					<clipPath id="SVGID_00000061445805730067714360000007664890871590277528_">
						<use xlink:href="#SVGID_00000091000665171371940220000001853566240399744952_"  style="overflow:visible;"/>
					</clipPath>
					
						<path style="clip-path:url(#SVGID_00000061445805730067714360000007664890871590277528_);fill:none;stroke:#000000;stroke-linecap:round;stroke-linejoin:round;" d="
						M103.6,194.1c24.3-38.8,48.4-77.3,72.2-115.5"/>
				</g>
			</g>
		</g>
		<g>
			<g>
				<g>
					<defs>
						<rect id="SVGID_00000147180415792582730430000010307790443775930771_" x="10.8" y="25.9" width="385.9" height="209.4"/>
					</defs>
					<clipPath id="SVGID_00000148649757701384872370000004241825853768731051_">
						<use xlink:href="#SVGID_00000147180415792582730430000010307790443775930771_"  style="overflow:visible;"/>
					</clipPath>
					
						<path style="clip-path:url(#SVGID_00000148649757701384872370000004241825853768731051_);stroke:#000000;stroke-linecap:round;stroke-linejoin:round;" d="
						M172,80.9l3.8-2.3l-0.4,4.5L172,80.9z"/>
				</g>
			</g>
		</g>
	</g>
	<g id="patch_12">
		<g>
			<g>
				<g>
					<defs>
						<rect id="SVGID_00000047030813055024640860000002575305786681116303_" x="10.8" y="25.9" width="385.9" height="209.4"/>
					</defs>
					<clipPath id="SVGID_00000091705451869562033250000011777627820523593356_">
						<use xlink:href="#SVGID_00000047030813055024640860000002575305786681116303_"  style="overflow:visible;"/>
					</clipPath>
					
						<path style="clip-path:url(#SVGID_00000091705451869562033250000011777627820523593356_);fill:none;stroke:#000000;stroke-linecap:round;stroke-linejoin:round;" d="
						M107,198.1c37.2-15.3,74-30.4,110.5-45.4"/>
				</g>
			</g>
		</g>
		<g>
			<g>
				<g>
					<defs>
						<rect id="SVGID_00000056393202458596898260000002168480798282417053_" x="10.8" y="25.9" width="385.9" height="209.4"/>
					</defs>
					<clipPath id="SVGID_00000035489153221243100530000013992120852921269428_">
						<use xlink:href="#SVGID_00000056393202458596898260000002168480798282417053_"  style="overflow:visible;"/>
					</clipPath>
					
						<path style="clip-path:url(#SVGID_00000035489153221243100530000013992120852921269428_);stroke:#000000;stroke-linecap:round;stroke-linejoin:round;" d="
						M213,152.4l4.5,0.3l-2.9,3.4L213,152.4z"/>
				</g>
			</g>
		</g>
	</g>
	<g id="patch_13">
		<g>
			<g>
				<g>
					<defs>
						<rect id="SVGID_00000072994871326629118880000016702879220773128869_" x="10.8" y="25.9" width="385.9" height="209.4"/>
					</defs>
					<clipPath id="SVGID_00000079453439352076112660000016188498658096011432_">
						<use xlink:href="#SVGID_00000072994871326629118880000016702879220773128869_"  style="overflow:visible;"/>
					</clipPath>
					
						<path style="clip-path:url(#SVGID_00000079453439352076112660000016188498658096011432_);fill:none;stroke:#000000;stroke-linecap:round;stroke-linejoin:round;" d="
						M138.1,201.1c13.4-40.8,26.7-81.3,39.8-121.4"/>
				</g>
			</g>
		</g>
		<g>
			<g>
				<g>
					<defs>
						<rect id="SVGID_00000076575479455675845680000003056149652476175489_" x="10.8" y="25.9" width="385.9" height="209.4"/>
					</defs>
					<clipPath id="SVGID_00000131343105955852099260000001714102753024063375_">
						<use xlink:href="#SVGID_00000076575479455675845680000003056149652476175489_"  style="overflow:visible;"/>
					</clipPath>
					
						<path style="clip-path:url(#SVGID_00000131343105955852099260000001714102753024063375_);stroke:#000000;stroke-linecap:round;stroke-linejoin:round;" d="
						M174.8,82.8l3.1-3.2l0.7,4.4L174.8,82.8z"/>
				</g>
			</g>
		</g>
	</g>
	<g id="patch_14">
		<g>
			<g>
				<g>
					<defs>
						<rect id="SVGID_00000170963377894517928500000000506262614360104868_" x="10.8" y="25.9" width="385.9" height="209.4"/>
					</defs>
					<clipPath id="SVGID_00000033369905165724427990000014983641716597615527_">
						<use xlink:href="#SVGID_00000170963377894517928500000000506262614360104868_"  style="overflow:visible;"/>
					</clipPath>
					
						<path style="clip-path:url(#SVGID_00000033369905165724427990000014983641716597615527_);fill:none;stroke:#000000;stroke-linecap:round;stroke-linejoin:round;" d="
						M142.6,204.5c25.6-16.9,50.8-33.6,75.7-50.1"/>
				</g>
			</g>
		</g>
		<g>
			<g>
				<g>
					<defs>
						<rect id="SVGID_00000176737543492261728590000007561849780951470014_" x="10.8" y="25.9" width="385.9" height="209.4"/>
					</defs>
					<clipPath id="SVGID_00000032637259725157679700000014087699165333576334_">
						<use xlink:href="#SVGID_00000176737543492261728590000007561849780951470014_"  style="overflow:visible;"/>
					</clipPath>
					
						<path style="clip-path:url(#SVGID_00000032637259725157679700000014087699165333576334_);stroke:#000000;stroke-linecap:round;stroke-linejoin:round;" d="
						M213.9,154.9l4.4-0.5l-2.2,3.9L213.9,154.9z"/>
				</g>
			</g>
		</g>
	</g>
	<g id="patch_15">
		<g>
			<g>
				<g>
					<defs>
						<rect id="SVGID_00000061439985777998652360000003727293096789672340_" x="10.8" y="25.9" width="385.9" height="209.4"/>
					</defs>
					<clipPath id="SVGID_00000163034041951157377010000007622277533806177937_">
						<use xlink:href="#SVGID_00000061439985777998652360000003727293096789672340_"  style="overflow:visible;"/>
					</clipPath>
					
						<path style="clip-path:url(#SVGID_00000163034041951157377010000007622277533806177937_);fill:none;stroke:#000000;stroke-linecap:round;stroke-linejoin:round;" d="
						M172.4,208.5c2.7-43.2,5.3-86,8-128.4"/>
				</g>
			</g>
		</g>
		<g>
			<g>
				<g>
					<defs>
						<rect id="SVGID_00000114764926522224900370000000192499310410496169_" x="10.8" y="25.9" width="385.9" height="209.4"/>
					</defs>
					<clipPath id="SVGID_00000140013643258172686990000009686751141606673072_">
						<use xlink:href="#SVGID_00000114764926522224900370000000192499310410496169_"  style="overflow:visible;"/>
					</clipPath>
					
						<path style="clip-path:url(#SVGID_00000140013643258172686990000009686751141606673072_);stroke:#000000;stroke-linecap:round;stroke-linejoin:round;" d="
						M178.1,83.9l2.2-3.9l1.7,4.1L178.1,83.9z"/>
				</g>
			</g>
		</g>
	</g>
	<g id="patch_16">
		<g>
			<g>
				<g>
					<defs>
						<rect id="SVGID_00000123404230772444564970000005041312771748679320_" x="10.8" y="25.9" width="385.9" height="209.4"/>
					</defs>
					<clipPath id="SVGID_00000136411734206430230020000009908947464440751039_">
						<use xlink:href="#SVGID_00000123404230772444564970000005041312771748679320_"  style="overflow:visible;"/>
					</clipPath>
					
						<path style="clip-path:url(#SVGID_00000136411734206430230020000009908947464440751039_);fill:none;stroke:#000000;stroke-linecap:round;stroke-linejoin:round;" d="
						M177.3,210.4c14.6-18.2,29-36.1,43.1-53.8"/>
				</g>
			</g>
		</g>
		<g>
			<g>
				<g>
					<defs>
						<rect id="SVGID_00000122713963305756041590000009987698484952446648_" x="10.8" y="25.9" width="385.9" height="209.4"/>
					</defs>
					<clipPath id="SVGID_00000156578788457592286650000010862596763203225263_">
						<use xlink:href="#SVGID_00000122713963305756041590000009987698484952446648_"  style="overflow:visible;"/>
					</clipPath>
					
						<path style="clip-path:url(#SVGID_00000156578788457592286650000010862596763203225263_);stroke:#000000;stroke-linecap:round;stroke-linejoin:round;" d="
						M216.4,158.5l4.1-1.9l-0.9,4.4L216.4,158.5z"/>
				</g>
			</g>
		</g>
	</g>
	<g id="patch_17">
		<g>
			<g>
				<g>
					<defs>
						<rect id="SVGID_00000026863762071027329750000009496720610427563175_" x="10.8" y="25.9" width="385.9" height="209.4"/>
					</defs>
					<clipPath id="SVGID_00000057111780960448488760000002847534916470797960_">
						<use xlink:href="#SVGID_00000026863762071027329750000009496720610427563175_"  style="overflow:visible;"/>
					</clipPath>
					
						<path style="clip-path:url(#SVGID_00000057111780960448488760000002847534916470797960_);fill:none;stroke:#000000;stroke-linecap:round;stroke-linejoin:round;" d="
						M310.2,197.1c-25.4-14.6-50.4-29-75.1-43.2"/>
				</g>
			</g>
		</g>
		<g>
			<g>
				<g>
					<defs>
						<rect id="SVGID_00000114069033084103412600000011417047835924320680_" x="10.8" y="25.9" width="385.9" height="209.4"/>
					</defs>
					<clipPath id="SVGID_00000160895048588319089810000012867196968734766720_">
						<use xlink:href="#SVGID_00000114069033084103412600000011417047835924320680_"  style="overflow:visible;"/>
					</clipPath>
					
						<path style="clip-path:url(#SVGID_00000160895048588319089810000012867196968734766720_);stroke:#000000;stroke-linecap:round;stroke-linejoin:round;" d="
						M237.5,157.6l-2.5-3.7l4.5,0.3L237.5,157.6z"/>
				</g>
			</g>
		</g>
	</g>
	<g id="patch_18">
		<g>
			<g>
				<g>
					<defs>
						<rect id="SVGID_00000000941143591939747980000005204115330252129198_" x="10.8" y="25.9" width="385.9" height="209.4"/>
					</defs>
					<clipPath id="SVGID_00000069381789902772324200000014710095794054134943_">
						<use xlink:href="#SVGID_00000000941143591939747980000005204115330252129198_"  style="overflow:visible;"/>
					</clipPath>
					
						<path style="clip-path:url(#SVGID_00000069381789902772324200000014710095794054134943_);fill:none;stroke:#000000;stroke-linecap:round;stroke-linejoin:round;" d="
						M332.3,185.5c-32.5-11.2-64.7-22.3-96.5-33.3"/>
				</g>
			</g>
		</g>
		<g>
			<g>
				<g>
					<defs>
						<rect id="SVGID_00000171690310306050065950000001426171647612520858_" x="10.8" y="25.9" width="385.9" height="209.4"/>
					</defs>
					<clipPath id="SVGID_00000129167689757357219090000014256306477231611789_">
						<use xlink:href="#SVGID_00000171690310306050065950000001426171647612520858_"  style="overflow:visible;"/>
					</clipPath>
					
						<path style="clip-path:url(#SVGID_00000129167689757357219090000014256306477231611789_);stroke:#000000;stroke-linecap:round;stroke-linejoin:round;" d="
						M238.9,155.4l-3.1-3.2l4.4-0.6L238.9,155.4z"/>
				</g>
			</g>
		</g>
	</g>
	<g id="PathCollection_1">
		<g>
			<g>
				<g>
					<defs>
						<rect id="SVGID_00000165936402773050877070000000407117305926207639_" x="10.8" y="25.9" width="385.9" height="209.4"/>
					</defs>
					<clipPath id="SVGID_00000088829001269469245050000012322559287931917954_">
						<use xlink:href="#SVGID_00000165936402773050877070000000407117305926207639_"  style="overflow:visible;"/>
					</clipPath>
					<g style="clip-path:url(#SVGID_00000088829001269469245050000012322559287931917954_);">
						<g>
							<path id="C0_0_e6875040e2" class="st36" d="M181,78.2c2.1,0,4.1-0.8,5.6-2.3s2.3-3.5,2.3-5.6s-0.8-4.1-2.3-5.6
								s-3.5-2.3-5.6-2.3s-4.1,0.8-5.6,2.3s-2.3,3.5-2.3,5.6s0.8,4.1,2.3,5.6S178.9,78.2,181,78.2z"/>
						</g>
					</g>
				</g>
			</g>
		</g>
		<g>
			<g>
				<g>
					<defs>
						<rect id="SVGID_00000027584236357146758870000000878110732078898606_" x="10.8" y="25.9" width="385.9" height="209.4"/>
					</defs>
					<clipPath id="SVGID_00000164501665087988876980000014893051666339149987_">
						<use xlink:href="#SVGID_00000027584236357146758870000000878110732078898606_"  style="overflow:visible;"/>
					</clipPath>
					<g style="clip-path:url(#SVGID_00000164501665087988876980000014893051666339149987_);">
						<g>
							<path id="C0_0_e6875040e2_00000040553443963450593480000010751433186284550078_" class="st36" d="M363.2,52
								c2.1,0,4.1-0.8,5.6-2.3s2.3-3.5,2.3-5.6s-0.8-4.1-2.3-5.6s-3.5-2.3-5.6-2.3s-4.1,0.8-5.6,2.3s-2.3,3.5-2.3,5.6
								s0.8,4.1,2.3,5.6S361.1,52,363.2,52z"/>
						</g>
					</g>
				</g>
			</g>
		</g>
		<g>
			<g>
				<g>
					<defs>
						<rect id="SVGID_00000024709560353794851040000013055462426799171971_" x="10.8" y="25.9" width="385.9" height="209.4"/>
					</defs>
					<clipPath id="SVGID_00000057834583001014228320000017729115972413803701_">
						<use xlink:href="#SVGID_00000024709560353794851040000013055462426799171971_"  style="overflow:visible;"/>
					</clipPath>
					<g style="clip-path:url(#SVGID_00000057834583001014228320000017729115972413803701_);">
						<g>
							<path id="C0_0_e6875040e2_00000011728070184877931500000016298269704341412738_" class="st39" d="M67.1,143.8
								c2.1,0,4.1-0.8,5.6-2.3s2.3-3.5,2.3-5.6s-0.8-4.1-2.3-5.6s-3.5-2.3-5.6-2.3s-4.1,0.8-5.6,2.3s-2.3,3.5-2.3,5.6
								s0.8,4.1,2.3,5.6C63,142.9,65,143.8,67.1,143.8z"/>
						</g>
					</g>
				</g>
			</g>
		</g>
		<g>
			<g>
				<g>
					<defs>
						<rect id="SVGID_00000150800176530439672480000007929941348120032441_" x="10.8" y="25.9" width="385.9" height="209.4"/>
					</defs>
					<clipPath id="SVGID_00000039134612490073754030000010268396848606451641_">
						<use xlink:href="#SVGID_00000150800176530439672480000007929941348120032441_"  style="overflow:visible;"/>
					</clipPath>
					<g style="clip-path:url(#SVGID_00000039134612490073754030000010268396848606451641_);">
						<g>
							<path id="C0_0_e6875040e2_00000005952099330041632130000002956853456702253217_" class="st39" d="M44.3,52
								c2.1,0,4.1-0.8,5.6-2.3s2.3-3.5,2.3-5.6s-0.8-4.1-2.3-5.6s-3.5-2.3-5.6-2.3s-4.1,0.8-5.6,2.3s-2.3,3.5-2.3,5.6
								s0.8,4.1,2.3,5.6S42.2,52,44.3,52z"/>
						</g>
					</g>
				</g>
			</g>
		</g>
		<g>
			<g>
				<g>
					<defs>
						<rect id="SVGID_00000067956158599090335580000013339490130115429298_" x="10.8" y="25.9" width="385.9" height="209.4"/>
					</defs>
					<clipPath id="SVGID_00000021119745589574970110000001502617724138327443_">
						<use xlink:href="#SVGID_00000067956158599090335580000013339490130115429298_"  style="overflow:visible;"/>
					</clipPath>
					<g style="clip-path:url(#SVGID_00000021119745589574970110000001502617724138327443_);">
						<g>
							<path id="C0_0_e6875040e2_00000127728665942978456420000013128236412686954652_" class="st39" d="M226.5,156.9
								c2.1,0,4.1-0.8,5.6-2.3s2.3-3.5,2.3-5.6s-0.8-4.1-2.3-5.6s-3.5-2.3-5.6-2.3s-4.1,0.8-5.6,2.3s-2.3,3.5-2.3,5.6
								s0.8,4.1,2.3,5.6S224.4,156.9,226.5,156.9z"/>
						</g>
					</g>
				</g>
			</g>
		</g>
		<g>
			<g>
				<g>
					<defs>
						<rect id="SVGID_00000006689422444001470580000014523577332280346033_" x="10.8" y="25.9" width="385.9" height="209.4"/>
					</defs>
					<clipPath id="SVGID_00000037680092004599227000000004908621341205384630_">
						<use xlink:href="#SVGID_00000006689422444001470580000014523577332280346033_"  style="overflow:visible;"/>
					</clipPath>
					<g style="clip-path:url(#SVGID_00000037680092004599227000000004908621341205384630_);">
						<g>
							<path id="C0_0_e6875040e2_00000007427830353831016720000018378211870684061356_" class="st39" d="M363.2,156.9
								c2.1,0,4.1-0.8,5.6-2.3s2.3-3.5,2.3-5.6s-0.8-4.1-2.3-5.6s-3.5-2.3-5.6-2.3s-4.1,0.8-5.6,2.3s-2.3,3.5-2.3,5.6
								s0.8,4.1,2.3,5.6C359.1,156,361.1,156.9,363.2,156.9z"/>
						</g>
					</g>
				</g>
			</g>
		</g>
		<g>
			<g>
				<g>
					<defs>
						<rect id="SVGID_00000005967382924502808530000003274954276247095485_" x="10.8" y="25.9" width="385.9" height="209.4"/>
					</defs>
					<clipPath id="SVGID_00000021088307326513713110000017935377062351972751_">
						<use xlink:href="#SVGID_00000005967382924502808530000003274954276247095485_"  style="overflow:visible;"/>
					</clipPath>
					<g style="clip-path:url(#SVGID_00000021088307326513713110000017935377062351972751_);">
						<g>
							<path id="C0_0_e6875040e2_00000097461259666245203840000010561543980925289134_" class="st39" d="M99,209.3
								c2.1,0,4.1-0.8,5.6-2.3s2.3-3.5,2.3-5.6s-0.8-4.1-2.3-5.6s-3.5-2.3-5.6-2.3s-4.1,0.8-5.6,2.3s-2.3,3.5-2.3,5.6
								s0.8,4.1,2.3,5.6S96.9,209.3,99,209.3z"/>
						</g>
					</g>
				</g>
			</g>
		</g>
		<g>
			<g>
				<g>
					<defs>
						<rect id="SVGID_00000054959773811696164070000009660100266331213201_" x="10.8" y="25.9" width="385.9" height="209.4"/>
					</defs>
					<clipPath id="SVGID_00000086654903474944669770000009498890635163942051_">
						<use xlink:href="#SVGID_00000054959773811696164070000009660100266331213201_"  style="overflow:visible;"/>
					</clipPath>
					<g style="clip-path:url(#SVGID_00000086654903474944669770000009498890635163942051_);">
						<g>
							<path id="C0_0_e6875040e2_00000080186673841911146690000002483950865502425988_" class="st39" d="M135.4,217.2
								c2.1,0,4.1-0.8,5.6-2.3s2.3-3.5,2.3-5.6s-0.8-4.1-2.3-5.6s-3.5-2.3-5.6-2.3s-4.1,0.8-5.6,2.3s-2.3,3.5-2.3,5.6
								s0.8,4.1,2.3,5.6S133.3,217.2,135.4,217.2z"/>
						</g>
					</g>
				</g>
			</g>
		</g>
		<g>
			<g>
				<g>
					<defs>
						<rect id="SVGID_00000087407239260136522830000007306134192081508511_" x="10.8" y="25.9" width="385.9" height="209.4"/>
					</defs>
					<clipPath id="SVGID_00000031169683998124290210000013068702279951994006_">
						<use xlink:href="#SVGID_00000087407239260136522830000007306134192081508511_"  style="overflow:visible;"/>
					</clipPath>
					<g style="clip-path:url(#SVGID_00000031169683998124290210000013068702279951994006_);">
						<g>
							<path id="C0_0_e6875040e2_00000080182816529184566950000013796191146121174676_" class="st39" d="M171.9,225.1
								c2.1,0,4.1-0.8,5.6-2.3s2.3-3.5,2.3-5.6s-0.8-4.1-2.3-5.6s-3.5-2.3-5.6-2.3s-4.1,0.8-5.6,2.3s-2.3,3.5-2.3,5.6
								s0.8,4.1,2.3,5.6S169.8,225.1,171.9,225.1z"/>
						</g>
					</g>
				</g>
			</g>
		</g>
		<g>
			<g>
				<g>
					<defs>
						<rect id="SVGID_00000157279978225416626710000008477470954736925825_" x="10.8" y="25.9" width="385.9" height="209.4"/>
					</defs>
					<clipPath id="SVGID_00000086667522415539583450000009823898072238584975_">
						<use xlink:href="#SVGID_00000157279978225416626710000008477470954736925825_"  style="overflow:visible;"/>
					</clipPath>
					<g style="clip-path:url(#SVGID_00000086667522415539583450000009823898072238584975_);">
						<g>
							<path id="C0_0_e6875040e2_00000037693529798385796260000016074192595125394054_" class="st39" d="M317.7,209.3
								c2.1,0,4.1-0.8,5.6-2.3s2.3-3.5,2.3-5.6s-0.8-4.1-2.3-5.6s-3.5-2.3-5.6-2.3s-4.1,0.8-5.6,2.3s-2.3,3.5-2.3,5.6
								s0.8,4.1,2.3,5.6S315.6,209.3,317.7,209.3z"/>
						</g>
					</g>
				</g>
			</g>
		</g>
		<g>
			<g>
				<g>
					<defs>
						<rect id="SVGID_00000183966788786966786640000010601519250861750170_" x="10.8" y="25.9" width="385.9" height="209.4"/>
					</defs>
					<clipPath id="SVGID_00000162349596915993564690000000038777515088254909_">
						<use xlink:href="#SVGID_00000183966788786966786640000010601519250861750170_"  style="overflow:visible;"/>
					</clipPath>
					<g style="clip-path:url(#SVGID_00000162349596915993564690000000038777515088254909_);">
						<g>
							<path id="C0_0_e6875040e2_00000124153957426314812150000003818253591072053411_" class="st39" d="M340.4,196.2
								c2.1,0,4.1-0.8,5.6-2.3s2.3-3.5,2.3-5.6s-0.8-4.1-2.3-5.6s-3.5-2.3-5.6-2.3s-4.1,0.8-5.6,2.3s-2.3,3.5-2.3,5.6
								s0.8,4.1,2.3,5.6S338.4,196.2,340.4,196.2z"/>
						</g>
					</g>
				</g>
			</g>
		</g>
	</g>
	<g id="text_1">
		<g transform="translate(110.044688 19.918125)scale(0.12 -0.12)">
			<g>
				<path id="DejaVuSans-68" d="M19.7,64.8V8.1h11.9c10.1,0,17.4,2.3,22.1,6.8c4.7,4.6,7,11.8,7,21.6s-2.3,16.9-7,21.5
					s-12,6.8-22.1,6.8H19.7z M9.8,72.9h20.3c14.1,0,24.5-2.9,31.1-8.8s9.9-15.1,9.9-27.6c0-12.6-3.3-21.8-10-27.7
					c-6.6-5.9-17-8.8-31-8.8H9.8V72.9z"/>
			</g>
			<g>
				<path id="DejaVuSans-105" d="M86.4,54.7h9V0h-9V54.7z M86.4,76h9V64.6h-9V76z"/>
			</g>
			<g>
				<path id="DejaVuSans-71" d="M164.3,10.4V30h-16.1v8.1h25.9V6.8c-3.8-2.7-8-4.7-12.6-6.1s-9.5-2.1-14.7-2.1
					c-11.4,0-20.3,3.3-26.8,10c-6.4,6.7-9.6,15.9-9.6,27.8s3.2,21.2,9.6,27.9c6.4,6.7,15.4,10,26.8,10c4.8,0,9.3-0.6,13.5-1.8
					c4.3-1.2,8.2-2.9,11.8-5.2V56.8c-3.6,3.1-7.5,5.4-11.6,7c-4.1,1.6-8.4,2.3-12.9,2.3c-8.9,0-15.6-2.5-20.1-7.5
					c-4.5-5-6.7-12.4-6.7-22.3c0-9.8,2.2-17.2,6.7-22.2c4.5-5,11.2-7.5,20.1-7.5c3.5,0,6.6,0.3,9.3,0.9
					C159.7,8.2,162.1,9.1,164.3,10.4z"/>
			</g>
			<g>
				<path id="DejaVuSans-114" d="M223.4,46.3c-1,0.6-2.1,1-3.3,1.3s-2.5,0.4-3.9,0.4c-5.1,0-9-1.7-11.7-5s-4.1-8-4.1-14.2V0h-9v54.7
					h9v-8.5c1.9,3.3,4.4,5.8,7.4,7.4c3,1.6,6.7,2.4,11,2.4c0.6,0,1.3,0,2-0.1c0.8-0.1,1.6-0.2,2.5-0.4L223.4,46.3z"/>
			</g>
			<g>
				<path id="DejaVuSans-97" d="M257.7,27.5c-7.3,0-12.3-0.8-15.1-2.5s-4.2-4.5-4.2-8.5c0-3.2,1.1-5.7,3.2-7.6
					c2.1-1.9,5-2.8,8.6-2.8c5,0,9,1.8,12,5.3s4.5,8.2,4.5,14.1v2H257.7z M275.6,31.2V0h-9v8.3c-2-3.3-4.6-5.8-7.7-7.3
					s-6.8-2.4-11.2-2.4c-5.6,0-10,1.6-13.4,4.7c-3.3,3.1-5,7.4-5,12.6c0,6.1,2.1,10.8,6.2,13.9c4.1,3.1,10.3,4.7,18.4,4.7h12.6v0.9
					c0,4.1-1.4,7.3-4.1,9.6s-6.5,3.4-11.5,3.4c-3.1,0-6.2-0.4-9.1-1.1c-3-0.8-5.8-1.9-8.5-3.4v8.3c3.3,1.3,6.5,2.2,9.6,2.8
					s6.1,1,9,1c7.9,0,13.8-2.1,17.7-6.2C273.6,45.7,275.6,39.5,275.6,31.2z"/>
			</g>
			<g>
				<path id="DejaVuSans-112" d="M302.8,8.2v-29h-9v75.5h9v-8.3c1.9,3.2,4.3,5.7,7.2,7.2c2.9,1.6,6.3,2.4,10.3,2.4
					c6.6,0,12-2.6,16.2-7.9s6.2-12.2,6.2-20.8s-2.1-15.5-6.2-20.8s-9.5-7.9-16.2-7.9c-4,0-7.4,0.8-10.3,2.4
					C307.1,2.5,304.7,5,302.8,8.2z M333.4,27.3c0,6.6-1.4,11.8-4.1,15.5s-6.5,5.6-11.2,5.6c-4.8,0-8.5-1.9-11.2-5.6
					s-4.1-8.9-4.1-15.5s1.4-11.8,4.1-15.5s6.5-5.6,11.2-5.6c4.8,0,8.5,1.9,11.2,5.6S333.4,20.7,333.4,27.3z"/>
			</g>
			<g>
				<path id="DejaVuSans-104" d="M403,33V0h-9v32.7c0,5.2-1,9-3,11.6c-2,2.6-5,3.9-9.1,3.9c-4.9,0-8.7-1.5-11.5-4.6
					s-4.2-7.3-4.2-12.6V0h-9v76h9V46.2c2.2,3.3,4.7,5.8,7.6,7.4c2.9,1.6,6.3,2.4,10.1,2.4c6.3,0,11-1.9,14.2-5.8
					C401.4,46.3,403,40.6,403,33z"/>
			</g>
			<g>
				<path id="DejaVuSans-32" d="M411.5,0"/>
			</g>
			<g>
				<path id="DejaVuSans-69" d="M453.1,72.9h46.1v-8.3H463V43h34.7v-8.3H463V8.3h37.1V0h-47V72.9z"/>
			</g>
			<g>
				<path id="DejaVuSans-105_00000092447978454177936210000015721121291026916516_" d="M515.9,54.7h9V0h-9V54.7z M515.9,76h9V64.6
					h-9V76z"/>
			</g>
			<g>
				<path id="DejaVuSans-103" d="M579.7,28c0,6.5-1.3,11.6-4,15.1c-2.7,3.6-6.4,5.4-11.3,5.4c-4.8,0-8.6-1.8-11.2-5.4
					c-2.7-3.6-4-8.6-4-15.1s1.3-11.5,4-15.1s6.4-5.4,11.2-5.4c4.9,0,8.6,1.8,11.3,5.4C578.3,16.5,579.7,21.5,579.7,28z M588.7,6.8
					c0-9.3-2.1-16.2-6.2-20.8c-4.1-4.5-10.5-6.8-19-6.8c-3.2,0-6.1,0.2-8.9,0.7s-5.5,1.2-8.2,2.2v8.7c2.6-1.4,5.2-2.5,7.8-3.2
					s5.2-1,7.9-1c5.9,0,10.3,1.5,13.2,4.6s4.4,7.7,4.4,13.9v4.5c-1.9-3.2-4.2-5.6-7.1-7.2S566.2,0,562.2,0c-6.7,0-12.1,2.6-16.2,7.7
					c-4.1,5.1-6.2,11.9-6.2,20.3c0,8.5,2.1,15.2,6.2,20.3c4.1,5.1,9.5,7.7,16.2,7.7c4,0,7.5-0.8,10.4-2.4s5.3-4,7.1-7.2v8.3h9V6.8z"
					/>
			</g>
			<g>
				<path id="DejaVuSans-101" d="M654,29.6v-4.4h-41.3c0.4-6.2,2.3-10.9,5.6-14.1s8-4.9,13.9-4.9c3.4,0,6.8,0.4,10,1.3
					s6.5,2.1,9.7,3.8V2.8c-3.2-1.4-6.5-2.4-9.9-3.1s-6.8-1.1-10.3-1.1c-8.7,0-15.6,2.5-20.7,7.6c-5.1,5.1-7.6,12-7.6,20.6
					c0,8.9,2.4,16,7.2,21.3S622,56,630.2,56c7.4,0,13.2-2.4,17.5-7.1C651.8,44.2,654,37.7,654,29.6z M645,32.2
					c-0.1,4.9-1.4,8.8-4.1,11.8c-2.7,2.9-6.2,4.4-10.7,4.4c-5,0-9-1.4-12-4.2s-4.7-6.8-5.2-12H645z"/>
			</g>
			<g>
				<path id="DejaVuSans-110" d="M714.2,33V0h-9v32.7c0,5.2-1,9-3,11.6c-2,2.6-5,3.9-9.1,3.9c-4.9,0-8.7-1.5-11.5-4.6
					s-4.2-7.3-4.2-12.6V0h-9v54.7h9v-8.5c2.2,3.3,4.7,5.8,7.6,7.4c2.9,1.6,6.3,2.4,10.1,2.4c6.3,0,11-1.9,14.2-5.8
					C712.6,46.3,714.2,40.6,714.2,33z"/>
			</g>
			<g>
				<path id="DejaVuSans-118" d="M725.6,54.7h9.5l17.1-45.9l17.1,45.9h9.5L758.3,0h-12.2L725.6,54.7z"/>
			</g>
			<g>
				<path id="DejaVuSans-101_00000145739048496790928290000002323424824582205886_" d="M838,29.6v-4.4h-41.3
					c0.4-6.2,2.3-10.9,5.6-14.1s8-4.9,13.9-4.9c3.4,0,6.8,0.4,10,1.3c3.2,0.8,6.5,2.1,9.7,3.8V2.8c-3.2-1.4-6.5-2.4-9.9-3.1
					s-6.8-1.1-10.3-1.1c-8.7,0-15.6,2.5-20.7,7.6c-5.1,5.1-7.6,12-7.6,20.6c0,8.9,2.4,16,7.2,21.3S806,56,814.2,56
					c7.4,0,13.2-2.4,17.5-7.1C835.9,44.2,838,37.7,838,29.6z M829.1,32.2C829,37.1,827.7,41,825,44c-2.7,2.9-6.2,4.4-10.7,4.4
					c-5,0-9-1.4-12-4.2s-4.7-6.8-5.2-12H829.1z"/>
			</g>
			<g>
				<path id="DejaVuSans-99" d="M892.1,52.6v-8.4c-2.5,1.4-5.1,2.5-7.6,3.2c-2.6,0.7-5.1,1-7.7,1c-5.8,0-10.4-1.8-13.6-5.5
					c-3.2-3.7-4.8-8.9-4.8-15.5s1.6-11.9,4.8-15.6s7.8-5.5,13.6-5.5c2.6,0,5.2,0.3,7.7,1c2.6,0.7,5.1,1.7,7.6,3.2V2.1
					c-2.5-1.2-5.1-2-7.8-2.6s-5.5-0.9-8.6-0.9c-8.2,0-14.8,2.6-19.6,7.8s-7.3,12.2-7.3,21c0,8.9,2.4,15.9,7.3,21
					c4.9,5.1,11.6,7.7,20.2,7.7c2.8,0,5.5-0.3,8.1-0.9C887.1,54.6,889.7,53.7,892.1,52.6z"/>
			</g>
			<g>
				<path id="DejaVuSans-116" d="M916.7,70.2V54.7h18.5v-7h-18.5V18c0-4.5,0.6-7.3,1.8-8.6s3.7-1.9,7.5-1.9h9.2V0H926
					c-6.9,0-11.7,1.3-14.4,3.9c-2.6,2.6-4,7.3-4,14.1v29.7H901v7h6.6v15.5H916.7z"/>
			</g>
			<g>
				<path id="DejaVuSans-111" d="M968.2,48.4c-4.8,0-8.6-1.9-11.4-5.6c-2.8-3.8-4.2-8.9-4.2-15.5s1.4-11.7,4.2-15.5
					s6.6-5.6,11.5-5.6c4.8,0,8.6,1.9,11.4,5.7c2.8,3.8,4.2,8.9,4.2,15.4s-1.4,11.6-4.2,15.4C976.7,46.5,972.9,48.4,968.2,48.4z
					 M968.2,56c7.8,0,13.9-2.5,18.4-7.6s6.7-12.1,6.7-21.1c0-8.9-2.2-16-6.7-21.1S976-1.4,968.2-1.4s-14,2.5-18.4,7.6
					s-6.7,12.1-6.7,21.1s2.2,16,6.7,21.1C954.2,53.5,960.3,56,968.2,56z"/>
			</g>
			<g>
				<path id="DejaVuSans-114_00000079449698415024305440000001890375518923494295_" d="M1039.8,46.3c-1,0.6-2.1,1-3.3,1.3
					c-1.2,0.3-2.5,0.4-3.9,0.4c-5.1,0-9-1.7-11.7-5s-4.1-8-4.1-14.2V0h-9v54.7h9v-8.5c1.9,3.3,4.4,5.8,7.4,7.4c3,1.6,6.7,2.4,11,2.4
					c0.6,0,1.3,0,2-0.1c0.8-0.1,1.6-0.2,2.5-0.4L1039.8,46.3z"/>
			</g>
			<g>
				<path id="DejaVuSans-32_00000008145886546956211830000015990754865492001409_" d="M1039.8,0"/>
			</g>
			<g>
				<path id="DejaVuSans-67" d="M1136,67.3V56.9c-3.3,3.1-6.9,5.4-10.6,6.9c-3.8,1.5-7.8,2.3-12,2.3c-8.3,0-14.7-2.5-19.1-7.6
					s-6.6-12.5-6.6-22.1s2.2-17,6.6-22c4.4-5.1,10.8-7.6,19.1-7.6c4.2,0,8.2,0.8,12,2.3s7.3,3.8,10.6,6.9V5.6
					c-3.4-2.3-7.1-4.1-11-5.3s-7.9-1.7-12.2-1.7c-11,0-19.7,3.4-26.1,10.1c-6.3,6.8-9.5,16-9.5,27.7s3.2,21,9.5,27.7
					c6.4,6.8,15.1,10.1,26.1,10.1c4.4,0,8.5-0.6,12.3-1.7C1129,71.3,1132.7,69.6,1136,67.3z"/>
			</g>
			<g>
				<path id="DejaVuSans-101_00000162315845155486762730000018274118279858191019_" d="M1197.7,29.6v-4.4h-41.3
					c0.4-6.2,2.3-10.9,5.6-14.1c3.3-3.2,8-4.9,13.9-4.9c3.4,0,6.8,0.4,10,1.3c3.2,0.8,6.5,2.1,9.7,3.8V2.8c-3.2-1.4-6.5-2.4-9.9-3.1
					s-6.8-1.1-10.3-1.1c-8.7,0-15.6,2.5-20.7,7.6s-7.6,12-7.6,20.6c0,8.9,2.4,16,7.2,21.3c4.8,5.3,11.4,7.9,19.6,7.9
					c7.4,0,13.2-2.4,17.5-7.1C1195.5,44.2,1197.7,37.7,1197.7,29.6z M1188.7,32.2c-0.1,4.9-1.4,8.8-4.1,11.8
					c-2.7,2.9-6.2,4.4-10.7,4.4c-5,0-9-1.4-12-4.2s-4.7-6.8-5.2-12H1188.7z"/>
			</g>
			<g>
				<path id="DejaVuSans-110_00000010310126806078247600000001343814753312425659_" d="M1257.9,33V0h-9v32.7c0,5.2-1,9-3,11.6
					c-2,2.6-5,3.9-9.1,3.9c-4.9,0-8.7-1.5-11.5-4.6s-4.2-7.3-4.2-12.6V0h-9v54.7h9v-8.5c2.2,3.3,4.7,5.8,7.6,7.4
					c2.9,1.6,6.3,2.4,10.1,2.4c6.3,0,11-1.9,14.2-5.8C1256.3,46.3,1257.9,40.6,1257.9,33z"/>
			</g>
			<g>
				<path id="DejaVuSans-116_00000031920482321234538460000003473049289396953279_" d="M1284.7,70.2V54.7h18.5v-7h-18.5V18
					c0-4.5,0.6-7.3,1.8-8.6s3.7-1.9,7.5-1.9h9.2V0h-9.2c-6.9,0-11.7,1.3-14.4,3.9c-2.6,2.6-4,7.3-4,14.1v29.7h-6.6v7h6.6v15.5
					H1284.7z"/>
			</g>
			<g>
				<path id="DejaVuSans-114_00000160894978845993658210000012607375221640942755_" d="M1346.7,46.3c-1,0.6-2.1,1-3.3,1.3
					c-1.2,0.3-2.5,0.4-3.9,0.4c-5.1,0-9-1.7-11.7-5s-4.1-8-4.1-14.2V0h-9v54.7h9v-8.5c1.9,3.3,4.4,5.8,7.4,7.4c3,1.6,6.7,2.4,11,2.4
					c0.6,0,1.3,0,2-0.1c0.8-0.1,1.6-0.2,2.5-0.4L1346.7,46.3z"/>
			</g>
			<g>
				<path id="DejaVuSans-97_00000127045768519219718250000014231163843674726841_" d="M1381,27.5c-7.3,0-12.3-0.8-15.1-2.5
					c-2.8-1.7-4.2-4.5-4.2-8.5c0-3.2,1.1-5.7,3.2-7.6s5-2.8,8.6-2.8c5,0,9,1.8,12,5.3s4.5,8.2,4.5,14.1v2H1381z M1398.9,31.2V0h-9
					v8.3c-2.1-3.3-4.6-5.8-7.7-7.3s-6.8-2.4-11.2-2.4c-5.6,0-10,1.6-13.4,4.7c-3.3,3.1-5,7.4-5,12.6c0,6.1,2.1,10.8,6.2,13.9
					s10.3,4.7,18.4,4.7h12.6v0.9c0,4.1-1.4,7.3-4.1,9.6s-6.5,3.4-11.5,3.4c-3.1,0-6.2-0.4-9.1-1.1c-3-0.8-5.8-1.9-8.5-3.4v8.3
					c3.3,1.3,6.5,2.2,9.6,2.8s6.1,1,9,1c7.9,0,13.8-2.1,17.7-6.2C1396.9,45.7,1398.9,39.5,1398.9,31.2z"/>
			</g>
			<g>
				<path id="DejaVuSans-108" d="M1417.4,76h9V0h-9V76z"/>
			</g>
			<g>
				<path id="DejaVuSans-105_00000016074062154839050970000010697151507226360986_" d="M1445.2,54.7h9V0h-9V54.7z M1445.2,76h9V64.6
					h-9V76z"/>
			</g>
			<g>
				<path id="DejaVuSans-116_00000168086677243740420640000003796027835976916920_" d="M1481.8,70.2V54.7h18.5v-7h-18.5V18
					c0-4.5,0.6-7.3,1.8-8.6s3.7-1.9,7.5-1.9h9.2V0h-9.2c-6.9,0-11.7,1.3-14.4,3.9c-2.6,2.6-4,7.3-4,14.1v29.7h-6.6v7h6.6v15.5
					H1481.8z"/>
			</g>
			<g>
				<path id="DejaVuSans-121" d="M1534.9-5.1c-2.5-6.5-5-10.8-7.4-12.7c-2.4-2-5.6-3-9.7-3h-7.2v7.5h5.3c2.5,0,4.4,0.6,5.8,1.8
					s2.9,3.9,4.5,8.3l1.6,4.1l-22.1,53.8h9.5l17.1-42.8l17.1,42.8h9.5L1534.9-5.1z"/>
			</g>
		</g>
	</g>
</g>
</svg>
