<?xml version="1.0" encoding="utf-8"?>
<!-- Generator: Adobe Illustrator 26.0.2, SVG Export Plug-In . SVG Version: 6.00 Build 0)  -->
<svg version="1.1" id="Layer_1" xmlns="http://www.w3.org/2000/svg" xmlns:xlink="http://www.w3.org/1999/xlink" x="0px" y="0px"
	 viewBox="0 0 504 252" style="enable-background:new 0 0 504 252;" xml:space="preserve">
<style type="text/css">
	.st0{fill:none;}
	
		.st1{clip-path:url(#SVGID_00000116219503515898874690000009786127081523914388_);fill:none;stroke:#000000;stroke-linecap:round;stroke-linejoin:round;}
	
		.st2{clip-path:url(#SVGID_00000126284657654626021410000013069566125588927143_);stroke:#000000;stroke-linecap:round;stroke-linejoin:round;}
	
		.st3{clip-path:url(#SVGID_00000070824666786548879930000004625377243175637927_);fill:none;stroke:#000000;stroke-linecap:round;stroke-linejoin:round;}
	
		.st4{clip-path:url(#SVGID_00000099654066993681957520000010543937722894236332_);stroke:#000000;stroke-linecap:round;stroke-linejoin:round;}
	
		.st5{clip-path:url(#SVGID_00000007389912682146837870000015349274742430444971_);fill:none;stroke:#000000;stroke-linecap:round;stroke-linejoin:round;}
	
		.st6{clip-path:url(#SVGID_00000064329551692912665260000006585272583942803368_);stroke:#000000;stroke-linecap:round;stroke-linejoin:round;}
	
		.st7{clip-path:url(#SVGID_00000178195421742542059040000010285991119384809661_);fill:none;stroke:#000000;stroke-linecap:round;stroke-linejoin:round;}
	
		.st8{clip-path:url(#SVGID_00000098939080474991452810000013687821372183839932_);stroke:#000000;stroke-linecap:round;stroke-linejoin:round;}
	
		.st9{clip-path:url(#SVGID_00000044171677638894919160000008576506372157706922_);fill:none;stroke:#000000;stroke-linecap:round;stroke-linejoin:round;}
	
		.st10{clip-path:url(#SVGID_00000127005644641022283060000013587730418890742971_);stroke:#000000;stroke-linecap:round;stroke-linejoin:round;}
	
		.st11{clip-path:url(#SVGID_00000140699293451822576300000012530878824704207535_);fill:none;stroke:#000000;stroke-linecap:round;stroke-linejoin:round;}
	
		.st12{clip-path:url(#SVGID_00000016776016513430286290000011370654414877203094_);stroke:#000000;stroke-linecap:round;stroke-linejoin:round;}
	
		.st13{clip-path:url(#SVGID_00000155126089217620644260000001341637313363609235_);fill:none;stroke:#000000;stroke-linecap:round;stroke-linejoin:round;}
	
		.st14{clip-path:url(#SVGID_00000002348851252060818000000005493529869860468871_);stroke:#000000;stroke-linecap:round;stroke-linejoin:round;}
	
		.st15{clip-path:url(#SVGID_00000016069843115989390030000012212193423356110989_);fill:none;stroke:#000000;stroke-linecap:round;stroke-linejoin:round;}
	
		.st16{clip-path:url(#SVGID_00000032626471530452294530000004652599694241093558_);stroke:#000000;stroke-linecap:round;stroke-linejoin:round;}
	
		.st17{clip-path:url(#SVGID_00000082351195678116616040000007455120556101948800_);fill:none;stroke:#000000;stroke-linecap:round;stroke-linejoin:round;}
	
		.st18{clip-path:url(#SVGID_00000153701399070978794540000012119752517555732392_);stroke:#000000;stroke-linecap:round;stroke-linejoin:round;}
	
		.st19{clip-path:url(#SVGID_00000049944126345132006880000001427074579371644818_);fill:none;stroke:#000000;stroke-linecap:round;stroke-linejoin:round;}
	
		.st20{clip-path:url(#SVGID_00000163050629952137328840000018111271946785328056_);stroke:#000000;stroke-linecap:round;stroke-linejoin:round;}
	
		.st21{clip-path:url(#SVGID_00000036958073532115735410000002291992969619065219_);fill:none;stroke:#000000;stroke-linecap:round;stroke-linejoin:round;}
	
		.st22{clip-path:url(#SVGID_00000183209670124302283460000007595001435988791984_);stroke:#000000;stroke-linecap:round;stroke-linejoin:round;}
	
		.st23{clip-path:url(#SVGID_00000092450071933094464400000012004838579587093920_);fill:none;stroke:#000000;stroke-linecap:round;stroke-linejoin:round;}
	
		.st24{clip-path:url(#SVGID_00000029003810512070990620000004072188492618879116_);stroke:#000000;stroke-linecap:round;stroke-linejoin:round;}
	
		.st25{clip-path:url(#SVGID_00000080203904077833431950000004463616121027321270_);fill:none;stroke:#000000;stroke-linecap:round;stroke-linejoin:round;}
	
		.st26{clip-path:url(#SVGID_00000173876746504000177770000013414108336775066245_);stroke:#000000;stroke-linecap:round;stroke-linejoin:round;}
	
		.st27{clip-path:url(#SVGID_00000101089500029537008820000012359659035032381338_);fill:none;stroke:#000000;stroke-linecap:round;stroke-linejoin:round;}
	
		.st28{clip-path:url(#SVGID_00000057857950160641222040000002767611023290093758_);stroke:#000000;stroke-linecap:round;stroke-linejoin:round;}
	
		.st29{clip-path:url(#SVGID_00000165201353065060431350000003550777121324185730_);fill:none;stroke:#000000;stroke-linecap:round;stroke-linejoin:round;}
	
		.st30{clip-path:url(#SVGID_00000121973225136119010650000003578233529772788120_);stroke:#000000;stroke-linecap:round;stroke-linejoin:round;}
	
		.st31{clip-path:url(#SVGID_00000112619033906879341150000014850428158549100418_);fill:none;stroke:#000000;stroke-linecap:round;stroke-linejoin:round;}
	
		.st32{clip-path:url(#SVGID_00000005947521437522385900000016342892927218820275_);stroke:#000000;stroke-linecap:round;stroke-linejoin:round;}
	
		.st33{clip-path:url(#SVGID_00000048486884353928106500000001418033370617201593_);fill:none;stroke:#000000;stroke-linecap:round;stroke-linejoin:round;}
	
		.st34{clip-path:url(#SVGID_00000083786873355872747070000004439298192287903396_);stroke:#000000;stroke-linecap:round;stroke-linejoin:round;}
	.st35{clip-path:url(#SVGID_00000128459397527366046470000013126502916598763163_);}
	.st36{fill:#FDE725;stroke:#FDE725;stroke-linejoin:round;}
	.st37{clip-path:url(#SVGID_00000134251919542905792560000007025668891516592256_);}
	.st38{fill:#440154;stroke:#440154;stroke-linejoin:round;}
	.st39{clip-path:url(#SVGID_00000016061746044658212040000008723425217451241384_);}
	.st40{fill:#34B679;stroke:#34B679;stroke-linejoin:round;}
	.st41{clip-path:url(#SVGID_00000176041187985424686980000009160725401712758658_);}
	.st42{fill:#2DB27D;stroke:#2DB27D;stroke-linejoin:round;}
	.st43{clip-path:url(#SVGID_00000048478998568735319620000008889180620107774337_);}
	.st44{fill:#EFE51C;stroke:#EFE51C;stroke-linejoin:round;}
	.st45{clip-path:url(#SVGID_00000045596215619814205810000009666129015968410804_);}
	.st46{clip-path:url(#SVGID_00000111179261835472461400000012688440638461022113_);}
	.st47{clip-path:url(#SVGID_00000068665673094674772400000014495503922947304354_);}
	.st48{clip-path:url(#SVGID_00000035501539583640975840000004242940061926712749_);}
	.st49{clip-path:url(#SVGID_00000076602270872797403920000017696584171750336402_);}
	.st50{clip-path:url(#SVGID_00000009561456312276352120000007933134042573859226_);}
</style>
<g id="patch_1">
	<path class="st0" d="M0,252h504V0H0V252z"/>
</g>
<g id="matplotlib.axis_1">
</g>
<g id="axes_1">
	<g id="patch_2">
		<g>
			<g>
				<g>
					<g>
						<defs>
							<rect id="SVGID_1_" x="59.1" y="25.9" width="385.9" height="209.4"/>
						</defs>
						<clipPath id="SVGID_00000067918226553409121390000007344546232947295931_">
							<use xlink:href="#SVGID_1_"  style="overflow:visible;"/>
						</clipPath>
						
							<path style="clip-path:url(#SVGID_00000067918226553409121390000007344546232947295931_);fill:none;stroke:#000000;stroke-linecap:round;stroke-linejoin:round;" d="
							M237.9,69.1c55-7.9,109.7-15.8,164-23.6"/>
					</g>
				</g>
			</g>
		</g>
		<g>
			<g>
				<g>
					<g>
						<defs>
							<rect id="SVGID_00000036239863769941606380000018230691747696169864_" x="59.1" y="25.9" width="385.9" height="209.4"/>
						</defs>
						<clipPath id="SVGID_00000096025031298924109890000010290302784289874587_">
							<use xlink:href="#SVGID_00000036239863769941606380000018230691747696169864_"  style="overflow:visible;"/>
						</clipPath>
						
							<path style="clip-path:url(#SVGID_00000096025031298924109890000010290302784289874587_);stroke:#000000;stroke-linecap:round;stroke-linejoin:round;" d="
							M397.5,44.1l4.2,1.4L398,48L397.5,44.1z"/>
					</g>
				</g>
			</g>
		</g>
	</g>
	<g id="patch_3">
		<g>
			<g>
				<g>
					<g>
						<defs>
							<rect id="SVGID_00000044170612943903673370000006871820505653477816_" x="59.1" y="25.9" width="385.9" height="209.4"/>
						</defs>
						<clipPath id="SVGID_00000049205269862275517190000015463813380436721314_">
							<use xlink:href="#SVGID_00000044170612943903673370000006871820505653477816_"  style="overflow:visible;"/>
						</clipPath>
						
							<path style="clip-path:url(#SVGID_00000049205269862275517190000015463813380436721314_);fill:none;stroke:#000000;stroke-linecap:round;stroke-linejoin:round;" d="
							M403,45.3c-55,7.9-109.7,15.8-164,23.6"/>
					</g>
				</g>
			</g>
		</g>
		<g>
			<g>
				<g>
					<g>
						<defs>
							<rect id="SVGID_00000183971119621667959940000005031457080168258991_" x="59.1" y="25.9" width="385.9" height="209.4"/>
						</defs>
						<clipPath id="SVGID_00000109017696665934846990000005674871239969932704_">
							<use xlink:href="#SVGID_00000183971119621667959940000005031457080168258991_"  style="overflow:visible;"/>
						</clipPath>
						
							<path style="clip-path:url(#SVGID_00000109017696665934846990000005674871239969932704_);stroke:#000000;stroke-linecap:round;stroke-linejoin:round;" d="
							M243.2,70.3l-4.2-1.4l3.7-2.5L243.2,70.3z"/>
					</g>
				</g>
			</g>
		</g>
	</g>
	<g id="patch_4">
		<g>
			<g>
				<g>
					<g>
						<defs>
							<rect id="SVGID_00000122697608324815307940000011079656211093902744_" x="59.1" y="25.9" width="385.9" height="209.4"/>
						</defs>
						<clipPath id="SVGID_00000114770290008594972050000013095932648446937993_">
							<use xlink:href="#SVGID_00000122697608324815307940000011079656211093902744_"  style="overflow:visible;"/>
						</clipPath>
						
							<path style="clip-path:url(#SVGID_00000114770290008594972050000013095932648446937993_);fill:none;stroke:#000000;stroke-linecap:round;stroke-linejoin:round;" d="
							M113.3,127.5c-6.2-25-12.3-49.6-18.3-73.9"/>
					</g>
				</g>
			</g>
		</g>
		<g>
			<g>
				<g>
					<g>
						<defs>
							<rect id="SVGID_00000038384191742273284020000017299503356853852591_" x="59.1" y="25.9" width="385.9" height="209.4"/>
						</defs>
						<clipPath id="SVGID_00000139985514398510722480000017078776895746366598_">
							<use xlink:href="#SVGID_00000038384191742273284020000017299503356853852591_"  style="overflow:visible;"/>
						</clipPath>
						
							<path style="clip-path:url(#SVGID_00000139985514398510722480000017078776895746366598_);stroke:#000000;stroke-linecap:round;stroke-linejoin:round;" d="
							M94,57.9l1-4.4l2.9,3.4L94,57.9z"/>
					</g>
				</g>
			</g>
		</g>
	</g>
	<g id="patch_5">
		<g>
			<g>
				<g>
					<g>
						<defs>
							<rect id="SVGID_00000165933674856035674520000009825138766632223364_" x="59.1" y="25.9" width="385.9" height="209.4"/>
						</defs>
						<clipPath id="SVGID_00000140722332224955606000000009380967903824745347_">
							<use xlink:href="#SVGID_00000165933674856035674520000009825138766632223364_"  style="overflow:visible;"/>
						</clipPath>
						
							<path style="clip-path:url(#SVGID_00000140722332224955606000000009380967903824745347_);fill:none;stroke:#000000;stroke-linecap:round;stroke-linejoin:round;" d="
							M122.9,131.5c33-19,65.6-37.8,97.9-56.4"/>
					</g>
				</g>
			</g>
		</g>
		<g>
			<g>
				<g>
					<g>
						<defs>
							<rect id="SVGID_00000042003651194618392300000012686089358165352858_" x="59.1" y="25.9" width="385.9" height="209.4"/>
						</defs>
						<clipPath id="SVGID_00000113317013901798183930000003154516974591885729_">
							<use xlink:href="#SVGID_00000042003651194618392300000012686089358165352858_"  style="overflow:visible;"/>
						</clipPath>
						
							<path style="clip-path:url(#SVGID_00000113317013901798183930000003154516974591885729_);stroke:#000000;stroke-linecap:round;stroke-linejoin:round;" d="
							M216.3,75.4l4.5-0.3l-2.5,3.7L216.3,75.4z"/>
					</g>
				</g>
			</g>
		</g>
	</g>
	<g id="patch_6">
		<g>
			<g>
				<g>
					<g>
						<defs>
							<rect id="SVGID_00000126285694595519994420000012398062130040869055_" x="59.1" y="25.9" width="385.9" height="209.4"/>
						</defs>
						<clipPath id="SVGID_00000118390892296036956140000001113441082270494357_">
							<use xlink:href="#SVGID_00000126285694595519994420000012398062130040869055_"  style="overflow:visible;"/>
						</clipPath>
						
							<path style="clip-path:url(#SVGID_00000118390892296036956140000001113441082270494357_);fill:none;stroke:#000000;stroke-linecap:round;stroke-linejoin:round;" d="
							M270.5,141.5c-12.3-21.2-24.4-42.1-36.3-62.7"/>
					</g>
				</g>
			</g>
		</g>
		<g>
			<g>
				<g>
					<g>
						<defs>
							<rect id="SVGID_00000021081640736105992720000013577120652321027767_" x="59.1" y="25.9" width="385.9" height="209.4"/>
						</defs>
						<clipPath id="SVGID_00000117661622695329813480000009947251404679435440_">
							<use xlink:href="#SVGID_00000021081640736105992720000013577120652321027767_"  style="overflow:visible;"/>
						</clipPath>
						
							<path style="clip-path:url(#SVGID_00000117661622695329813480000009947251404679435440_);stroke:#000000;stroke-linecap:round;stroke-linejoin:round;" d="
							M234.5,83.2l-0.3-4.5l3.7,2.5L234.5,83.2z"/>
					</g>
				</g>
			</g>
		</g>
	</g>
	<g id="patch_7">
		<g>
			<g>
				<g>
					<g>
						<defs>
							<rect id="SVGID_00000101103954542725179550000002326476390860080805_" x="59.1" y="25.9" width="385.9" height="209.4"/>
						</defs>
						<clipPath id="SVGID_00000104701277724316178300000011103292520982516654_">
							<use xlink:href="#SVGID_00000101103954542725179550000002326476390860080805_"  style="overflow:visible;"/>
						</clipPath>
						
							<path style="clip-path:url(#SVGID_00000104701277724316178300000011103292520982516654_);fill:none;stroke:#000000;stroke-linecap:round;stroke-linejoin:round;" d="
							M266.1,148.3c-47.4-3.9-94.4-7.8-141.1-11.6"/>
					</g>
				</g>
			</g>
		</g>
		<g>
			<g>
				<g>
					<g>
						<defs>
							<rect id="SVGID_00000083786661305322195370000011345776940972799390_" x="59.1" y="25.9" width="385.9" height="209.4"/>
						</defs>
						<clipPath id="SVGID_00000126299036194171602440000015342100048935002809_">
							<use xlink:href="#SVGID_00000083786661305322195370000011345776940972799390_"  style="overflow:visible;"/>
						</clipPath>
						
							<path style="clip-path:url(#SVGID_00000126299036194171602440000015342100048935002809_);stroke:#000000;stroke-linecap:round;stroke-linejoin:round;" d="
							M128.9,139l-3.8-2.3l4.2-1.7L128.9,139z"/>
					</g>
				</g>
			</g>
		</g>
	</g>
	<g id="patch_8">
		<g>
			<g>
				<g>
					<g>
						<defs>
							<rect id="SVGID_00000178889243763012172420000015350896200358224810_" x="59.1" y="25.9" width="385.9" height="209.4"/>
						</defs>
						<clipPath id="SVGID_00000034067207023896436080000011424791143473249181_">
							<use xlink:href="#SVGID_00000178889243763012172420000015350896200358224810_"  style="overflow:visible;"/>
						</clipPath>
						
							<path style="clip-path:url(#SVGID_00000034067207023896436080000011424791143473249181_);fill:none;stroke:#000000;stroke-linecap:round;stroke-linejoin:round;" d="
							M283.5,149c39.8,0,79.2,0,118.2,0"/>
					</g>
				</g>
			</g>
		</g>
		<g>
			<g>
				<g>
					<g>
						<defs>
							<rect id="SVGID_00000094594233200649290900000003864050412846738088_" x="59.1" y="25.9" width="385.9" height="209.4"/>
						</defs>
						<clipPath id="SVGID_00000087391489892789857260000008765533993814419347_">
							<use xlink:href="#SVGID_00000094594233200649290900000003864050412846738088_"  style="overflow:visible;"/>
						</clipPath>
						
							<path style="clip-path:url(#SVGID_00000087391489892789857260000008765533993814419347_);stroke:#000000;stroke-linecap:round;stroke-linejoin:round;" d="
							M397.8,147l4,2l-4,2V147z"/>
					</g>
				</g>
			</g>
		</g>
	</g>
	<g id="patch_9">
		<g>
			<g>
				<g>
					<g>
						<defs>
							<rect id="SVGID_00000108275717584819413590000008827374222700561559_" x="59.1" y="25.9" width="385.9" height="209.4"/>
						</defs>
						<clipPath id="SVGID_00000005239210705257516570000004503315717463177132_">
							<use xlink:href="#SVGID_00000108275717584819413590000008827374222700561559_"  style="overflow:visible;"/>
						</clipPath>
						
							<path style="clip-path:url(#SVGID_00000005239210705257516570000004503315717463177132_);fill:none;stroke:#000000;stroke-linecap:round;stroke-linejoin:round;" d="
							M403.5,145.5C348,121.6,293,97.8,238.3,74.2"/>
					</g>
				</g>
			</g>
		</g>
		<g>
			<g>
				<g>
					<g>
						<defs>
							<rect id="SVGID_00000057133125489626500860000006127180834766277006_" x="59.1" y="25.9" width="385.9" height="209.4"/>
						</defs>
						<clipPath id="SVGID_00000175300638235404205030000007455540466619501187_">
							<use xlink:href="#SVGID_00000057133125489626500860000006127180834766277006_"  style="overflow:visible;"/>
						</clipPath>
						
							<path style="clip-path:url(#SVGID_00000175300638235404205030000007455540466619501187_);stroke:#000000;stroke-linecap:round;stroke-linejoin:round;" d="
							M241.1,77.6l-2.9-3.4l4.5-0.3L241.1,77.6z"/>
					</g>
				</g>
			</g>
		</g>
	</g>
	<g id="patch_10">
		<g>
			<g>
				<g>
					<g>
						<defs>
							<rect id="SVGID_00000016758054176582445130000012160884945145492885_" x="59.1" y="25.9" width="385.9" height="209.4"/>
						</defs>
						<clipPath id="SVGID_00000169527095940763287000000016664011653649338535_">
							<use xlink:href="#SVGID_00000016758054176582445130000012160884945145492885_"  style="overflow:visible;"/>
						</clipPath>
						
							<path style="clip-path:url(#SVGID_00000169527095940763287000000016664011653649338535_);fill:none;stroke:#000000;stroke-linecap:round;stroke-linejoin:round;" d="
							M402.9,149c-39.8,0-79.2,0-118.2,0"/>
					</g>
				</g>
			</g>
		</g>
		<g>
			<g>
				<g>
					<g>
						<defs>
							<rect id="SVGID_00000154417557259093050840000010033673664725514935_" x="59.1" y="25.9" width="385.9" height="209.4"/>
						</defs>
						<clipPath id="SVGID_00000097458702742293801310000001559040223398672021_">
							<use xlink:href="#SVGID_00000154417557259093050840000010033673664725514935_"  style="overflow:visible;"/>
						</clipPath>
						
							<path style="clip-path:url(#SVGID_00000097458702742293801310000001559040223398672021_);stroke:#000000;stroke-linecap:round;stroke-linejoin:round;" d="
							M288.6,151l-4-2l4-2V151z"/>
					</g>
				</g>
			</g>
		</g>
	</g>
	<g id="patch_11">
		<g>
			<g>
				<g>
					<g>
						<defs>
							<rect id="SVGID_00000116207299639609208180000010419076235138625436_" x="59.1" y="25.9" width="385.9" height="209.4"/>
						</defs>
						<clipPath id="SVGID_00000131334504585423108490000015222141503191669905_">
							<use xlink:href="#SVGID_00000116207299639609208180000010419076235138625436_"  style="overflow:visible;"/>
						</clipPath>
						
							<path style="clip-path:url(#SVGID_00000131334504585423108490000015222141503191669905_);fill:none;stroke:#000000;stroke-linecap:round;stroke-linejoin:round;" d="
							M151.9,194.1c24.3-38.8,48.4-77.3,72.2-115.5"/>
					</g>
				</g>
			</g>
		</g>
		<g>
			<g>
				<g>
					<g>
						<defs>
							<rect id="SVGID_00000012444524653087226270000010978353153645776014_" x="59.1" y="25.9" width="385.9" height="209.4"/>
						</defs>
						<clipPath id="SVGID_00000094596415491031619350000016753534658730349446_">
							<use xlink:href="#SVGID_00000012444524653087226270000010978353153645776014_"  style="overflow:visible;"/>
						</clipPath>
						
							<path style="clip-path:url(#SVGID_00000094596415491031619350000016753534658730349446_);stroke:#000000;stroke-linecap:round;stroke-linejoin:round;" d="
							M220.3,80.9l3.8-2.3l-0.4,4.5L220.3,80.9z"/>
					</g>
				</g>
			</g>
		</g>
	</g>
	<g id="patch_12">
		<g>
			<g>
				<g>
					<g>
						<defs>
							<rect id="SVGID_00000165921951748145450330000011536491811851675017_" x="59.1" y="25.9" width="385.9" height="209.4"/>
						</defs>
						<clipPath id="SVGID_00000171720235381624653670000001536613572380718253_">
							<use xlink:href="#SVGID_00000165921951748145450330000011536491811851675017_"  style="overflow:visible;"/>
						</clipPath>
						
							<path style="clip-path:url(#SVGID_00000171720235381624653670000001536613572380718253_);fill:none;stroke:#000000;stroke-linecap:round;stroke-linejoin:round;" d="
							M155.3,198.1c37.2-15.3,74-30.4,110.5-45.4"/>
					</g>
				</g>
			</g>
		</g>
		<g>
			<g>
				<g>
					<g>
						<defs>
							<rect id="SVGID_00000054979917401286939680000011910693875679332250_" x="59.1" y="25.9" width="385.9" height="209.4"/>
						</defs>
						<clipPath id="SVGID_00000142875349905554338040000012146756557705260698_">
							<use xlink:href="#SVGID_00000054979917401286939680000011910693875679332250_"  style="overflow:visible;"/>
						</clipPath>
						
							<path style="clip-path:url(#SVGID_00000142875349905554338040000012146756557705260698_);stroke:#000000;stroke-linecap:round;stroke-linejoin:round;" d="
							M261.2,152.4l4.5,0.3l-2.9,3.4L261.2,152.4z"/>
					</g>
				</g>
			</g>
		</g>
	</g>
	<g id="patch_13">
		<g>
			<g>
				<g>
					<g>
						<defs>
							<rect id="SVGID_00000024712023698818493910000011164090985823874994_" x="59.1" y="25.9" width="385.9" height="209.4"/>
						</defs>
						<clipPath id="SVGID_00000093147827186661677330000006137698382947096245_">
							<use xlink:href="#SVGID_00000024712023698818493910000011164090985823874994_"  style="overflow:visible;"/>
						</clipPath>
						
							<path style="clip-path:url(#SVGID_00000093147827186661677330000006137698382947096245_);fill:none;stroke:#000000;stroke-linecap:round;stroke-linejoin:round;" d="
							M186.4,201.1c13.4-40.8,26.7-81.3,39.8-121.4"/>
					</g>
				</g>
			</g>
		</g>
		<g>
			<g>
				<g>
					<g>
						<defs>
							<rect id="SVGID_00000163056509099224304560000008064288385062601874_" x="59.1" y="25.9" width="385.9" height="209.4"/>
						</defs>
						<clipPath id="SVGID_00000154390423322777446700000008400168045879636352_">
							<use xlink:href="#SVGID_00000163056509099224304560000008064288385062601874_"  style="overflow:visible;"/>
						</clipPath>
						
							<path style="clip-path:url(#SVGID_00000154390423322777446700000008400168045879636352_);stroke:#000000;stroke-linecap:round;stroke-linejoin:round;" d="
							M223.1,82.8l3.1-3.2l0.7,4.4L223.1,82.8z"/>
					</g>
				</g>
			</g>
		</g>
	</g>
	<g id="patch_14">
		<g>
			<g>
				<g>
					<g>
						<defs>
							<rect id="SVGID_00000090998259855054589220000000688141454391858566_" x="59.1" y="25.9" width="385.9" height="209.4"/>
						</defs>
						<clipPath id="SVGID_00000075880466682248472380000017299224879464905135_">
							<use xlink:href="#SVGID_00000090998259855054589220000000688141454391858566_"  style="overflow:visible;"/>
						</clipPath>
						
							<path style="clip-path:url(#SVGID_00000075880466682248472380000017299224879464905135_);fill:none;stroke:#000000;stroke-linecap:round;stroke-linejoin:round;" d="
							M190.9,204.5c25.6-16.9,50.8-33.6,75.7-50.1"/>
					</g>
				</g>
			</g>
		</g>
		<g>
			<g>
				<g>
					<g>
						<defs>
							<rect id="SVGID_00000052782917165313426750000010680534956887985035_" x="59.1" y="25.9" width="385.9" height="209.4"/>
						</defs>
						<clipPath id="SVGID_00000170987543201301402680000008076292441095577765_">
							<use xlink:href="#SVGID_00000052782917165313426750000010680534956887985035_"  style="overflow:visible;"/>
						</clipPath>
						
							<path style="clip-path:url(#SVGID_00000170987543201301402680000008076292441095577765_);stroke:#000000;stroke-linecap:round;stroke-linejoin:round;" d="
							M262.1,154.9l4.4-0.5l-2.2,3.9L262.1,154.9z"/>
					</g>
				</g>
			</g>
		</g>
	</g>
	<g id="patch_15">
		<g>
			<g>
				<g>
					<g>
						<defs>
							<rect id="SVGID_00000011005812717063711290000007108274866483496894_" x="59.1" y="25.9" width="385.9" height="209.4"/>
						</defs>
						<clipPath id="SVGID_00000047044886315108346580000008339530580957928850_">
							<use xlink:href="#SVGID_00000011005812717063711290000007108274866483496894_"  style="overflow:visible;"/>
						</clipPath>
						
							<path style="clip-path:url(#SVGID_00000047044886315108346580000008339530580957928850_);fill:none;stroke:#000000;stroke-linecap:round;stroke-linejoin:round;" d="
							M220.7,208.5c2.7-43.2,5.3-86,8-128.4"/>
					</g>
				</g>
			</g>
		</g>
		<g>
			<g>
				<g>
					<g>
						<defs>
							<rect id="SVGID_00000128455154733033949130000002578734777597717902_" x="59.1" y="25.9" width="385.9" height="209.4"/>
						</defs>
						<clipPath id="SVGID_00000026862905600781465660000007537475190885190294_">
							<use xlink:href="#SVGID_00000128455154733033949130000002578734777597717902_"  style="overflow:visible;"/>
						</clipPath>
						
							<path style="clip-path:url(#SVGID_00000026862905600781465660000007537475190885190294_);stroke:#000000;stroke-linecap:round;stroke-linejoin:round;" d="
							M226.4,83.9l2.2-3.9l1.7,4.1L226.4,83.9z"/>
					</g>
				</g>
			</g>
		</g>
	</g>
	<g id="patch_16">
		<g>
			<g>
				<g>
					<g>
						<defs>
							<rect id="SVGID_00000129175288872304816250000002815319312080073898_" x="59.1" y="25.9" width="385.9" height="209.4"/>
						</defs>
						<clipPath id="SVGID_00000015334593427855656120000008934504740500432298_">
							<use xlink:href="#SVGID_00000129175288872304816250000002815319312080073898_"  style="overflow:visible;"/>
						</clipPath>
						
							<path style="clip-path:url(#SVGID_00000015334593427855656120000008934504740500432298_);fill:none;stroke:#000000;stroke-linecap:round;stroke-linejoin:round;" d="
							M225.6,210.4c14.6-18.2,29-36.1,43.1-53.8"/>
					</g>
				</g>
			</g>
		</g>
		<g>
			<g>
				<g>
					<g>
						<defs>
							<rect id="SVGID_00000147192891392536761640000010421762672687317937_" x="59.1" y="25.9" width="385.9" height="209.4"/>
						</defs>
						<clipPath id="SVGID_00000100341153025901682130000016494324117954485634_">
							<use xlink:href="#SVGID_00000147192891392536761640000010421762672687317937_"  style="overflow:visible;"/>
						</clipPath>
						
							<path style="clip-path:url(#SVGID_00000100341153025901682130000016494324117954485634_);stroke:#000000;stroke-linecap:round;stroke-linejoin:round;" d="
							M264.6,158.5l4.1-1.9l-0.9,4.4L264.6,158.5z"/>
					</g>
				</g>
			</g>
		</g>
	</g>
	<g id="patch_17">
		<g>
			<g>
				<g>
					<g>
						<defs>
							<rect id="SVGID_00000082357279672999607550000009679265534187201464_" x="59.1" y="25.9" width="385.9" height="209.4"/>
						</defs>
						<clipPath id="SVGID_00000084523952664888652840000006037882406642282642_">
							<use xlink:href="#SVGID_00000082357279672999607550000009679265534187201464_"  style="overflow:visible;"/>
						</clipPath>
						
							<path style="clip-path:url(#SVGID_00000084523952664888652840000006037882406642282642_);fill:none;stroke:#000000;stroke-linecap:round;stroke-linejoin:round;" d="
							M358.5,197.1c-25.4-14.6-50.4-29-75.1-43.2"/>
					</g>
				</g>
			</g>
		</g>
		<g>
			<g>
				<g>
					<g>
						<defs>
							<rect id="SVGID_00000003065434455168709990000006318441977218346394_" x="59.1" y="25.9" width="385.9" height="209.4"/>
						</defs>
						<clipPath id="SVGID_00000158028772899088470200000004275732301930224271_">
							<use xlink:href="#SVGID_00000003065434455168709990000006318441977218346394_"  style="overflow:visible;"/>
						</clipPath>
						
							<path style="clip-path:url(#SVGID_00000158028772899088470200000004275732301930224271_);stroke:#000000;stroke-linecap:round;stroke-linejoin:round;" d="
							M285.8,157.6l-2.5-3.7l4.5,0.3L285.8,157.6z"/>
					</g>
				</g>
			</g>
		</g>
	</g>
	<g id="patch_18">
		<g>
			<g>
				<g>
					<g>
						<defs>
							<rect id="SVGID_00000067933404371638445630000010558057302860453030_" x="59.1" y="25.9" width="385.9" height="209.4"/>
						</defs>
						<clipPath id="SVGID_00000023972148122215554350000002314424274973593217_">
							<use xlink:href="#SVGID_00000067933404371638445630000010558057302860453030_"  style="overflow:visible;"/>
						</clipPath>
						
							<path style="clip-path:url(#SVGID_00000023972148122215554350000002314424274973593217_);fill:none;stroke:#000000;stroke-linecap:round;stroke-linejoin:round;" d="
							M380.5,185.5c-32.5-11.2-64.7-22.3-96.5-33.3"/>
					</g>
				</g>
			</g>
		</g>
		<g>
			<g>
				<g>
					<g>
						<defs>
							<rect id="SVGID_00000100377694863956207300000001741219979890171778_" x="59.1" y="25.9" width="385.9" height="209.4"/>
						</defs>
						<clipPath id="SVGID_00000160901012678044692580000007074622173130659753_">
							<use xlink:href="#SVGID_00000100377694863956207300000001741219979890171778_"  style="overflow:visible;"/>
						</clipPath>
						
							<path style="clip-path:url(#SVGID_00000160901012678044692580000007074622173130659753_);stroke:#000000;stroke-linecap:round;stroke-linejoin:round;" d="
							M287.1,155.4l-3.1-3.2l4.4-0.6L287.1,155.4z"/>
					</g>
				</g>
			</g>
		</g>
	</g>
	<g id="PathCollection_1">
		<g>
			<g>
				<g>
					<g>
						<defs>
							<rect id="SVGID_00000178893439358075175500000009238590856884358046_" x="59.1" y="25.9" width="385.9" height="209.4"/>
						</defs>
						<clipPath id="SVGID_00000003099760846574877730000007326565505505987457_">
							<use xlink:href="#SVGID_00000178893439358075175500000009238590856884358046_"  style="overflow:visible;"/>
						</clipPath>
						<g style="clip-path:url(#SVGID_00000003099760846574877730000007326565505505987457_);">
							<g>
								<path id="C0_0_661754849a" class="st36" d="M229.3,78.2c2.1,0,4.1-0.8,5.6-2.3s2.3-3.5,2.3-5.6s-0.8-4.1-2.3-5.6
									s-3.5-2.3-5.6-2.3s-4.1,0.8-5.6,2.3s-2.3,3.5-2.3,5.6s0.8,4.1,2.3,5.6S227.2,78.2,229.3,78.2z"/>
							</g>
						</g>
					</g>
				</g>
			</g>
		</g>
		<g>
			<g>
				<g>
					<g>
						<defs>
							<rect id="SVGID_00000031180417152080516930000002012312450917586079_" x="59.1" y="25.9" width="385.9" height="209.4"/>
						</defs>
						<clipPath id="SVGID_00000110444901978186205940000009854181888141640074_">
							<use xlink:href="#SVGID_00000031180417152080516930000002012312450917586079_"  style="overflow:visible;"/>
						</clipPath>
						<g style="clip-path:url(#SVGID_00000110444901978186205940000009854181888141640074_);">
							<g>
								<path id="C0_0_661754849a_00000145060195338769514540000017253884716765506484_" class="st38" d="M411.5,52
									c2.1,0,4.1-0.8,5.6-2.3s2.3-3.5,2.3-5.6s-0.8-4.1-2.3-5.6s-3.5-2.3-5.6-2.3s-4.1,0.8-5.6,2.3s-2.3,3.5-2.3,5.6
									s0.8,4.1,2.3,5.6S409.4,52,411.5,52z"/>
							</g>
						</g>
					</g>
				</g>
			</g>
		</g>
		<g>
			<g>
				<g>
					<g>
						<defs>
							<rect id="SVGID_00000013164126952056280220000011429727620725958575_" x="59.1" y="25.9" width="385.9" height="209.4"/>
						</defs>
						<clipPath id="SVGID_00000170257012070506665470000012519519257500564361_">
							<use xlink:href="#SVGID_00000013164126952056280220000011429727620725958575_"  style="overflow:visible;"/>
						</clipPath>
						<g style="clip-path:url(#SVGID_00000170257012070506665470000012519519257500564361_);">
							<g>
								<path id="C0_0_661754849a_00000067235896094069426400000004500584391471459205_" class="st40" d="M115.4,143.8
									c2.1,0,4.1-0.8,5.6-2.3s2.3-3.5,2.3-5.6s-0.8-4.1-2.3-5.6s-3.5-2.3-5.6-2.3s-4.1,0.8-5.6,2.3s-2.3,3.5-2.3,5.6
									s0.8,4.1,2.3,5.6C111.3,142.9,113.3,143.8,115.4,143.8z"/>
							</g>
						</g>
					</g>
				</g>
			</g>
		</g>
		<g>
			<g>
				<g>
					<g>
						<defs>
							<rect id="SVGID_00000110449507030911372290000016982701854331881647_" x="59.1" y="25.9" width="385.9" height="209.4"/>
						</defs>
						<clipPath id="SVGID_00000147193642633020988160000006096603895468847258_">
							<use xlink:href="#SVGID_00000110449507030911372290000016982701854331881647_"  style="overflow:visible;"/>
						</clipPath>
						<g style="clip-path:url(#SVGID_00000147193642633020988160000006096603895468847258_);">
							<g>
								<path id="C0_0_661754849a_00000127739649972606278400000001509850574508925355_" class="st42" d="M92.6,52
									c2.1,0,4.1-0.8,5.6-2.3s2.3-3.5,2.3-5.6s-0.8-4.1-2.3-5.6s-3.5-2.3-5.6-2.3S88.5,37,87,38.5s-2.3,3.5-2.3,5.6
									s0.8,4.1,2.3,5.6S90.5,52,92.6,52z"/>
							</g>
						</g>
					</g>
				</g>
			</g>
		</g>
		<g>
			<g>
				<g>
					<g>
						<defs>
							<rect id="SVGID_00000117671972204680167730000001013009943846262930_" x="59.1" y="25.9" width="385.9" height="209.4"/>
						</defs>
						<clipPath id="SVGID_00000091012448876993174940000009596019900310163109_">
							<use xlink:href="#SVGID_00000117671972204680167730000001013009943846262930_"  style="overflow:visible;"/>
						</clipPath>
						<g style="clip-path:url(#SVGID_00000091012448876993174940000009596019900310163109_);">
							<g>
								<path id="C0_0_661754849a_00000000928699138606162270000002552249760710262200_" class="st44" d="M274.8,156.9
									c2.1,0,4.1-0.8,5.6-2.3s2.3-3.5,2.3-5.6s-0.8-4.1-2.3-5.6s-3.5-2.3-5.6-2.3s-4.1,0.8-5.6,2.3s-2.3,3.5-2.3,5.6
									s0.8,4.1,2.3,5.6S272.6,156.9,274.8,156.9z"/>
							</g>
						</g>
					</g>
				</g>
			</g>
		</g>
		<g>
			<g>
				<g>
					<g>
						<defs>
							<rect id="SVGID_00000038402590396067256060000002691744466986054035_" x="59.1" y="25.9" width="385.9" height="209.4"/>
						</defs>
						<clipPath id="SVGID_00000139278927415575545630000006022442852841655485_">
							<use xlink:href="#SVGID_00000038402590396067256060000002691744466986054035_"  style="overflow:visible;"/>
						</clipPath>
						<g style="clip-path:url(#SVGID_00000139278927415575545630000006022442852841655485_);">
							<g>
								<path id="C0_0_661754849a_00000036242334078227937570000016579579285704828094_" class="st40" d="M411.5,156.9
									c2.1,0,4.1-0.8,5.6-2.3s2.3-3.5,2.3-5.6s-0.8-4.1-2.3-5.6s-3.5-2.3-5.6-2.3s-4.1,0.8-5.6,2.3s-2.3,3.5-2.3,5.6
									s0.8,4.1,2.3,5.6C407.4,156,409.4,156.9,411.5,156.9z"/>
							</g>
						</g>
					</g>
				</g>
			</g>
		</g>
		<g>
			<g>
				<g>
					<g>
						<defs>
							<rect id="SVGID_00000137095273426274713870000006851685306109246875_" x="59.1" y="25.9" width="385.9" height="209.4"/>
						</defs>
						<clipPath id="SVGID_00000080165948510318990300000002483949167461606554_">
							<use xlink:href="#SVGID_00000137095273426274713870000006851685306109246875_"  style="overflow:visible;"/>
						</clipPath>
						<g style="clip-path:url(#SVGID_00000080165948510318990300000002483949167461606554_);">
							<g>
								<path id="C0_0_661754849a_00000127753450724904998880000008526831475384325520_" class="st38" d="M147.3,209.3
									c2.1,0,4.1-0.8,5.6-2.3s2.3-3.5,2.3-5.6s-0.8-4.1-2.3-5.6s-3.5-2.3-5.6-2.3c-2.1,0-4.1,0.8-5.6,2.3s-2.3,3.5-2.3,5.6
									s0.8,4.1,2.3,5.6S145.2,209.3,147.3,209.3z"/>
							</g>
						</g>
					</g>
				</g>
			</g>
		</g>
		<g>
			<g>
				<g>
					<g>
						<defs>
							<rect id="SVGID_00000133514645265958595410000012817375863896929428_" x="59.1" y="25.9" width="385.9" height="209.4"/>
						</defs>
						<clipPath id="SVGID_00000015344747543149347360000009962999969535321268_">
							<use xlink:href="#SVGID_00000133514645265958595410000012817375863896929428_"  style="overflow:visible;"/>
						</clipPath>
						<g style="clip-path:url(#SVGID_00000015344747543149347360000009962999969535321268_);">
							<g>
								<path id="C0_0_661754849a_00000031166156416002485860000006717413728869398717_" class="st38" d="M183.7,217.2
									c2.1,0,4.1-0.8,5.6-2.3s2.3-3.5,2.3-5.6s-0.8-4.1-2.3-5.6s-3.5-2.3-5.6-2.3s-4.1,0.8-5.6,2.3s-2.3,3.5-2.3,5.6
									s0.8,4.1,2.3,5.6S181.6,217.2,183.7,217.2z"/>
							</g>
						</g>
					</g>
				</g>
			</g>
		</g>
		<g>
			<g>
				<g>
					<g>
						<defs>
							<rect id="SVGID_00000052805258647829134650000010790961341343885224_" x="59.1" y="25.9" width="385.9" height="209.4"/>
						</defs>
						<clipPath id="SVGID_00000028323181253326938740000009233872310931755680_">
							<use xlink:href="#SVGID_00000052805258647829134650000010790961341343885224_"  style="overflow:visible;"/>
						</clipPath>
						<g style="clip-path:url(#SVGID_00000028323181253326938740000009233872310931755680_);">
							<g>
								<path id="C0_0_661754849a_00000065768218004534522430000017596464124630385841_" class="st38" d="M220.2,225.1
									c2.1,0,4.1-0.8,5.6-2.3s2.3-3.5,2.3-5.6s-0.8-4.1-2.3-5.6s-3.5-2.3-5.6-2.3s-4.1,0.8-5.6,2.3s-2.3,3.5-2.3,5.6
									s0.8,4.1,2.3,5.6S218.1,225.1,220.2,225.1z"/>
							</g>
						</g>
					</g>
				</g>
			</g>
		</g>
		<g>
			<g>
				<g>
					<g>
						<defs>
							<rect id="SVGID_00000084527340089624413410000002423053372006123189_" x="59.1" y="25.9" width="385.9" height="209.4"/>
						</defs>
						<clipPath id="SVGID_00000045590636185207384850000016302424088303962250_">
							<use xlink:href="#SVGID_00000084527340089624413410000002423053372006123189_"  style="overflow:visible;"/>
						</clipPath>
						<g style="clip-path:url(#SVGID_00000045590636185207384850000016302424088303962250_);">
							<g>
								<path id="C0_0_661754849a_00000059268443001436378260000008847522209202218126_" class="st38" d="M366,209.3
									c2.1,0,4.1-0.8,5.6-2.3s2.3-3.5,2.3-5.6s-0.8-4.1-2.3-5.6s-3.5-2.3-5.6-2.3s-4.1,0.8-5.6,2.3s-2.3,3.5-2.3,5.6
									s0.8,4.1,2.3,5.6S363.9,209.3,366,209.3z"/>
							</g>
						</g>
					</g>
				</g>
			</g>
		</g>
		<g>
			<g>
				<g>
					<g>
						<defs>
							<rect id="SVGID_00000124125373565068829440000005870020774669642174_" x="59.1" y="25.9" width="385.9" height="209.4"/>
						</defs>
						<clipPath id="SVGID_00000179645280743922453710000018217941217013764277_">
							<use xlink:href="#SVGID_00000124125373565068829440000005870020774669642174_"  style="overflow:visible;"/>
						</clipPath>
						<g style="clip-path:url(#SVGID_00000179645280743922453710000018217941217013764277_);">
							<g>
								<path id="C0_0_661754849a_00000025418501481133227100000017008258729514952125_" class="st38" d="M388.6,196.2
									c2.1,0,4.1-0.8,5.6-2.3s2.3-3.5,2.3-5.6s-0.8-4.1-2.3-5.6s-3.5-2.3-5.6-2.3s-4.1,0.8-5.6,2.3s-2.3,3.5-2.3,5.6
									s0.8,4.1,2.3,5.6S386.6,196.2,388.6,196.2z"/>
							</g>
						</g>
					</g>
				</g>
			</g>
		</g>
	</g>
	<g id="text_1">
		<g transform="translate(128.796563 19.918125)scale(0.12 -0.12)">
			<g>
				<path id="DejaVuSans-68" d="M421.8,64.8V8.1h11.9c10.1,0,17.4,2.3,22.1,6.8c4.7,4.6,7,11.8,7,21.6s-2.3,16.9-7,21.5
					c-4.7,4.6-12,6.8-22.1,6.8H421.8z M411.9,72.9h20.3c14.1,0,24.5-2.9,31.1-8.8c6.6-5.9,9.9-15.1,9.9-27.6
					c0-12.6-3.3-21.8-10-27.7c-6.6-5.9-17-8.8-31-8.8h-20.3V72.9z"/>
			</g>
			<g>
				<path id="DejaVuSans-105" d="M488.5,54.7h9V0h-9V54.7z M488.5,76h9V64.6h-9V76z"/>
			</g>
			<g>
				<path id="DejaVuSans-71" d="M566.4,10.4V30h-16.1v8.1h25.9V6.8c-3.8-2.7-8-4.7-12.6-6.1c-4.6-1.4-9.5-2.1-14.7-2.1
					c-11.4,0-20.3,3.3-26.8,10c-6.4,6.7-9.6,15.9-9.6,27.8s3.2,21.2,9.6,27.9c6.4,6.7,15.4,10,26.8,10c4.8,0,9.3-0.6,13.5-1.8
					c4.3-1.2,8.2-2.9,11.8-5.2V56.8c-3.6,3.1-7.5,5.4-11.6,7c-4.1,1.6-8.4,2.3-12.9,2.3c-8.9,0-15.6-2.5-20.1-7.5
					s-6.7-12.4-6.7-22.3c0-9.8,2.2-17.2,6.7-22.2s11.2-7.5,20.1-7.5c3.5,0,6.6,0.3,9.3,0.9C561.8,8.2,564.2,9.1,566.4,10.4z"/>
			</g>
			<g>
				<path id="DejaVuSans-114" d="M625.5,46.3c-1,0.6-2.1,1-3.3,1.3c-1.2,0.3-2.5,0.4-3.9,0.4c-5.1,0-9-1.7-11.7-5
					c-2.7-3.3-4.1-8-4.1-14.2V0h-9v54.7h9v-8.5c1.9,3.3,4.4,5.8,7.4,7.4c3,1.6,6.7,2.4,11,2.4c0.6,0,1.3,0,2-0.1
					c0.8-0.1,1.6-0.2,2.5-0.4L625.5,46.3z"/>
			</g>
			<g>
				<path id="DejaVuSans-97" d="M659.8,27.5c-7.3,0-12.3-0.8-15.1-2.5s-4.2-4.5-4.2-8.5c0-3.2,1.1-5.7,3.2-7.6s5-2.8,8.6-2.8
					c5,0,9,1.8,12,5.3s4.5,8.2,4.5,14.1v2H659.8z M677.7,31.2V0h-9v8.3c-2-3.3-4.6-5.8-7.7-7.3c-3.1-1.5-6.8-2.4-11.2-2.4
					c-5.6,0-10,1.6-13.4,4.7c-3.3,3.1-5,7.4-5,12.6c0,6.1,2.1,10.8,6.2,13.9c4.1,3.1,10.3,4.7,18.4,4.7h12.6v0.9
					c0,4.1-1.4,7.3-4.1,9.6s-6.5,3.4-11.5,3.4c-3.1,0-6.2-0.4-9.1-1.1c-3-0.8-5.8-1.9-8.5-3.4v8.3c3.3,1.3,6.5,2.2,9.6,2.8
					c3.1,0.6,6.1,1,9,1c7.9,0,13.8-2.1,17.7-6.2C675.7,45.7,677.7,39.5,677.7,31.2z"/>
			</g>
			<g>
				<path id="DejaVuSans-112" d="M704.9,8.2v-29h-9v75.5h9v-8.3c1.9,3.2,4.3,5.7,7.2,7.2c2.9,1.6,6.3,2.4,10.3,2.4
					c6.6,0,12-2.6,16.2-7.9s6.2-12.2,6.2-20.8s-2.1-15.5-6.2-20.8c-4.1-5.3-9.5-7.9-16.2-7.9c-4,0-7.4,0.8-10.3,2.4
					C709.2,2.5,706.8,5,704.9,8.2z M735.5,27.3c0,6.6-1.4,11.8-4.1,15.5s-6.5,5.6-11.2,5.6c-4.8,0-8.5-1.9-11.2-5.6
					s-4.1-8.9-4.1-15.5s1.4-11.8,4.1-15.5s6.5-5.6,11.2-5.6c4.8,0,8.5,1.9,11.2,5.6S735.5,20.7,735.5,27.3z"/>
			</g>
			<g>
				<path id="DejaVuSans-104" d="M805.1,33V0h-9v32.7c0,5.2-1,9-3,11.6c-2,2.6-5,3.9-9.1,3.9c-4.9,0-8.7-1.5-11.5-4.6
					s-4.2-7.3-4.2-12.6V0h-9v76h9V46.2c2.2,3.3,4.7,5.8,7.6,7.4c2.9,1.6,6.3,2.4,10.1,2.4c6.3,0,11-1.9,14.2-5.8
					C803.5,46.3,805.1,40.6,805.1,33z"/>
			</g>
			<g>
				<path id="DejaVuSans-32" d="M813.6,0"/>
			</g>
			<g>
				<path id="DejaVuSans-72" d="M855.2,72.9h9.9V43h35.8v29.9h9.9V0h-9.9v34.7h-35.8V0h-9.9V72.9z"/>
			</g>
			<g>
				<path id="DejaVuSans-73" d="M930.4,72.9h9.9V0h-9.9V72.9z"/>
			</g>
			<g>
				<path id="DejaVuSans-84" d="M949.8,72.9h61.7v-8.3h-25.9V0h-9.9v64.6h-25.9C949.8,64.6,949.8,72.9,949.8,72.9z"/>
			</g>
			<g>
				<path id="DejaVuSans-83" d="M1064.7,70.5v-9.6c-3.7,1.8-7.3,3.1-10.6,4c-3.3,0.9-6.5,1.3-9.6,1.3c-5.4,0-9.5-1-12.4-3.1
					c-2.9-2.1-4.4-5-4.4-8.9c0-3.2,1-5.7,2.9-7.3s5.6-3,11-4l6-1.2c7.4-1.4,12.8-3.9,16.3-7.4s5.2-8.3,5.2-14.2
					c0-7.1-2.4-12.4-7.1-16.1c-4.7-3.6-11.7-5.5-20.8-5.5c-3.4,0-7.1,0.4-11,1.2s-7.9,1.9-12.1,3.5v10.2c4-2.2,7.9-3.9,11.8-5.1
					c3.8-1.1,7.6-1.7,11.3-1.7c5.6,0,10,1.1,13,3.3c3.1,2.2,4.6,5.4,4.6,9.5c0,3.6-1.1,6.4-3.3,8.4c-2.2,2-5.8,3.5-10.8,4.5l-6,1.2
					c-7.4,1.5-12.7,3.8-16,6.9c-3.3,3.1-4.9,7.5-4.9,13c0,6.4,2.3,11.5,6.8,15.2s10.8,5.6,18.8,5.6c3.4,0,6.9-0.3,10.5-0.9
					C1057.4,72.7,1061,71.7,1064.7,70.5z"/>
			</g>
			<g>
				<path id="DejaVuSans-32_00000160187143912618366610000006853983915559040897_" d="M1074.7,0"/>
			</g>
			<g>
				<path id="DejaVuSans-65" d="M1140.6,63.2l-13.4-36.3h26.9L1140.6,63.2z M1135.1,72.9h11.2L1174,0h-10.2l-6.7,18.7h-32.9
					L1117.6,0h-10.4L1135.1,72.9z"/>
			</g>
			<g>
				<path id="DejaVuSans-117" d="M1183.4,21.6v33.1h9V21.9c0-5.2,1-9.1,3-11.7s5.1-3.9,9.1-3.9c4.8,0,8.7,1.5,11.5,4.6
					c2.8,3.1,4.2,7.3,4.2,12.7v31h9V0h-9v8.4c-2.2-3.3-4.7-5.8-7.6-7.4s-6.2-2.4-10-2.4c-6.3,0-11.1,2-14.3,5.9
					C1185,8.3,1183.4,14.1,1183.4,21.6z"/>
			</g>
			<g>
				<path id="DejaVuSans-116" d="M1256.5,70.2V54.7h18.5v-7h-18.5V18c0-4.5,0.6-7.3,1.8-8.6c1.2-1.3,3.7-1.9,7.5-1.9h9.2V0h-9.2
					c-6.9,0-11.7,1.3-14.4,3.9c-2.6,2.6-4,7.3-4,14.1v29.7h-6.6v7h6.6v15.5H1256.5z"/>
			</g>
			<g>
				<path id="DejaVuSans-104_00000060749903388286634740000014627020827652064166_" d="M1332.3,33V0h-9v32.7c0,5.2-1,9-3,11.6
					c-2,2.6-5,3.9-9.1,3.9c-4.9,0-8.7-1.5-11.5-4.6c-2.8-3.1-4.2-7.3-4.2-12.6V0h-9v76h9V46.2c2.2,3.3,4.7,5.8,7.6,7.4
					c2.9,1.6,6.3,2.4,10.1,2.4c6.3,0,11-1.9,14.2-5.8C1330.7,46.3,1332.3,40.6,1332.3,33z"/>
			</g>
			<g>
				<path id="DejaVuSans-111" d="M1371.4,48.4c-4.8,0-8.6-1.9-11.4-5.6c-2.8-3.8-4.2-8.9-4.2-15.5s1.4-11.7,4.2-15.5
					c2.8-3.8,6.6-5.6,11.5-5.6c4.8,0,8.6,1.9,11.4,5.7c2.8,3.8,4.2,8.9,4.2,15.4s-1.4,11.6-4.2,15.4
					C1380,46.5,1376.2,48.4,1371.4,48.4z M1371.4,56c7.8,0,13.9-2.5,18.4-7.6s6.7-12.1,6.7-21.1c0-8.9-2.2-16-6.7-21.1
					s-10.6-7.6-18.4-7.6s-14,2.5-18.4,7.6s-6.7,12.1-6.7,21.1s2.2,16,6.7,21.1C1357.4,53.5,1363.6,56,1371.4,56z"/>
			</g>
			<g>
				<path id="DejaVuSans-114_00000047759144676585160950000010883453473103720589_" d="M1443.1,46.3c-1,0.6-2.1,1-3.3,1.3
					c-1.2,0.3-2.5,0.4-3.9,0.4c-5.1,0-9-1.7-11.7-5c-2.7-3.3-4.1-8-4.1-14.2V0h-9v54.7h9v-8.5c1.9,3.3,4.4,5.8,7.4,7.4
					c3,1.6,6.7,2.4,11,2.4c0.6,0,1.3,0,2-0.1c0.8-0.1,1.6-0.2,2.5-0.4L1443.1,46.3z"/>
			</g>
			<g>
				<path id="DejaVuSans-105_00000040542612089953055120000012326815560284690820_" d="M1452.5,54.7h9V0h-9V54.7z M1452.5,76h9V64.6
					h-9V76z"/>
			</g>
			<g>
				<path id="DejaVuSans-116_00000090282364522834183000000001912414101448517514_" d="M1489.2,70.2V54.7h18.5v-7h-18.5V18
					c0-4.5,0.6-7.3,1.8-8.6s3.7-1.9,7.5-1.9h9.2V0h-9.2c-6.9,0-11.7,1.3-14.4,3.9c-2.6,2.6-4,7.3-4,14.1v29.7h-6.6v7h6.6v15.5
					H1489.2z"/>
			</g>
			<g>
				<path id="DejaVuSans-105_00000093148643099810055840000001695300821825248701_" d="M1519.5,54.7h9V0h-9V54.7z M1519.5,76h9V64.6
					h-9V76z"/>
			</g>
			<g>
				<path id="DejaVuSans-101" d="M1594.1,29.6v-4.4h-41.3c0.4-6.2,2.3-10.9,5.6-14.1c3.3-3.2,8-4.9,13.9-4.9c3.4,0,6.8,0.4,10,1.3
					c3.2,0.8,6.5,2.1,9.7,3.8V2.8c-3.2-1.4-6.5-2.4-9.9-3.1s-6.8-1.1-10.3-1.1c-8.7,0-15.6,2.5-20.7,7.6s-7.6,12-7.6,20.6
					c0,8.9,2.4,16,7.2,21.3c4.8,5.3,11.4,7.9,19.6,7.9c7.4,0,13.2-2.4,17.5-7.1C1592,44.2,1594.1,37.7,1594.1,29.6z M1585.1,32.2
					c-0.1,4.9-1.4,8.8-4.1,11.8c-2.7,2.9-6.2,4.4-10.7,4.4c-5,0-9-1.4-12-4.2s-4.7-6.8-5.2-12H1585.1z"/>
			</g>
			<g>
				<path id="DejaVuSans-115" d="M1643.7,53.1v-8.5c-2.5,1.3-5.2,2.3-7.9,2.9c-2.7,0.7-5.6,1-8.5,1c-4.5,0-7.8-0.7-10-2
					c-2.2-1.4-3.3-3.4-3.3-6.2c0-2.1,0.8-3.7,2.4-4.9s4.8-2.3,9.6-3.4l3.1-0.7c6.4-1.4,10.9-3.3,13.6-5.8s4-6,4-10.4
					c0-5.1-2-9.1-6-12.1s-9.5-4.4-16.6-4.4c-2.9,0-6,0.3-9.2,0.9s-6.5,1.4-10,2.6v9.3c3.3-1.7,6.6-3,9.8-3.9
					c3.2-0.9,6.4-1.3,9.6-1.3c4.2,0,7.5,0.7,9.8,2.2c2.3,1.4,3.4,3.5,3.4,6.1c0,2.4-0.8,4.3-2.5,5.6c-1.6,1.3-5.2,2.6-10.8,3.8
					l-3.1,0.7c-5.6,1.2-9.6,3-12.1,5.4s-3.7,5.8-3.7,10c0,5.1,1.8,9.1,5.5,11.9c3.6,2.8,8.8,4.2,15.5,4.2c3.3,0,6.4-0.2,9.4-0.7
					C1638.5,54.8,1641.2,54.1,1643.7,53.1z"/>
			</g>
		</g>
	</g>
</g>
</svg>
