<?xml version="1.0" encoding="utf-8"?>
<!-- Generator: Adobe Illustrator 26.0.2, SVG Export Plug-In . SVG Version: 6.00 Build 0)  -->
<svg version="1.1" id="Layer_1" xmlns="http://www.w3.org/2000/svg" xmlns:xlink="http://www.w3.org/1999/xlink" x="0px" y="0px"
	 viewBox="0 0 504 252" style="enable-background:new 0 0 504 252;" xml:space="preserve">
<style type="text/css">
	.st0{fill:none;}
	
		.st1{clip-path:url(#SVGID_00000123436072034713613030000001440888876829395133_);fill:none;stroke:#000000;stroke-linecap:round;stroke-linejoin:round;}
	
		.st2{clip-path:url(#SVGID_00000013892149124331849060000016018630316453861034_);stroke:#000000;stroke-linecap:round;stroke-linejoin:round;}
	
		.st3{clip-path:url(#SVGID_00000028307519009518811420000006576268709653384862_);fill:none;stroke:#000000;stroke-linecap:round;stroke-linejoin:round;}
	
		.st4{clip-path:url(#SVGID_00000052076669521850021390000002765390224386758567_);stroke:#000000;stroke-linecap:round;stroke-linejoin:round;}
	
		.st5{clip-path:url(#SVGID_00000095312086388508431540000005648711908239441033_);fill:none;stroke:#000000;stroke-linecap:round;stroke-linejoin:round;}
	
		.st6{clip-path:url(#SVGID_00000125577539613020294810000004676583921678138807_);stroke:#000000;stroke-linecap:round;stroke-linejoin:round;}
	
		.st7{clip-path:url(#SVGID_00000146463877489394197550000015601673985553088445_);fill:none;stroke:#000000;stroke-linecap:round;stroke-linejoin:round;}
	
		.st8{clip-path:url(#SVGID_00000163055769691124987680000008291076356349793970_);stroke:#000000;stroke-linecap:round;stroke-linejoin:round;}
	
		.st9{clip-path:url(#SVGID_00000147903286549414882710000016875988167414351250_);fill:none;stroke:#000000;stroke-linecap:round;stroke-linejoin:round;}
	
		.st10{clip-path:url(#SVGID_00000005957584720567015320000009781454899051598757_);stroke:#000000;stroke-linecap:round;stroke-linejoin:round;}
	
		.st11{clip-path:url(#SVGID_00000127766199344594285260000016984790044719387807_);fill:none;stroke:#000000;stroke-linecap:round;stroke-linejoin:round;}
	
		.st12{clip-path:url(#SVGID_00000095337744185337373570000005902036166009304471_);stroke:#000000;stroke-linecap:round;stroke-linejoin:round;}
	
		.st13{clip-path:url(#SVGID_00000086656715020664282420000000289951722912284805_);fill:none;stroke:#000000;stroke-linecap:round;stroke-linejoin:round;}
	
		.st14{clip-path:url(#SVGID_00000109020657212955548890000003707743806808303264_);stroke:#000000;stroke-linecap:round;stroke-linejoin:round;}
	
		.st15{clip-path:url(#SVGID_00000038391827279169183160000010605657780306459293_);fill:none;stroke:#000000;stroke-linecap:round;stroke-linejoin:round;}
	
		.st16{clip-path:url(#SVGID_00000161616639020766538650000013163712820600901545_);stroke:#000000;stroke-linecap:round;stroke-linejoin:round;}
	
		.st17{clip-path:url(#SVGID_00000079443867090122419570000002973249505214187174_);fill:none;stroke:#000000;stroke-linecap:round;stroke-linejoin:round;}
	
		.st18{clip-path:url(#SVGID_00000173852113672963187090000012939994445237979322_);stroke:#000000;stroke-linecap:round;stroke-linejoin:round;}
	
		.st19{clip-path:url(#SVGID_00000072243732613969177240000000855386867256680080_);fill:none;stroke:#000000;stroke-linecap:round;stroke-linejoin:round;}
	
		.st20{clip-path:url(#SVGID_00000140703804737681611220000006725093233013342342_);stroke:#000000;stroke-linecap:round;stroke-linejoin:round;}
	
		.st21{clip-path:url(#SVGID_00000101096098756253080660000002825876315339412379_);fill:none;stroke:#000000;stroke-linecap:round;stroke-linejoin:round;}
	
		.st22{clip-path:url(#SVGID_00000137131029729988864490000006571553687629572749_);stroke:#000000;stroke-linecap:round;stroke-linejoin:round;}
	
		.st23{clip-path:url(#SVGID_00000137835678934282316620000007342191803717220531_);fill:none;stroke:#000000;stroke-linecap:round;stroke-linejoin:round;}
	
		.st24{clip-path:url(#SVGID_00000070080310870382802210000001242314590339543210_);stroke:#000000;stroke-linecap:round;stroke-linejoin:round;}
	
		.st25{clip-path:url(#SVGID_00000162323476442494870770000001748963869459309472_);fill:none;stroke:#000000;stroke-linecap:round;stroke-linejoin:round;}
	
		.st26{clip-path:url(#SVGID_00000085210936515343954520000014644988125953080452_);stroke:#000000;stroke-linecap:round;stroke-linejoin:round;}
	
		.st27{clip-path:url(#SVGID_00000103957766863838169150000014221245108910568832_);fill:none;stroke:#000000;stroke-linecap:round;stroke-linejoin:round;}
	
		.st28{clip-path:url(#SVGID_00000165927776806969174620000010775462876254009782_);stroke:#000000;stroke-linecap:round;stroke-linejoin:round;}
	
		.st29{clip-path:url(#SVGID_00000059274065181350443980000005421777849829103530_);fill:none;stroke:#000000;stroke-linecap:round;stroke-linejoin:round;}
	
		.st30{clip-path:url(#SVGID_00000083805024941702885240000001424585995752368534_);stroke:#000000;stroke-linecap:round;stroke-linejoin:round;}
	
		.st31{clip-path:url(#SVGID_00000092418617737038640280000005169548142438949033_);fill:none;stroke:#000000;stroke-linecap:round;stroke-linejoin:round;}
	
		.st32{clip-path:url(#SVGID_00000127020037137025319110000008144512904342055060_);stroke:#000000;stroke-linecap:round;stroke-linejoin:round;}
	
		.st33{clip-path:url(#SVGID_00000157278891008981503750000015375451606819044994_);fill:none;stroke:#000000;stroke-linecap:round;stroke-linejoin:round;}
	
		.st34{clip-path:url(#SVGID_00000070081597691796169190000007911886690950457501_);stroke:#000000;stroke-linecap:round;stroke-linejoin:round;}
	.st35{clip-path:url(#SVGID_00000169557305756116938490000006269052976990616739_);}
	.st36{fill:#440154;stroke:#440154;stroke-linejoin:round;}
	.st37{clip-path:url(#SVGID_00000018235559024171968520000018017387045055649665_);}
	.st38{fill:#B2DD2D;stroke:#B2DD2D;stroke-linejoin:round;}
	.st39{clip-path:url(#SVGID_00000107550165139491791290000004234400821176930706_);}
	.st40{fill:#BDDF26;stroke:#BDDF26;stroke-linejoin:round;}
	.st41{clip-path:url(#SVGID_00000042702028376951066590000018116143322740658314_);}
	.st42{clip-path:url(#SVGID_00000019668933282679794900000012395589006572847526_);}
	.st43{fill:#CDE11D;stroke:#CDE11D;stroke-linejoin:round;}
	.st44{clip-path:url(#SVGID_00000101786160264297119450000008763319451991801238_);}
	.st45{fill:#FDE725;stroke:#FDE725;stroke-linejoin:round;}
	.st46{clip-path:url(#SVGID_00000128463733552169039080000003958447246570909618_);}
	.st47{clip-path:url(#SVGID_00000088851713404750861640000014319599315531406980_);}
	.st48{clip-path:url(#SVGID_00000156584269679000245440000017716085601896694186_);}
	.st49{clip-path:url(#SVGID_00000116936543560463681160000007781079025548515490_);}
	.st50{fill:#9DD93B;stroke:#9DD93B;stroke-linejoin:round;}
	.st51{clip-path:url(#SVGID_00000002362729399337585710000003701666367251401365_);}
</style>
<g id="patch_1">
	<path class="st0" d="M0,252h504V0H0V252z"/>
</g>
<g id="matplotlib.axis_1">
</g>
<g id="patch_2">
	<g>
		<g>
			<g>
				<defs>
					<rect id="SVGID_1_" x="10.8" y="25.9" width="385.9" height="209.4"/>
				</defs>
				<clipPath id="SVGID_00000162341989769672269150000015324912339236760985_">
					<use xlink:href="#SVGID_1_"  style="overflow:visible;"/>
				</clipPath>
				
					<path style="clip-path:url(#SVGID_00000162341989769672269150000015324912339236760985_);fill:none;stroke:#000000;stroke-linecap:round;stroke-linejoin:round;" d="
					M189.6,69.1c55-7.9,109.7-15.8,164-23.6"/>
			</g>
		</g>
	</g>
	<g>
		<g>
			<g>
				<defs>
					<rect id="SVGID_00000010276622764845664220000003429680909925599145_" x="10.8" y="25.9" width="385.9" height="209.4"/>
				</defs>
				<clipPath id="SVGID_00000134932549314919494240000003433459660603908261_">
					<use xlink:href="#SVGID_00000010276622764845664220000003429680909925599145_"  style="overflow:visible;"/>
				</clipPath>
				
					<path style="clip-path:url(#SVGID_00000134932549314919494240000003433459660603908261_);stroke:#000000;stroke-linecap:round;stroke-linejoin:round;" d="
					M349.3,44.1l4.2,1.4l-3.7,2.5L349.3,44.1z"/>
			</g>
		</g>
	</g>
</g>
<g id="patch_3">
	<g>
		<g>
			<g>
				<defs>
					<rect id="SVGID_00000147935331400995898640000008652320381329327756_" x="10.8" y="25.9" width="385.9" height="209.4"/>
				</defs>
				<clipPath id="SVGID_00000008864043661342662030000012439837796378413996_">
					<use xlink:href="#SVGID_00000147935331400995898640000008652320381329327756_"  style="overflow:visible;"/>
				</clipPath>
				
					<path style="clip-path:url(#SVGID_00000008864043661342662030000012439837796378413996_);fill:none;stroke:#000000;stroke-linecap:round;stroke-linejoin:round;" d="
					M354.7,45.3c-55,7.9-109.7,15.8-164,23.6"/>
			</g>
		</g>
	</g>
	<g>
		<g>
			<g>
				<defs>
					<rect id="SVGID_00000093171374390852782540000004534371945777335700_" x="10.8" y="25.9" width="385.9" height="209.4"/>
				</defs>
				<clipPath id="SVGID_00000090993278874456760870000002548883426974793891_">
					<use xlink:href="#SVGID_00000093171374390852782540000004534371945777335700_"  style="overflow:visible;"/>
				</clipPath>
				
					<path style="clip-path:url(#SVGID_00000090993278874456760870000002548883426974793891_);stroke:#000000;stroke-linecap:round;stroke-linejoin:round;" d="
					M194.9,70.3l-4.2-1.4l3.7-2.5L194.9,70.3z"/>
			</g>
		</g>
	</g>
</g>
<g id="patch_4">
	<g>
		<g>
			<g>
				<defs>
					<rect id="SVGID_00000026146606475832234040000006112609210303977096_" x="10.8" y="25.9" width="385.9" height="209.4"/>
				</defs>
				<clipPath id="SVGID_00000139990848919389752960000000828981107241151880_">
					<use xlink:href="#SVGID_00000026146606475832234040000006112609210303977096_"  style="overflow:visible;"/>
				</clipPath>
				
					<path style="clip-path:url(#SVGID_00000139990848919389752960000000828981107241151880_);fill:none;stroke:#000000;stroke-linecap:round;stroke-linejoin:round;" d="
					M65,127.5c-6.2-25-12.3-49.6-18.3-73.9"/>
			</g>
		</g>
	</g>
	<g>
		<g>
			<g>
				<defs>
					<rect id="SVGID_00000141418091754266090300000009455811243186316987_" x="10.8" y="25.9" width="385.9" height="209.4"/>
				</defs>
				<clipPath id="SVGID_00000091700313132995311400000000733904051864934048_">
					<use xlink:href="#SVGID_00000141418091754266090300000009455811243186316987_"  style="overflow:visible;"/>
				</clipPath>
				
					<path style="clip-path:url(#SVGID_00000091700313132995311400000000733904051864934048_);stroke:#000000;stroke-linecap:round;stroke-linejoin:round;" d="
					M45.7,57.9l1-4.4l2.9,3.4L45.7,57.9z"/>
			</g>
		</g>
	</g>
</g>
<g id="patch_5">
	<g>
		<g>
			<g>
				<defs>
					<rect id="SVGID_00000080208957837464664520000014034636227076450465_" x="10.8" y="25.9" width="385.9" height="209.4"/>
				</defs>
				<clipPath id="SVGID_00000113342579792904676620000015939330120334007712_">
					<use xlink:href="#SVGID_00000080208957837464664520000014034636227076450465_"  style="overflow:visible;"/>
				</clipPath>
				
					<path style="clip-path:url(#SVGID_00000113342579792904676620000015939330120334007712_);fill:none;stroke:#000000;stroke-linecap:round;stroke-linejoin:round;" d="
					M74.6,131.5c33-19,65.6-37.8,97.9-56.4"/>
			</g>
		</g>
	</g>
	<g>
		<g>
			<g>
				<defs>
					<rect id="SVGID_00000141427879270582316170000015502109922347708079_" x="10.8" y="25.9" width="385.9" height="209.4"/>
				</defs>
				<clipPath id="SVGID_00000067218905031927545350000011118782446352706986_">
					<use xlink:href="#SVGID_00000141427879270582316170000015502109922347708079_"  style="overflow:visible;"/>
				</clipPath>
				
					<path style="clip-path:url(#SVGID_00000067218905031927545350000011118782446352706986_);stroke:#000000;stroke-linecap:round;stroke-linejoin:round;" d="
					M168,75.4l4.5-0.3l-2.5,3.7L168,75.4z"/>
			</g>
		</g>
	</g>
</g>
<g id="patch_6">
	<g>
		<g>
			<g>
				<defs>
					<rect id="SVGID_00000017509845287701268910000011183739221463714484_" x="10.8" y="25.9" width="385.9" height="209.4"/>
				</defs>
				<clipPath id="SVGID_00000012441499355187944710000005743990819979250076_">
					<use xlink:href="#SVGID_00000017509845287701268910000011183739221463714484_"  style="overflow:visible;"/>
				</clipPath>
				
					<path style="clip-path:url(#SVGID_00000012441499355187944710000005743990819979250076_);fill:none;stroke:#000000;stroke-linecap:round;stroke-linejoin:round;" d="
					M222.2,141.5c-12.3-21.2-24.4-42.1-36.3-62.7"/>
			</g>
		</g>
	</g>
	<g>
		<g>
			<g>
				<defs>
					<rect id="SVGID_00000080889020290521237870000006805840943539958965_" x="10.8" y="25.9" width="385.9" height="209.4"/>
				</defs>
				<clipPath id="SVGID_00000136394435286838457140000004455652016991307436_">
					<use xlink:href="#SVGID_00000080889020290521237870000006805840943539958965_"  style="overflow:visible;"/>
				</clipPath>
				
					<path style="clip-path:url(#SVGID_00000136394435286838457140000004455652016991307436_);stroke:#000000;stroke-linecap:round;stroke-linejoin:round;" d="
					M186.2,83.2l-0.3-4.5l3.7,2.5L186.2,83.2z"/>
			</g>
		</g>
	</g>
</g>
<g id="patch_7">
	<g>
		<g>
			<g>
				<defs>
					<rect id="SVGID_00000101807318829540079820000005206026095505548436_" x="10.8" y="25.9" width="385.9" height="209.4"/>
				</defs>
				<clipPath id="SVGID_00000114793451180949668480000016103317274835162016_">
					<use xlink:href="#SVGID_00000101807318829540079820000005206026095505548436_"  style="overflow:visible;"/>
				</clipPath>
				
					<path style="clip-path:url(#SVGID_00000114793451180949668480000016103317274835162016_);fill:none;stroke:#000000;stroke-linecap:round;stroke-linejoin:round;" d="
					M217.9,148.3c-47.4-3.9-94.4-7.8-141.1-11.6"/>
			</g>
		</g>
	</g>
	<g>
		<g>
			<g>
				<defs>
					<rect id="SVGID_00000118369143725063325010000014931422108438972833_" x="10.8" y="25.9" width="385.9" height="209.4"/>
				</defs>
				<clipPath id="SVGID_00000087413071400314206330000017034426348863809184_">
					<use xlink:href="#SVGID_00000118369143725063325010000014931422108438972833_"  style="overflow:visible;"/>
				</clipPath>
				
					<path style="clip-path:url(#SVGID_00000087413071400314206330000017034426348863809184_);stroke:#000000;stroke-linecap:round;stroke-linejoin:round;" d="
					M80.6,139l-3.8-2.3L81,135L80.6,139z"/>
			</g>
		</g>
	</g>
</g>
<g id="patch_8">
	<g>
		<g>
			<g>
				<defs>
					<rect id="SVGID_00000003809410002829159800000011716233642763219867_" x="10.8" y="25.9" width="385.9" height="209.4"/>
				</defs>
				<clipPath id="SVGID_00000063620550113508916890000009726975878870873995_">
					<use xlink:href="#SVGID_00000003809410002829159800000011716233642763219867_"  style="overflow:visible;"/>
				</clipPath>
				
					<path style="clip-path:url(#SVGID_00000063620550113508916890000009726975878870873995_);fill:none;stroke:#000000;stroke-linecap:round;stroke-linejoin:round;" d="
					M235.2,149c39.8,0,79.2,0,118.2,0"/>
			</g>
		</g>
	</g>
	<g>
		<g>
			<g>
				<defs>
					<rect id="SVGID_00000021823301471152808670000017453294022513210015_" x="10.8" y="25.9" width="385.9" height="209.4"/>
				</defs>
				<clipPath id="SVGID_00000128480564035376726540000016108778452703555240_">
					<use xlink:href="#SVGID_00000021823301471152808670000017453294022513210015_"  style="overflow:visible;"/>
				</clipPath>
				
					<path style="clip-path:url(#SVGID_00000128480564035376726540000016108778452703555240_);stroke:#000000;stroke-linecap:round;stroke-linejoin:round;" d="
					M349.5,147l4,2l-4,2V147z"/>
			</g>
		</g>
	</g>
</g>
<g id="patch_9">
	<g>
		<g>
			<g>
				<defs>
					<rect id="SVGID_00000096056921694069720470000009410790553668834231_" x="10.8" y="25.9" width="385.9" height="209.4"/>
				</defs>
				<clipPath id="SVGID_00000155131932689201482920000005263560741508860093_">
					<use xlink:href="#SVGID_00000096056921694069720470000009410790553668834231_"  style="overflow:visible;"/>
				</clipPath>
				
					<path style="clip-path:url(#SVGID_00000155131932689201482920000005263560741508860093_);fill:none;stroke:#000000;stroke-linecap:round;stroke-linejoin:round;" d="
					M355.3,145.5C299.8,121.6,244.7,97.8,190,74.2"/>
			</g>
		</g>
	</g>
	<g>
		<g>
			<g>
				<defs>
					<rect id="SVGID_00000115490312128193067960000015906935434482679693_" x="10.8" y="25.9" width="385.9" height="209.4"/>
				</defs>
				<clipPath id="SVGID_00000090265149013782648910000007199602349599339669_">
					<use xlink:href="#SVGID_00000115490312128193067960000015906935434482679693_"  style="overflow:visible;"/>
				</clipPath>
				
					<path style="clip-path:url(#SVGID_00000090265149013782648910000007199602349599339669_);stroke:#000000;stroke-linecap:round;stroke-linejoin:round;" d="
					M192.8,77.6l-2.9-3.4l4.5-0.3L192.8,77.6z"/>
			</g>
		</g>
	</g>
</g>
<g id="patch_10">
	<g>
		<g>
			<g>
				<defs>
					<rect id="SVGID_00000088122382930198012370000001605235712333243019_" x="10.8" y="25.9" width="385.9" height="209.4"/>
				</defs>
				<clipPath id="SVGID_00000161592790931231452660000013811235593680067240_">
					<use xlink:href="#SVGID_00000088122382930198012370000001605235712333243019_"  style="overflow:visible;"/>
				</clipPath>
				
					<path style="clip-path:url(#SVGID_00000161592790931231452660000013811235593680067240_);fill:none;stroke:#000000;stroke-linecap:round;stroke-linejoin:round;" d="
					M354.6,149c-39.8,0-79.2,0-118.2,0"/>
			</g>
		</g>
	</g>
	<g>
		<g>
			<g>
				<defs>
					<rect id="SVGID_00000064314248232984953570000007751041041310153605_" x="10.8" y="25.9" width="385.9" height="209.4"/>
				</defs>
				<clipPath id="SVGID_00000167373898367800267760000013859805630908114050_">
					<use xlink:href="#SVGID_00000064314248232984953570000007751041041310153605_"  style="overflow:visible;"/>
				</clipPath>
				
					<path style="clip-path:url(#SVGID_00000167373898367800267760000013859805630908114050_);stroke:#000000;stroke-linecap:round;stroke-linejoin:round;" d="
					M240.3,151l-4-2l4-2V151z"/>
			</g>
		</g>
	</g>
</g>
<g id="patch_11">
	<g>
		<g>
			<g>
				<defs>
					<rect id="SVGID_00000088826615844715597000000017056926160814624651_" x="10.8" y="25.9" width="385.9" height="209.4"/>
				</defs>
				<clipPath id="SVGID_00000180354686746013613470000017504880949600408734_">
					<use xlink:href="#SVGID_00000088826615844715597000000017056926160814624651_"  style="overflow:visible;"/>
				</clipPath>
				
					<path style="clip-path:url(#SVGID_00000180354686746013613470000017504880949600408734_);fill:none;stroke:#000000;stroke-linecap:round;stroke-linejoin:round;" d="
					M103.6,194.1c24.3-38.8,48.4-77.3,72.2-115.5"/>
			</g>
		</g>
	</g>
	<g>
		<g>
			<g>
				<defs>
					<rect id="SVGID_00000106115838912505791120000010083807280636489378_" x="10.8" y="25.9" width="385.9" height="209.4"/>
				</defs>
				<clipPath id="SVGID_00000162318203018555657880000015256976576849882012_">
					<use xlink:href="#SVGID_00000106115838912505791120000010083807280636489378_"  style="overflow:visible;"/>
				</clipPath>
				
					<path style="clip-path:url(#SVGID_00000162318203018555657880000015256976576849882012_);stroke:#000000;stroke-linecap:round;stroke-linejoin:round;" d="
					M172,80.9l3.8-2.3l-0.4,4.5L172,80.9z"/>
			</g>
		</g>
	</g>
</g>
<g id="patch_12">
	<g>
		<g>
			<g>
				<defs>
					<rect id="SVGID_00000180339982480636639490000014357765994504194708_" x="10.8" y="25.9" width="385.9" height="209.4"/>
				</defs>
				<clipPath id="SVGID_00000150087813972784357410000011259505591572529805_">
					<use xlink:href="#SVGID_00000180339982480636639490000014357765994504194708_"  style="overflow:visible;"/>
				</clipPath>
				
					<path style="clip-path:url(#SVGID_00000150087813972784357410000011259505591572529805_);fill:none;stroke:#000000;stroke-linecap:round;stroke-linejoin:round;" d="
					M107,198.1c37.2-15.3,74-30.4,110.5-45.4"/>
			</g>
		</g>
	</g>
	<g>
		<g>
			<g>
				<defs>
					<rect id="SVGID_00000092433573665441449210000007097046851192332167_" x="10.8" y="25.9" width="385.9" height="209.4"/>
				</defs>
				<clipPath id="SVGID_00000088825752049169608780000003628842197756702908_">
					<use xlink:href="#SVGID_00000092433573665441449210000007097046851192332167_"  style="overflow:visible;"/>
				</clipPath>
				
					<path style="clip-path:url(#SVGID_00000088825752049169608780000003628842197756702908_);stroke:#000000;stroke-linecap:round;stroke-linejoin:round;" d="
					M213,152.4l4.5,0.3l-2.9,3.4L213,152.4z"/>
			</g>
		</g>
	</g>
</g>
<g id="patch_13">
	<g>
		<g>
			<g>
				<defs>
					<rect id="SVGID_00000183213774634670140610000016942454718011361670_" x="10.8" y="25.9" width="385.9" height="209.4"/>
				</defs>
				<clipPath id="SVGID_00000067950182713539081890000013536300158605253812_">
					<use xlink:href="#SVGID_00000183213774634670140610000016942454718011361670_"  style="overflow:visible;"/>
				</clipPath>
				
					<path style="clip-path:url(#SVGID_00000067950182713539081890000013536300158605253812_);fill:none;stroke:#000000;stroke-linecap:round;stroke-linejoin:round;" d="
					M138.1,201.1c13.4-40.8,26.7-81.3,39.8-121.4"/>
			</g>
		</g>
	</g>
	<g>
		<g>
			<g>
				<defs>
					<rect id="SVGID_00000074424096591515497300000008802551495760232348_" x="10.8" y="25.9" width="385.9" height="209.4"/>
				</defs>
				<clipPath id="SVGID_00000018200149762774227030000018405674487857618097_">
					<use xlink:href="#SVGID_00000074424096591515497300000008802551495760232348_"  style="overflow:visible;"/>
				</clipPath>
				
					<path style="clip-path:url(#SVGID_00000018200149762774227030000018405674487857618097_);stroke:#000000;stroke-linecap:round;stroke-linejoin:round;" d="
					M174.8,82.8l3.1-3.2l0.7,4.4L174.8,82.8z"/>
			</g>
		</g>
	</g>
</g>
<g id="patch_14">
	<g>
		<g>
			<g>
				<defs>
					<rect id="SVGID_00000054947238251436559980000010935910970355495809_" x="10.8" y="25.9" width="385.9" height="209.4"/>
				</defs>
				<clipPath id="SVGID_00000104676111339490500570000002849810618193161900_">
					<use xlink:href="#SVGID_00000054947238251436559980000010935910970355495809_"  style="overflow:visible;"/>
				</clipPath>
				
					<path style="clip-path:url(#SVGID_00000104676111339490500570000002849810618193161900_);fill:none;stroke:#000000;stroke-linecap:round;stroke-linejoin:round;" d="
					M142.6,204.5c25.6-16.9,50.8-33.6,75.7-50.1"/>
			</g>
		</g>
	</g>
	<g>
		<g>
			<g>
				<defs>
					<rect id="SVGID_00000083089065559488134940000000184465475237927059_" x="10.8" y="25.9" width="385.9" height="209.4"/>
				</defs>
				<clipPath id="SVGID_00000079461334853128591870000003908030131811411115_">
					<use xlink:href="#SVGID_00000083089065559488134940000000184465475237927059_"  style="overflow:visible;"/>
				</clipPath>
				
					<path style="clip-path:url(#SVGID_00000079461334853128591870000003908030131811411115_);stroke:#000000;stroke-linecap:round;stroke-linejoin:round;" d="
					M213.9,154.9l4.4-0.5l-2.2,3.9L213.9,154.9z"/>
			</g>
		</g>
	</g>
</g>
<g id="patch_15">
	<g>
		<g>
			<g>
				<defs>
					<rect id="SVGID_00000145019778884919462520000007257459723345596842_" x="10.8" y="25.9" width="385.9" height="209.4"/>
				</defs>
				<clipPath id="SVGID_00000062191499231829686260000016163614730124310448_">
					<use xlink:href="#SVGID_00000145019778884919462520000007257459723345596842_"  style="overflow:visible;"/>
				</clipPath>
				
					<path style="clip-path:url(#SVGID_00000062191499231829686260000016163614730124310448_);fill:none;stroke:#000000;stroke-linecap:round;stroke-linejoin:round;" d="
					M172.4,208.5c2.7-43.2,5.3-86,8-128.4"/>
			</g>
		</g>
	</g>
	<g>
		<g>
			<g>
				<defs>
					<rect id="SVGID_00000159463036069654278500000000709143238975329980_" x="10.8" y="25.9" width="385.9" height="209.4"/>
				</defs>
				<clipPath id="SVGID_00000076598745752761969540000004869690290176389778_">
					<use xlink:href="#SVGID_00000159463036069654278500000000709143238975329980_"  style="overflow:visible;"/>
				</clipPath>
				
					<path style="clip-path:url(#SVGID_00000076598745752761969540000004869690290176389778_);stroke:#000000;stroke-linecap:round;stroke-linejoin:round;" d="
					M178.1,83.9l2.2-3.9l1.7,4.1L178.1,83.9z"/>
			</g>
		</g>
	</g>
</g>
<g id="patch_16">
	<g>
		<g>
			<g>
				<defs>
					<rect id="SVGID_00000092422326165651050290000006462153947387649964_" x="10.8" y="25.9" width="385.9" height="209.4"/>
				</defs>
				<clipPath id="SVGID_00000111183912120662055400000003022221964855113912_">
					<use xlink:href="#SVGID_00000092422326165651050290000006462153947387649964_"  style="overflow:visible;"/>
				</clipPath>
				
					<path style="clip-path:url(#SVGID_00000111183912120662055400000003022221964855113912_);fill:none;stroke:#000000;stroke-linecap:round;stroke-linejoin:round;" d="
					M177.3,210.4c14.6-18.2,29-36.1,43.1-53.8"/>
			</g>
		</g>
	</g>
	<g>
		<g>
			<g>
				<defs>
					<rect id="SVGID_00000078746608432869342970000004117527428531728553_" x="10.8" y="25.9" width="385.9" height="209.4"/>
				</defs>
				<clipPath id="SVGID_00000060724656266857813910000013187545438034624130_">
					<use xlink:href="#SVGID_00000078746608432869342970000004117527428531728553_"  style="overflow:visible;"/>
				</clipPath>
				
					<path style="clip-path:url(#SVGID_00000060724656266857813910000013187545438034624130_);stroke:#000000;stroke-linecap:round;stroke-linejoin:round;" d="
					M216.4,158.5l4.1-1.9l-0.9,4.4L216.4,158.5z"/>
			</g>
		</g>
	</g>
</g>
<g id="patch_17">
	<g>
		<g>
			<g>
				<defs>
					<rect id="SVGID_00000072243710488625610240000018222130170330307467_" x="10.8" y="25.9" width="385.9" height="209.4"/>
				</defs>
				<clipPath id="SVGID_00000124853549596501593040000003087035144221801636_">
					<use xlink:href="#SVGID_00000072243710488625610240000018222130170330307467_"  style="overflow:visible;"/>
				</clipPath>
				
					<path style="clip-path:url(#SVGID_00000124853549596501593040000003087035144221801636_);fill:none;stroke:#000000;stroke-linecap:round;stroke-linejoin:round;" d="
					M310.2,197.1c-25.4-14.6-50.4-29-75.1-43.2"/>
			</g>
		</g>
	</g>
	<g>
		<g>
			<g>
				<defs>
					<rect id="SVGID_00000151504200748955087270000010055410487906533814_" x="10.8" y="25.9" width="385.9" height="209.4"/>
				</defs>
				<clipPath id="SVGID_00000065062882361305409780000009749526425826975390_">
					<use xlink:href="#SVGID_00000151504200748955087270000010055410487906533814_"  style="overflow:visible;"/>
				</clipPath>
				
					<path style="clip-path:url(#SVGID_00000065062882361305409780000009749526425826975390_);stroke:#000000;stroke-linecap:round;stroke-linejoin:round;" d="
					M237.5,157.6l-2.5-3.7l4.5,0.3L237.5,157.6z"/>
			</g>
		</g>
	</g>
</g>
<g id="patch_18">
	<g>
		<g>
			<g>
				<defs>
					<rect id="SVGID_00000000918349244274511720000007730637381069133193_" x="10.8" y="25.9" width="385.9" height="209.4"/>
				</defs>
				<clipPath id="SVGID_00000141456818429180387480000010447060978631860157_">
					<use xlink:href="#SVGID_00000000918349244274511720000007730637381069133193_"  style="overflow:visible;"/>
				</clipPath>
				
					<path style="clip-path:url(#SVGID_00000141456818429180387480000010447060978631860157_);fill:none;stroke:#000000;stroke-linecap:round;stroke-linejoin:round;" d="
					M332.3,185.5c-32.5-11.2-64.7-22.3-96.5-33.3"/>
			</g>
		</g>
	</g>
	<g>
		<g>
			<g>
				<defs>
					<rect id="SVGID_00000086660809080506176120000017389555310982658471_" x="10.8" y="25.9" width="385.9" height="209.4"/>
				</defs>
				<clipPath id="SVGID_00000011018598426030255780000009730413424810021525_">
					<use xlink:href="#SVGID_00000086660809080506176120000017389555310982658471_"  style="overflow:visible;"/>
				</clipPath>
				
					<path style="clip-path:url(#SVGID_00000011018598426030255780000009730413424810021525_);stroke:#000000;stroke-linecap:round;stroke-linejoin:round;" d="
					M238.9,155.4l-3.1-3.2l4.4-0.6L238.9,155.4z"/>
			</g>
		</g>
	</g>
</g>
<g id="PathCollection_1">
	<g>
		<g>
			<g>
				<defs>
					<rect id="SVGID_00000158732858144370812250000005410232225947134863_" x="10.8" y="25.9" width="385.9" height="209.4"/>
				</defs>
				<clipPath id="SVGID_00000004510622809303113920000010868906145549081006_">
					<use xlink:href="#SVGID_00000158732858144370812250000005410232225947134863_"  style="overflow:visible;"/>
				</clipPath>
				<g style="clip-path:url(#SVGID_00000004510622809303113920000010868906145549081006_);">
					<g>
						<path id="C0_0_acd082bf71" class="st36" d="M181,78.2c2.1,0,4.1-0.8,5.6-2.3s2.3-3.5,2.3-5.6s-0.8-4.1-2.3-5.6
							s-3.5-2.3-5.6-2.3s-4.1,0.8-5.6,2.3s-2.3,3.5-2.3,5.6s0.8,4.1,2.3,5.6S178.9,78.2,181,78.2z"/>
					</g>
				</g>
			</g>
		</g>
	</g>
	<g>
		<g>
			<g>
				<defs>
					<rect id="SVGID_00000129885091092069932830000013418161953206443961_" x="10.8" y="25.9" width="385.9" height="209.4"/>
				</defs>
				<clipPath id="SVGID_00000049199952272825781080000012902419001400616836_">
					<use xlink:href="#SVGID_00000129885091092069932830000013418161953206443961_"  style="overflow:visible;"/>
				</clipPath>
				<g style="clip-path:url(#SVGID_00000049199952272825781080000012902419001400616836_);">
					<g>
						<path id="C0_0_acd082bf71_00000100341008810387020650000005754115207382472336_" class="st38" d="M363.2,52
							c2.1,0,4.1-0.8,5.6-2.3s2.3-3.5,2.3-5.6s-0.8-4.1-2.3-5.6s-3.5-2.3-5.6-2.3s-4.1,0.8-5.6,2.3s-2.3,3.5-2.3,5.6
							s0.8,4.1,2.3,5.6S361.1,52,363.2,52z"/>
					</g>
				</g>
			</g>
		</g>
	</g>
	<g>
		<g>
			<g>
				<defs>
					<rect id="SVGID_00000040534855949236820910000003046878423621740458_" x="10.8" y="25.9" width="385.9" height="209.4"/>
				</defs>
				<clipPath id="SVGID_00000047035550581306759060000007715276182286805663_">
					<use xlink:href="#SVGID_00000040534855949236820910000003046878423621740458_"  style="overflow:visible;"/>
				</clipPath>
				<g style="clip-path:url(#SVGID_00000047035550581306759060000007715276182286805663_);">
					<g>
						<path id="C0_0_acd082bf71_00000045579122755899510290000002287690658234029756_" class="st40" d="M67.1,143.8
							c2.1,0,4.1-0.8,5.6-2.3s2.3-3.5,2.3-5.6s-0.8-4.1-2.3-5.6s-3.5-2.3-5.6-2.3s-4.1,0.8-5.6,2.3s-2.3,3.5-2.3,5.6
							s0.8,4.1,2.3,5.6C63,142.9,65,143.8,67.1,143.8z"/>
					</g>
				</g>
			</g>
		</g>
	</g>
	<g>
		<g>
			<g>
				<defs>
					<rect id="SVGID_00000051379024526993260230000011581715865809175720_" x="10.8" y="25.9" width="385.9" height="209.4"/>
				</defs>
				<clipPath id="SVGID_00000008840457587659356360000001825592922554402211_">
					<use xlink:href="#SVGID_00000051379024526993260230000011581715865809175720_"  style="overflow:visible;"/>
				</clipPath>
				<g style="clip-path:url(#SVGID_00000008840457587659356360000001825592922554402211_);">
					<g>
						<path id="C0_0_acd082bf71_00000094609729535611623930000002869814710387757474_" class="st36" d="M44.3,52
							c2.1,0,4.1-0.8,5.6-2.3s2.3-3.5,2.3-5.6s-0.8-4.1-2.3-5.6s-3.5-2.3-5.6-2.3s-4.1,0.8-5.6,2.3s-2.3,3.5-2.3,5.6
							s0.8,4.1,2.3,5.6S42.2,52,44.3,52z"/>
					</g>
				</g>
			</g>
		</g>
	</g>
	<g>
		<g>
			<g>
				<defs>
					<rect id="SVGID_00000132766602317022053610000002223527255440936086_" x="10.8" y="25.9" width="385.9" height="209.4"/>
				</defs>
				<clipPath id="SVGID_00000078022783311117019420000010215898318401386913_">
					<use xlink:href="#SVGID_00000132766602317022053610000002223527255440936086_"  style="overflow:visible;"/>
				</clipPath>
				<g style="clip-path:url(#SVGID_00000078022783311117019420000010215898318401386913_);">
					<g>
						<path id="C0_0_acd082bf71_00000170237258394111390450000011787174587705211809_" class="st43" d="M226.5,156.9
							c2.1,0,4.1-0.8,5.6-2.3s2.3-3.5,2.3-5.6s-0.8-4.1-2.3-5.6s-3.5-2.3-5.6-2.3s-4.1,0.8-5.6,2.3s-2.3,3.5-2.3,5.6
							s0.8,4.1,2.3,5.6S224.4,156.9,226.5,156.9z"/>
					</g>
				</g>
			</g>
		</g>
	</g>
	<g>
		<g>
			<g>
				<defs>
					<rect id="SVGID_00000154413318962186099410000008147669909218399112_" x="10.8" y="25.9" width="385.9" height="209.4"/>
				</defs>
				<clipPath id="SVGID_00000052797120981396938670000004821704065711690653_">
					<use xlink:href="#SVGID_00000154413318962186099410000008147669909218399112_"  style="overflow:visible;"/>
				</clipPath>
				<g style="clip-path:url(#SVGID_00000052797120981396938670000004821704065711690653_);">
					<g>
						<path id="C0_0_acd082bf71_00000137106905255493579260000008320123752659441078_" class="st45" d="M363.2,156.9
							c2.1,0,4.1-0.8,5.6-2.3s2.3-3.5,2.3-5.6s-0.8-4.1-2.3-5.6s-3.5-2.3-5.6-2.3s-4.1,0.8-5.6,2.3s-2.3,3.5-2.3,5.6
							s0.8,4.1,2.3,5.6C359.1,156,361.1,156.9,363.2,156.9z"/>
					</g>
				</g>
			</g>
		</g>
	</g>
	<g>
		<g>
			<g>
				<defs>
					<rect id="SVGID_00000151532551082301308140000012073747113706326917_" x="10.8" y="25.9" width="385.9" height="209.4"/>
				</defs>
				<clipPath id="SVGID_00000049195689892635941480000013989850165949913776_">
					<use xlink:href="#SVGID_00000151532551082301308140000012073747113706326917_"  style="overflow:visible;"/>
				</clipPath>
				<g style="clip-path:url(#SVGID_00000049195689892635941480000013989850165949913776_);">
					<g>
						<path id="C0_0_acd082bf71_00000087407625779793786960000002510351388265400491_" class="st45" d="M99,209.3
							c2.1,0,4.1-0.8,5.6-2.3s2.3-3.5,2.3-5.6s-0.8-4.1-2.3-5.6s-3.5-2.3-5.6-2.3s-4.1,0.8-5.6,2.3s-2.3,3.5-2.3,5.6
							s0.8,4.1,2.3,5.6S96.9,209.3,99,209.3z"/>
					</g>
				</g>
			</g>
		</g>
	</g>
	<g>
		<g>
			<g>
				<defs>
					<rect id="SVGID_00000147921412406646283420000015124656866441800105_" x="10.8" y="25.9" width="385.9" height="209.4"/>
				</defs>
				<clipPath id="SVGID_00000135663364075029195960000018391240853113595022_">
					<use xlink:href="#SVGID_00000147921412406646283420000015124656866441800105_"  style="overflow:visible;"/>
				</clipPath>
				<g style="clip-path:url(#SVGID_00000135663364075029195960000018391240853113595022_);">
					<g>
						<path id="C0_0_acd082bf71_00000066510577311696106510000012861485635719921824_" class="st45" d="M135.4,217.2
							c2.1,0,4.1-0.8,5.6-2.3s2.3-3.5,2.3-5.6s-0.8-4.1-2.3-5.6s-3.5-2.3-5.6-2.3s-4.1,0.8-5.6,2.3s-2.3,3.5-2.3,5.6
							s0.8,4.1,2.3,5.6S133.3,217.2,135.4,217.2z"/>
					</g>
				</g>
			</g>
		</g>
	</g>
	<g>
		<g>
			<g>
				<defs>
					<rect id="SVGID_00000080199780333847099870000010788840252894602634_" x="10.8" y="25.9" width="385.9" height="209.4"/>
				</defs>
				<clipPath id="SVGID_00000023997750785684470430000004561164982111492480_">
					<use xlink:href="#SVGID_00000080199780333847099870000010788840252894602634_"  style="overflow:visible;"/>
				</clipPath>
				<g style="clip-path:url(#SVGID_00000023997750785684470430000004561164982111492480_);">
					<g>
						<path id="C0_0_acd082bf71_00000007395506073500868450000011081079658345493428_" class="st45" d="M171.9,225.1
							c2.1,0,4.1-0.8,5.6-2.3s2.3-3.5,2.3-5.6s-0.8-4.1-2.3-5.6s-3.5-2.3-5.6-2.3s-4.1,0.8-5.6,2.3s-2.3,3.5-2.3,5.6
							s0.8,4.1,2.3,5.6S169.8,225.1,171.9,225.1z"/>
					</g>
				</g>
			</g>
		</g>
	</g>
	<g>
		<g>
			<g>
				<defs>
					<rect id="SVGID_00000164488325143118555080000001595813250406131876_" x="10.8" y="25.9" width="385.9" height="209.4"/>
				</defs>
				<clipPath id="SVGID_00000171682463552330927310000005275333376372518304_">
					<use xlink:href="#SVGID_00000164488325143118555080000001595813250406131876_"  style="overflow:visible;"/>
				</clipPath>
				<g style="clip-path:url(#SVGID_00000171682463552330927310000005275333376372518304_);">
					<g>
						<path id="C0_0_acd082bf71_00000031177346869115403450000013821464068417450133_" class="st50" d="M317.7,209.3
							c2.1,0,4.1-0.8,5.6-2.3s2.3-3.5,2.3-5.6s-0.8-4.1-2.3-5.6s-3.5-2.3-5.6-2.3s-4.1,0.8-5.6,2.3s-2.3,3.5-2.3,5.6
							s0.8,4.1,2.3,5.6S315.6,209.3,317.7,209.3z"/>
					</g>
				</g>
			</g>
		</g>
	</g>
	<g>
		<g>
			<g>
				<defs>
					<rect id="SVGID_00000044888923387531297620000009642658931058357177_" x="10.8" y="25.9" width="385.9" height="209.4"/>
				</defs>
				<clipPath id="SVGID_00000119805126339173262540000015456978336594903943_">
					<use xlink:href="#SVGID_00000044888923387531297620000009642658931058357177_"  style="overflow:visible;"/>
				</clipPath>
				<g style="clip-path:url(#SVGID_00000119805126339173262540000015456978336594903943_);">
					<g>
						<path id="C0_0_acd082bf71_00000031206953268671615430000011837255912039288734_" class="st50" d="M340.4,196.2
							c2.1,0,4.1-0.8,5.6-2.3s2.3-3.5,2.3-5.6s-0.8-4.1-2.3-5.6s-3.5-2.3-5.6-2.3s-4.1,0.8-5.6,2.3s-2.3,3.5-2.3,5.6
							s0.8,4.1,2.3,5.6S338.4,196.2,340.4,196.2z"/>
					</g>
				</g>
			</g>
		</g>
	</g>
</g>
<g id="text_1">
	<g transform="translate(146.25 19.918125)scale(0.12 -0.12)">
		<g>
			<path id="DejaVuSans-68" d="M19.7,64.8V8.1h11.9c10.1,0,17.4,2.3,22.1,6.8c4.7,4.6,7,11.8,7,21.6s-2.3,16.9-7,21.5
				s-12,6.8-22.1,6.8H19.7z M9.8,72.9h20.3c14.1,0,24.5-2.9,31.1-8.8s9.9-15.1,9.9-27.6c0-12.6-3.3-21.8-10-27.7
				c-6.6-5.9-17-8.8-31-8.8H9.8V72.9z"/>
		</g>
		<g>
			<path id="DejaVuSans-105" d="M86.4,54.7h9V0h-9V54.7z M86.4,76h9V64.6h-9V76z"/>
		</g>
		<g>
			<path id="DejaVuSans-71" d="M164.3,10.4V30h-16.1v8.1h25.9V6.8c-3.8-2.7-8-4.7-12.6-6.1s-9.5-2.1-14.7-2.1
				c-11.4,0-20.3,3.3-26.8,10c-6.4,6.7-9.6,15.9-9.6,27.8s3.2,21.2,9.6,27.9c6.4,6.7,15.4,10,26.8,10c4.8,0,9.3-0.6,13.5-1.8
				c4.3-1.2,8.2-2.9,11.8-5.2V56.8c-3.6,3.1-7.5,5.4-11.6,7c-4.1,1.6-8.4,2.3-12.9,2.3c-8.9,0-15.6-2.5-20.1-7.5
				c-4.5-5-6.7-12.4-6.7-22.3c0-9.8,2.2-17.2,6.7-22.2c4.5-5,11.2-7.5,20.1-7.5c3.5,0,6.6,0.3,9.3,0.9
				C159.7,8.2,162.1,9.1,164.3,10.4z"/>
		</g>
		<g>
			<path id="DejaVuSans-114" d="M223.4,46.3c-1,0.6-2.1,1-3.3,1.3s-2.5,0.4-3.9,0.4c-5.1,0-9-1.7-11.7-5s-4.1-8-4.1-14.2V0h-9v54.7
				h9v-8.5c1.9,3.3,4.4,5.8,7.4,7.4c3,1.6,6.7,2.4,11,2.4c0.6,0,1.3,0,2-0.1c0.8-0.1,1.6-0.2,2.5-0.4L223.4,46.3z"/>
		</g>
		<g>
			<path id="DejaVuSans-97" d="M257.7,27.5c-7.3,0-12.3-0.8-15.1-2.5s-4.2-4.5-4.2-8.5c0-3.2,1.1-5.7,3.2-7.6c2.1-1.9,5-2.8,8.6-2.8
				c5,0,9,1.8,12,5.3s4.5,8.2,4.5,14.1v2H257.7z M275.6,31.2V0h-9v8.3c-2-3.3-4.6-5.8-7.7-7.3s-6.8-2.4-11.2-2.4
				c-5.6,0-10,1.6-13.4,4.7c-3.3,3.1-5,7.4-5,12.6c0,6.1,2.1,10.8,6.2,13.9c4.1,3.1,10.3,4.7,18.4,4.7h12.6v0.9
				c0,4.1-1.4,7.3-4.1,9.6s-6.5,3.4-11.5,3.4c-3.1,0-6.2-0.4-9.1-1.1c-3-0.8-5.8-1.9-8.5-3.4v8.3c3.3,1.3,6.5,2.2,9.6,2.8s6.1,1,9,1
				c7.9,0,13.8-2.1,17.7-6.2C273.6,45.7,275.6,39.5,275.6,31.2z"/>
		</g>
		<g>
			<path id="DejaVuSans-112" d="M302.8,8.2v-29h-9v75.5h9v-8.3c1.9,3.2,4.3,5.7,7.2,7.2c2.9,1.6,6.3,2.4,10.3,2.4
				c6.6,0,12-2.6,16.2-7.9s6.2-12.2,6.2-20.8s-2.1-15.5-6.2-20.8s-9.5-7.9-16.2-7.9c-4,0-7.4,0.8-10.3,2.4
				C307.1,2.5,304.7,5,302.8,8.2z M333.4,27.3c0,6.6-1.4,11.8-4.1,15.5s-6.5,5.6-11.2,5.6c-4.8,0-8.5-1.9-11.2-5.6
				s-4.1-8.9-4.1-15.5s1.4-11.8,4.1-15.5s6.5-5.6,11.2-5.6c4.8,0,8.5,1.9,11.2,5.6S333.4,20.7,333.4,27.3z"/>
		</g>
		<g>
			<path id="DejaVuSans-104" d="M403,33V0h-9v32.7c0,5.2-1,9-3,11.6c-2,2.6-5,3.9-9.1,3.9c-4.9,0-8.7-1.5-11.5-4.6
				s-4.2-7.3-4.2-12.6V0h-9v76h9V46.2c2.2,3.3,4.7,5.8,7.6,7.4c2.9,1.6,6.3,2.4,10.1,2.4c6.3,0,11-1.9,14.2-5.8
				C401.4,46.3,403,40.6,403,33z"/>
		</g>
		<g>
			<path id="DejaVuSans-32" d="M411.5,0"/>
		</g>
		<g>
			<path id="DejaVuSans-72" d="M453.1,72.9h9.9V43h35.8v29.9h9.9V0h-9.9v34.7H463V0h-9.9V72.9z"/>
		</g>
		<g>
			<path id="DejaVuSans-73" d="M528.3,72.9h9.9V0h-9.9V72.9z"/>
		</g>
		<g>
			<path id="DejaVuSans-84" d="M547.7,72.9h61.7v-8.3h-25.9V0h-9.9v64.6h-25.9C547.7,64.6,547.7,72.9,547.7,72.9z"/>
		</g>
		<g>
			<path id="DejaVuSans-83" d="M662.6,70.5v-9.6c-3.7,1.8-7.3,3.1-10.6,4c-3.3,0.9-6.5,1.3-9.6,1.3c-5.4,0-9.5-1-12.4-3.1
				c-2.9-2.1-4.4-5-4.4-8.9c0-3.2,1-5.7,2.9-7.3s5.6-3,11-4l6-1.2c7.4-1.4,12.8-3.9,16.3-7.4S667,26,667,20.1
				c0-7.1-2.4-12.4-7.1-16.1c-4.7-3.6-11.7-5.5-20.8-5.5c-3.4,0-7.1,0.4-11,1.2s-7.9,1.9-12.1,3.5v10.2c4-2.2,7.9-3.9,11.8-5.1
				c3.8-1.1,7.6-1.7,11.3-1.7c5.6,0,10,1.1,13,3.3c3.1,2.2,4.6,5.4,4.6,9.5c0,3.6-1.1,6.4-3.3,8.4s-5.8,3.5-10.8,4.5l-6,1.2
				c-7.4,1.5-12.7,3.8-16,6.9c-3.3,3.1-4.9,7.5-4.9,13c0,6.4,2.3,11.5,6.8,15.2s10.8,5.6,18.8,5.6c3.4,0,6.9-0.3,10.5-0.9
				C655.3,72.7,658.9,71.7,662.6,70.5z"/>
		</g>
		<g>
			<path id="DejaVuSans-32_00000156580222201539976410000012825459818504762010_" d="M672.6,0"/>
		</g>
		<g>
			<path id="DejaVuSans-72_00000051346357496642211240000011917481258232754098_" d="M714.2,72.9h9.9V43h35.8v29.9h9.9V0h-9.9v34.7
				H724V0h-9.9v72.9H714.2z"/>
		</g>
		<g>
			<path id="DejaVuSans-117" d="M788,21.6v33.1h9V21.9c0-5.2,1-9.1,3-11.7s5.1-3.9,9.1-3.9c4.8,0,8.7,1.5,11.5,4.6s4.2,7.3,4.2,12.7
				v31h9V0h-9v8.4c-2.2-3.3-4.7-5.8-7.6-7.4c-2.9-1.6-6.2-2.4-10-2.4c-6.3,0-11.1,2-14.3,5.9C789.7,8.3,788,14.1,788,21.6z"/>
		</g>
		<g>
			<path id="DejaVuSans-98" d="M891.6,27.3c0,6.6-1.4,11.8-4.1,15.5s-6.5,5.6-11.2,5.6c-4.8,0-8.5-1.9-11.2-5.6s-4.1-8.9-4.1-15.5
				s1.4-11.8,4.1-15.5s6.5-5.6,11.2-5.6c4.8,0,8.5,1.9,11.2,5.6S891.6,20.7,891.6,27.3z M861,46.4c1.9,3.2,4.3,5.7,7.2,7.2
				c2.9,1.6,6.3,2.4,10.3,2.4c6.6,0,12-2.6,16.2-7.9s6.2-12.2,6.2-20.8s-2.1-15.5-6.2-20.8c-4.1-5.3-9.5-7.9-16.2-7.9
				c-4,0-7.4,0.8-10.3,2.4c-2.9,1.6-5.3,4-7.2,7.2V0h-9v76h9V46.4z"/>
		</g>
		<g>
			<path id="DejaVuSans-115" d="M950.7,53.1v-8.5c-2.5,1.3-5.2,2.3-7.9,2.9c-2.7,0.7-5.6,1-8.5,1c-4.5,0-7.8-0.7-10-2
				c-2.2-1.4-3.3-3.4-3.3-6.2c0-2.1,0.8-3.7,2.4-4.9s4.8-2.3,9.6-3.4l3.1-0.7c6.4-1.4,10.9-3.3,13.6-5.8s4-6,4-10.4
				c0-5.1-2-9.1-6-12.1s-9.5-4.4-16.6-4.4c-2.9,0-6,0.3-9.2,0.9s-6.5,1.4-10,2.6v9.3c3.3-1.7,6.6-3,9.8-3.9s6.4-1.3,9.6-1.3
				c4.2,0,7.5,0.7,9.8,2.2c2.3,1.4,3.4,3.5,3.4,6.1c0,2.4-0.8,4.3-2.5,5.6c-1.6,1.3-5.2,2.6-10.8,3.8l-3.1,0.7
				c-5.6,1.2-9.6,3-12.1,5.4c-2.5,2.4-3.7,5.8-3.7,10c0,5.1,1.8,9.1,5.5,11.9c3.6,2.8,8.8,4.2,15.5,4.2c3.3,0,6.4-0.2,9.4-0.7
				C945.5,54.8,948.2,54.1,950.7,53.1z"/>
		</g>
	</g>
</g>
</svg>
